<?xml version="1.0" encoding="UTF-8"?>
<svg width="260px" height="110px" viewBox="0 0 260 110" version="1.1" xmlns="http://www.w3.org/2000/svg" xmlns:xlink="http://www.w3.org/1999/xlink">
    <!-- Generator: Sketch 51.3 (57544) - http://www.bohemiancoding.com/sketch -->
    <title>Group 60</title>
    <desc>Created with Sketch.</desc>
    <defs>
        <polygon id="path-1" points="0.7847 0.042 23.7517 0.042 23.7517 25.7256 0.7847 25.7256"></polygon>
        <polygon id="path-3" points="0 110.958 259.735 110.958 259.735 1 0 1"></polygon>
    </defs>
    <g id="Symbols" stroke="none" stroke-width="1" fill="none" fill-rule="evenodd">
        <g id="Group-60" transform="translate(0.000000, -1.000000)">
            <g id="Group-3" transform="translate(84.000000, 0.958000)">
                <mask id="mask-2" fill="white">
                    <use xlink:href="#path-1"></use>
                </mask>
                <g id="Clip-2"></g>
                <path d="M6.1817,23.9966 C4.3717,22.8456 3.0187,21.2956 2.1247,19.3486 C1.2317,17.4016 0.7847,15.2526 0.7847,12.9006 C0.7847,10.5496 1.2277,8.3996 2.1167,6.4546 C3.0037,4.5076 4.3537,2.9526 6.1637,1.7876 C7.9757,0.6236 10.1927,0.0416 12.8147,0.0416 C15.2967,0.0416 17.4837,0.6566 19.3767,1.8846 C21.2707,3.1136 22.7177,4.8876 23.7167,7.2036 L19.5357,8.8616 C19.0887,7.2866 18.2807,6.1336 17.1107,5.4036 C15.9397,4.6756 14.4967,4.3096 12.7797,4.3096 C11.0857,4.3096 9.6747,4.6816 8.5457,5.4216 C7.4167,6.1626 6.5817,7.1656 6.0407,8.4306 C5.5007,9.6936 5.2297,11.1256 5.2297,12.7256 C5.2297,14.4306 5.5007,15.9376 6.0407,17.2506 C6.5817,18.5606 7.4237,19.5926 8.5637,20.3456 C9.7047,21.0986 11.1337,21.4746 12.8497,21.4746 C14.4967,21.4746 15.8697,21.1116 16.9697,20.3906 C18.0687,19.6656 18.9477,18.4876 19.6057,16.8526 L23.7517,18.5466 C22.7757,20.8626 21.3377,22.6386 19.4387,23.8736 C17.5397,25.1076 15.3437,25.7256 12.8497,25.7256 C10.2157,25.7256 7.9937,25.1486 6.1817,23.9966" id="Fill-1" fill="#FFFFFF" mask="url(#mask-2)"></path>
            </g>
            <path d="M124.5259,17.0874 L121.1739,7.9844 L117.8049,17.0874 L124.5259,17.0874 Z M119.4809,1.4054 L122.8329,1.4054 L132.7639,26.3304 L127.9299,26.3304 L125.9369,20.9154 L116.3939,20.9154 L114.3829,26.3304 L109.4969,26.3304 L119.4809,1.4054 Z" id="Fill-4" fill="#FFFFFF"></path>
            <path d="M140.626,25.7837 C139.268,25.2317 138.121,24.4057 137.186,23.3047 C136.251,22.2057 135.654,20.8677 135.395,19.2927 L139.84,18.1637 C139.994,19.6447 140.543,20.7627 141.49,21.5147 C142.436,22.2677 143.61,22.6437 145.009,22.6437 C145.868,22.6437 146.608,22.5057 147.231,22.2297 C147.855,21.9537 148.325,21.5737 148.643,21.0917 C148.96,20.6097 149.119,20.0687 149.119,19.4697 C149.119,18.7517 148.899,18.1397 148.458,17.6347 C148.017,17.1287 147.467,16.7117 146.808,16.3817 C146.15,16.0527 145.245,15.6587 144.091,15.1997 C142.586,14.5997 141.369,14.0457 140.44,13.5327 C139.512,13.0217 138.714,12.3067 138.05,11.3897 C137.385,10.4717 137.053,9.3137 137.053,7.9147 C137.053,6.4907 137.403,5.2607 138.103,4.2187 C138.802,3.1797 139.744,2.3877 140.926,1.8467 C142.107,1.3047 143.41,1.0347 144.832,1.0347 C146.432,1.0347 147.891,1.3957 149.207,2.1207 C150.524,2.8427 151.595,3.9397 152.418,5.4097 L148.695,7.6847 C148.261,6.8387 147.69,6.1827 146.984,5.7197 C146.279,5.2537 145.509,5.0217 144.673,5.0217 C144.086,5.0217 143.554,5.1337 143.078,5.3567 C142.602,5.5807 142.224,5.8947 141.949,6.3007 C141.672,6.7067 141.534,7.1687 141.534,7.6847 C141.534,8.3197 141.74,8.8617 142.151,9.3077 C142.563,9.7547 143.083,10.1317 143.713,10.4367 C144.341,10.7427 145.203,11.1077 146.296,11.5307 C147.849,12.1307 149.108,12.6947 150.071,13.2237 C151.036,13.7537 151.865,14.4947 152.559,15.4467 C153.253,16.3997 153.6,17.6037 153.6,19.0627 C153.6,20.5927 153.214,21.9267 152.445,23.0677 C151.674,24.2087 150.63,25.0837 149.313,25.6957 C147.997,26.3077 146.538,26.6127 144.938,26.6127 C143.421,26.6127 141.984,26.3367 140.626,25.7837" id="Fill-6" fill="#FFFFFF"></path>
            <polygon id="Fill-8" fill="#FFFFFF" points="159.6026 1.4058 176.1846 1.4058 176.1846 5.5148 164.0826 5.5148 164.0826 11.8128 175.3546 11.8128 175.3546 15.9238 164.0826 15.9238 164.0826 22.0968 176.1846 22.0968 176.1846 26.3308 159.6026 26.3308"></polygon>
            <polygon id="Fill-10" fill="#FFFFFF" points="183.335 1.4058 187.816 1.4058 187.816 22.0968 198.47 22.0968 198.47 26.3308 183.335 26.3308"></polygon>
            <path d="M216.1758,17.0874 L212.8238,7.9844 L209.4548,17.0874 L216.1758,17.0874 Z M211.1308,1.4054 L214.4828,1.4054 L224.4138,26.3304 L219.5798,26.3304 L217.5868,20.9154 L208.0438,20.9154 L206.0328,26.3304 L201.1468,26.3304 L211.1308,1.4054 Z" id="Fill-12" fill="#FFFFFF"></path>
            <polygon id="Fill-14" fill="#FFFFFF" points="225.2832 1.4058 229.9402 1.4058 235.2502 19.7518 240.7712 2.8518 244.2462 2.8518 249.7682 19.7518 255.0772 1.4058 259.7342 1.4058 252.2552 26.3308 247.9332 26.3308 242.5002 9.9258 237.0842 26.3308 232.7622 26.3308"></polygon>
            <path d="M98.5786,50.2143 L95.2266,41.1113 L91.8576,50.2143 L98.5786,50.2143 Z M93.5336,34.5323 L96.8856,34.5323 L106.8166,59.4573 L101.9826,59.4573 L99.9896,54.0423 L90.4466,54.0423 L88.4356,59.4573 L83.5496,59.4573 L93.5336,34.5323 Z" id="Fill-16" fill="#FFFFFF"></path>
            <path d="M114.3784,58.0815 C112.5674,56.9305 111.2144,55.3805 110.3214,53.4335 C109.4274,51.4865 108.9814,49.3375 108.9814,46.9855 C108.9814,44.6345 109.4244,42.4845 110.3124,40.5395 C111.2004,38.5925 112.5494,37.0375 114.3604,35.8725 C116.1714,34.7085 118.3884,34.1265 121.0114,34.1265 C123.4914,34.1265 125.6794,34.7415 127.5734,35.9695 C129.4664,37.1985 130.9134,38.9725 131.9134,41.2885 L127.7324,42.9465 C127.2844,41.3715 126.4774,40.2185 125.3064,39.4885 C124.1364,38.7605 122.6924,38.3945 120.9764,38.3945 C119.2824,38.3945 117.8714,38.7665 116.7424,39.5065 C115.6134,40.2475 114.7774,41.2505 114.2374,42.5155 C113.6964,43.7785 113.4264,45.2105 113.4264,46.8105 C113.4264,48.5155 113.6964,50.0225 114.2374,51.3355 C114.7774,52.6455 115.6184,53.6775 116.7604,54.4305 C117.8994,55.1835 119.3284,55.5595 121.0464,55.5595 C122.6924,55.5595 124.0664,55.1965 125.1654,54.4755 C126.2654,53.7505 127.1434,52.5725 127.8024,50.9375 L131.9484,52.6315 C130.9714,54.9475 129.5344,56.7235 127.6344,57.9585 C125.7364,59.1925 123.5394,59.8105 121.0464,59.8105 C118.4114,59.8105 116.1894,59.2335 114.3784,58.0815" id="Fill-18" fill="#FFFFFF"></path>
            <path d="M141.1563,58.0815 C139.3463,56.9305 137.9933,55.3805 137.0993,53.4335 C136.2063,51.4865 135.7583,49.3375 135.7583,46.9855 C135.7583,44.6345 136.2023,42.4845 137.0913,40.5395 C137.9783,38.5925 139.3283,37.0375 141.1383,35.8725 C142.9503,34.7085 145.1673,34.1265 147.7893,34.1265 C150.2713,34.1265 152.4583,34.7415 154.3513,35.9695 C156.2453,37.1985 157.6923,38.9725 158.6903,41.2885 L154.5103,42.9465 C154.0633,41.3715 153.2553,40.2185 152.0853,39.4885 C150.9143,38.7605 149.4713,38.3945 147.7543,38.3945 C146.0603,38.3945 144.6493,38.7665 143.5203,39.5065 C142.3913,40.2475 141.5563,41.2505 141.0153,42.5155 C140.4753,43.7785 140.2033,45.2105 140.2033,46.8105 C140.2033,48.5155 140.4753,50.0225 141.0153,51.3355 C141.5563,52.6455 142.3983,53.6775 143.5373,54.4305 C144.6783,55.1835 146.1083,55.5595 147.8243,55.5595 C149.4713,55.5595 150.8433,55.1965 151.9443,54.4755 C153.0433,53.7505 153.9223,52.5725 154.5803,50.9375 L158.7263,52.6315 C157.7503,54.9475 156.3123,56.7235 154.4133,57.9585 C152.5133,59.1925 150.3183,59.8105 147.8243,59.8105 C145.1903,59.8105 142.9683,59.2335 141.1563,58.0815" id="Fill-20" fill="#FFFFFF"></path>
            <polygon id="Fill-22" fill="#FFFFFF" points="164.5537 34.5327 181.1357 34.5327 181.1357 38.6417 169.0347 38.6417 169.0347 44.9397 180.3067 44.9397 180.3067 49.0507 169.0347 49.0507 169.0347 55.2237 181.1357 55.2237 181.1357 59.4577 164.5537 59.4577"></polygon>
            <path d="M191.063,58.9106 C189.705,58.3586 188.558,57.5326 187.623,56.4316 C186.688,55.3326 186.091,53.9946 185.834,52.4196 L190.279,51.2906 C190.431,52.7716 190.981,53.8896 191.927,54.6416 C192.875,55.3946 194.047,55.7706 195.447,55.7706 C196.305,55.7706 197.045,55.6326 197.67,55.3566 C198.292,55.0806 198.764,54.7006 199.081,54.2186 C199.398,53.7366 199.557,53.1956 199.557,52.5966 C199.557,51.8786 199.336,51.2666 198.895,50.7616 C198.454,50.2556 197.905,49.8386 197.247,49.5086 C196.587,49.1796 195.682,48.7856 194.53,48.3266 C193.024,47.7266 191.807,47.1726 190.878,46.6596 C189.949,46.1486 189.152,45.4336 188.487,44.5166 C187.824,43.5986 187.492,42.4406 187.492,41.0416 C187.492,39.6176 187.842,38.3876 188.541,37.3456 C189.241,36.3066 190.181,35.5146 191.363,34.9736 C192.545,34.4316 193.847,34.1616 195.271,34.1616 C196.869,34.1616 198.328,34.5226 199.646,35.2476 C200.962,35.9696 202.032,37.0666 202.856,38.5366 L199.134,40.8116 C198.698,39.9656 198.128,39.3096 197.423,38.8466 C196.717,38.3806 195.946,38.1486 195.112,38.1486 C194.523,38.1486 193.991,38.2606 193.515,38.4836 C193.039,38.7076 192.663,39.0216 192.386,39.4276 C192.11,39.8336 191.972,40.2956 191.972,40.8116 C191.972,41.4466 192.177,41.9886 192.589,42.4346 C193,42.8816 193.521,43.2586 194.15,43.5636 C194.78,43.8696 195.641,44.2336 196.735,44.6576 C198.287,45.2576 199.545,45.8216 200.51,46.3506 C201.473,46.8806 202.302,47.6216 202.997,48.5736 C203.69,49.5266 204.038,50.7306 204.038,52.1896 C204.038,53.7196 203.652,55.0536 202.882,56.1946 C202.112,57.3356 201.067,58.2106 199.751,58.8226 C198.434,59.4346 196.975,59.7396 195.376,59.7396 C193.859,59.7396 192.421,59.4636 191.063,58.9106" id="Fill-24" fill="#FFFFFF"></path>
            <path d="M212.8906,58.9106 C211.5326,58.3586 210.3856,57.5326 209.4506,56.4316 C208.5156,55.3326 207.9186,53.9946 207.6596,52.4196 L212.1046,51.2906 C212.2586,52.7716 212.8076,53.8896 213.7546,54.6416 C214.7006,55.3946 215.8746,55.7706 217.2736,55.7706 C218.1326,55.7706 218.8726,55.6326 219.4956,55.3566 C220.1196,55.0806 220.5896,54.7006 220.9076,54.2186 C221.2246,53.7366 221.3836,53.1956 221.3836,52.5966 C221.3836,51.8786 221.1636,51.2666 220.7226,50.7616 C220.2816,50.2556 219.7316,49.8386 219.0726,49.5086 C218.4146,49.1796 217.5096,48.7856 216.3556,48.3266 C214.8506,47.7266 213.6346,47.1726 212.7046,46.6596 C211.7766,46.1486 210.9786,45.4336 210.3146,44.5166 C209.6506,43.5986 209.3176,42.4406 209.3176,41.0416 C209.3176,39.6176 209.6676,38.3876 210.3686,37.3456 C211.0666,36.3066 212.0086,35.5146 213.1906,34.9736 C214.3716,34.4316 215.6746,34.1616 217.0976,34.1616 C218.6966,34.1616 220.1556,34.5226 221.4716,35.2476 C222.7896,35.9696 223.8596,37.0666 224.6826,38.5366 L220.9596,40.8116 C220.5256,39.9656 219.9546,39.3096 219.2486,38.8466 C218.5436,38.3806 217.7736,38.1486 216.9386,38.1486 C216.3506,38.1486 215.8186,38.2606 215.3426,38.4836 C214.8666,38.7076 214.4886,39.0216 214.2136,39.4276 C213.9366,39.8336 213.7986,40.2956 213.7986,40.8116 C213.7986,41.4466 214.0046,41.9886 214.4156,42.4346 C214.8276,42.8816 215.3486,43.2586 215.9776,43.5636 C216.6056,43.8696 217.4676,44.2336 218.5606,44.6576 C220.1136,45.2576 221.3726,45.8216 222.3356,46.3506 C223.3006,46.8806 224.1296,47.6216 224.8236,48.5736 C225.5176,49.5266 225.8646,50.7306 225.8646,52.1896 C225.8646,53.7196 225.4786,55.0536 224.7096,56.1946 C223.9386,57.3356 222.8946,58.2106 221.5776,58.8226 C220.2616,59.4346 218.8026,59.7396 217.2026,59.7396 C215.6856,59.7396 214.2486,59.4636 212.8906,58.9106" id="Fill-26" fill="#FFFFFF"></path>
            <path d="M94.3628,78.0669 C95.8688,78.0669 96.9708,77.8149 97.6708,77.3079 C98.3698,76.8019 98.7198,76.0439 98.7198,75.0329 C98.7198,72.9039 97.2678,71.8399 94.3628,71.8399 L90.9928,71.8399 L90.9928,78.0669 L94.3628,78.0669 Z M86.5478,67.6599 L94.3628,67.6599 C96.0688,67.6599 97.5858,67.9509 98.9138,68.5319 C100.2438,69.1159 101.2838,69.9629 102.0358,71.0719 C102.7888,72.1849 103.1648,73.5039 103.1648,75.0329 C103.1648,76.5499 102.7888,77.8499 102.0358,78.9309 C101.2838,80.0129 100.2438,80.8369 98.9138,81.4009 C97.5858,81.9649 96.0688,82.2479 94.3628,82.2479 L90.9928,82.2479 L90.9928,92.5849 L86.5478,92.5849 L86.5478,67.6599 Z" id="Fill-28" fill="#FFFFFF"></path>
            <path d="M117.6963,78.2788 C118.8853,78.2308 119.8133,77.9208 120.4833,77.3428 C121.1543,76.7668 121.4883,76.0078 121.4883,75.0678 C121.4883,74.0328 121.1133,73.2078 120.3603,72.5898 C119.6083,71.9728 118.5963,71.6638 117.3253,71.6638 L113.7453,71.6638 L113.7453,78.2788 L117.6963,78.2788 Z M109.2293,67.6598 L117.2903,67.6598 C118.8673,67.6598 120.3093,67.9508 121.6223,68.5318 C122.9323,69.1158 123.9763,69.9628 124.7523,71.0718 C125.5283,72.1848 125.9163,73.4928 125.9163,74.9978 C125.9163,76.0208 125.7123,76.9638 125.2993,77.8298 C124.8883,78.6928 124.3143,79.4368 123.5803,80.0598 C122.8443,80.6828 122.0003,81.1598 121.0483,81.4888 L127.9803,92.5848 L122.8473,92.5848 L116.7083,81.9298 L115.2623,81.9298 L113.7093,81.9298 L113.7093,92.5848 L109.2293,92.5848 L109.2293,67.6598 Z" id="Fill-30" fill="#FFFFFF"></path>
            <path d="M147.6426,87.7788 C148.7306,86.9828 149.5216,85.9228 150.0156,84.5938 C150.5096,83.2648 150.7566,81.7708 150.7566,80.1128 C150.7566,78.4548 150.5096,76.9638 150.0156,75.6418 C149.5216,74.3178 148.7306,73.2588 147.6426,72.4668 C146.5556,71.6718 145.1576,71.2758 143.4536,71.2758 C141.7476,71.2758 140.3516,71.6718 139.2636,72.4668 C138.1766,73.2588 137.3856,74.3178 136.8916,75.6418 C136.3976,76.9638 136.1506,78.4548 136.1506,80.1128 C136.1506,81.7708 136.3976,83.2648 136.8916,84.5938 C137.3856,85.9228 138.1766,86.9828 139.2636,87.7788 C140.3516,88.5708 141.7476,88.9678 143.4536,88.9678 C145.1576,88.9678 146.5556,88.5708 147.6426,87.7788 M136.7936,91.2008 C134.9896,90.0418 133.6426,88.4928 132.7546,86.5518 C131.8666,84.6118 131.4226,82.4648 131.4226,80.1128 C131.4226,77.7608 131.8666,75.6148 132.7546,73.6748 C133.6426,71.7338 134.9896,70.1838 136.7936,69.0258 C138.6006,67.8688 140.8186,67.2888 143.4536,67.2888 C146.0876,67.2888 148.3076,67.8688 150.1126,69.0258 C151.9176,70.1838 153.2646,71.7338 154.1516,73.6748 C155.0406,75.6148 155.4846,77.7608 155.4846,80.1128 C155.4846,82.4648 155.0406,84.6118 154.1516,86.5518 C153.2646,88.4928 151.9176,90.0418 150.1126,91.2008 C148.3076,92.3578 146.0876,92.9378 143.4536,92.9378 C140.8186,92.9378 138.6006,92.3578 136.7936,91.2008" id="Fill-32" fill="#FFFFFF"></path>
            <path d="M163.3125,91.852 C162.0845,91.13 161.1195,90.151 160.4195,88.915 C159.7205,87.681 159.3175,86.317 159.2115,84.823 L163.6215,84.311 C163.7155,85.64 164.0915,86.72 164.7505,87.547 C165.4085,88.378 166.3665,88.792 167.6255,88.792 C168.6725,88.792 169.4805,88.595 170.0505,88.202 C170.6225,87.807 171.0155,87.243 171.2325,86.508 C171.4515,85.773 171.5595,84.823 171.5595,83.659 L171.5595,71.769 L162.1755,71.769 L162.1755,67.66 L176.0405,67.66 L176.0405,83.588 C176.0405,86.434 175.3605,88.704 174.0025,90.397 C172.6445,92.09 170.5195,92.938 167.6255,92.938 C165.9785,92.938 164.5415,92.577 163.3125,91.852" id="Fill-34" fill="#FFFFFF"></path>
            <polygon id="Fill-36" fill="#FFFFFF" points="183.7368 67.6597 200.3188 67.6597 200.3188 71.7687 188.2168 71.7687 188.2168 78.0667 199.4888 78.0667 199.4888 82.1777 188.2168 82.1777 188.2168 88.3507 200.3188 88.3507 200.3188 92.5847 183.7368 92.5847"></polygon>
            <path d="M210.9951,91.2085 C209.1841,90.0575 207.8321,88.5075 206.9371,86.5605 C206.0451,84.6135 205.5971,82.4645 205.5971,80.1125 C205.5971,77.7615 206.0401,75.6115 206.9301,73.6665 C207.8171,71.7195 209.1671,70.1645 210.9771,68.9995 C212.7881,67.8355 215.0061,67.2535 217.6271,67.2535 C220.1091,67.2535 222.2971,67.8685 224.1891,69.0965 C226.0841,70.3255 227.5301,72.0995 228.5291,74.4155 L224.3491,76.0735 C223.9021,74.4985 223.0931,73.3455 221.9241,72.6155 C220.7521,71.8875 219.3101,71.5215 217.5921,71.5215 C215.8991,71.5215 214.4881,71.8935 213.3591,72.6335 C212.2291,73.3745 211.3951,74.3775 210.8541,75.6425 C210.3131,76.9055 210.0421,78.3375 210.0421,79.9375 C210.0421,81.6425 210.3131,83.1495 210.8541,84.4625 C211.3951,85.7725 212.2361,86.8045 213.3761,87.5575 C214.5171,88.3105 215.9461,88.6865 217.6631,88.6865 C219.3101,88.6865 220.6821,88.3235 221.7831,87.6025 C222.8821,86.8775 223.7611,85.6995 224.4191,84.0645 L228.5641,85.7585 C227.5891,88.0745 226.1501,89.8505 224.2521,91.0855 C222.3521,92.3195 220.1571,92.9375 217.6631,92.9375 C215.0291,92.9375 212.8061,92.3605 210.9951,91.2085" id="Fill-38" fill="#FFFFFF"></path>
            <polygon id="Fill-40" fill="#FFFFFF" points="239.0601 71.6636 231.2461 71.6636 231.2461 67.6596 251.3381 67.6596 251.3381 71.6636 243.5411 71.6636 243.5411 92.5846 239.0601 92.5846"></polygon>
            <mask id="mask-4" fill="white">
                <use xlink:href="#path-3"></use>
            </mask>
            <g id="Clip-43"></g>
            <path d="M7.335,103.735 L69.632,103.735 L69.632,97.19 L7.335,97.19 L7.335,103.735 Z M7.335,48.097 L13.994,48.097 L13.994,8.71 L7.335,8.71 L7.335,48.097 Z M21.217,48.097 L27.876,48.097 L27.876,8.71 L21.217,8.71 L21.217,48.097 Z M35.098,48.097 L41.757,48.097 L41.757,8.71 L35.098,8.71 L35.098,48.097 Z M49.092,48.097 L55.751,48.097 L55.751,8.71 L49.092,8.71 L49.092,48.097 Z M49.092,61.978 L69.632,61.978 L69.632,55.433 L49.092,55.433 L49.092,61.978 Z M35.211,75.86 L69.632,75.86 L69.632,69.314 L35.211,69.314 L35.211,75.86 Z M21.217,89.741 L69.633,89.741 L69.633,83.196 L21.217,83.196 L21.217,89.741 Z M7.335,89.741 L13.994,89.741 L13.994,83.196 L7.335,83.196 L7.335,89.741 Z M7.335,75.86 L13.994,75.86 L13.994,69.314 L7.335,69.314 L7.335,75.86 Z M7.335,61.978 L13.994,61.978 L13.994,55.433 L7.335,55.433 L7.335,61.978 Z M21.217,75.86 L27.876,75.86 L27.876,69.314 L21.217,69.314 L21.217,75.86 Z M21.217,61.978 L27.876,61.978 L27.876,55.433 L21.217,55.433 L21.217,61.978 Z M35.211,61.978 L41.87,61.978 L41.87,55.433 L35.211,55.433 L35.211,61.978 Z M62.973,48.097 L69.632,48.097 L69.632,8.71 L62.973,8.71 L62.973,48.097 Z M0,1.375 L0,110.958 L0.451,110.958 L76.855,110.958 L76.855,1.375 L0,1.375 Z" id="Fill-42" fill="#0099FF" mask="url(#mask-4)"></path>
            <polygon id="Fill-44" fill="#FFFFFF" mask="url(#mask-4)" points="86.5445 100.9087 88.0135 100.9087 88.0135 105.0497 92.5235 105.0497 92.5235 100.9087 93.9925 100.9087 93.9925 110.5637 92.5235 110.5637 92.5235 106.4027 88.0135 106.4027 88.0135 110.5637 86.5445 110.5637"></polygon>
            <path d="M102.1773,107.1265 L100.7013,103.0475 L99.2183,107.1265 L102.1773,107.1265 Z M100.1273,100.9085 L101.2553,100.9085 L105.0123,110.5645 L103.4273,110.5645 L102.6413,108.3915 L98.7603,108.3915 L97.9613,110.5645 L96.3553,110.5645 L100.1273,100.9085 Z" id="Fill-45" fill="#FFFFFF" mask="url(#mask-4)"></path>
            <path d="M109.9805,105.1587 C110.5225,105.1407 110.9435,105.0057 111.2445,104.7527 C111.5455,104.4997 111.6955,104.1567 111.6955,103.7237 C111.6955,103.2637 111.5315,102.8997 111.2035,102.6307 C110.8755,102.3617 110.4295,102.2277 109.8645,102.2277 L108.3545,102.2277 L108.3545,105.1587 L109.9805,105.1587 Z M106.8715,100.9087 L109.8505,100.9087 C110.4655,100.9087 111.0235,101.0187 111.5245,101.2397 C112.0255,101.4617 112.4225,101.7827 112.7135,102.2037 C113.0055,102.6257 113.1505,103.1227 113.1505,103.6967 C113.1505,104.3067 112.9745,104.8337 112.6215,105.2747 C112.2685,105.7177 111.7985,106.0267 111.2105,106.2047 L113.8965,110.5637 L112.2145,110.5637 L109.7895,106.3547 L109.2015,106.3617 L108.3405,106.3617 L108.3405,110.5637 L106.8715,110.5637 L106.8715,100.9087 Z" id="Fill-46" fill="#FFFFFF" mask="url(#mask-4)"></path>
            <polygon id="Fill-47" fill="#FFFFFF" mask="url(#mask-4)" points="123.4966 100.9087 119.6566 110.5637 118.5366 110.5637 114.6826 100.9087 116.3086 100.9087 119.1026 108.2067 121.8846 100.9087"></polygon>
            <path d="M129.5816,107.1265 L128.1056,103.0475 L126.6226,107.1265 L129.5816,107.1265 Z M127.5316,100.9085 L128.6596,100.9085 L132.4166,110.5645 L130.8316,110.5645 L130.0456,108.3915 L126.1656,108.3915 L125.3656,110.5645 L123.7596,110.5645 L127.5316,100.9085 Z" id="Fill-48" fill="#FFFFFF" mask="url(#mask-4)"></path>
            <path d="M137.6089,105.1587 C138.1509,105.1407 138.5719,105.0057 138.8729,104.7527 C139.1739,104.4997 139.3239,104.1567 139.3239,103.7237 C139.3239,103.2637 139.1599,102.8997 138.8319,102.6307 C138.5039,102.3617 138.0579,102.2277 137.4929,102.2277 L135.9829,102.2277 L135.9829,105.1587 L137.6089,105.1587 Z M134.4999,100.9087 L137.4789,100.9087 C138.0939,100.9087 138.6519,101.0187 139.1529,101.2397 C139.6539,101.4617 140.0509,101.7827 140.3419,102.2037 C140.6339,102.6257 140.7789,103.1227 140.7789,103.6967 C140.7789,104.3067 140.6029,104.8337 140.2499,105.2747 C139.8969,105.7177 139.4269,106.0267 138.8389,106.2047 L141.5249,110.5637 L139.8429,110.5637 L137.4179,106.3547 L136.8299,106.3617 L135.9689,106.3617 L135.9689,110.5637 L134.4999,110.5637 L134.4999,100.9087 Z" id="Fill-49" fill="#FFFFFF" mask="url(#mask-4)"></path>
            <path d="M146.7915,109.2114 C147.9805,109.2114 148.8905,108.9354 149.5205,108.3844 C150.1515,107.8334 150.4675,106.9534 150.4675,105.7464 C150.4675,104.9314 150.3445,104.2684 150.0985,103.7584 C149.8525,103.2484 149.4695,102.8714 148.9505,102.6274 C148.4315,102.3834 147.7545,102.2624 146.9215,102.2624 L145.6775,102.2624 L145.6775,109.2114 L146.7915,109.2114 Z M144.2085,100.9084 L146.9415,100.9084 C148.0215,100.9084 148.9335,101.0994 149.6785,101.4794 C150.4235,101.8594 150.9855,102.4154 151.3665,103.1474 C151.7465,103.8774 151.9365,104.7654 151.9365,105.8084 C151.9365,106.8104 151.7435,107.6664 151.3555,108.3774 C150.9685,109.0884 150.4005,109.6304 149.6505,110.0034 C148.9015,110.3774 147.9945,110.5644 146.9285,110.5644 L144.2085,110.5644 L144.2085,100.9084 Z" id="Fill-50" fill="#FFFFFF" mask="url(#mask-4)"></path>
            <polygon id="Fill-51" fill="#FFFFFF" mask="url(#mask-4)" points="159.2578 100.9087 160.7268 100.9087 160.7268 109.1777 164.9498 109.1777 164.9498 110.5637 159.2578 110.5637"></polygon>
            <path d="M172.5938,107.1265 L171.1178,103.0475 L169.6348,107.1265 L172.5938,107.1265 Z M170.5438,100.9085 L171.6718,100.9085 L175.4288,110.5645 L173.8438,110.5645 L173.0578,108.3915 L169.1768,108.3915 L168.3778,110.5645 L166.7718,110.5645 L170.5438,100.9085 Z" id="Fill-52" fill="#FFFFFF" mask="url(#mask-4)"></path>
            <polygon id="Fill-53" fill="#FFFFFF" mask="url(#mask-4)" points="175.3892 100.9087 176.9192 100.9087 179.0722 108.4187 181.3342 101.4557 182.4892 101.4557 184.7502 108.4187 186.9102 100.9087 188.4332 100.9087 185.5772 110.5637 184.1422 110.5637 181.9142 103.7717 179.6802 110.5637 178.2452 110.5637"></polygon>
            <path d="M195.8545,110.3491 C195.3465,110.1371 194.9185,109.8231 194.5695,109.4061 C194.2215,108.9891 193.9995,108.4851 193.9035,107.8921 L195.3585,107.5231 C195.4325,108.1241 195.6635,108.5811 196.0525,108.8931 C196.4415,109.2051 196.9285,109.3621 197.5115,109.3621 C197.8755,109.3621 198.1935,109.2981 198.4645,109.1731 C198.7355,109.0481 198.9415,108.8771 199.0835,108.6611 C199.2245,108.4451 199.2945,108.2021 199.2945,107.9331 C199.2945,107.6231 199.2035,107.3611 199.0215,107.1441 C198.8395,106.9271 198.6115,106.7481 198.3385,106.6081 C198.0645,106.4661 197.6935,106.3051 197.2245,106.1221 C196.6415,105.8951 196.1725,105.6831 195.8165,105.4871 C195.4615,105.2911 195.1575,105.0211 194.9045,104.6771 C194.6515,104.3331 194.5255,103.9001 194.5255,103.3751 C194.5255,102.8471 194.6555,102.3861 194.9155,101.9921 C195.1745,101.5981 195.5265,101.2971 195.9705,101.0901 C196.4145,100.8821 196.9035,100.7791 197.4365,100.7791 C198.0515,100.7791 198.6045,100.9141 199.0965,101.1861 C199.5885,101.4561 199.9915,101.8701 200.3065,102.4251 L199.0895,103.1771 C198.9035,102.8221 198.6645,102.5511 198.3725,102.3651 C198.0815,102.1771 197.7525,102.0841 197.3885,102.0841 C197.1285,102.0841 196.8925,102.1361 196.6775,102.2421 C196.4635,102.3461 196.2965,102.4911 196.1755,102.6751 C196.0545,102.8601 195.9945,103.0681 195.9945,103.3001 C195.9945,103.5741 196.0805,103.8061 196.2505,103.9971 C196.4215,104.1891 196.6355,104.3481 196.8935,104.4761 C197.1505,104.6031 197.5045,104.7531 197.9555,104.9261 C198.5575,105.1631 199.0425,105.3821 199.4145,105.5821 C199.7855,105.7831 200.1035,106.0641 200.3675,106.4261 C200.6315,106.7881 200.7645,107.2471 200.7645,107.8031 C200.7645,108.3771 200.6195,108.8801 200.3305,109.3141 C200.0415,109.7461 199.6455,110.0791 199.1445,110.3151 C198.6435,110.5491 198.0895,110.6661 197.4845,110.6661 C196.9055,110.6661 196.3625,110.5611 195.8545,110.3491" id="Fill-54" fill="#FFFFFF" mask="url(#mask-4)"></path>
            <path d="M204.6533,110.0347 C203.9653,109.5957 203.4503,109.0007 203.1093,108.2507 C202.7673,107.5017 202.5963,106.6627 202.5963,105.7327 C202.5963,104.7997 202.7673,103.9577 203.1093,103.2087 C203.4503,102.4587 203.9653,101.8647 204.6533,101.4247 C205.3403,100.9847 206.1833,100.7647 207.1813,100.7647 C208.1423,100.7647 208.9763,100.9977 209.6823,101.4627 C210.3883,101.9277 210.9303,102.6007 211.3083,103.4847 L209.9283,104.0317 C209.5503,102.7877 208.6303,102.1667 207.1673,102.1667 C206.4753,102.1667 205.8973,102.3167 205.4323,102.6167 C204.9673,102.9177 204.6213,103.3317 204.3933,103.8567 C204.1653,104.3837 204.0513,104.9877 204.0513,105.6717 C204.0513,106.3777 204.1623,107.0017 204.3833,107.5437 C204.6043,108.0857 204.9463,108.5137 205.4113,108.8247 C205.8763,109.1377 206.4613,109.2937 207.1673,109.2937 C207.8513,109.2937 208.4193,109.1427 208.8723,108.8427 C209.3253,108.5417 209.6873,108.0607 209.9553,107.3997 L211.3223,107.9607 C210.9393,108.8447 210.3903,109.5207 209.6753,109.9897 C208.9603,110.4597 208.1243,110.6937 207.1673,110.6937 C206.1793,110.6937 205.3403,110.4737 204.6533,110.0347" id="Fill-55" fill="#FFFFFF" mask="url(#mask-4)"></path>
            <polygon id="Fill-56" fill="#FFFFFF" mask="url(#mask-4)" points="213.9321 100.9087 215.4011 100.9087 215.4011 105.0497 219.9111 105.0497 219.9111 100.9087 221.3801 100.9087 221.3801 110.5637 219.9111 110.5637 219.9111 106.4027 215.4011 106.4027 215.4011 110.5637 213.9321 110.5637"></polygon>
            <path d="M230.5947,108.897 C231.0477,108.569 231.3797,108.13 231.5887,107.582 C231.7987,107.033 231.9037,106.417 231.9037,105.733 C231.9037,105.049 231.7987,104.434 231.5887,103.884 C231.3797,103.335 231.0477,102.898 230.5947,102.573 C230.1417,102.247 229.5667,102.085 228.8687,102.085 C228.1727,102.085 227.5967,102.247 227.1437,102.573 C226.6907,102.898 226.3597,103.335 226.1497,103.884 C225.9407,104.434 225.8357,105.049 225.8357,105.733 C225.8357,106.417 225.9407,107.033 226.1497,107.582 C226.3597,108.13 226.6907,108.569 227.1437,108.897 C227.5967,109.225 228.1727,109.389 228.8687,109.389 C229.5667,109.389 230.1417,109.225 230.5947,108.897 M226.3347,110.021 C225.6467,109.572 225.1327,108.972 224.7937,108.22 C224.4537,107.468 224.2837,106.639 224.2837,105.733 C224.2837,104.827 224.4537,103.999 224.7937,103.25 C225.1327,102.5 225.6467,101.901 226.3347,101.452 C227.0217,101.003 227.8667,100.779 228.8687,100.779 C229.8717,100.779 230.7167,101.003 231.4047,101.452 C232.0927,101.901 232.6057,102.5 232.9457,103.25 C233.2847,103.999 233.4547,104.827 233.4547,105.733 C233.4547,106.639 233.2847,107.468 232.9457,108.22 C232.6057,108.972 232.0927,109.572 231.4047,110.021 C230.7167,110.469 229.8717,110.694 228.8687,110.694 C227.8667,110.694 227.0217,110.469 226.3347,110.021" id="Fill-57" fill="#FFFFFF" mask="url(#mask-4)"></path>
            <path d="M242.0835,108.897 C242.5365,108.569 242.8685,108.13 243.0775,107.582 C243.2875,107.033 243.3925,106.417 243.3925,105.733 C243.3925,105.049 243.2875,104.434 243.0775,103.884 C242.8685,103.335 242.5365,102.898 242.0835,102.573 C241.6305,102.247 241.0555,102.085 240.3575,102.085 C239.6615,102.085 239.0855,102.247 238.6325,102.573 C238.1795,102.898 237.8485,103.335 237.6385,103.884 C237.4295,104.434 237.3245,105.049 237.3245,105.733 C237.3245,106.417 237.4295,107.033 237.6385,107.582 C237.8485,108.13 238.1795,108.569 238.6325,108.897 C239.0855,109.225 239.6615,109.389 240.3575,109.389 C241.0555,109.389 241.6305,109.225 242.0835,108.897 M237.8235,110.021 C237.1355,109.572 236.6215,108.972 236.2825,108.22 C235.9425,107.468 235.7725,106.639 235.7725,105.733 C235.7725,104.827 235.9425,103.999 236.2825,103.25 C236.6215,102.5 237.1355,101.901 237.8235,101.452 C238.5105,101.003 239.3555,100.779 240.3575,100.779 C241.3605,100.779 242.2055,101.003 242.8935,101.452 C243.5815,101.901 244.0945,102.5 244.4345,103.25 C244.7735,103.999 244.9435,104.827 244.9435,105.733 C244.9435,106.639 244.7735,107.468 244.4345,108.22 C244.0945,108.972 243.5815,109.572 242.8935,110.021 C242.2055,110.469 241.3605,110.694 240.3575,110.694 C239.3555,110.694 238.5105,110.469 237.8235,110.021" id="Fill-58" fill="#FFFFFF" mask="url(#mask-4)"></path>
            <polygon id="Fill-59" fill="#FFFFFF" mask="url(#mask-4)" points="247.8057 100.9087 249.2747 100.9087 249.2747 109.1777 253.4977 109.1777 253.4977 110.5637 247.8057 110.5637"></polygon>
        </g>
    </g>
</svg>