<?xml version="1.0" encoding="UTF-8"?>
<svg width="477px" height="50px" viewBox="0 0 477 50" version="1.1" xmlns="http://www.w3.org/2000/svg" xmlns:xlink="http://www.w3.org/1999/xlink">
    <!-- Generator: Sketch 51.3 (57544) - http://www.bohemiancoding.com/sketch -->
    <title>logo-long-white-harvard</title>
    <desc>Created with Sketch.</desc>
    <defs>
        <polygon id="path-1" points="0 0.5011 21.8458 0.5011 21.8458 24.9311 0 24.9311"></polygon>
    </defs>
    <g id="logo-long-white-harvard" stroke="none" stroke-width="1" fill="none" fill-rule="evenodd">
        <g id="Group-75">
            <g id="Group-3" transform="translate(0.000000, 0.499000)">
                <mask id="mask-2" fill="white">
                    <use xlink:href="#path-1"></use>
                </mask>
                <g id="Clip-2"></g>
                <path d="M5.1348,23.2861 C3.4118,22.1901 2.1248,20.7171 1.2758,18.8651 C0.4248,17.0141 -0.0002,14.9701 -0.0002,12.7321 C-0.0002,10.4951 0.4218,8.4511 1.2668,6.5991 C2.1118,4.7491 3.3948,3.2691 5.1168,2.1621 C6.8398,1.0551 8.9478,0.5011 11.4438,0.5011 C13.8028,0.5011 15.8838,1.0851 17.6848,2.2541 C19.4858,3.4231 20.8618,5.1091 21.8128,7.3121 L17.8358,8.8901 C17.4098,7.3911 16.6418,6.2951 15.5298,5.6011 C14.4158,4.9081 13.0428,4.5611 11.4098,4.5611 C9.7988,4.5611 8.4568,4.9131 7.3828,5.6181 C6.3088,6.3231 5.5138,7.2761 4.9998,8.4781 C4.4858,9.6821 4.2288,11.0441 4.2288,12.5641 C4.2288,14.1861 4.4858,15.6211 4.9998,16.8681 C5.5138,18.1161 6.3148,19.0981 7.3998,19.8131 C8.4848,20.5291 9.8438,20.8871 11.4768,20.8871 C13.0428,20.8871 14.3478,20.5431 15.3948,19.8541 C16.4408,19.1671 17.2768,18.0461 17.9028,16.4911 L21.8458,18.1011 C20.9178,20.3061 19.5498,21.9941 17.7438,23.1691 C15.9378,24.3441 13.8478,24.9311 11.4768,24.9311 C8.9708,24.9311 6.8568,24.3831 5.1348,23.2861" id="Fill-1" fill="#FFFFFF" mask="url(#mask-2)"></path>
            </g>
            <path d="M37.5264,16.3017 L34.3384,7.6447 L31.1324,16.3017 L37.5264,16.3017 Z M32.7274,1.3857 L35.9164,1.3857 L45.3614,25.0937 L40.7644,25.0937 L38.8694,19.9437 L29.7914,19.9437 L27.8794,25.0937 L23.2304,25.0937 L32.7274,1.3857 Z" id="Fill-4" fill="#FFFFFF"></path>
            <path d="M51.8428,24.5742 C50.5508,24.0482 49.4598,23.2622 48.5708,22.2172 C47.6818,21.1712 47.1138,19.8982 46.8668,18.3992 L51.0958,17.3252 C51.2408,18.7342 51.7638,19.7982 52.6648,20.5132 C53.5658,21.2292 54.6818,21.5872 56.0118,21.5872 C56.8278,21.5872 57.5328,21.4562 58.1268,21.1932 C58.7188,20.9302 59.1658,20.5692 59.4688,20.1102 C59.7708,19.6522 59.9218,19.1372 59.9218,18.5672 C59.9218,17.8852 59.7118,17.3032 59.2928,16.8222 C58.8728,16.3412 58.3498,15.9442 57.7238,15.6312 C57.0978,15.3172 56.2368,14.9422 55.1398,14.5072 C53.7078,13.9362 52.5508,13.4072 51.6658,12.9212 C50.7828,12.4342 50.0258,11.7552 49.3928,10.8832 C48.7608,10.0102 48.4458,8.9082 48.4458,7.5772 C48.4458,6.2232 48.7778,5.0522 49.4438,4.0612 C50.1098,3.0722 51.0038,2.3192 52.1278,1.8042 C53.2518,1.2912 54.4898,1.0332 55.8448,1.0332 C57.3648,1.0332 58.7528,1.3772 60.0058,2.0652 C61.2578,2.7532 62.2768,3.7962 63.0598,5.1942 L59.5198,7.3582 C59.1058,6.5532 58.5628,5.9292 57.8918,5.4882 C57.2208,5.0462 56.4888,4.8252 55.6938,4.8252 C55.1338,4.8252 54.6278,4.9312 54.1748,5.1432 C53.7228,5.3562 53.3638,5.6562 53.1018,6.0422 C52.8378,6.4282 52.7068,6.8672 52.7068,7.3582 C52.7068,7.9632 52.9028,8.4772 53.2938,8.9022 C53.6858,9.3282 54.1808,9.6852 54.7798,9.9762 C55.3768,10.2672 56.1968,10.6142 57.2378,11.0162 C58.7138,11.5872 59.9098,12.1242 60.8278,12.6272 C61.7438,13.1312 62.5328,13.8352 63.1938,14.7412 C63.8538,15.6472 64.1838,16.7942 64.1838,18.1802 C64.1838,19.6362 63.8168,20.9052 63.0838,21.9902 C62.3518,23.0752 61.3598,23.9082 60.1068,24.4902 C58.8538,25.0712 57.4668,25.3622 55.9458,25.3622 C54.5018,25.3622 53.1348,25.0992 51.8428,24.5742" id="Fill-6" fill="#FFFFFF"></path>
            <polygon id="Fill-8" fill="#FFFFFF" points="68.9316 1.3857 84.7026 1.3857 84.7026 5.2947 73.1936 5.2947 73.1936 11.2847 83.9136 11.2847 83.9136 15.1947 73.1936 15.1947 73.1936 21.0677 84.7026 21.0677 84.7026 25.0937 68.9316 25.0937"></polygon>
            <polygon id="Fill-10" fill="#FFFFFF" points="90.5078 1.3857 94.7698 1.3857 94.7698 21.0677 104.9038 21.0677 104.9038 25.0937 90.5078 25.0937"></polygon>
            <path d="M122.1172,16.3017 L118.9292,7.6447 L115.7242,16.3017 L122.1172,16.3017 Z M117.3182,1.3857 L120.5072,1.3857 L129.9532,25.0937 L125.3552,25.0937 L123.4602,19.9437 L114.3832,19.9437 L112.4702,25.0937 L107.8222,25.0937 L117.3182,1.3857 Z" id="Fill-12" fill="#FFFFFF"></path>
            <polygon id="Fill-14" fill="#FFFFFF" points="129.1309 1.3857 133.5609 1.3857 138.6109 18.8357 143.8629 2.7617 147.1679 2.7617 152.4199 18.8357 157.4709 1.3857 161.9009 1.3857 154.7849 25.0937 150.6749 25.0937 145.5069 9.4897 140.3559 25.0937 136.2449 25.0937"></polygon>
            <path d="M189.2285,16.3017 L186.0405,7.6447 L182.8355,16.3017 L189.2285,16.3017 Z M184.4295,1.3857 L187.6175,1.3857 L197.0645,25.0937 L192.4665,25.0937 L190.5705,19.9437 L181.4935,19.9437 L179.5805,25.0937 L174.9325,25.0937 L184.4295,1.3857 Z" id="Fill-16" fill="#FFFFFF"></path>
            <path d="M203.2949,23.7851 C201.5719,22.6891 200.2849,21.2161 199.4359,19.3641 C198.5849,17.5131 198.1599,15.4691 198.1599,13.2311 C198.1599,10.9941 198.5819,8.9501 199.4269,7.0981 C200.2719,5.2481 201.5549,3.7681 203.2769,2.6611 C204.9999,1.5541 207.1079,1.0001 209.6039,1.0001 C211.9629,1.0001 214.0439,1.5841 215.8449,2.7531 C217.6459,3.9221 219.0219,5.6081 219.9729,7.8111 L215.9959,9.3891 C215.5699,7.8901 214.8019,6.7941 213.6899,6.1001 C212.5759,5.4071 211.2029,5.0601 209.5699,5.0601 C207.9589,5.0601 206.6169,5.4121 205.5429,6.1171 C204.4689,6.8221 203.6739,7.7751 203.1599,8.9771 C202.6459,10.1811 202.3889,11.5431 202.3889,13.0631 C202.3889,14.6851 202.6459,16.1201 203.1599,17.3671 C203.6739,18.6151 204.4749,19.5971 205.5599,20.3121 C206.6449,21.0281 208.0039,21.3861 209.6369,21.3861 C211.2029,21.3861 212.5079,21.0421 213.5549,20.3531 C214.6009,19.6661 215.4369,18.5451 216.0629,16.9901 L220.0059,18.6001 C219.0779,20.8051 217.7099,22.4931 215.9039,23.6681 C214.0979,24.8431 212.0079,25.4301 209.6369,25.4301 C207.1309,25.4301 205.0169,24.8821 203.2949,23.7851" id="Fill-18" fill="#FFFFFF"></path>
            <path d="M228.7988,23.7851 C227.0758,22.6891 225.7898,21.2161 224.9398,19.3641 C224.0898,17.5131 223.6648,15.4691 223.6648,13.2311 C223.6648,10.9941 224.0868,8.9501 224.9318,7.0981 C225.7768,5.2481 227.0598,3.7681 228.7818,2.6611 C230.5048,1.5541 232.6128,1.0001 235.1078,1.0001 C237.4688,1.0001 239.5488,1.5841 241.3498,2.7531 C243.1508,3.9221 244.5268,5.6081 245.4768,7.8111 L241.5008,9.3891 C241.0758,7.8901 240.3068,6.7941 239.1938,6.1001 C238.0798,5.4071 236.7068,5.0601 235.0738,5.0601 C233.4638,5.0601 232.1208,5.4121 231.0468,6.1171 C229.9738,6.8221 229.1798,7.7751 228.6648,8.9771 C228.1508,10.1811 227.8928,11.5431 227.8928,13.0631 C227.8928,14.6851 228.1508,16.1201 228.6648,17.3671 C229.1798,18.6151 229.9798,19.5971 231.0648,20.3121 C232.1498,21.0281 233.5078,21.3861 235.1418,21.3861 C236.7068,21.3861 238.0138,21.0421 239.0598,20.3531 C240.1058,19.6661 240.9418,18.5451 241.5688,16.9901 L245.5098,18.6001 C244.5818,20.8051 243.2148,22.4931 241.4078,23.6681 C239.6018,24.8431 237.5128,25.4301 235.1418,25.4301 C232.6358,25.4301 230.5218,24.8821 228.7988,23.7851" id="Fill-20" fill="#FFFFFF"></path>
            <polygon id="Fill-22" fill="#FFFFFF" points="250.0566 1.3857 265.8296 1.3857 265.8296 5.2947 254.3186 5.2947 254.3186 11.2847 265.0406 11.2847 265.0406 15.1947 254.3186 15.1947 254.3186 21.0677 265.8296 21.0677 265.8296 25.0937 250.0566 25.0937"></polygon>
            <path d="M274.3105,24.5742 C273.0175,24.0482 271.9275,23.2622 271.0395,22.2172 C270.1485,21.1712 269.5815,19.8982 269.3355,18.3992 L273.5645,17.3252 C273.7085,18.7342 274.2325,19.7982 275.1325,20.5132 C276.0335,21.2292 277.1485,21.5872 278.4805,21.5872 C279.2965,21.5872 280.0015,21.4562 280.5935,21.1932 C281.1875,20.9302 281.6345,20.5692 281.9355,20.1102 C282.2385,19.6522 282.3885,19.1372 282.3885,18.5672 C282.3885,17.8852 282.1795,17.3032 281.7595,16.8222 C281.3415,16.3412 280.8185,15.9442 280.1915,15.6312 C279.5645,15.3172 278.7035,14.9422 277.6075,14.5072 C276.1755,13.9362 275.0175,13.4072 274.1345,12.9212 C273.2495,12.4342 272.4925,11.7552 271.8615,10.8832 C271.2285,10.0102 270.9125,8.9082 270.9125,7.5772 C270.9125,6.2232 271.2465,5.0522 271.9125,4.0612 C272.5765,3.0722 273.4705,2.3192 274.5955,1.8042 C275.7205,1.2912 276.9585,1.0332 278.3125,1.0332 C279.8335,1.0332 281.2205,1.3772 282.4725,2.0652 C283.7265,2.7532 284.7445,3.7962 285.5275,5.1942 L281.9865,7.3582 C281.5725,6.5532 281.0315,5.9292 280.3595,5.4882 C279.6875,5.0462 278.9555,4.8252 278.1625,4.8252 C277.6015,4.8252 277.0955,4.9312 276.6425,5.1432 C276.1895,5.3562 275.8315,5.6562 275.5685,6.0422 C275.3065,6.4282 275.1735,6.8672 275.1735,7.3582 C275.1735,7.9632 275.3715,8.4772 275.7615,8.9022 C276.1525,9.3282 276.6485,9.6852 277.2465,9.9762 C277.8455,10.2672 278.6645,10.6142 279.7055,11.0162 C281.1815,11.5872 282.3785,12.1242 283.2945,12.6272 C284.2125,13.1312 285.0015,13.8352 285.6625,14.7412 C286.3205,15.6472 286.6505,16.7942 286.6505,18.1802 C286.6505,19.6362 286.2855,20.9052 285.5525,21.9902 C284.8205,23.0752 283.8265,23.9082 282.5745,24.4902 C281.3205,25.0712 279.9335,25.3622 278.4125,25.3622 C276.9705,25.3622 275.6015,25.0992 274.3105,24.5742" id="Fill-24" fill="#FFFFFF"></path>
            <path d="M294.7617,24.5742 C293.4707,24.0482 292.3807,23.2622 291.4907,22.2172 C290.6017,21.1712 290.0327,19.8982 289.7867,18.3992 L294.0157,17.3252 C294.1617,18.7342 294.6837,19.7982 295.5837,20.5132 C296.4847,21.2292 297.6017,21.5872 298.9317,21.5872 C299.7477,21.5872 300.4527,21.4562 301.0467,21.1932 C301.6387,20.9302 302.0857,20.5692 302.3887,20.1102 C302.6917,19.6522 302.8417,19.1372 302.8417,18.5672 C302.8417,17.8852 302.6327,17.3032 302.2127,16.8222 C301.7927,16.3412 301.2697,15.9442 300.6447,15.6312 C300.0177,15.3172 299.1567,14.9422 298.0607,14.5072 C296.6267,13.9362 295.4707,13.4072 294.5857,12.9212 C293.7027,12.4342 292.9457,11.7552 292.3127,10.8832 C291.6817,10.0102 291.3657,8.9082 291.3657,7.5772 C291.3657,6.2232 291.6977,5.0522 292.3637,4.0612 C293.0297,3.0722 293.9237,2.3192 295.0487,1.8042 C296.1717,1.2912 297.4097,1.0332 298.7637,1.0332 C300.2847,1.0332 301.6717,1.3772 302.9257,2.0652 C304.1777,2.7532 305.1957,3.7962 305.9787,5.1942 L302.4397,7.3582 C302.0257,6.5532 301.4827,5.9292 300.8107,5.4882 C300.1407,5.0462 299.4077,4.8252 298.6137,4.8252 C298.0547,4.8252 297.5487,4.9312 297.0957,5.1432 C296.6427,5.3562 296.2827,5.6562 296.0217,6.0422 C295.7577,6.4282 295.6267,6.8672 295.6267,7.3582 C295.6267,7.9632 295.8227,8.4772 296.2147,8.9022 C296.6057,9.3282 297.0997,9.6852 297.6997,9.9762 C298.2967,10.2672 299.1167,10.6142 300.1567,11.0162 C301.6327,11.5872 302.8297,12.1242 303.7477,12.6272 C304.6637,13.1312 305.4527,13.8352 306.1137,14.7412 C306.7737,15.6472 307.1037,16.7942 307.1037,18.1802 C307.1037,19.6362 306.7367,20.9052 306.0037,21.9902 C305.2717,23.0752 304.2797,23.9082 303.0257,24.4902 C301.7737,25.0712 300.3867,25.3622 298.8657,25.3622 C297.4217,25.3622 296.0547,25.0992 294.7617,24.5742" id="Fill-26" fill="#FFFFFF"></path>
            <path d="M331.0078,11.2851 C332.4398,11.2851 333.4878,11.0451 334.1538,10.5631 C334.8208,10.0831 335.1528,9.3611 335.1528,8.3991 C335.1528,6.3751 333.7718,5.3621 331.0078,5.3621 L327.8048,5.3621 L327.8048,11.2851 L331.0078,11.2851 Z M323.5758,1.3861 L331.0078,1.3861 C332.6308,1.3861 334.0738,1.6621 335.3378,2.2161 C336.6018,2.7691 337.5918,3.5751 338.3068,4.6321 C339.0238,5.6891 339.3808,6.9451 339.3808,8.3991 C339.3808,9.8421 339.0238,11.0781 338.3068,12.1071 C337.5918,13.1371 336.6018,13.9191 335.3378,14.4561 C334.0738,14.9931 332.6308,15.2621 331.0078,15.2621 L327.8048,15.2621 L327.8048,25.0941 L323.5758,25.0941 L323.5758,1.3861 Z" id="Fill-28" fill="#FFFFFF"></path>
            <path d="M351.5547,11.4863 C352.6837,11.4413 353.5687,11.1453 354.2047,10.5963 C354.8437,10.0493 355.1617,9.3283 355.1617,8.4323 C355.1617,7.4483 354.8027,6.6623 354.0877,6.0753 C353.3707,5.4883 352.4097,5.1943 351.2007,5.1943 L347.7947,5.1943 L347.7947,11.4863 L351.5547,11.4863 Z M343.4997,1.3853 L351.1677,1.3853 C352.6677,1.3853 354.0407,1.6623 355.2867,2.2153 C356.5347,2.7693 357.5277,3.5753 358.2657,4.6323 C359.0037,5.6893 359.3727,6.9333 359.3727,8.3653 C359.3727,9.3393 359.1777,10.2363 358.7847,11.0583 C358.3947,11.8813 357.8497,12.5883 357.1507,13.1803 C356.4507,13.7743 355.6487,14.2273 354.7427,14.5403 L361.3357,25.0933 L356.4527,25.0933 L350.6157,14.9603 L349.2387,14.9603 L347.7617,14.9603 L347.7617,25.0933 L343.4997,25.0933 L343.4997,1.3853 Z" id="Fill-30" fill="#FFFFFF"></path>
            <path d="M379.041,20.5215 C380.076,19.7665 380.828,18.7575 381.299,17.4935 C381.768,16.2295 382.004,14.8085 382.004,13.2315 C382.004,11.6545 381.768,10.2365 381.299,8.9775 C380.828,7.7195 380.076,6.7125 379.041,5.9585 C378.008,5.2035 376.678,4.8255 375.057,4.8255 C373.436,4.8255 372.105,5.2035 371.072,5.9585 C370.037,6.7125 369.285,7.7195 368.814,8.9775 C368.346,10.2365 368.111,11.6545 368.111,13.2315 C368.111,14.8085 368.346,16.2295 368.814,17.4935 C369.285,18.7575 370.037,19.7665 371.072,20.5215 C372.105,21.2765 373.436,21.6545 375.057,21.6545 C376.678,21.6545 378.008,21.2765 379.041,20.5215 M368.723,23.7775 C367.006,22.6745 365.725,21.2015 364.881,19.3555 C364.035,17.5095 363.613,15.4685 363.613,13.2315 C363.613,10.9945 364.035,8.9535 364.881,7.1075 C365.725,5.2615 367.006,3.7885 368.723,2.6855 C370.439,1.5845 372.551,1.0335 375.057,1.0335 C377.562,1.0335 379.674,1.5845 381.391,2.6855 C383.107,3.7885 384.389,5.2615 385.232,7.1075 C386.078,8.9535 386.5,10.9945 386.5,13.2315 C386.5,15.4685 386.078,17.5095 385.232,19.3555 C384.389,21.2015 383.107,22.6745 381.391,23.7775 C379.674,24.8785 377.562,25.4295 375.057,25.4295 C372.551,25.4295 370.439,24.8785 368.723,23.7775" id="Fill-32" fill="#FFFFFF"></path>
            <path d="M393.6699,24.3974 C392.5019,23.7104 391.5839,22.7784 390.9199,21.6044 C390.2539,20.4294 389.8709,19.1314 389.7699,17.7104 L393.9649,17.2244 C394.0549,18.4894 394.4119,19.5144 395.0389,20.3034 C395.6639,21.0914 396.5759,21.4864 397.7739,21.4864 C398.7699,21.4864 399.5369,21.2994 400.0799,20.9244 C400.6229,20.5494 400.9979,20.0124 401.2049,19.3134 C401.4119,18.6154 401.5159,17.7104 401.5159,16.6034 L401.5159,5.2944 L392.5879,5.2944 L392.5879,1.3854 L405.7769,1.3854 L405.7769,16.5374 C405.7769,19.2444 405.1309,21.4024 403.8379,23.0134 C402.5469,24.6244 400.5249,25.4294 397.7739,25.4294 C396.2069,25.4294 394.8399,25.0854 393.6699,24.3974" id="Fill-34" fill="#FFFFFF"></path>
            <polygon id="Fill-36" fill="#FFFFFF" points="412.1016 1.3857 427.8746 1.3857 427.8746 5.2947 416.3636 5.2947 416.3636 11.2847 427.0856 11.2847 427.0856 15.1947 416.3636 15.1947 416.3636 21.0677 427.8746 21.0677 427.8746 25.0937 412.1016 25.0937"></polygon>
            <path d="M437.7539,23.7851 C436.0309,22.6891 434.7439,21.2161 433.8949,19.3641 C433.0449,17.5131 432.6189,15.4691 432.6189,13.2311 C432.6189,10.9941 433.0409,8.9501 433.8869,7.0981 C434.7309,5.2481 436.0139,3.7681 437.7359,2.6611 C439.4589,1.5541 441.5679,1.0001 444.0629,1.0001 C446.4219,1.0001 448.5039,1.5841 450.3049,2.7531 C452.1059,3.9221 453.4809,5.6081 454.4319,7.8111 L450.4549,9.3891 C450.0289,7.8901 449.2619,6.7941 448.1489,6.1001 C447.0349,5.4071 445.6619,5.0601 444.0289,5.0601 C442.4179,5.0601 441.0759,5.4121 440.0019,6.1171 C438.9279,6.8221 438.1349,7.7751 437.6189,8.9771 C437.1059,10.1811 436.8479,11.5431 436.8479,13.0631 C436.8479,14.6851 437.1059,16.1201 437.6189,17.3671 C438.1349,18.6151 438.9339,19.5971 440.0199,20.3121 C441.1039,21.0281 442.4629,21.3861 444.0959,21.3861 C445.6619,21.3861 446.9689,21.0421 448.0139,20.3531 C449.0609,19.6661 449.8969,18.5451 450.5239,16.9901 L454.4649,18.6001 C453.5369,20.8051 452.1699,22.4931 450.3629,23.6681 C448.5569,24.8431 446.4669,25.4301 444.0959,25.4301 C441.5899,25.4301 439.4769,24.8821 437.7539,23.7851" id="Fill-38" fill="#FFFFFF"></path>
            <polygon id="Fill-40" fill="#FFFFFF" points="464.832 5.1943 457.4 5.1943 457.4 1.3853 476.51 1.3853 476.51 5.1943 469.094 5.1943 469.094 25.0933 464.832 25.0933"></polygon>
            <polygon id="Fill-42" fill="#FFFFFF" points="3.1201 33.8623 5.4681 33.8623 5.4681 40.4793 12.6751 40.4793 12.6751 33.8623 15.0221 33.8623 15.0221 49.2923 12.6751 49.2923 12.6751 42.6413 5.4681 42.6413 5.4681 49.2923 3.1201 49.2923"></polygon>
            <path d="M27.4326,43.7988 L25.0746,37.2798 L22.7046,43.7988 L27.4326,43.7988 Z M24.1576,33.8618 L25.9586,33.8618 L31.9646,49.2918 L29.4316,49.2918 L28.1756,45.8198 L21.9736,45.8198 L20.6966,49.2918 L18.1296,49.2918 L24.1576,33.8618 Z" id="Fill-44" fill="#FFFFFF"></path>
            <path d="M40.0469,40.6543 C40.9129,40.6263 41.5859,40.4093 42.0669,40.0053 C42.5469,39.6003 42.7869,39.0523 42.7869,38.3613 C42.7869,37.6263 42.5259,37.0443 42.0009,36.6143 C41.4779,36.1843 40.7639,35.9693 39.8609,35.9693 L37.4479,35.9693 L37.4479,40.6543 L40.0469,40.6543 Z M35.0779,33.8623 L39.8389,33.8623 C40.8219,33.8623 41.7139,34.0393 42.5149,34.3923 C43.3159,34.7453 43.9479,35.2583 44.4139,35.9313 C44.8799,36.6053 45.1129,37.4003 45.1129,38.3173 C45.1129,39.2933 44.8309,40.1333 44.2679,40.8403 C43.7029,41.5463 42.9509,42.0413 42.0129,42.3253 L46.3039,49.2923 L43.6169,49.2923 L39.7409,42.5653 L38.8019,42.5763 L37.4259,42.5763 L37.4259,49.2923 L35.0779,49.2923 L35.0779,33.8623 Z" id="Fill-46" fill="#FFFFFF"></path>
            <polygon id="Fill-48" fill="#FFFFFF" points="61.4355 33.8623 55.2985 49.2923 53.5075 49.2923 47.3495 33.8623 49.9485 33.8623 54.4145 45.5243 58.8585 33.8623"></polygon>
            <path d="M70.8271,43.7988 L68.4691,37.2798 L66.0991,43.7988 L70.8271,43.7988 Z M67.5521,33.8618 L69.3531,33.8618 L75.3591,49.2918 L72.8261,49.2918 L71.5701,45.8198 L65.3681,45.8198 L64.0911,49.2918 L61.5241,49.2918 L67.5521,33.8618 Z" id="Fill-50" fill="#FFFFFF"></path>
            <path d="M83.4414,40.6543 C84.3074,40.6263 84.9804,40.4093 85.4614,40.0053 C85.9414,39.6003 86.1814,39.0523 86.1814,38.3613 C86.1814,37.6263 85.9204,37.0443 85.3954,36.6143 C84.8724,36.1843 84.1584,35.9693 83.2554,35.9693 L80.8424,35.9693 L80.8424,40.6543 L83.4414,40.6543 Z M78.4724,33.8623 L83.2334,33.8623 C84.2164,33.8623 85.1084,34.0393 85.9094,34.3923 C86.7104,34.7453 87.3424,35.2583 87.8084,35.9313 C88.2744,36.6053 88.5074,37.4003 88.5074,38.3173 C88.5074,39.2933 88.2254,40.1333 87.6624,40.8403 C87.0974,41.5463 86.3454,42.0413 85.4074,42.3253 L89.6984,49.2923 L87.0114,49.2923 L83.1354,42.5653 L82.1964,42.5763 L80.8204,42.5763 L80.8204,49.2923 L78.4724,49.2923 L78.4724,33.8623 Z" id="Fill-52" fill="#FFFFFF"></path>
            <path d="M97.001,47.1299 C98.901,47.1299 100.355,46.6899 101.363,45.8089 C102.372,44.9279 102.876,43.5229 102.876,41.5939 C102.876,40.2909 102.68,39.2319 102.286,38.4159 C101.894,37.6009 101.282,36.9979 100.452,36.6089 C99.622,36.2199 98.541,36.0249 97.209,36.0249 L95.222,36.0249 L95.222,47.1299 L97.001,47.1299 Z M92.874,33.8619 L97.241,33.8619 C98.967,33.8619 100.425,34.1669 101.615,34.7749 C102.805,35.3819 103.704,36.2709 104.312,37.4389 C104.92,38.6079 105.224,40.0259 105.224,41.6919 C105.224,43.2929 104.914,44.6619 104.296,45.7979 C103.677,46.9339 102.769,47.7999 101.571,48.3969 C100.374,48.9929 98.923,49.2919 97.22,49.2919 L92.874,49.2919 L92.874,33.8619 Z" id="Fill-54" fill="#FFFFFF"></path>
            <polygon id="Fill-56" fill="#FFFFFF" points="114.374 33.8623 116.722 33.8623 116.722 47.0753 123.47 47.0753 123.47 49.2923 114.374 49.2923"></polygon>
            <path d="M135.0312,43.7988 L132.6732,37.2798 L130.3032,43.7988 L135.0312,43.7988 Z M131.7562,33.8618 L133.5572,33.8618 L139.5642,49.2918 L137.0302,49.2918 L135.7742,45.8198 L129.5722,45.8198 L128.2952,49.2918 L125.7282,49.2918 L131.7562,33.8618 Z" id="Fill-58" fill="#FFFFFF"></path>
            <polygon id="Fill-60" fill="#FFFFFF" points="139.6113 33.8623 142.0563 33.8623 145.4973 45.8633 149.1113 34.7363 150.9563 34.7363 154.5703 45.8633 158.0213 33.8623 160.4563 33.8623 155.8913 49.2923 153.5983 49.2923 150.0393 38.4373 146.4683 49.2923 144.1753 49.2923"></polygon>
            <path d="M184.0479,48.4453 C182.9479,47.7433 182.1259,46.7933 181.5799,45.5953 C181.0339,44.3983 180.7609,43.0563 180.7609,41.5713 C180.7609,40.0793 181.0339,38.7343 181.5799,37.5373 C182.1259,36.3403 182.9479,35.3893 184.0479,34.6873 C185.1469,33.9843 186.4929,33.6333 188.0879,33.6333 C189.6229,33.6333 190.9559,34.0053 192.0839,34.7473 C193.2129,35.4893 194.0789,36.5673 194.6829,37.9793 L192.4779,38.8523 C191.8729,36.8653 190.4019,35.8723 188.0659,35.8723 C186.9589,35.8723 186.0349,36.1123 185.2919,36.5923 C184.5499,37.0733 183.9959,37.7333 183.6329,38.5743 C183.2689,39.4153 183.0869,40.3823 183.0869,41.4733 C183.0869,42.6013 183.2629,43.5993 183.6159,44.4663 C183.9689,45.3323 184.5169,46.0143 185.2599,46.5123 C186.0019,47.0113 186.9379,47.2603 188.0659,47.2603 C189.1579,47.2603 190.0659,47.0203 190.7899,46.5403 C191.5149,46.0593 192.0909,45.2923 192.5209,44.2363 L194.7049,45.1323 C194.0939,46.5443 193.2159,47.6253 192.0729,48.3753 C190.9309,49.1243 189.5949,49.4993 188.0659,49.4993 C186.4859,49.4993 185.1469,49.1483 184.0479,48.4453" id="Fill-64" fill="#FFFFFF"></path>
            <path d="M170.2129,48.9482 C169.4009,48.6092 168.7169,48.1072 168.1589,47.4402 C167.6029,46.7742 167.2479,45.9692 167.0949,45.0222 L169.4209,44.4322 C169.5369,45.3932 169.9059,46.1232 170.5289,46.6222 C171.1509,47.1212 171.9289,47.3702 172.8599,47.3702 C173.4419,47.3702 173.9499,47.2692 174.3839,47.0692 C174.8169,46.8692 175.1469,46.5962 175.3719,46.2512 C175.5979,45.9052 175.7099,45.5172 175.7099,45.0882 C175.7099,44.5932 175.5649,44.1732 175.2739,43.8262 C174.9829,43.4802 174.6179,43.1952 174.1819,42.9692 C173.7449,42.7442 173.1509,42.4852 172.4009,42.1942 C171.4699,41.8302 170.7209,41.4922 170.1519,41.1782 C169.5849,40.8652 169.0989,40.4342 168.6939,39.8852 C168.2909,39.3352 168.0889,38.6412 168.0889,37.8042 C168.0889,36.9602 168.2959,36.2222 168.7109,35.5942 C169.1259,34.9642 169.6889,34.4832 170.3989,34.1522 C171.1079,33.8212 171.8889,33.6552 172.7399,33.6552 C173.7229,33.6552 174.6079,33.8722 175.3939,34.3042 C176.1799,34.7382 176.8239,35.3982 177.3259,36.2872 L175.3829,37.4882 C175.0839,36.9202 174.7019,36.4872 174.2359,36.1882 C173.7709,35.8892 173.2459,35.7412 172.6639,35.7412 C172.2489,35.7412 171.8699,35.8242 171.5279,35.9922 C171.1859,36.1592 170.9189,36.3902 170.7259,36.6852 C170.5319,36.9802 170.4369,37.3132 170.4369,37.6842 C170.4369,38.1212 170.5729,38.4922 170.8459,38.7982 C171.1189,39.1032 171.4609,39.3582 171.8719,39.5622 C172.2829,39.7662 172.8499,40.0072 173.5699,40.2832 C174.5309,40.6622 175.3079,41.0112 175.9009,41.3312 C176.4949,41.6522 177.0029,42.1012 177.4249,42.6792 C177.8469,43.2592 178.0579,43.9922 178.0579,44.8802 C178.0579,45.7982 177.8269,46.6012 177.3639,47.2942 C176.9019,47.9852 176.2709,48.5182 175.4699,48.8932 C174.6689,49.2682 173.7849,49.4552 172.8169,49.4552 C171.8929,49.4552 171.0249,49.2862 170.2129,48.9482" id="Fill-62" fill="#FFFFFF"></path>
            <polygon id="Fill-67" fill="#FFFFFF" points="198.2178 33.8623 200.5658 33.8623 200.5658 40.4793 207.7718 40.4793 207.7718 33.8623 210.1188 33.8623 210.1188 49.2923 207.7718 49.2923 207.7718 42.6413 200.5658 42.6413 200.5658 49.2923 198.2178 49.2923"></polygon>
            <path d="M224.0986,46.6269 C224.8236,46.1039 225.3526,45.4019 225.6876,44.5249 C226.0226,43.6479 226.1896,42.6639 226.1896,41.5709 C226.1896,40.4799 226.0226,39.4949 225.6876,38.6179 C225.3526,37.7409 224.8236,37.0419 224.0986,36.5219 C223.3736,36.0009 222.4546,35.7409 221.3416,35.7409 C220.2276,35.7409 219.3086,36.0009 218.5836,36.5219 C217.8596,37.0419 217.3296,37.7409 216.9946,38.6179 C216.6606,39.4949 216.4936,40.4799 216.4936,41.5709 C216.4936,42.6639 216.6606,43.6479 216.9946,44.5249 C217.3296,45.4019 217.8596,46.1039 218.5836,46.6269 C219.3086,47.1509 220.2276,47.4139 221.3416,47.4139 C222.4546,47.4139 223.3736,47.1509 224.0986,46.6269 M217.2896,48.4239 C216.1916,47.7069 215.3696,46.7469 214.8276,45.5469 C214.2856,44.3459 214.0146,43.0209 214.0146,41.5709 C214.0146,40.1229 214.2856,38.7999 214.8276,37.6029 C215.3696,36.4049 216.1916,35.4479 217.2896,34.7309 C218.3896,34.0139 219.7406,33.6549 221.3416,33.6549 C222.9426,33.6549 224.2926,34.0139 225.3926,34.7309 C226.4916,35.4479 227.3126,36.4049 227.8546,37.6029 C228.3976,38.7999 228.6676,40.1229 228.6676,41.5709 C228.6676,43.0209 228.3976,44.3459 227.8546,45.5469 C227.3126,46.7469 226.4916,47.7069 225.3926,48.4239 C224.2926,49.1409 222.9426,49.4989 221.3416,49.4989 C219.7406,49.4989 218.3896,49.1409 217.2896,48.4239" id="Fill-69" fill="#FFFFFF"></path>
            <path d="M241.709,46.6269 C242.434,46.1039 242.963,45.4019 243.298,44.5249 C243.633,43.6479 243.8,42.6639 243.8,41.5709 C243.8,40.4799 243.633,39.4949 243.298,38.6179 C242.963,37.7409 242.434,37.0419 241.709,36.5219 C240.984,36.0009 240.065,35.7409 238.952,35.7409 C237.838,35.7409 236.919,36.0009 236.194,36.5219 C235.47,37.0419 234.94,37.7409 234.605,38.6179 C234.271,39.4949 234.104,40.4799 234.104,41.5709 C234.104,42.6639 234.271,43.6479 234.605,44.5249 C234.94,45.4019 235.47,46.1039 236.194,46.6269 C236.919,47.1509 237.838,47.4139 238.952,47.4139 C240.065,47.4139 240.984,47.1509 241.709,46.6269 M234.9,48.4239 C233.802,47.7069 232.98,46.7469 232.438,45.5469 C231.896,44.3459 231.625,43.0209 231.625,41.5709 C231.625,40.1229 231.896,38.7999 232.438,37.6029 C232.98,36.4049 233.802,35.4479 234.9,34.7309 C236,34.0139 237.351,33.6549 238.952,33.6549 C240.553,33.6549 241.903,34.0139 243.003,34.7309 C244.102,35.4479 244.923,36.4049 245.465,37.6029 C246.008,38.7999 246.278,40.1229 246.278,41.5709 C246.278,43.0209 246.008,44.3459 245.465,45.5469 C244.923,46.7469 244.102,47.7069 243.003,48.4239 C241.903,49.1409 240.553,49.4989 238.952,49.4989 C237.351,49.4989 236,49.1409 234.9,48.4239" id="Fill-71" fill="#FFFFFF"></path>
            <polygon id="Fill-73" fill="#FFFFFF" points="250.1777 33.8623 252.5257 33.8623 252.5257 47.0753 259.2737 47.0753 259.2737 49.2923 250.1777 49.2923"></polygon>
        </g>
    </g>
</svg>