<?xml version="1.0" encoding="UTF-8"?>
<svg width="99px" height="32px" viewBox="0 0 99 32" version="1.1" xmlns="http://www.w3.org/2000/svg" xmlns:xlink="http://www.w3.org/1999/xlink">
    <!-- Generator: Sketch 51.3 (57544) - http://www.bohemiancoding.com/sketch -->
    <title>github-sprite</title>
    <desc>Created with Sketch.</desc>
    <defs></defs>
    <g id="Page-1" stroke="none" stroke-width="1" fill="none" fill-rule="evenodd">
        <g id="github-sprite" fill-rule="nonzero">
            <path d="M49.4984806,0 C40.3882562,0 33,7.3446728 33,16.4054189 C33,23.6534115 37.727309,29.801667 44.2839559,31.9709287 C45.1094877,32.1219915 45.4103257,31.6154276 45.4103257,31.1803667 C45.4103257,30.7916318 45.3961448,29.7593694 45.3880414,28.3907406 C40.7984898,29.3817125 39.830136,26.1912664 39.830136,26.1912664 C39.0795605,24.2959319 37.9977593,23.7913822 37.9977593,23.7913822 C36.499647,22.7742261 38.1112066,22.7943678 38.1112066,22.7943678 C39.7673348,22.9101826 40.6384481,24.4852639 40.6384481,24.4852639 C42.1102244,26.9918991 44.5007213,26.2678048 45.4407133,25.8478503 C45.5906259,24.7883966 46.0170662,24.0653094 46.4880751,23.6554257 C42.8243347,23.2415136 38.9721907,21.8336084 38.9721907,15.5473822 C38.9721907,13.7567847 39.6153964,12.2914756 40.6708616,11.1454126 C40.5006906,10.7304934 39.934467,9.06175317 40.8329292,6.80386802 C40.8329292,6.80386802 42.2175942,6.36276467 45.3698088,8.4857004 C46.685595,8.12113554 48.0976089,7.93986019 49.5005065,7.93281059 C50.9023911,7.93986019 52.3133921,8.12113554 53.6312041,8.4857004 C56.7813929,6.36276467 58.164032,6.80386802 58.164032,6.80386802 C59.0645201,9.06175317 58.4982964,10.7304934 58.3291384,11.1454126 C59.3866294,12.2914756 60.0247706,13.7567847 60.0247706,15.5473822 C60.0247706,21.8497218 56.166549,23.2364782 52.4916664,23.6423336 C53.0832131,24.1488974 53.6109457,25.1499402 53.6109457,26.6807098 C53.6109457,28.8731344 53.5906873,30.6425832 53.5906873,31.1803667 C53.5906873,31.6194559 53.8884864,32.1300481 54.7251604,31.9699216 C61.2767427,29.7956245 66,23.6513973 66,16.4054189 C66,7.3446728 58.6117438,0 49.4984806,0" id="Fill-4" fill="#6350FD"></path>
            <path d="M82.4984806,0 C73.3882562,0 66,7.3446728 66,16.4054189 C66,23.6534115 70.727309,29.801667 77.2839559,31.9709287 C78.1094877,32.1219915 78.4103257,31.6154276 78.4103257,31.1803667 C78.4103257,30.7916318 78.3961448,29.7593694 78.3880414,28.3907406 C73.7984898,29.3817125 72.830136,26.1912664 72.830136,26.1912664 C72.0795605,24.2959319 70.9977593,23.7913822 70.9977593,23.7913822 C69.499647,22.7742261 71.1112066,22.7943678 71.1112066,22.7943678 C72.7673348,22.9101826 73.6384481,24.4852639 73.6384481,24.4852639 C75.1102244,26.9918991 77.5007213,26.2678048 78.4407133,25.8478503 C78.5906259,24.7883966 79.0170662,24.0653094 79.4880751,23.6554257 C75.8243347,23.2415136 71.9721907,21.8336084 71.9721907,15.5473822 C71.9721907,13.7567847 72.6153964,12.2914756 73.6708616,11.1454126 C73.5006906,10.7304934 72.934467,9.06175317 73.8329292,6.80386802 C73.8329292,6.80386802 75.2175942,6.36276467 78.3698088,8.4857004 C79.685595,8.12113554 81.0976089,7.93986019 82.5005065,7.93281059 C83.9023911,7.93986019 85.3133921,8.12113554 86.6312041,8.4857004 C89.7813929,6.36276467 91.164032,6.80386802 91.164032,6.80386802 C92.0645201,9.06175317 91.4982964,10.7304934 91.3291384,11.1454126 C92.3866294,12.2914756 93.0247706,13.7567847 93.0247706,15.5473822 C93.0247706,21.8497218 89.166549,23.2364782 85.4916664,23.6423336 C86.0832131,24.1488974 86.6109457,25.1499402 86.6109457,26.6807098 C86.6109457,28.8731344 86.5906873,30.6425832 86.5906873,31.1803667 C86.5906873,31.6194559 86.8884864,32.1300481 87.7251604,31.9699216 C94.2767427,29.7956245 99,23.6513973 99,16.4054189 C99,7.3446728 91.6117438,0 82.4984806,0" id="Fill-4-Copy-2" fill="#FFFFFF"></path>
            <path d="M16.4984806,0 C7.38825624,0 0,7.3446728 0,16.4054189 C0,23.6534115 4.727309,29.801667 11.2839559,31.9709287 C12.1094877,32.1219915 12.4103257,31.6154276 12.4103257,31.1803667 C12.4103257,30.7916318 12.3961448,29.7593694 12.3880414,28.3907406 C7.79848982,29.3817125 6.83013598,26.1912664 6.83013598,26.1912664 C6.07956045,24.2959319 4.99775929,23.7913822 4.99775929,23.7913822 C3.49964701,22.7742261 5.11120661,22.7943678 5.11120661,22.7943678 C6.76733479,22.9101826 7.63844808,24.4852639 7.63844808,24.4852639 C9.11022438,26.9918991 11.5007213,26.2678048 12.4407133,25.8478503 C12.5906259,24.7883966 13.0170662,24.0653094 13.4880751,23.6554257 C9.82433469,23.2415136 5.97219067,21.8336084 5.97219067,15.5473822 C5.97219067,13.7567847 6.61539642,12.2914756 7.6708616,11.1454126 C7.50069063,10.7304934 6.93446699,9.06175317 7.83292919,6.80386802 C7.83292919,6.80386802 9.21759416,6.36276467 12.3698088,8.4857004 C13.685595,8.12113554 15.0976089,7.93986019 16.5005065,7.93281059 C17.9023911,7.93986019 19.3133921,8.12113554 20.6312041,8.4857004 C23.7813929,6.36276467 25.164032,6.80386802 25.164032,6.80386802 C26.0645201,9.06175317 25.4982964,10.7304934 25.3291384,11.1454126 C26.3866294,12.2914756 27.0247706,13.7567847 27.0247706,15.5473822 C27.0247706,21.8497218 23.166549,23.2364782 19.4916664,23.6423336 C20.0832131,24.1488974 20.6109457,25.1499402 20.6109457,26.6807098 C20.6109457,28.8731344 20.5906873,30.6425832 20.5906873,31.1803667 C20.5906873,31.6194559 20.8884864,32.1300481 21.7251604,31.9699216 C28.2767427,29.7956245 33,23.6513973 33,16.4054189 C33,7.3446728 25.6117438,0 16.4984806,0" id="Fill-4-Copy" fill="#2A2A2A"></path>
        </g>
    </g>
</svg>