<?xml version="1.0" encoding="UTF-8"?>
<svg width="97px" height="31px" viewBox="0 0 97 31" version="1.1" xmlns="http://www.w3.org/2000/svg" xmlns:xlink="http://www.w3.org/1999/xlink">
    <!-- Generator: Sketch 51.3 (57544) - http://www.bohemiancoding.com/sketch -->
    <title>github-sprite</title>
    <desc>Created with Sketch.</desc>
    <defs></defs>
    <g id="Page-1" stroke="none" stroke-width="1" fill="none" fill-rule="evenodd">
        <g id="github-sprite" style="mix-blend-mode: screen;" fill-rule="nonzero">
            <path d="M48.0329031,0 C39.2073732,0 32.05,7.11515177 32.05,15.8927496 C32.05,22.9142424 36.6295806,28.8703649 42.9813323,30.9718372 C43.7810662,31.1181793 44.072503,30.6274455 44.072503,30.2059802 C44.072503,29.8293933 44.0587653,28.8293891 44.0509151,27.50353 C39.604787,28.463534 38.6666942,25.3727893 38.6666942,25.3727893 C37.9395742,23.536684 36.8915793,23.0479015 36.8915793,23.0479015 C35.440283,22.0625315 37.0014814,22.0820438 37.0014814,22.0820438 C38.6058556,22.1942394 39.4497466,23.7200994 39.4497466,23.7200994 C40.8755299,26.1484023 43.1913238,25.4469359 44.101941,25.040105 C44.2471688,24.0137592 44.6602829,23.3132685 45.1165728,22.9161936 C41.5673242,22.5152163 37.8355597,21.1513081 37.8355597,15.0615265 C37.8355597,13.3268852 38.4586653,11.907367 39.4811472,10.7971185 C39.316294,10.3951655 38.7677649,8.77857338 39.6381502,6.59124714 C39.6381502,6.59124714 40.9795444,6.16392827 44.0332523,8.22052226 C45.3079202,7.86735005 46.6758086,7.69173956 48.0348657,7.68491026 C49.3929414,7.69173956 50.7598486,7.86735005 52.036479,8.22052226 C55.0882244,6.16392827 56.427656,6.59124714 56.427656,6.59124714 C57.3000038,8.77857338 56.7514746,10.3951655 56.5876028,10.7971185 C57.6120472,11.907367 58.2302465,13.3268852 58.2302465,15.0615265 C58.2302465,21.166918 54.4925943,22.5103383 50.9325518,22.9035107 C51.5056127,23.3942444 52.0168536,24.3640046 52.0168536,25.8469376 C52.0168536,27.970849 51.9972283,29.6850025 51.9972283,30.2059802 C51.9972283,30.6313479 52.2857212,31.1259841 53.0962491,30.9708615 C59.4430945,28.8645112 64.01875,22.9122911 64.01875,15.8927496 C64.01875,7.11515177 56.8613768,0 48.0329031,0" id="Fill-4" fill="#6350FD"></path>
            <path d="M15.9829031,0 C7.15737323,0 0,7.11515177 0,15.8927496 C0,22.9142424 4.57958059,28.8703649 10.9313323,30.9718372 C11.7310662,31.1181793 12.022503,30.6274455 12.022503,30.2059802 C12.022503,29.8293933 12.0087653,28.8293891 12.0009151,27.50353 C7.55478701,28.463534 6.61669423,25.3727893 6.61669423,25.3727893 C5.88957419,23.536684 4.84157931,23.0479015 4.84157931,23.0479015 C3.39028304,22.0625315 4.9514814,22.0820438 4.9514814,22.0820438 C6.55585558,22.1942394 7.39974658,23.7200994 7.39974658,23.7200994 C8.82552987,26.1484023 11.1413238,25.4469359 12.051941,25.040105 C12.1971688,24.0137592 12.6102829,23.3132685 13.0665728,22.9161936 C9.51732423,22.5152163 5.78555971,21.1513081 5.78555971,15.0615265 C5.78555971,13.3268852 6.40866528,11.907367 7.43114718,10.7971185 C7.26629405,10.3951655 6.7177649,8.77857338 7.58815015,6.59124714 C7.58815015,6.59124714 8.92954434,6.16392827 11.9832523,8.22052226 C13.2579202,7.86735005 14.6258086,7.69173956 15.9848657,7.68491026 C17.3429414,7.69173956 18.7098486,7.86735005 19.986479,8.22052226 C23.0382244,6.16392827 24.377656,6.59124714 24.377656,6.59124714 C25.2500038,8.77857338 24.7014746,10.3951655 24.5376028,10.7971185 C25.5620472,11.907367 26.1802465,13.3268852 26.1802465,15.0615265 C26.1802465,21.166918 22.4425943,22.5103383 18.8825518,22.9035107 C19.4556127,23.3942444 19.9668536,24.3640046 19.9668536,25.8469376 C19.9668536,27.970849 19.9472283,29.6850025 19.9472283,30.2059802 C19.9472283,30.6313479 20.2357212,31.1259841 21.0462491,30.9708615 C27.3930945,28.8645112 31.96875,22.9122911 31.96875,15.8927496 C31.96875,7.11515177 24.8113768,0 15.9829031,0" id="Fill-4-Copy" fill="#2A2A2A"></path>
            <path d="M80.0829031,0 C71.2573732,0 64.1,7.11515177 64.1,15.8927496 C64.1,22.9142424 68.6795806,28.8703649 75.0313323,30.9718372 C75.8310662,31.1181793 76.122503,30.6274455 76.122503,30.2059802 C76.122503,29.8293933 76.1087653,28.8293891 76.1009151,27.50353 C71.654787,28.463534 70.7166942,25.3727893 70.7166942,25.3727893 C69.9895742,23.536684 68.9415793,23.0479015 68.9415793,23.0479015 C67.490283,22.0625315 69.0514814,22.0820438 69.0514814,22.0820438 C70.6558556,22.1942394 71.4997466,23.7200994 71.4997466,23.7200994 C72.9255299,26.1484023 75.2413238,25.4469359 76.151941,25.040105 C76.2971688,24.0137592 76.7102829,23.3132685 77.1665728,22.9161936 C73.6173242,22.5152163 69.8855597,21.1513081 69.8855597,15.0615265 C69.8855597,13.3268852 70.5086653,11.907367 71.5311472,10.7971185 C71.366294,10.3951655 70.8177649,8.77857338 71.6881502,6.59124714 C71.6881502,6.59124714 73.0295444,6.16392827 76.0832523,8.22052226 C77.3579202,7.86735005 78.7258086,7.69173956 80.0848657,7.68491026 C81.4429414,7.69173956 82.8098486,7.86735005 84.086479,8.22052226 C87.1382244,6.16392827 88.477656,6.59124714 88.477656,6.59124714 C89.3500038,8.77857338 88.8014746,10.3951655 88.6376028,10.7971185 C89.6620472,11.907367 90.2802465,13.3268852 90.2802465,15.0615265 C90.2802465,21.166918 86.5425943,22.5103383 82.9825518,22.9035107 C83.5556127,23.3942444 84.0668536,24.3640046 84.0668536,25.8469376 C84.0668536,27.970849 84.0472283,29.6850025 84.0472283,30.2059802 C84.0472283,30.6313479 84.3357212,31.1259841 85.1462491,30.9708615 C91.4930945,28.8645112 96.06875,22.9122911 96.06875,15.8927496 C96.06875,7.11515177 88.9113768,0 80.0829031,0" id="Fill-4-Copy-2" fill="#FFFFFF"></path>
        </g>
    </g>
</svg>