<svg width="32" height="46" viewBox="0 0 32 46" fill="none" xmlns="http://www.w3.org/2000/svg">
    <g clip-path="url(#clip0)">
        <path d="M32 -0.097793L0 -0.112793V45.5242H32V-0.097793ZM23.117 3.02821V19.2422H20.464V3.02821H23.117ZM17.338 3.02821V19.2422H14.685V3.02821H17.338ZM14.685 25.0312V22.3692H17.338V25.0312H14.685ZM8.906 30.8202V28.1572H11.559V30.8202H8.906ZM3.126 36.6082V33.9452H5.779V36.6082H3.126ZM3.126 30.8202V28.1572H5.779V30.8202H3.126ZM3.126 25.0312V22.3692H5.779V25.0312H3.126ZM8.906 25.0312V22.3692H11.559V25.0312H8.906ZM11.559 3.02821V19.2422H8.906V3.02821H11.559ZM5.779 3.02821V19.2422H3.126V3.02821H5.779ZM28.873 42.3972H3.126V39.7342H28.873V42.3972ZM28.873 36.6082H8.906V33.9452H28.874V36.6082H28.873ZM28.873 30.8202H14.685V28.1572H28.873V30.8202ZM28.873 25.0312H20.464V22.3692H28.873V25.0312ZM28.873 19.2422H26.243V3.02821H28.873V19.2422Z"
              fill="#0099FF"/>
    </g>
    <defs>
        <clipPath id="clip0">
            <rect width="32" height="45.524" fill="white"/>
        </clipPath>
    </defs>
</svg>
