<?xml version="1.0" encoding="UTF-8"?>
<svg width="742px" height="403px" viewBox="0 0 742 403" version="1.1" xmlns="http://www.w3.org/2000/svg" xmlns:xlink="http://www.w3.org/1999/xlink">
    <!-- Generator: Sketch 51.3 (57544) - http://www.bohemiancoding.com/sketch -->
    <title>Artboard 2</title>
    <desc>Created with Sketch.</desc>
    <defs>
        <polygon id="path-1" points="0 361.166 696.158 361.166 696.158 0 0 0"></polygon>
    </defs>
    <g id="Artboard-2" stroke="none" stroke-width="1" fill="none" fill-rule="evenodd">
        <g id="Group-20" transform="translate(20.000000, 24.000000)">
            <path d="M331.9947,224.2747 L331.9937,270.4957 L369.5577,270.4957 L369.5577,260.6677 L343.1447,260.6677 L343.1457,224.2747 L331.9947,224.2747 Z M385.8477,249.2207 C386.2867,246.6527 388.7817,244.5257 392.8157,244.5257 C395.6797,244.5257 397.3667,245.6257 397.3667,248.2647 L397.3667,249.3677 L386.9467,252.0077 C380.5647,253.6227 375.3557,255.9697 375.3557,261.8387 C375.3557,267.7087 379.8297,271.0107 385.9947,271.0107 C391.4967,271.0107 395.7517,268.6637 397.5867,264.7737 C398.2457,268.5167 401.7677,271.3027 406.4627,271.3027 C409.1047,271.3027 411.5247,270.5707 414.0187,269.0277 L413.2877,262.7187 C412.4077,263.5267 410.8647,264.1867 409.6177,264.1867 C408.2977,264.1867 407.3427,263.4547 407.3427,261.9147 L407.3427,248.7807 C407.3427,240.2687 401.8407,237.0417 393.3317,237.0417 C384.4517,237.0417 378.8787,241.0757 376.5277,246.7977 L385.8477,249.2207 Z M397.3657,257.0687 C397.3657,261.5467 393.5517,264.1867 389.6617,264.1867 C387.3147,264.1867 385.7717,262.8667 385.7717,260.7397 C385.7717,258.2447 387.8267,257.0687 390.5417,256.2647 L397.3657,254.3547 L397.3657,257.0687 Z M429.1337,264.5537 C430.8207,268.7357 435.0027,271.3787 440.2847,271.3787 C450.2647,271.3787 455.9137,263.8217 455.9137,254.2107 C455.9137,244.6707 450.2647,237.0417 440.6517,237.0417 C435.0027,237.0417 431.4077,239.9037 429.7217,243.9387 L429.7217,224.2747 L419.0817,224.2747 L419.0817,270.4957 L426.9337,270.4957 L429.1337,264.5537 Z M429.5007,253.5507 C429.5007,248.3407 432.8037,244.9657 437.2777,244.9657 C442.3397,244.9657 445.1297,248.9287 445.1297,254.2107 C445.1297,259.4917 442.3397,263.4547 437.2777,263.4547 C432.8037,263.4547 429.5007,260.0797 429.5007,254.8697 L429.5007,253.5507 Z" id="Fill-1" fill="#231F20"></path>
            <mask id="mask-2" fill="white">
                <use xlink:href="#path-1"></use>
            </mask>
            <g id="Clip-4"></g>
            <path d="M331.995,203.672 L343.146,203.672 L343.146,157.448 L331.995,157.448 L331.995,203.672 Z M363.909,187.31 C363.909,182.101 366.624,178.431 370.954,178.431 C374.913,178.431 377.044,181.001 377.044,185.696 L377.044,203.672 L387.679,203.672 L387.679,183.273 C387.679,176.303 384.085,170.214 375.209,170.214 C370.146,170.214 365.449,173.076 363.909,176.963 L363.909,171.094 L353.27,171.094 L353.27,203.672 L363.909,203.672 L363.909,187.31 Z M407.491,187.31 C407.491,182.101 410.206,178.431 414.532,178.431 C418.495,178.431 420.622,181.001 420.622,185.696 L420.622,203.672 L431.26,203.672 L431.26,183.273 C431.26,176.303 427.667,170.214 418.79,170.214 C413.728,170.214 409.03,173.077 407.491,176.964 L407.491,171.094 L396.851,171.094 L396.851,203.672 L407.491,203.672 L407.491,187.31 Z M474.77,187.383 C474.77,177.331 466.99,170.214 456.574,170.214 C446.155,170.214 438.305,177.331 438.305,187.383 C438.305,197.507 446.154,204.552 456.574,204.552 C466.99,204.552 474.77,197.507 474.77,187.383 Z M449.162,187.383 C449.162,181.733 451.877,177.919 456.574,177.919 C461.268,177.919 463.983,181.733 463.983,187.383 C463.983,193.032 461.268,196.847 456.574,196.847 C451.877,196.847 449.162,193.032 449.162,187.383 Z M502.283,203.672 L515.194,171.094 L505.437,171.094 L497.145,192.96 L496.853,192.96 L488.928,171.094 L477.777,171.094 L490.688,203.672 L502.283,203.672 Z M528.036,182.393 C528.475,179.826 530.97,177.699 535.004,177.699 C537.864,177.699 539.551,178.799 539.551,181.441 L539.551,182.541 L529.135,185.183 C522.751,186.795 517.541,189.142 517.541,195.012 C517.541,200.882 522.018,204.184 528.179,204.184 C533.681,204.184 537.939,201.837 539.774,197.947 C540.434,201.689 543.954,204.479 548.651,204.479 C551.291,204.479 553.712,203.744 556.208,202.204 L555.472,195.895 C554.592,196.699 553.053,197.363 551.805,197.363 C550.486,197.363 549.531,196.627 549.531,195.088 L549.531,181.953 C549.531,173.445 544.029,170.214 535.517,170.214 C526.64,170.214 521.063,174.249 518.715,179.974 L528.036,182.393 Z M539.551,190.245 C539.551,194.72 535.737,197.363 531.85,197.363 C529.503,197.363 527.96,196.039 527.96,193.912 C527.96,191.417 530.015,190.245 532.73,189.438 L539.551,187.531 L539.551,190.245 Z M557.528,171.094 L557.528,178.431 L563.617,178.431 L563.617,192.005 C563.617,200.661 569.266,204.552 576.459,204.552 C582.988,204.552 587.315,201.101 589.738,197.507 L584.603,191.345 C582.693,194.5 581.521,196.039 578.291,196.039 C575.576,196.039 573.888,194.208 573.888,191.198 L573.888,178.431 L585.923,178.431 L585.923,171.094 L573.888,171.094 L573.888,161.042 L563.617,163.097 L563.617,171.094 L557.528,171.094 Z M595.46,166.4 L606.759,166.4 L606.759,157.448 L595.46,157.448 L595.46,166.4 Z M595.827,203.672 L606.467,203.672 L606.467,171.098 L595.827,171.098 L595.827,203.672 Z M650.339,187.383 C650.339,177.331 642.563,170.215 632.144,170.215 C621.724,170.215 613.876,177.331 613.876,187.383 C613.876,197.507 621.724,204.552 632.143,204.552 C642.563,204.552 650.339,197.507 650.339,187.383 Z M624.735,187.383 C624.735,181.734 627.45,177.919 632.144,177.919 C636.841,177.919 639.552,181.734 639.552,187.383 C639.552,193.032 636.841,196.847 632.143,196.847 C627.45,196.847 624.735,193.032 624.735,187.383 Z M668.388,187.311 C668.388,182.101 671.103,178.431 675.429,178.431 C679.392,178.431 681.519,181.002 681.519,185.696 L681.519,203.672 L692.159,203.672 L692.159,183.273 C692.159,176.304 688.564,170.215 679.687,170.215 C674.623,170.215 669.928,173.077 668.388,176.964 L668.388,171.094 L657.749,171.094 L657.749,203.672 L668.388,203.672 L668.388,187.311 Z" id="Fill-3" fill="#231F20" mask="url(#mask-2)"></path>
            <path d="M331.9947,90.6214 L331.9947,136.8454 L369.5587,136.8454 L369.5587,127.0144 L343.1457,127.0144 L343.1457,90.6214 L331.9947,90.6214 Z M377.0437,99.5734 L388.3427,99.5734 L388.3437,90.6214 L377.0437,90.6214 L377.0437,99.5734 Z M377.4107,136.8454 L388.0507,136.8454 L388.0507,104.2714 L377.4117,104.2714 L377.4107,136.8454 Z M407.6387,130.9004 C409.3257,135.0824 413.5087,137.7254 418.7897,137.7254 C428.7657,137.7254 434.4157,130.1684 434.4157,120.5574 C434.4157,111.0174 428.7657,103.3884 419.1577,103.3884 C413.5087,103.3884 409.9137,106.2504 408.2237,110.2854 L408.2237,90.6214 L397.5877,90.6214 L397.5867,136.8454 L405.4357,136.8454 L407.6387,130.9004 Z M408.0027,119.8964 C408.0027,114.6874 411.3057,111.3124 415.7827,111.3124 C420.8457,111.3124 423.6327,115.2744 423.6327,120.5574 C423.6327,125.8384 420.8457,129.8014 415.7827,129.8014 C411.3057,129.8014 408.0027,126.4264 408.0027,121.2164 L408.0027,119.8964 Z M459.7287,112.0444 C463.1027,112.0444 464.6427,114.1724 464.6427,117.1824 C464.6427,117.7694 464.6427,118.4294 464.4987,118.9414 L473.1547,115.4954 C473.2267,115.3474 473.2267,115.0554 473.2267,114.9074 C473.2267,108.0824 469.7087,103.3884 463.1027,103.3884 C457.5257,103.3884 454.0077,107.4224 452.3197,111.1644 L452.3197,104.2674 L441.7527,104.2674 L441.7527,136.8454 L452.3197,136.8454 L452.3197,122.7564 C452.3197,116.8144 454.8107,112.0444 459.7287,112.0444 Z M487.1697,115.5674 C487.6087,113.0004 490.1037,110.8724 494.1387,110.8724 C497.0007,110.8724 498.6877,111.9724 498.6877,114.6124 L498.6877,115.7154 L488.2687,118.3544 C481.8877,119.9694 476.6777,122.3164 476.6777,128.1854 C476.6777,134.0554 481.1517,137.3574 487.3167,137.3574 C492.8187,137.3574 497.0727,135.0104 498.9077,131.1214 C499.5677,134.8634 503.0907,137.6504 507.7847,137.6504 C510.4277,137.6504 512.8497,136.9174 515.3417,135.3754 L514.6087,129.0654 C513.7287,129.8734 512.1867,130.5334 510.9387,130.5334 C509.6197,130.5334 508.6677,129.8014 508.6677,128.2614 L508.6677,115.1274 C508.6677,106.6154 503.1627,103.3884 494.6537,103.3884 C485.7737,103.3884 480.1997,107.4224 477.8527,113.1444 L487.1697,115.5674 Z M498.6877,123.4164 C498.6877,127.8934 494.8737,130.5334 490.9837,130.5334 C488.6367,130.5334 487.0977,129.2134 487.0977,127.0864 C487.0977,124.5914 489.1517,123.4164 491.8637,122.6124 L498.6877,120.7014 L498.6877,123.4164 Z M538.3797,112.0444 C541.7547,112.0444 543.2977,114.1724 543.2977,117.1824 C543.2977,117.7694 543.2977,118.4304 543.1487,118.9414 L551.8067,115.4954 C551.8817,115.3474 551.8817,115.0554 551.8817,114.9074 C551.8817,108.0824 548.3587,103.3884 541.7547,103.3884 C536.1807,103.3884 532.6577,107.4224 530.9707,111.1654 L530.9707,104.2674 L520.4067,104.2674 L520.4067,136.8464 L530.9707,136.8464 L530.9707,122.7564 C530.9707,116.8144 533.4657,112.0444 538.3797,112.0444 Z M568.9017,138.3094 C568.0947,140.2204 567.0667,141.5404 565.3067,141.5404 C563.1777,141.5404 562.0777,140.1444 562.0777,136.9184 L554.6687,140.6604 C555.3277,145.7944 559.0707,149.6094 565.1597,149.6094 C572.9367,149.6094 576.6797,143.7394 580.2017,135.3754 L593.0407,104.2684 L583.0607,104.2684 L575.1367,125.3994 L574.8447,125.3994 L566.8477,104.2684 L555.1807,104.2684 L569.4147,137.2104 L568.9017,138.3094 Z" id="Fill-5" fill="#231F20" mask="url(#mask-2)"></path>
            <polygon id="Fill-6" fill="#231F20" mask="url(#mask-2)" points="-0.9999 90.5755 -0.9999 361.1655 169.6371 361.1655 169.6371 268.9565 88.9821 267.8205 89.7021 0.0005"></polygon>
            <polygon id="Fill-7" fill="#231F20" mask="url(#mask-2)" points="95.3189 0.0003 95.3189 12.4753 107.7939 0.0003"></polygon>
            <polygon id="Fill-8" fill="#231F20" mask="url(#mask-2)" points="125.6983 0.0003 95.3193 30.3803 95.3193 48.2853 143.6033 0.0003"></polygon>
            <polygon id="Fill-9" fill="#231F20" mask="url(#mask-2)" points="161.5084 0.0003 95.3194 66.1903 95.3194 84.0953 179.4134 0.0003"></polygon>
            <polygon id="Fill-10" fill="#231F20" mask="url(#mask-2)" points="197.3179 0.0007 104.9729 92.3457 122.6289 92.5947 215.2229 0.0007"></polygon>
            <polygon id="Fill-11" fill="#231F20" mask="url(#mask-2)" points="233.1285 0.0007 140.2855 92.8437 157.9415 93.0927 251.0325 0.0007"></polygon>
            <polygon id="Fill-12" fill="#231F20" mask="url(#mask-2)" points="265.9556 2.9827 175.5976 93.3407 175.9736 93.3467 175.9266 110.9177 265.9556 20.8877"></polygon>
            <polygon id="Fill-13" fill="#231F20" mask="url(#mask-2)" points="265.9556 38.7927 175.8776 128.8707 175.8306 146.8237 265.9556 56.6977"></polygon>
            <polygon id="Fill-14" fill="#231F20" mask="url(#mask-2)" points="265.9556 74.6028 175.7816 164.7768 175.7336 182.7298 265.9556 92.5078"></polygon>
            <polygon id="Fill-15" fill="#231F20" mask="url(#mask-2)" points="265.9556 110.4129 175.6856 200.6839 175.6376 218.6369 265.9556 128.3179"></polygon>
            <polygon id="Fill-16" fill="#231F20" mask="url(#mask-2)" points="265.9556 146.2229 175.5886 236.5899 175.5406 254.5429 265.9556 164.1279"></polygon>
            <polygon id="Fill-17" fill="#231F20" mask="url(#mask-2)" points="265.9556 182.033 175.4926 272.496 175.4446 290.45 265.9556 199.938"></polygon>
            <polygon id="Fill-18" fill="#231F20" mask="url(#mask-2)" points="265.9556 217.843 175.3956 308.403 175.3476 326.356 265.9556 235.748"></polygon>
            <polygon id="Fill-19" fill="#231F20" mask="url(#mask-2)" points="265.9556 270.5906 265.9556 253.6536 175.2996 344.3096 175.2546 361.1656"></polygon>
        </g>
    </g>
</svg>