<?xml version="1.0" encoding="UTF-8"?>
<svg width="477px" height="25px" viewBox="0 0 477 25" version="1.1" xmlns="http://www.w3.org/2000/svg" xmlns:xlink="http://www.w3.org/1999/xlink">
    <!-- Generator: Sketch 51.3 (57544) - http://www.bohemiancoding.com/sketch -->
    <title>Group 45</title>
    <desc>Created with Sketch.</desc>
    <defs>
        <polygon id="path-1" points="0 0.5705 21.8458 0.5705 21.8458 25 0 25"></polygon>
        <polygon id="path-3" points="0.1599 0.5705 22.0059 0.5705 22.0059 25 0.1599 25"></polygon>
        <polygon id="path-5" points="0.6648 0.5705 22.5108 0.5705 22.5108 25 0.6648 25"></polygon>
        <polygon id="path-7" points="0.6189 0.5705 22.4649 0.5705 22.4649 25 0.6189 25"></polygon>
    </defs>
    <g id="Page-1" stroke="none" stroke-width="1" fill="none" fill-rule="evenodd">
        <g id="Artboard" transform="translate(-32.000000, -30.000000)">
            <g id="Group-45" transform="translate(32.000000, 29.000000)">
                <g id="Group-3" transform="translate(0.000000, 0.429700)">
                    <mask id="mask-2" fill="white">
                        <use xlink:href="#path-1"></use>
                    </mask>
                    <g id="Clip-2"></g>
                    <path d="M5.1338,23.3555 C3.4108,22.2595 2.1248,20.7865 1.2748,18.9345 C0.4248,17.0835 -0.0002,15.0395 -0.0002,12.8015 C-0.0002,10.5645 0.4218,8.5205 1.2668,6.6685 C2.1118,4.8185 3.3948,3.3385 5.1168,2.2315 C6.8398,1.1245 8.9478,0.5705 11.4438,0.5705 C13.8028,0.5705 15.8838,1.1545 17.6848,2.3235 C19.4858,3.4925 20.8618,5.1785 21.8128,7.3815 L17.8358,8.9595 C17.4098,7.4605 16.6418,6.3645 15.5288,5.6705 C14.4148,4.9775 13.0428,4.6305 11.4088,4.6305 C9.7988,4.6305 8.4558,4.9825 7.3828,5.6875 C6.3088,6.3925 5.5138,7.3455 4.9998,8.5475 C4.4858,9.7515 4.2278,11.1135 4.2278,12.6335 C4.2278,14.2555 4.4858,15.6905 4.9998,16.9375 C5.5138,18.1855 6.3148,19.1675 7.3998,19.8825 C8.4848,20.5985 9.8428,20.9565 11.4768,20.9565 C13.0428,20.9565 14.3488,20.6125 15.3948,19.9235 C16.4408,19.2365 17.2768,18.1155 17.9038,16.5605 L21.8458,18.1705 C20.9168,20.3755 19.5498,22.0635 17.7428,23.2385 C15.9368,24.4135 13.8478,25.0005 11.4768,25.0005 C8.9708,25.0005 6.8568,24.4525 5.1338,23.3555" id="Fill-1" fill="#FFD21B" mask="url(#mask-2)"></path>
                </g>
                <path d="M37.5264,16.3018 L34.3384,7.6448 L31.1334,16.3018 L37.5264,16.3018 Z M32.7274,1.3858 L35.9154,1.3858 L45.3624,25.0938 L40.7644,25.0938 L38.8684,19.9438 L29.7914,19.9438 L27.8784,25.0938 L23.2304,25.0938 L32.7274,1.3858 Z" id="Fill-4" fill="#FFD21B"></path>
                <path d="M51.8428,24.5742 C50.5508,24.0482 49.4608,23.2622 48.5718,22.2172 C47.6818,21.1712 47.1138,19.8982 46.8678,18.3992 L51.0968,17.3252 C51.2418,18.7342 51.7648,19.7982 52.6648,20.5132 C53.5658,21.2292 54.6818,21.5872 56.0128,21.5872 C56.8288,21.5872 57.5338,21.4562 58.1268,21.1932 C58.7198,20.9302 59.1668,20.5692 59.4688,20.1102 C59.7718,19.6522 59.9218,19.1372 59.9218,18.5672 C59.9218,17.8852 59.7128,17.3032 59.2928,16.8222 C58.8738,16.3412 58.3508,15.9442 57.7248,15.6312 C57.0978,15.3172 56.2368,14.9422 55.1408,14.5072 C53.7078,13.9362 52.5508,13.4072 51.6668,12.9212 C50.7828,12.4342 50.0258,11.7552 49.3938,10.8832 C48.7618,10.0102 48.4458,8.9082 48.4458,7.5772 C48.4458,6.2232 48.7788,5.0522 49.4448,4.0612 C50.1098,3.0722 51.0038,2.3192 52.1288,1.8042 C53.2528,1.2912 54.4908,1.0332 55.8448,1.0332 C57.3658,1.0332 58.7528,1.3772 60.0058,2.0652 C61.2588,2.7532 62.2768,3.7962 63.0598,5.1942 L59.5198,7.3582 C59.1058,6.5532 58.5638,5.9292 57.8918,5.4882 C57.2208,5.0462 56.4888,4.8252 55.6948,4.8252 C55.1348,4.8252 54.6288,4.9312 54.1758,5.1432 C53.7228,5.3562 53.3638,5.6562 53.1018,6.0422 C52.8388,6.4282 52.7068,6.8672 52.7068,7.3582 C52.7068,7.9632 52.9038,8.4772 53.2948,8.9022 C53.6858,9.3282 54.1808,9.6852 54.7798,9.9762 C55.3778,10.2672 56.1968,10.6142 57.2378,11.0162 C58.7138,11.5872 59.9108,12.1242 60.8278,12.6272 C61.7448,13.1312 62.5338,13.8352 63.1948,14.7412 C63.8538,15.6472 64.1838,16.7942 64.1838,18.1802 C64.1838,19.6362 63.8178,20.9052 63.0848,21.9902 C62.3528,23.0752 61.3598,23.9082 60.1068,24.4902 C58.8538,25.0712 57.4668,25.3622 55.9458,25.3622 C54.5028,25.3622 53.1348,25.0992 51.8428,24.5742" id="Fill-6" fill="#FFD21B"></path>
                <polygon id="Fill-8" fill="#FFD21B" points="68.9316 1.3858 84.7036 1.3858 84.7036 5.2948 73.1936 5.2948 73.1936 11.2848 83.9146 11.2848 83.9146 15.1948 73.1936 15.1948 73.1936 21.0678 84.7036 21.0678 84.7036 25.0938 68.9316 25.0938"></polygon>
                <polygon id="Fill-10" fill="#FFD21B" points="90.5078 1.3858 94.7698 1.3858 94.7698 21.0678 104.9038 21.0678 104.9038 25.0938 90.5078 25.0938"></polygon>
                <path d="M122.1172,16.3018 L118.9292,7.6448 L115.7242,16.3018 L122.1172,16.3018 Z M117.3182,1.3858 L120.5062,1.3858 L129.9532,25.0938 L125.3552,25.0938 L123.4592,19.9438 L114.3822,19.9438 L112.4692,25.0938 L107.8212,25.0938 L117.3182,1.3858 Z" id="Fill-12" fill="#FFD21B"></path>
                <polygon id="Fill-14" fill="#FFD21B" points="129.1309 1.3858 133.5599 1.3858 138.6099 18.8358 143.8619 2.7618 147.1679 2.7618 152.4189 18.8358 157.4699 1.3858 161.8999 1.3858 154.7849 25.0938 150.6749 25.0938 145.5069 9.4898 140.3559 25.0938 136.2439 25.0938"></polygon>
                <path d="M189.2285,16.3018 L186.0405,7.6448 L182.8355,16.3018 L189.2285,16.3018 Z M184.4295,1.3858 L187.6175,1.3858 L197.0645,25.0938 L192.4665,25.0938 L190.5705,19.9438 L181.4935,19.9438 L179.5805,25.0938 L174.9325,25.0938 L184.4295,1.3858 Z" id="Fill-16" fill="#FFD21B"></path>
                <g id="Group-20" transform="translate(198.000000, 0.429700)">
                    <mask id="mask-4" fill="white">
                        <use xlink:href="#path-3"></use>
                    </mask>
                    <g id="Clip-19"></g>
                    <path d="M5.2939,23.3555 C3.5709,22.2595 2.2849,20.7865 1.4359,18.9345 C0.5849,17.0835 0.1599,15.0395 0.1599,12.8015 C0.1599,10.5645 0.5819,8.5205 1.4269,6.6685 C2.2719,4.8185 3.5549,3.3385 5.2769,2.2315 C6.9999,1.1245 9.1079,0.5705 11.6039,0.5705 C13.9629,0.5705 16.0439,1.1545 17.8449,2.3235 C19.6459,3.4925 21.0219,5.1785 21.9729,7.3815 L17.9959,8.9595 C17.5699,7.4605 16.8019,6.3645 15.6889,5.6705 C14.5749,4.9775 13.2029,4.6305 11.5689,4.6305 C9.9589,4.6305 8.6159,4.9825 7.5429,5.6875 C6.4689,6.3925 5.6749,7.3455 5.1599,8.5475 C4.6459,9.7515 4.3889,11.1135 4.3889,12.6335 C4.3889,14.2555 4.6459,15.6905 5.1599,16.9375 C5.6749,18.1855 6.4749,19.1675 7.5599,19.8825 C8.6449,20.5985 10.0029,20.9565 11.6369,20.9565 C13.2029,20.9565 14.5089,20.6125 15.5549,19.9235 C16.6009,19.2365 17.4369,18.1155 18.0639,16.5605 L22.0059,18.1705 C21.0769,20.3755 19.7099,22.0635 17.9029,23.2385 C16.0969,24.4135 14.0079,25.0005 11.6369,25.0005 C9.1309,25.0005 7.0169,24.4525 5.2939,23.3555" id="Fill-18" fill="#FFD21B" mask="url(#mask-4)"></path>
                </g>
                <g id="Group-23" transform="translate(223.000000, 0.429700)">
                    <mask id="mask-6" fill="white">
                        <use xlink:href="#path-5"></use>
                    </mask>
                    <g id="Clip-22"></g>
                    <path d="M5.7988,23.3555 C4.0758,22.2595 2.7898,20.7865 1.9408,18.9345 C1.0898,17.0835 0.6648,15.0395 0.6648,12.8015 C0.6648,10.5645 1.0868,8.5205 1.9318,6.6685 C2.7768,4.8185 4.0598,3.3385 5.7818,2.2315 C7.5048,1.1245 9.6128,0.5705 12.1088,0.5705 C14.4678,0.5705 16.5488,1.1545 18.3498,2.3235 C20.1508,3.4925 21.5268,5.1785 22.4778,7.3815 L18.5008,8.9595 C18.0748,7.4605 17.3068,6.3645 16.1938,5.6705 C15.0798,4.9775 13.7078,4.6305 12.0738,4.6305 C10.4638,4.6305 9.1208,4.9825 8.0478,5.6875 C6.9738,6.3925 6.1798,7.3455 5.6648,8.5475 C5.1508,9.7515 4.8938,11.1135 4.8938,12.6335 C4.8938,14.2555 5.1508,15.6905 5.6648,16.9375 C6.1798,18.1855 6.9798,19.1675 8.0648,19.8825 C9.1498,20.5985 10.5078,20.9565 12.1418,20.9565 C13.7078,20.9565 15.0138,20.6125 16.0598,19.9235 C17.1058,19.2365 17.9418,18.1155 18.5688,16.5605 L22.5108,18.1705 C21.5818,20.3755 20.2148,22.0635 18.4078,23.2385 C16.6018,24.4135 14.5128,25.0005 12.1418,25.0005 C9.6358,25.0005 7.5218,24.4525 5.7988,23.3555" id="Fill-21" fill="#FFD21B" mask="url(#mask-6)"></path>
                </g>
                <polygon id="Fill-24" fill="#FFD21B" points="250.0576 1.3858 265.8296 1.3858 265.8296 5.2948 254.3196 5.2948 254.3196 11.2848 265.0406 11.2848 265.0406 15.1948 254.3196 15.1948 254.3196 21.0678 265.8296 21.0678 265.8296 25.0938 250.0576 25.0938"></polygon>
                <path d="M274.3096,24.5742 C273.0176,24.0482 271.9276,23.2622 271.0386,22.2172 C270.1486,21.1712 269.5806,19.8982 269.3346,18.3992 L273.5636,17.3252 C273.7086,18.7342 274.2316,19.7982 275.1316,20.5132 C276.0326,21.2292 277.1486,21.5872 278.4796,21.5872 C279.2956,21.5872 280.0006,21.4562 280.5936,21.1932 C281.1866,20.9302 281.6336,20.5692 281.9356,20.1102 C282.2386,19.6522 282.3886,19.1372 282.3886,18.5672 C282.3886,17.8852 282.1796,17.3032 281.7596,16.8222 C281.3406,16.3412 280.8176,15.9442 280.1916,15.6312 C279.5646,15.3172 278.7036,14.9422 277.6076,14.5072 C276.1746,13.9362 275.0176,13.4072 274.1336,12.9212 C273.2496,12.4342 272.4926,11.7552 271.8606,10.8832 C271.2286,10.0102 270.9126,8.9082 270.9126,7.5772 C270.9126,6.2232 271.2456,5.0522 271.9116,4.0612 C272.5766,3.0722 273.4706,2.3192 274.5956,1.8042 C275.7196,1.2912 276.9576,1.0332 278.3116,1.0332 C279.8326,1.0332 281.2196,1.3772 282.4726,2.0652 C283.7256,2.7532 284.7436,3.7962 285.5266,5.1942 L281.9866,7.3582 C281.5726,6.5532 281.0306,5.9292 280.3586,5.4882 C279.6876,5.0462 278.9556,4.8252 278.1616,4.8252 C277.6016,4.8252 277.0956,4.9312 276.6426,5.1432 C276.1896,5.3562 275.8306,5.6562 275.5686,6.0422 C275.3056,6.4282 275.1736,6.8672 275.1736,7.3582 C275.1736,7.9632 275.3706,8.4772 275.7616,8.9022 C276.1526,9.3282 276.6476,9.6852 277.2466,9.9762 C277.8446,10.2672 278.6636,10.6142 279.7046,11.0162 C281.1806,11.5872 282.3776,12.1242 283.2946,12.6272 C284.2116,13.1312 285.0006,13.8352 285.6616,14.7412 C286.3206,15.6472 286.6506,16.7942 286.6506,18.1802 C286.6506,19.6362 286.2846,20.9052 285.5516,21.9902 C284.8196,23.0752 283.8266,23.9082 282.5736,24.4902 C281.3206,25.0712 279.9336,25.3622 278.4126,25.3622 C276.9696,25.3622 275.6016,25.0992 274.3096,24.5742" id="Fill-26" fill="#FFD21B"></path>
                <path d="M294.7617,24.5742 C293.4697,24.0482 292.3797,23.2622 291.4907,22.2172 C290.6007,21.1712 290.0327,19.8982 289.7867,18.3992 L294.0157,17.3252 C294.1607,18.7342 294.6837,19.7982 295.5837,20.5132 C296.4847,21.2292 297.6007,21.5872 298.9317,21.5872 C299.7477,21.5872 300.4527,21.4562 301.0457,21.1932 C301.6387,20.9302 302.0857,20.5692 302.3877,20.1102 C302.6907,19.6522 302.8407,19.1372 302.8407,18.5672 C302.8407,17.8852 302.6317,17.3032 302.2117,16.8222 C301.7927,16.3412 301.2697,15.9442 300.6437,15.6312 C300.0167,15.3172 299.1557,14.9422 298.0597,14.5072 C296.6267,13.9362 295.4697,13.4072 294.5857,12.9212 C293.7017,12.4342 292.9447,11.7552 292.3127,10.8832 C291.6807,10.0102 291.3647,8.9082 291.3647,7.5772 C291.3647,6.2232 291.6977,5.0522 292.3637,4.0612 C293.0287,3.0722 293.9227,2.3192 295.0477,1.8042 C296.1717,1.2912 297.4097,1.0332 298.7637,1.0332 C300.2847,1.0332 301.6717,1.3772 302.9247,2.0652 C304.1777,2.7532 305.1957,3.7962 305.9787,5.1942 L302.4387,7.3582 C302.0247,6.5532 301.4827,5.9292 300.8107,5.4882 C300.1397,5.0462 299.4077,4.8252 298.6137,4.8252 C298.0537,4.8252 297.5477,4.9312 297.0947,5.1432 C296.6417,5.3562 296.2827,5.6562 296.0207,6.0422 C295.7577,6.4282 295.6257,6.8672 295.6257,7.3582 C295.6257,7.9632 295.8227,8.4772 296.2137,8.9022 C296.6047,9.3282 297.0997,9.6852 297.6987,9.9762 C298.2967,10.2672 299.1157,10.6142 300.1567,11.0162 C301.6327,11.5872 302.8297,12.1242 303.7467,12.6272 C304.6637,13.1312 305.4527,13.8352 306.1137,14.7412 C306.7727,15.6472 307.1027,16.7942 307.1027,18.1802 C307.1027,19.6362 306.7367,20.9052 306.0037,21.9902 C305.2717,23.0752 304.2787,23.9082 303.0257,24.4902 C301.7727,25.0712 300.3857,25.3622 298.8647,25.3622 C297.4217,25.3622 296.0537,25.0992 294.7617,24.5742" id="Fill-28" fill="#FFD21B"></path>
                <path d="M331.0078,11.2852 C332.4398,11.2852 333.4878,11.0452 334.1538,10.5632 C334.8198,10.0832 335.1528,9.3612 335.1528,8.3992 C335.1528,6.3752 333.7708,5.3622 331.0078,5.3622 L327.8038,5.3622 L327.8038,11.2852 L331.0078,11.2852 Z M323.5748,1.3862 L331.0078,1.3862 C332.6298,1.3862 334.0728,1.6622 335.3368,2.2162 C336.6008,2.7692 337.5908,3.5752 338.3068,4.6322 C339.0228,5.6892 339.3808,6.9452 339.3808,8.3992 C339.3808,9.8422 339.0228,11.0782 338.3068,12.1072 C337.5908,13.1372 336.6008,13.9192 335.3368,14.4562 C334.0728,14.9932 332.6298,15.2622 331.0078,15.2622 L327.8038,15.2622 L327.8038,25.0942 L323.5748,25.0942 L323.5748,1.3862 Z" id="Fill-30" fill="#FFD21B"></path>
                <path d="M351.5537,11.4863 C352.6837,11.4413 353.5677,11.1453 354.2047,10.5963 C354.8427,10.0493 355.1607,9.3283 355.1607,8.4323 C355.1607,7.4483 354.8027,6.6623 354.0877,6.0753 C353.3707,5.4883 352.4087,5.1943 351.2007,5.1943 L347.7947,5.1943 L347.7947,11.4863 L351.5537,11.4863 Z M343.4997,1.3853 L351.1677,1.3853 C352.6667,1.3853 354.0397,1.6623 355.2867,2.2153 C356.5337,2.7693 357.5277,3.5753 358.2657,4.6323 C359.0037,5.6893 359.3727,6.9333 359.3727,8.3653 C359.3727,9.3393 359.1767,10.2363 358.7847,11.0583 C358.3937,11.8813 357.8487,12.5883 357.1497,13.1803 C356.4497,13.7743 355.6477,14.2273 354.7417,14.5403 L361.3357,25.0933 L356.4527,25.0933 L350.6147,14.9603 L349.2387,14.9603 L347.7617,14.9603 L347.7617,25.0933 L343.4997,25.0933 L343.4997,1.3853 Z" id="Fill-32" fill="#FFD21B"></path>
                <path d="M379.041,20.5215 C380.076,19.7665 380.828,18.7575 381.298,17.4935 C381.768,16.2295 382.003,14.8085 382.003,13.2315 C382.003,11.6545 381.768,10.2365 381.298,8.9775 C380.828,7.7195 380.076,6.7125 379.041,5.9585 C378.007,5.2035 376.678,4.8255 375.057,4.8255 C373.435,4.8255 372.105,5.2035 371.071,5.9585 C370.036,6.7125 369.284,7.7195 368.814,8.9775 C368.345,10.2365 368.11,11.6545 368.11,13.2315 C368.11,14.8085 368.345,16.2295 368.814,17.4935 C369.284,18.7575 370.036,19.7665 371.071,20.5215 C372.105,21.2765 373.435,21.6545 375.057,21.6545 C376.678,21.6545 378.007,21.2765 379.041,20.5215 M368.723,23.7775 C367.005,22.6745 365.725,21.2015 364.88,19.3555 C364.035,17.5095 363.613,15.4685 363.613,13.2315 C363.613,10.9945 364.035,8.9535 364.88,7.1075 C365.725,5.2615 367.005,3.7885 368.723,2.6855 C370.439,1.5845 372.551,1.0335 375.057,1.0335 C377.562,1.0335 379.673,1.5845 381.391,2.6855 C383.107,3.7885 384.388,5.2615 385.232,7.1075 C386.077,8.9535 386.499,10.9945 386.499,13.2315 C386.499,15.4685 386.077,17.5095 385.232,19.3555 C384.388,21.2015 383.107,22.6745 381.391,23.7775 C379.673,24.8785 377.562,25.4295 375.057,25.4295 C372.551,25.4295 370.439,24.8785 368.723,23.7775" id="Fill-34" fill="#FFD21B"></path>
                <path d="M393.6709,24.3975 C392.5019,23.7105 391.5849,22.7785 390.9199,21.6045 C390.2539,20.4295 389.8709,19.1315 389.7709,17.7105 L393.9649,17.2245 C394.0549,18.4895 394.4119,19.5145 395.0389,20.3035 C395.6649,21.0915 396.5759,21.4865 397.7739,21.4865 C398.7699,21.4865 399.5379,21.2995 400.0809,20.9245 C400.6229,20.5495 400.9979,20.0125 401.2049,19.3135 C401.4119,18.6155 401.5159,17.7105 401.5159,16.6035 L401.5159,5.2945 L392.5889,5.2945 L392.5889,1.3855 L405.7769,1.3855 L405.7769,16.5375 C405.7769,19.2445 405.1309,21.4025 403.8389,23.0135 C402.5469,24.6245 400.5249,25.4295 397.7739,25.4295 C396.2069,25.4295 394.8399,25.0855 393.6709,24.3975" id="Fill-36" fill="#FFD21B"></path>
                <polygon id="Fill-38" fill="#FFD21B" points="412.1016 1.3858 427.8736 1.3858 427.8736 5.2948 416.3636 5.2948 416.3636 11.2848 427.0846 11.2848 427.0846 15.1948 416.3636 15.1948 416.3636 21.0678 427.8736 21.0678 427.8736 25.0938 412.1016 25.0938"></polygon>
                <g id="Group-42" transform="translate(432.000000, 0.429700)">
                    <mask id="mask-8" fill="white">
                        <use xlink:href="#path-7"></use>
                    </mask>
                    <g id="Clip-41"></g>
                    <path d="M5.7529,23.3555 C4.0299,22.2595 2.7439,20.7865 1.8949,18.9345 C1.0439,17.0835 0.6189,15.0395 0.6189,12.8015 C0.6189,10.5645 1.0409,8.5205 1.8859,6.6685 C2.7309,4.8185 4.0139,3.3385 5.7359,2.2315 C7.4589,1.1245 9.5669,0.5705 12.0629,0.5705 C14.4219,0.5705 16.5029,1.1545 18.3039,2.3235 C20.1049,3.4925 21.4809,5.1785 22.4319,7.3815 L18.4549,8.9595 C18.0289,7.4605 17.2609,6.3645 16.1479,5.6705 C15.0339,4.9775 13.6619,4.6305 12.0279,4.6305 C10.4179,4.6305 9.0749,4.9825 8.0019,5.6875 C6.9279,6.3925 6.1339,7.3455 5.6189,8.5475 C5.1049,9.7515 4.8479,11.1135 4.8479,12.6335 C4.8479,14.2555 5.1049,15.6905 5.6189,16.9375 C6.1339,18.1855 6.9339,19.1675 8.0189,19.8825 C9.1039,20.5985 10.4619,20.9565 12.0959,20.9565 C13.6619,20.9565 14.9679,20.6125 16.0139,19.9235 C17.0599,19.2365 17.8959,18.1155 18.5229,16.5605 L22.4649,18.1705 C21.5359,20.3755 20.1689,22.0635 18.3619,23.2385 C16.5559,24.4135 14.4669,25.0005 12.0959,25.0005 C9.5899,25.0005 7.4759,24.4525 5.7529,23.3555" id="Fill-40" fill="#FFD21B" mask="url(#mask-8)"></path>
                </g>
                <polygon id="Fill-43" fill="#FFD21B" points="464.833 5.1943 457.4 5.1943 457.4 1.3853 476.511 1.3853 476.511 5.1943 469.095 5.1943 469.095 25.0933 464.833 25.0933"></polygon>
            </g>
        </g>
    </g>
</svg>