<?xml version="1.0" encoding="UTF-8"?>
<svg width="274px" height="117px" viewBox="0 0 274 117" version="1.1" xmlns="http://www.w3.org/2000/svg" xmlns:xlink="http://www.w3.org/1999/xlink">
    <!-- Generator: Sketch 51.3 (57544) - http://www.bohemiancoding.com/sketch -->
    <title>Artboard 2 Copy 5</title>
    <desc>Created with Sketch.</desc>
    <defs>
        <polygon id="path-1" points="0.4618 0.3163 23.4288 0.3163 23.4288 26 0.4618 26"></polygon>
        <polygon id="path-3" points="0 97.9379 255.599 97.9379 255.599 -0.0001 0 -0.0001"></polygon>
    </defs>
    <g id="Artboard-2-Copy-5" stroke="none" stroke-width="1" fill="none" fill-rule="evenodd">
        <g id="Group-44" transform="translate(8.000000, 10.000000)">
            <path d="M86.0463,23.9553 C84.2363,22.8033 82.8833,21.2533 81.9893,19.3073 C81.0963,17.3603 80.6493,15.2113 80.6493,12.8593 C80.6493,10.5083 81.0923,8.3583 81.9813,6.4133 C82.8683,4.4663 84.2183,2.9103 86.0283,1.7463 C87.8403,0.5823 90.0573,0.0003 92.6793,0.0003 C95.1613,0.0003 97.3483,0.6143 99.2413,1.8433 C101.1353,3.0723 102.5823,4.8463 103.5803,7.1623 L99.4003,8.8203 C98.9533,7.2443 98.1453,6.0913 96.9753,5.3623 C95.8043,4.6343 94.3613,4.2683 92.6443,4.2683 C90.9503,4.2683 89.5393,4.6393 88.4103,5.3803 C87.2813,6.1213 86.4463,7.1243 85.9053,8.3893 C85.3653,9.6513 85.0943,11.0833 85.0943,12.6833 C85.0943,14.3893 85.3653,15.8963 85.9053,17.2083 C86.4463,18.5193 87.2883,19.5513 88.4283,20.3043 C89.5693,21.0573 90.9983,21.4333 92.7143,21.4333 C94.3613,21.4333 95.7343,21.0703 96.8343,20.3493 C97.9333,19.6243 98.8133,18.4463 99.4713,16.8103 L103.6153,18.5043 C102.6403,20.8203 101.2023,22.5973 99.3043,23.8323 C97.4033,25.0663 95.2083,25.6843 92.7143,25.6843 C90.0803,25.6843 87.8583,25.1073 86.0463,23.9553" id="Fill-1" fill="#FFFFFF"></path>
            <path d="M120.39,16.0881 L117.038,6.9851 L113.669,16.0881 L120.39,16.0881 Z M115.345,0.4051 L118.697,0.4051 L128.628,25.3311 L123.795,25.3311 L121.802,19.9151 L112.258,19.9151 L110.247,25.3311 L105.361,25.3311 L115.345,0.4051 Z" id="Fill-3" fill="#FFFFFF"></path>
            <path d="M136.4906,24.7844 C135.1326,24.2314 133.9856,23.4054 133.0506,22.3054 C132.1156,21.2064 131.5186,19.8684 131.2596,18.2934 L135.7046,17.1644 C135.8576,18.6454 136.4076,19.7624 137.3546,20.5154 C138.3006,21.2684 139.4736,21.6444 140.8736,21.6444 C141.7316,21.6444 142.4726,21.5064 143.0956,21.2304 C143.7196,20.9534 144.1896,20.5734 144.5076,20.0924 C144.8246,19.6104 144.9836,19.0684 144.9836,18.4694 C144.9836,17.7514 144.7636,17.1404 144.3226,16.6354 C143.8816,16.1284 143.3326,15.7124 142.6726,15.3824 C142.0136,15.0524 141.1096,14.6594 139.9566,14.2004 C138.4516,13.6004 137.2336,13.0454 136.3036,12.5324 C135.3766,12.0224 134.5786,11.3064 133.9156,10.3894 C133.2506,9.4724 132.9176,8.3134 132.9176,6.9154 C132.9176,5.4914 133.2676,4.2614 133.9686,3.2194 C134.6666,2.1794 135.6086,1.3884 136.7906,0.8474 C137.9716,0.3054 139.2746,0.0354 140.6966,0.0354 C142.2966,0.0354 143.7556,0.3964 145.0716,1.1214 C146.3886,1.8434 147.4606,2.9404 148.2826,4.4104 L144.5596,6.6854 C144.1266,5.8394 143.5546,5.1834 142.8486,4.7194 C142.1426,4.2544 141.3746,4.0214 140.5386,4.0214 C139.9506,4.0214 139.4186,4.1334 138.9426,4.3564 C138.4666,4.5814 138.0896,4.8954 137.8136,5.3004 C137.5366,5.7074 137.3976,6.1684 137.3976,6.6854 C137.3976,7.3204 137.6046,7.8624 138.0156,8.3084 C138.4276,8.7554 138.9476,9.1324 139.5776,9.4374 C140.2056,9.7424 141.0676,10.1074 142.1616,10.5314 C143.7136,11.1314 144.9726,11.6954 145.9356,12.2244 C146.9006,12.7544 147.7296,13.4944 148.4236,14.4474 C149.1176,15.3994 149.4646,16.6044 149.4646,18.0634 C149.4646,19.5934 149.0786,20.9274 148.3086,22.0674 C147.5386,23.2094 146.4956,24.0844 145.1776,24.6964 C143.8616,25.3074 142.4026,25.6134 140.8026,25.6134 C139.2856,25.6134 137.8486,25.3364 136.4906,24.7844" id="Fill-5" fill="#FFFFFF"></path>
            <polygon id="Fill-7" fill="#FFFFFF" points="155.4672 0.4055 172.0492 0.4055 172.0492 4.5155 159.9472 4.5155 159.9472 10.8135 171.2202 10.8135 171.2202 14.9235 159.9472 14.9235 159.9472 21.0975 172.0492 21.0975 172.0492 25.3315 155.4672 25.3315"></polygon>
            <polygon id="Fill-9" fill="#FFFFFF" points="179.1996 0.4055 183.6796 0.4055 183.6796 21.0975 194.3356 21.0975 194.3356 25.3315 179.1996 25.3315"></polygon>
            <path d="M212.0404,16.0881 L208.6884,6.9851 L205.3194,16.0881 L212.0404,16.0881 Z M206.9954,0.4051 L210.3474,0.4051 L220.2784,25.3311 L215.4444,25.3311 L213.4514,19.9151 L203.9084,19.9151 L201.8964,25.3311 L197.0114,25.3311 L206.9954,0.4051 Z" id="Fill-11" fill="#FFFFFF"></path>
            <polygon id="Fill-13" fill="#FFFFFF" points="221.1479 0.4055 225.8049 0.4055 231.1149 18.7515 236.6359 1.8515 240.1109 1.8515 245.6319 18.7515 250.9419 0.4055 255.5989 0.4055 248.1199 25.3315 243.7979 25.3315 238.3649 8.9265 232.9499 25.3315 228.6269 25.3315"></polygon>
            <path d="M94.4433,52.2151 L91.0913,43.1121 L87.7223,52.2151 L94.4433,52.2151 Z M89.3983,36.5321 L92.7503,36.5321 L102.6813,61.4581 L97.8483,61.4581 L95.8543,56.0421 L86.3113,56.0421 L84.3003,61.4581 L79.4143,61.4581 L89.3983,36.5321 Z" id="Fill-15" fill="#FFFFFF"></path>
            <path d="M110.2436,60.0822 C108.4316,58.9302 107.0786,57.3802 106.1856,55.4342 C105.2916,53.4872 104.8456,51.3382 104.8456,48.9862 C104.8456,46.6352 105.2896,44.4852 106.1766,42.5402 C107.0656,40.5932 108.4146,39.0372 110.2256,37.8732 C112.0356,36.7092 114.2536,36.1272 116.8766,36.1272 C119.3566,36.1272 121.5446,36.7412 123.4376,37.9702 C125.3316,39.1992 126.7776,40.9732 127.7776,43.2892 L123.5976,44.9472 C123.1486,43.3712 122.3426,42.2182 121.1706,41.4892 C120.0016,40.7612 118.5566,40.3952 116.8416,40.3952 C115.1466,40.3952 113.7356,40.7662 112.6066,41.5072 C111.4776,42.2482 110.6416,43.2512 110.1016,44.5162 C109.5606,45.7782 109.2906,47.2102 109.2906,48.8102 C109.2906,50.5162 109.5606,52.0232 110.1016,53.3352 C110.6416,54.6462 111.4836,55.6782 112.6246,56.4312 C113.7646,57.1842 115.1936,57.5602 116.9116,57.5602 C118.5566,57.5602 119.9306,57.1972 121.0296,56.4762 C122.1306,55.7512 123.0086,54.5732 123.6676,52.9372 L127.8126,54.6312 C126.8366,56.9472 125.3986,58.7242 123.4996,59.9592 C121.6006,61.1932 119.4036,61.8112 116.9116,61.8112 C114.2756,61.8112 112.0536,61.2342 110.2436,60.0822" id="Fill-17" fill="#FFFFFF"></path>
            <path d="M137.0209,60.0822 C135.2109,58.9302 133.8579,57.3802 132.9639,55.4342 C132.0709,53.4872 131.6239,51.3382 131.6239,48.9862 C131.6239,46.6352 132.0669,44.4852 132.9559,42.5402 C133.8429,40.5932 135.1929,39.0372 137.0029,37.8732 C138.8149,36.7092 141.0319,36.1272 143.6539,36.1272 C146.1349,36.1272 148.3229,36.7412 150.2159,37.9702 C152.1099,39.1992 153.5569,40.9732 154.5549,43.2892 L150.3749,44.9472 C149.9279,43.3712 149.1199,42.2182 147.9499,41.4892 C146.7789,40.7612 145.3359,40.3952 143.6189,40.3952 C141.9249,40.3952 140.5139,40.7662 139.3849,41.5072 C138.2559,42.2482 137.4209,43.2512 136.8799,44.5162 C136.3399,45.7782 136.0689,47.2102 136.0689,48.8102 C136.0689,50.5162 136.3399,52.0232 136.8799,53.3352 C137.4209,54.6462 138.2629,55.6782 139.4029,56.4312 C140.5429,57.1842 141.9719,57.5602 143.6889,57.5602 C145.3359,57.5602 146.7089,57.1972 147.8089,56.4762 C148.9079,55.7512 149.7879,54.5732 150.4449,52.9372 L154.5899,54.6312 C153.6149,56.9472 152.1759,58.7242 150.2789,59.9592 C148.3779,61.1932 146.1829,61.8112 143.6889,61.8112 C141.0549,61.8112 138.8329,61.2342 137.0209,60.0822" id="Fill-19" fill="#FFFFFF"></path>
            <polygon id="Fill-21" fill="#FFFFFF" points="160.4184 36.5324 177.0004 36.5324 177.0004 40.6424 164.8984 40.6424 164.8984 46.9404 176.1714 46.9404 176.1714 51.0504 164.8984 51.0504 164.8984 57.2244 177.0004 57.2244 177.0004 61.4584 160.4184 61.4584"></polygon>
            <path d="M186.9272,60.9113 C185.5702,60.3583 184.4222,59.5323 183.4882,58.4323 C182.5532,57.3333 181.9552,55.9953 181.6982,54.4203 L186.1432,53.2913 C186.2952,54.7723 186.8462,55.8893 187.7922,56.6423 C188.7392,57.3953 189.9112,57.7713 191.3122,57.7713 C192.1692,57.7713 192.9102,57.6333 193.5342,57.3573 C194.1572,57.0803 194.6282,56.7003 194.9462,56.2193 C195.2632,55.7373 195.4222,55.1953 195.4222,54.5963 C195.4222,53.8783 195.2002,53.2673 194.7602,52.7623 C194.3192,52.2553 193.7692,51.8393 193.1112,51.5093 C192.4512,51.1793 191.5462,50.7863 190.3952,50.3273 C188.8882,49.7273 187.6712,49.1723 186.7422,48.6593 C185.8142,48.1493 185.0172,47.4333 184.3522,46.5163 C183.6892,45.5993 183.3562,44.4403 183.3562,43.0423 C183.3562,41.6183 183.7062,40.3883 184.4052,39.3463 C185.1052,38.3063 186.0452,37.5153 187.2282,36.9743 C188.4092,36.4323 189.7122,36.1623 191.1352,36.1623 C192.7342,36.1623 194.1932,36.5233 195.5102,37.2483 C196.8262,37.9703 197.8972,39.0673 198.7212,40.5373 L194.9982,42.8123 C194.5632,41.9663 193.9932,41.3103 193.2872,40.8463 C192.5812,40.3813 191.8112,40.1483 190.9772,40.1483 C190.3882,40.1483 189.8562,40.2603 189.3792,40.4833 C188.9042,40.7083 188.5282,41.0223 188.2502,41.4273 C187.9752,41.8343 187.8362,42.2953 187.8362,42.8123 C187.8362,43.4473 188.0412,43.9893 188.4542,44.4353 C188.8652,44.8823 189.3862,45.2593 190.0152,45.5643 C190.6442,45.8693 191.5062,46.2343 192.6002,46.6583 C194.1522,47.2583 195.4092,47.8223 196.3742,48.3513 C197.3382,48.8813 198.1672,49.6213 198.8622,50.5743 C199.5552,51.5263 199.9032,52.7313 199.9032,54.1903 C199.9032,55.7203 199.5172,57.0543 198.7462,58.1943 C197.9772,59.3363 196.9322,60.2113 195.6152,60.8233 C194.2982,61.4343 192.8402,61.7403 191.2412,61.7403 C189.7242,61.7403 188.2852,61.4633 186.9272,60.9113" id="Fill-23" fill="#FFFFFF"></path>
            <path d="M208.7553,60.9113 C207.3973,60.3583 206.2503,59.5323 205.3163,58.4323 C204.3803,57.3333 203.7833,55.9953 203.5243,54.4203 L207.9693,53.2913 C208.1223,54.7723 208.6723,55.8893 209.6193,56.6423 C210.5663,57.3953 211.7383,57.7713 213.1383,57.7713 C213.9973,57.7713 214.7373,57.6333 215.3603,57.3573 C215.9843,57.0803 216.4543,56.7003 216.7723,56.2193 C217.0893,55.7373 217.2483,55.1953 217.2483,54.5963 C217.2483,53.8783 217.0283,53.2673 216.5873,52.7623 C216.1473,52.2553 215.5973,51.8393 214.9373,51.5093 C214.2793,51.1793 213.3743,50.7863 212.2213,50.3273 C210.7163,49.7273 209.4983,49.1723 208.5693,48.6593 C207.6413,48.1493 206.8433,47.4333 206.1803,46.5163 C205.5153,45.5993 205.1823,44.4403 205.1823,43.0423 C205.1823,41.6183 205.5323,40.3883 206.2333,39.3463 C206.9313,38.3063 207.8733,37.5153 209.0553,36.9743 C210.2363,36.4323 211.5393,36.1623 212.9613,36.1623 C214.5623,36.1623 216.0203,36.5233 217.3363,37.2483 C218.6533,37.9703 219.7253,39.0673 220.5473,40.5373 L216.8243,42.8123 C216.3913,41.9663 215.8193,41.3103 215.1133,40.8463 C214.4083,40.3813 213.6393,40.1483 212.8033,40.1483 C212.2153,40.1483 211.6833,40.2603 211.2073,40.4833 C210.7313,40.7083 210.3543,41.0223 210.0783,41.4273 C209.8013,41.8343 209.6623,42.2953 209.6623,42.8123 C209.6623,43.4473 209.8693,43.9893 210.2803,44.4353 C210.6923,44.8823 211.2123,45.2593 211.8423,45.5643 C212.4703,45.8693 213.3323,46.2343 214.4263,46.6583 C215.9783,47.2583 217.2373,47.8223 218.2003,48.3513 C219.1653,48.8813 219.9943,49.6213 220.6883,50.5743 C221.3833,51.5263 221.7293,52.7313 221.7293,54.1903 C221.7293,55.7203 221.3433,57.0543 220.5733,58.1943 C219.8033,59.3363 218.7603,60.2113 217.4423,60.8233 C216.1263,61.4343 214.6673,61.7403 213.0673,61.7403 C211.5503,61.7403 210.1133,61.4633 208.7553,60.9113" id="Fill-25" fill="#FFFFFF"></path>
            <path d="M90.2274,83.0676 C91.7334,83.0676 92.8354,82.8146 93.5354,82.3086 C94.2344,81.8026 94.5844,81.0446 94.5844,80.0336 C94.5844,77.9046 93.1324,76.8396 90.2274,76.8396 L86.8574,76.8396 L86.8574,83.0676 L90.2274,83.0676 Z M82.4124,72.6596 L90.2274,72.6596 C91.9334,72.6596 93.4504,72.9516 94.7784,73.5326 C96.1074,74.1156 97.1484,74.9626 97.9004,76.0726 C98.6534,77.1846 99.0294,78.5046 99.0294,80.0336 C99.0294,81.5496 98.6534,82.8496 97.9004,83.9316 C97.1484,85.0126 96.1074,85.8376 94.7784,86.4016 C93.4504,86.9656 91.9334,87.2486 90.2274,87.2486 L86.8574,87.2486 L86.8574,97.5856 L82.4124,97.5856 L82.4124,72.6596 Z" id="Fill-27" fill="#FFFFFF"></path>
            <path d="M113.5609,83.2785 C114.7489,83.2315 115.6779,82.9215 116.3479,82.3435 C117.0189,81.7675 117.3539,81.0085 117.3539,80.0685 C117.3539,79.0335 116.9779,78.2085 116.2249,77.5895 C115.4729,76.9725 114.4599,76.6645 113.1909,76.6645 L109.6099,76.6645 L109.6099,83.2785 L113.5609,83.2785 Z M105.0939,72.6595 L113.1559,72.6595 C114.7319,72.6595 116.1739,72.9515 117.4869,73.5325 C118.7969,74.1155 119.8409,74.9625 120.6169,76.0725 C121.3929,77.1845 121.7819,78.4935 121.7819,79.9985 C121.7819,81.0205 121.5769,81.9645 121.1639,82.8305 C120.7519,83.6925 120.1789,84.4375 119.4449,85.0605 C118.7089,85.6835 117.8659,86.1595 116.9129,86.4895 L123.8449,97.5855 L118.7119,97.5855 L112.5739,86.9305 L111.1259,86.9305 L109.5749,86.9305 L109.5749,97.5855 L105.0939,97.5855 L105.0939,72.6595 Z" id="Fill-29" fill="#FFFFFF"></path>
            <path d="M143.5072,92.7785 C144.5952,91.9835 145.3862,90.9225 145.8802,89.5935 C146.3742,88.2655 146.6212,86.7715 146.6212,85.1135 C146.6212,83.4555 146.3742,81.9645 145.8802,80.6425 C145.3862,79.3175 144.5952,78.2595 143.5072,77.4665 C142.4202,76.6725 141.0232,76.2755 139.3192,76.2755 C137.6122,76.2755 136.2162,76.6725 135.1282,77.4665 C134.0412,78.2595 133.2502,79.3175 132.7562,80.6425 C132.2622,81.9645 132.0152,83.4555 132.0152,85.1135 C132.0152,86.7715 132.2622,88.2655 132.7562,89.5935 C133.2502,90.9225 134.0412,91.9835 135.1282,92.7785 C136.2162,93.5715 137.6122,93.9685 139.3192,93.9685 C141.0232,93.9685 142.4202,93.5715 143.5072,92.7785 M132.6582,96.2015 C130.8542,95.0425 129.5072,93.4925 128.6182,91.5515 C127.7322,89.6115 127.2872,87.4655 127.2872,85.1135 C127.2872,82.7615 127.7322,80.6155 128.6182,78.6745 C129.5072,76.7345 130.8542,75.1845 132.6582,74.0255 C134.4642,72.8685 136.6832,72.2895 139.3192,72.2895 C141.9522,72.2895 144.1722,72.8685 145.9772,74.0255 C147.7822,75.1845 149.1292,76.7345 150.0162,78.6745 C150.9042,80.6155 151.3492,82.7615 151.3492,85.1135 C151.3492,87.4655 150.9042,89.6115 150.0162,91.5515 C149.1292,93.4925 147.7822,95.0425 145.9772,96.2015 C144.1722,97.3585 141.9522,97.9375 139.3192,97.9375 C136.6832,97.9375 134.4642,97.3585 132.6582,96.2015" id="Fill-31" fill="#FFFFFF"></path>
            <path d="M159.1772,96.8528 C157.9482,96.1298 156.9842,95.1508 156.2832,93.9158 C155.5852,92.6808 155.1822,91.3178 155.0762,89.8238 L159.4872,89.3118 C159.5802,90.6398 159.9552,91.7208 160.6152,92.5478 C161.2742,93.3778 162.2322,93.7918 163.4902,93.7918 C164.5362,93.7918 165.3452,93.5958 165.9152,93.2028 C166.4872,92.8068 166.8802,92.2428 167.0972,91.5088 C167.3162,90.7738 167.4242,89.8238 167.4242,88.6598 L167.4242,76.7698 L158.0392,76.7698 L158.0392,72.6598 L171.9052,72.6598 L171.9052,88.5888 C171.9052,91.4338 171.2252,93.7048 169.8662,95.3978 C168.5082,97.0908 166.3832,97.9378 163.4902,97.9378 C161.8432,97.9378 160.4062,97.5778 159.1772,96.8528" id="Fill-33" fill="#FFFFFF"></path>
            <polygon id="Fill-35" fill="#FFFFFF" points="179.602 72.6594 196.183 72.6594 196.183 76.7694 184.082 76.7694 184.082 83.0674 195.354 83.0674 195.354 87.1774 184.082 87.1774 184.082 93.3514 196.183 93.3514 196.183 97.5854 179.602 97.5854"></polygon>
            <g id="Group-39" transform="translate(201.000000, 71.937900)">
                <mask id="mask-2" fill="white">
                    <use xlink:href="#path-1"></use>
                </mask>
                <g id="Clip-38"></g>
                <path d="M5.8598,24.2713 C4.0488,23.1193 2.6968,21.5693 1.8018,19.6233 C0.9098,17.6763 0.4618,15.5273 0.4618,13.1753 C0.4618,10.8243 0.9058,8.6743 1.7948,6.7293 C2.6818,4.7823 4.0318,3.2263 5.8418,2.0623 C7.6538,0.8983 9.8708,0.3163 12.4928,0.3163 C14.9738,0.3163 17.1618,0.9303 19.0538,2.1593 C20.9488,3.3883 22.3948,5.1623 23.3938,7.4783 L19.2138,9.1363 C18.7668,7.5603 17.9588,6.4073 16.7888,5.6783 C15.6178,4.9503 14.1748,4.5843 12.4578,4.5843 C10.7628,4.5843 9.3518,4.9553 8.2228,5.6963 C7.0938,6.4373 6.2598,7.4403 5.7178,8.7053 C5.1778,9.9673 4.9068,11.3993 4.9068,12.9993 C4.9068,14.7053 5.1778,16.2123 5.7178,17.5243 C6.2598,18.8353 7.1008,19.8673 8.2408,20.6203 C9.3818,21.3733 10.8108,21.7493 12.5278,21.7493 C14.1748,21.7493 15.5468,21.3863 16.6468,20.6653 C17.7468,19.9403 18.6258,18.7623 19.2838,17.1263 L23.4288,18.8203 C22.4538,21.1363 21.0148,22.9133 19.1168,24.1483 C17.2168,25.3823 15.0218,26.0003 12.5278,26.0003 C9.8938,26.0003 7.6718,25.4233 5.8598,24.2713" id="Fill-37" fill="#FFFFFF" mask="url(#mask-2)"></path>
            </g>
            <polygon id="Fill-40" fill="#FFFFFF" points="234.9252 76.6643 227.1112 76.6643 227.1112 72.6593 247.2022 72.6593 247.2022 76.6643 239.4052 76.6643 239.4052 97.5853 234.9252 97.5853"></polygon>
            <mask id="mask-4" fill="white">
                <use xlink:href="#path-3"></use>
            </mask>
            <g id="Clip-43"></g>
            <path d="M6.5,91.0759 L61.7,91.0759 L61.7,85.2759 L6.5,85.2759 L6.5,91.0759 Z M6.5,41.7759 L12.4,41.7759 L12.4,6.8759 L6.5,6.8759 L6.5,41.7759 Z M18.8,41.7759 L24.7,41.7759 L24.7,6.8759 L18.8,6.8759 L18.8,41.7759 Z M31.1,41.7759 L37,41.7759 L37,6.8759 L31.1,6.8759 L31.1,41.7759 Z M43.5,41.7759 L49.4,41.7759 L49.4,6.8759 L43.5,6.8759 L43.5,41.7759 Z M43.5,54.0759 L61.7,54.0759 L61.7,48.2759 L43.5,48.2759 L43.5,54.0759 Z M31.2,66.3759 L61.7,66.3759 L61.7,60.5759 L31.2,60.5759 L31.2,66.3759 Z M18.8,78.6749 L61.7,78.6749 L61.7,72.8749 L18.8,72.8749 L18.8,78.6749 Z M6.5,78.6749 L12.4,78.6749 L12.4,72.8749 L6.5,72.8749 L6.5,78.6749 Z M6.5,66.3749 L12.4,66.3749 L12.4,60.5749 L6.5,60.5749 L6.5,66.3749 Z M6.5,54.0759 L12.4,54.0759 L12.4,48.2759 L6.5,48.2759 L6.5,54.0759 Z M18.8,66.3759 L24.7,66.3759 L24.7,60.5759 L18.8,60.5759 L18.8,66.3759 Z M18.8,54.0759 L24.7,54.0759 L24.7,48.2759 L18.8,48.2759 L18.8,54.0759 Z M31.2,54.0759 L37.1,54.0759 L37.1,48.2759 L31.2,48.2759 L31.2,54.0759 Z M55.8,41.7759 L61.7,41.7759 L61.7,6.8759 L55.8,6.8759 L55.8,41.7759 Z M0,0.3749 L0,97.4749 L0.4,97.4749 L68.1,97.4749 L68.1,0.3749 L0,0.3749 Z" id="Fill-42" fill="#FF654D" mask="url(#mask-4)"></path>
        </g>
    </g>
</svg>