<?xml version="1.0" encoding="UTF-8"?>
<svg width="96px" height="32px" viewBox="0 0 96 32" version="1.1" xmlns="http://www.w3.org/2000/svg" xmlns:xlink="http://www.w3.org/1999/xlink">
    <!-- Generator: Sketch 51.3 (57544) - http://www.bohemiancoding.com/sketch -->
    <title>Group</title>
    <desc>Created with Sketch.</desc>
    <defs>
        <polygon id="path-1" points="0 0 31.9999686 0 31.9999686 31.9999921 0 31.9999921"></polygon>
        <polygon id="path-3" points="0 0 31.9999686 0 31.9999686 31.9999921 0 31.9999921"></polygon>
        <polygon id="path-5" points="0 0 31.9999686 0 31.9999686 31.9999921 0 31.9999921"></polygon>
    </defs>
    <g id="Page-1" stroke="none" stroke-width="1" fill="none" fill-rule="evenodd">
        <g id="Group">
            <g id="Group-3">
                <mask id="mask-2" fill="white">
                    <use xlink:href="#path-1"></use>
                </mask>
                <g id="Clip-2"></g>
                <path d="M23.2579145,13.3914025 C23.2676639,13.5345769 23.2676639,13.678459 23.2676639,13.8230486 C23.2676639,18.2355106 19.9084501,23.3238251 13.7668875,23.3238251 L13.7668875,23.3212305 C11.9524796,23.3236678 10.1756541,22.803884 8.6486172,21.8239135 C8.91240098,21.8554418 9.17783587,21.8715597 9.44350663,21.8720314 C10.947428,21.8736039 12.4080275,21.3691518 13.590455,20.4398152 C12.1618555,20.413083 10.9082732,19.4812305 10.4708088,18.1209553 C10.9711725,18.2173484 11.4869464,18.197771 11.9785828,18.063717 C10.4205681,17.7489848 9.30009631,16.3799037 9.29962457,14.7904393 L9.29962457,14.7481396 C9.764057,15.00697 10.2838408,15.1503017 10.8151823,15.1660265 C9.34782113,14.1861346 8.89510369,12.2342919 9.78143292,10.7085916 C11.4769612,12.7946457 13.9783862,14.0627735 16.6632413,14.1973779 C16.3216197,12.7256138 17.0098162,11.2077759 18.3418654,10.4948914 C19.6739145,9.78200688 21.318573,10.051373 22.353659,11.1519528 C23.1014526,11.0045327 23.8185042,10.7303705 24.4739931,10.3414172 C24.2247548,11.114685 23.7030054,11.7710388 23.0059243,12.1882968 C23.6679391,12.1101445 24.3144649,11.9330044 24.9238015,11.6630093 C24.475487,12.3334369 23.9114378,12.9187145 23.2579145,13.3914025 M16.2751528,-7.86240786e-06 L15.7247843,-7.86240786e-06 C7.04020442,-7.86240786e-06 -3.14496315e-05,7.04022801 -3.14496315e-05,15.7248079 L-3.14496315e-05,16.2751764 C-3.14496315e-05,24.9597563 7.04020442,31.9999921 15.7247843,31.9999921 L16.2751528,31.9999921 C24.9598113,31.9999921 31.9999686,24.9597563 31.9999686,16.2751764 L31.9999686,15.7248079 C31.9999686,7.04022801 24.9598113,-7.86240786e-06 16.2751528,-7.86240786e-06" id="Fill-1" fill="#2A2A2A" mask="url(#mask-2)"></path>
            </g>
            <g id="Group-3-Copy" transform="translate(32.000000, 0.000000)">
                <mask id="mask-4" fill="white">
                    <use xlink:href="#path-3"></use>
                </mask>
                <g id="Clip-2"></g>
                <path d="M23.2579145,13.3914025 C23.2676639,13.5345769 23.2676639,13.678459 23.2676639,13.8230486 C23.2676639,18.2355106 19.9084501,23.3238251 13.7668875,23.3238251 L13.7668875,23.3212305 C11.9524796,23.3236678 10.1756541,22.803884 8.6486172,21.8239135 C8.91240098,21.8554418 9.17783587,21.8715597 9.44350663,21.8720314 C10.947428,21.8736039 12.4080275,21.3691518 13.590455,20.4398152 C12.1618555,20.413083 10.9082732,19.4812305 10.4708088,18.1209553 C10.9711725,18.2173484 11.4869464,18.197771 11.9785828,18.063717 C10.4205681,17.7489848 9.30009631,16.3799037 9.29962457,14.7904393 L9.29962457,14.7481396 C9.764057,15.00697 10.2838408,15.1503017 10.8151823,15.1660265 C9.34782113,14.1861346 8.89510369,12.2342919 9.78143292,10.7085916 C11.4769612,12.7946457 13.9783862,14.0627735 16.6632413,14.1973779 C16.3216197,12.7256138 17.0098162,11.2077759 18.3418654,10.4948914 C19.6739145,9.78200688 21.318573,10.051373 22.353659,11.1519528 C23.1014526,11.0045327 23.8185042,10.7303705 24.4739931,10.3414172 C24.2247548,11.114685 23.7030054,11.7710388 23.0059243,12.1882968 C23.6679391,12.1101445 24.3144649,11.9330044 24.9238015,11.6630093 C24.475487,12.3334369 23.9114378,12.9187145 23.2579145,13.3914025 M16.2751528,-7.86240786e-06 L15.7247843,-7.86240786e-06 C7.04020442,-7.86240786e-06 -3.14496315e-05,7.04022801 -3.14496315e-05,15.7248079 L-3.14496315e-05,16.2751764 C-3.14496315e-05,24.9597563 7.04020442,31.9999921 15.7247843,31.9999921 L16.2751528,31.9999921 C24.9598113,31.9999921 31.9999686,24.9597563 31.9999686,16.2751764 L31.9999686,15.7248079 C31.9999686,7.04022801 24.9598113,-7.86240786e-06 16.2751528,-7.86240786e-06" id="Fill-1" fill="#6350FD" mask="url(#mask-4)"></path>
            </g>
            <g id="Group-3-Copy-2" transform="translate(64.000000, 0.000000)">
                <mask id="mask-6" fill="white">
                    <use xlink:href="#path-5"></use>
                </mask>
                <g id="Clip-2"></g>
                <path d="M23.2579145,13.3914025 C23.2676639,13.5345769 23.2676639,13.678459 23.2676639,13.8230486 C23.2676639,18.2355106 19.9084501,23.3238251 13.7668875,23.3238251 L13.7668875,23.3212305 C11.9524796,23.3236678 10.1756541,22.803884 8.6486172,21.8239135 C8.91240098,21.8554418 9.17783587,21.8715597 9.44350663,21.8720314 C10.947428,21.8736039 12.4080275,21.3691518 13.590455,20.4398152 C12.1618555,20.413083 10.9082732,19.4812305 10.4708088,18.1209553 C10.9711725,18.2173484 11.4869464,18.197771 11.9785828,18.063717 C10.4205681,17.7489848 9.30009631,16.3799037 9.29962457,14.7904393 L9.29962457,14.7481396 C9.764057,15.00697 10.2838408,15.1503017 10.8151823,15.1660265 C9.34782113,14.1861346 8.89510369,12.2342919 9.78143292,10.7085916 C11.4769612,12.7946457 13.9783862,14.0627735 16.6632413,14.1973779 C16.3216197,12.7256138 17.0098162,11.2077759 18.3418654,10.4948914 C19.6739145,9.78200688 21.318573,10.051373 22.353659,11.1519528 C23.1014526,11.0045327 23.8185042,10.7303705 24.4739931,10.3414172 C24.2247548,11.114685 23.7030054,11.7710388 23.0059243,12.1882968 C23.6679391,12.1101445 24.3144649,11.9330044 24.9238015,11.6630093 C24.475487,12.3334369 23.9114378,12.9187145 23.2579145,13.3914025 M16.2751528,-7.86240786e-06 L15.7247843,-7.86240786e-06 C7.04020442,-7.86240786e-06 -3.14496315e-05,7.04022801 -3.14496315e-05,15.7248079 L-3.14496315e-05,16.2751764 C-3.14496315e-05,24.9597563 7.04020442,31.9999921 15.7247843,31.9999921 L16.2751528,31.9999921 C24.9598113,31.9999921 31.9999686,24.9597563 31.9999686,16.2751764 L31.9999686,15.7248079 C31.9999686,7.04022801 24.9598113,-7.86240786e-06 16.2751528,-7.86240786e-06" id="Fill-1" fill="#FFFFFF" mask="url(#mask-6)"></path>
            </g>
        </g>
    </g>
</svg>