<?xml version="1.0" standalone="no"?>
<!DOCTYPE svg PUBLIC "-//W3C//DTD SVG 20010904//EN"
 "http://www.w3.org/TR/2001/REC-SVG-20010904/DTD/svg10.dtd">
<svg version="1.0" xmlns="http://www.w3.org/2000/svg"
 width="156.000000pt" height="156.000000pt" viewBox="0 0 156.000000 156.000000"
 preserveAspectRatio="xMidYMid meet">
<metadata>
Created by potrace 1.11, written by Peter Selinger 2001-2013
</metadata>
<g transform="translate(0.000000,156.000000) scale(0.100000,-0.100000)"
fill="#000000" stroke="none">
<path d="M240 785 l0 -765 535 0 535 0 0 765 0 765 -535 0 -535 0 0 -765z
m200 390 l0 -275 -50 0 -50 0 0 275 0 275 50 0 50 0 0 -275z m190 0 l0 -275
-45 0 -45 0 0 275 0 275 45 0 45 0 0 -275z m190 0 l0 -275 -45 0 -45 0 0 275
0 275 45 0 45 0 0 -275z m190 0 l0 -275 -45 0 -45 0 0 275 0 275 45 0 45 0 0
-275z m200 0 l0 -275 -50 0 -50 0 0 275 0 275 50 0 50 0 0 -275z m-770 -420
l0 -45 -50 0 -50 0 0 45 0 45 50 0 50 0 0 -45z m190 0 l0 -45 -45 0 -45 0 0
45 0 45 45 0 45 0 0 -45z m190 0 l0 -45 -45 0 -45 0 0 45 0 45 45 0 45 0 0
-45z m390 -6 l0 -52 -46 7 c-26 3 -91 6 -145 6 l-99 0 0 45 0 45 145 0 145 0
0 -51z m-775 -189 l0 -45 -47 -3 -48 -3 0 44 c0 24 3 47 7 51 4 4 25 6 48 4
l40 -3 0 -45z m193 -2 l3 -48 -45 0 -46 0 0 51 0 50 43 -3 42 -3 3 -47z m410
42 l172 0 0 -45 0 -45 -240 0 -240 0 0 51 0 52 68 -6 c37 -4 145 -7 240 -7z
m-598 -235 l0 -45 -50 0 -50 0 0 45 0 45 50 0 50 0 0 -45z m770 -6 l0 -52 -46
7 c-26 3 -177 6 -335 6 l-289 0 0 45 0 45 335 0 335 0 0 -51z m-369 -149 l369
0 0 -45 0 -45 -435 0 -435 0 0 43 c0 24 3 47 8 51 4 5 34 5 66 2 32 -3 225 -6
427 -6z"/>
</g>
</svg>
