<?xml version="1.0" encoding="UTF-8"?>
<svg width="99px" height="33px" viewBox="0 0 99 33" version="1.1" xmlns="http://www.w3.org/2000/svg" xmlns:xlink="http://www.w3.org/1999/xlink">
    <!-- Generator: Sketch 50.2 (55047) - http://www.bohemiancoding.com/sketch -->
    <title>Artboard Copy</title>
    <desc>Created with Sketch.</desc>
    <defs></defs>
    <g id="Artboard-Copy" stroke="none" stroke-width="1" fill="none" fill-rule="evenodd">
        <path d="M82.4984806,0 C73.3882562,0 66,7.3446728 66,16.4054189 C66,23.6534115 70.727309,29.801667 77.2839559,31.9709287 C78.1094877,32.1219915 78.4103257,31.6154276 78.4103257,31.1803667 C78.4103257,30.7916318 78.3961448,29.7593694 78.3880414,28.3907406 C73.7984898,29.3817125 72.830136,26.1912664 72.830136,26.1912664 C72.0795605,24.2959319 70.9977593,23.7913822 70.9977593,23.7913822 C69.499647,22.7742261 71.1112066,22.7943678 71.1112066,22.7943678 C72.7673348,22.9101826 73.6384481,24.4852639 73.6384481,24.4852639 C75.1102244,26.9918991 77.5007213,26.2678048 78.4407133,25.8478503 C78.5906259,24.7883966 79.0170662,24.0653094 79.4880751,23.6554257 C75.8243347,23.2415136 71.9721907,21.8336084 71.9721907,15.5473822 C71.9721907,13.7567847 72.6153964,12.2914756 73.6708616,11.1454126 C73.5006906,10.7304934 72.934467,9.06175317 73.8329292,6.80386802 C73.8329292,6.80386802 75.2175942,6.36276467 78.3698088,8.4857004 C79.685595,8.12113554 81.0976089,7.93986019 82.5005065,7.93281059 C83.9023911,7.93986019 85.3133921,8.12113554 86.6312041,8.4857004 C89.7813929,6.36276467 91.164032,6.80386802 91.164032,6.80386802 C92.0645201,9.06175317 91.4982964,10.7304934 91.3291384,11.1454126 C92.3866294,12.2914756 93.0247706,13.7567847 93.0247706,15.5473822 C93.0247706,21.8497218 89.166549,23.2364782 85.4916664,23.6423336 C86.0832131,24.1488974 86.6109457,25.1499402 86.6109457,26.6807098 C86.6109457,28.8731344 86.5906873,30.6425832 86.5906873,31.1803667 C86.5906873,31.6194559 86.8884864,32.1300481 87.7251604,31.9699216 C94.2767427,29.7956245 99,23.6513973 99,16.4054189 C99,7.3446728 91.6117438,0 82.4984806,0" id="Fill-4-Copy-2" fill="#FFFFFF"></path>
        <path d="M25.9946296,17.702463 C24.0845,19.6158519 22.168463,21.5231296 20.254463,23.4326481 C20.0079815,23.6785185 19.7117963,23.8194815 19.3630556,23.8386296 C18.7602963,23.8716296 18.223537,23.5387778 17.974,22.9830741 C17.7293519,22.4383704 17.8318148,21.8673889 18.2693704,21.4284074 C19.2970556,20.3972593 20.3296296,19.3712037 21.359963,18.3427037 C21.4145556,18.2883148 21.4650741,18.2296481 21.5447222,18.1434815 L21.2579074,18.1434815 C16.848537,18.1434815 12.4391667,18.1434815 8.0297963,18.1432778 C7.94790741,18.1432778 7.86601852,18.1449074 7.78433333,18.1414444 C7.05344444,18.1104815 6.44966667,17.5020185 6.42664815,16.7739815 C6.40037037,15.9440926 7.04081481,15.2952963 7.89616667,15.2950926 C12.3501481,15.2936667 16.8041296,15.2942778 21.2581111,15.2942778 L21.5514444,15.2942778 C21.4722037,15.210963 21.4328889,15.1675741 21.3913333,15.1262222 C20.3662963,14.1030185 19.3426852,13.0783889 18.3145926,12.0582407 C18.0457037,11.7911852 17.8690926,11.4852222 17.849537,11.102463 C17.82,10.5229259 18.1636481,9.96498148 18.6922593,9.7237963 C19.236963,9.47548148 19.8281111,9.58181481 20.2707593,10.0220185 C21.6190741,11.3625926 22.9637222,12.707037 24.3095926,14.0498519 C24.8722222,14.6112593 25.4405556,15.1671667 25.9952407,15.7361111 C26.5686667,16.3244074 26.5702963,17.1257778 25.9946296,17.702463 M31.4257778,9.46366667 C30.5592222,7.6285 29.3630741,5.98094444 27.9153519,4.5925 C24.9510556,1.75001852 20.9311667,0 16.5,0 C12.0688333,0 8.04874074,1.75001852 5.08464815,4.5925 C3.55137037,6.06262963 2.30225926,7.82507407 1.42592593,9.79142593 C0.511907407,11.8417037 0,14.1103519 0,16.5 C0,18.8894444 0.511907407,21.1582963 1.42592593,23.2083704 C2.39025926,25.3717037 3.80457407,27.288963 5.55275926,28.8409815 C7.59855556,30.6572037 10.0988148,31.9704815 12.8618519,32.5925926 C14.0327407,32.8561852 15.2492593,33 16.5,33 C17.750537,33 18.9670556,32.8561852 20.1381481,32.5925926 C22.9009815,31.9704815 25.4012407,30.6572037 27.447037,28.8409815 C29.1068148,27.3675926 30.4673519,25.566037 31.4257778,23.5361296 C32.4339074,21.4015185 33,19.0171667 33,16.5 C33,13.9826296 32.4339074,11.5982778 31.4257778,9.46366667" id="Fill-1" fill="#2A2A2A"></path>
        <path d="M58.9946296,17.702463 C57.0845,19.6158519 55.168463,21.5231296 53.254463,23.4326481 C53.0079815,23.6785185 52.7117963,23.8194815 52.3630556,23.8386296 C51.7602963,23.8716296 51.223537,23.5387778 50.974,22.9830741 C50.7293519,22.4383704 50.8318148,21.8673889 51.2693704,21.4284074 C52.2970556,20.3972593 53.3296296,19.3712037 54.359963,18.3427037 C54.4145556,18.2883148 54.4650741,18.2296481 54.5447222,18.1434815 L54.2579074,18.1434815 C49.848537,18.1434815 45.4391667,18.1434815 41.0297963,18.1432778 C40.9479074,18.1432778 40.8660185,18.1449074 40.7843333,18.1414444 C40.0534444,18.1104815 39.4496667,17.5020185 39.4266481,16.7739815 C39.4003704,15.9440926 40.0408148,15.2952963 40.8961667,15.2950926 C45.3501481,15.2936667 49.8041296,15.2942778 54.2581111,15.2942778 L54.5514444,15.2942778 C54.4722037,15.210963 54.4328889,15.1675741 54.3913333,15.1262222 C53.3662963,14.1030185 52.3426852,13.0783889 51.3145926,12.0582407 C51.0457037,11.7911852 50.8690926,11.4852222 50.849537,11.102463 C50.82,10.5229259 51.1636481,9.96498148 51.6922593,9.7237963 C52.236963,9.47548148 52.8281111,9.58181481 53.2707593,10.0220185 C54.6190741,11.3625926 55.9637222,12.707037 57.3095926,14.0498519 C57.8722222,14.6112593 58.4405556,15.1671667 58.9952407,15.7361111 C59.5686667,16.3244074 59.5702963,17.1257778 58.9946296,17.702463 M64.4257778,9.46366667 C63.5592222,7.6285 62.3630741,5.98094444 60.9153519,4.5925 C57.9510556,1.75001852 53.9311667,0 49.5,0 C45.0688333,0 41.0487407,1.75001852 38.0846481,4.5925 C36.5513704,6.06262963 35.3022593,7.82507407 34.4259259,9.79142593 C33.5119074,11.8417037 33,14.1103519 33,16.5 C33,18.8894444 33.5119074,21.1582963 34.4259259,23.2083704 C35.3902593,25.3717037 36.8045741,27.288963 38.5527593,28.8409815 C40.5985556,30.6572037 43.0988148,31.9704815 45.8618519,32.5925926 C47.0327407,32.8561852 48.2492593,33 49.5,33 C50.750537,33 51.9670556,32.8561852 53.1381481,32.5925926 C55.9009815,31.9704815 58.4012407,30.6572037 60.447037,28.8409815 C62.1068148,27.3675926 63.4673519,25.566037 64.4257778,23.5361296 C65.4339074,21.4015185 66,19.0171667 66,16.5 C66,13.9826296 65.4339074,11.5982778 64.4257778,9.46366667" id="Fill-1-Copy" fill="#FFD21B"></path>
        <path d="M91.9946296,17.702463 C90.0845,19.6158519 88.168463,21.5231296 86.254463,23.4326481 C86.0079815,23.6785185 85.7117963,23.8194815 85.3630556,23.8386296 C84.7602963,23.8716296 84.223537,23.5387778 83.974,22.9830741 C83.7293519,22.4383704 83.8318148,21.8673889 84.2693704,21.4284074 C85.2970556,20.3972593 86.3296296,19.3712037 87.359963,18.3427037 C87.4145556,18.2883148 87.4650741,18.2296481 87.5447222,18.1434815 L87.2579074,18.1434815 C82.848537,18.1434815 78.4391667,18.1434815 74.0297963,18.1432778 C73.9479074,18.1432778 73.8660185,18.1449074 73.7843333,18.1414444 C73.0534444,18.1104815 72.4496667,17.5020185 72.4266481,16.7739815 C72.4003704,15.9440926 73.0408148,15.2952963 73.8961667,15.2950926 C78.3501481,15.2936667 82.8041296,15.2942778 87.2581111,15.2942778 L87.5514444,15.2942778 C87.4722037,15.210963 87.4328889,15.1675741 87.3913333,15.1262222 C86.3662963,14.1030185 85.3426852,13.0783889 84.3145926,12.0582407 C84.0457037,11.7911852 83.8690926,11.4852222 83.849537,11.102463 C83.82,10.5229259 84.1636481,9.96498148 84.6922593,9.7237963 C85.236963,9.47548148 85.8281111,9.58181481 86.2707593,10.0220185 C87.6190741,11.3625926 88.9637222,12.707037 90.3095926,14.0498519 C90.8722222,14.6112593 91.4405556,15.1671667 91.9952407,15.7361111 C92.5686667,16.3244074 92.5702963,17.1257778 91.9946296,17.702463 M97.4257778,9.46366667 C96.5592222,7.6285 95.3630741,5.98094444 93.9153519,4.5925 C90.9510556,1.75001852 86.9311667,0 82.5,0 C78.0688333,0 74.0487407,1.75001852 71.0846481,4.5925 C69.5513704,6.06262963 68.3022593,7.82507407 67.4259259,9.79142593 C66.5119074,11.8417037 66,14.1103519 66,16.5 C66,18.8894444 66.5119074,21.1582963 67.4259259,23.2083704 C68.3902593,25.3717037 69.8045741,27.288963 71.5527593,28.8409815 C73.5985556,30.6572037 76.0988148,31.9704815 78.8618519,32.5925926 C80.0327407,32.8561852 81.2492593,33 82.5,33 C83.750537,33 84.9670556,32.8561852 86.1381481,32.5925926 C88.9009815,31.9704815 91.4012407,30.6572037 93.447037,28.8409815 C95.1068148,27.3675926 96.4673519,25.566037 97.4257778,23.5361296 C98.4339074,21.4015185 99,19.0171667 99,16.5 C99,13.9826296 98.4339074,11.5982778 97.4257778,9.46366667" id="Fill-1-Copy-2" fill="#FFFFFF"></path>
    </g>
</svg>