<?xml version="1.0" encoding="UTF-8"?>
<svg width="88px" height="21px" viewBox="0 0 88 21" version="1.1" xmlns="http://www.w3.org/2000/svg" xmlns:xlink="http://www.w3.org/1999/xlink">
    <!-- Generator: Sketch 51.3 (57544) - http://www.bohemiancoding.com/sketch -->
    <title>twitter-sprite</title>
    <desc>Created with Sketch.</desc>
    <defs></defs>
    <g id="Page-1" stroke="none" stroke-width="1" fill="none" fill-rule="evenodd">
        <g id="twitter-sprite" transform="translate(-4.000000, -6.000000)" fill-rule="nonzero">
            <path d="M11.862,26.313969 C21.296,26.313969 26.456,18.497969 26.456,11.719969 C26.456,11.497969 26.456,11.276969 26.441,11.056969 C27.4448313,10.3308799 28.3113555,9.43184843 29,8.40196903 C28.0638791,8.8167708 27.0708293,9.08879768 26.054,9.20896903 C27.124744,8.56795109 27.9261235,7.55974102 28.309,6.37196903 C27.3021575,6.96942435 26.2006461,7.39048105 25.052,7.61696903 C23.4620828,5.92636331 20.9357193,5.51258162 18.8895493,6.60764896 C16.8433792,7.7027163 15.786275,10.0342948 16.311,12.294969 C12.1868957,12.0882186 8.34447578,10.1402923 5.74,6.93596903 C4.37862276,9.27961376 5.07398788,12.2778285 7.328,13.782969 C6.5117412,13.7587766 5.71327938,13.5385822 5,13.140969 C5,13.161969 5,13.183969 5,13.205969 C5.00066813,15.647562 6.72175149,17.7505042 9.115,18.233969 C8.35986959,18.4399091 7.56758058,18.4700133 6.799,18.321969 C7.47094793,20.4113919 9.39657456,21.8427529 11.591,21.883969 C9.77473504,23.311401 7.53105951,24.0862968 5.221,24.083969 C4.81290357,24.0831856 4.40520407,24.0584765 4,24.009969 C6.34563595,25.5152456 9.0749134,26.313686 11.862,26.309969" id="tblack" fill="#2A2A2A"></path>
            <path d="M42.862,26.313969 C52.296,26.313969 57.456,18.497969 57.456,11.719969 C57.456,11.497969 57.456,11.276969 57.441,11.056969 C58.4448313,10.3308799 59.3113555,9.43184843 60,8.40196903 C59.0638791,8.8167708 58.0708293,9.08879768 57.054,9.20896903 C58.124744,8.56795109 58.9261235,7.55974102 59.309,6.37196903 C58.3021575,6.96942435 57.2006461,7.39048105 56.052,7.61696903 C54.4620828,5.92636331 51.9357193,5.51258162 49.8895493,6.60764896 C47.8433792,7.7027163 46.786275,10.0342948 47.311,12.294969 C43.1868957,12.0882186 39.3444758,10.1402923 36.74,6.93596903 C35.3786228,9.27961376 36.0739879,12.2778285 38.328,13.782969 C37.5117412,13.7587766 36.7132794,13.5385822 36,13.140969 C36,13.161969 36,13.183969 36,13.205969 C36.0006681,15.647562 37.7217515,17.7505042 40.115,18.233969 C39.3598696,18.4399091 38.5675806,18.4700133 37.799,18.321969 C38.4709479,20.4113919 40.3965746,21.8427529 42.591,21.883969 C40.774735,23.311401 38.5310595,24.0862968 36.221,24.083969 C35.8129036,24.0831856 35.4052041,24.0584765 35,24.009969 C37.345636,25.5152456 40.0749134,26.313686 42.862,26.309969" id="tblack-copy" fill="#1DA1F2"></path>
            <path d="M74.862,26.313969 C84.296,26.313969 89.456,18.497969 89.456,11.719969 C89.456,11.497969 89.456,11.276969 89.441,11.056969 C90.4448313,10.3308799 91.3113555,9.43184843 92,8.40196903 C91.0638791,8.8167708 90.0708293,9.08879768 89.054,9.20896903 C90.124744,8.56795109 90.9261235,7.55974102 91.309,6.37196903 C90.3021575,6.96942435 89.2006461,7.39048105 88.052,7.61696903 C86.4620828,5.92636331 83.9357193,5.51258162 81.8895493,6.60764896 C79.8433792,7.7027163 78.786275,10.0342948 79.311,12.294969 C75.1868957,12.0882186 71.3444758,10.1402923 68.74,6.93596903 C67.3786228,9.27961376 68.0739879,12.2778285 70.328,13.782969 C69.5117412,13.7587766 68.7132794,13.5385822 68,13.140969 C68,13.161969 68,13.183969 68,13.205969 C68.0006681,15.647562 69.7217515,17.7505042 72.115,18.233969 C71.3598696,18.4399091 70.5675806,18.4700133 69.799,18.321969 C70.4709479,20.4113919 72.3965746,21.8427529 74.591,21.883969 C72.774735,23.311401 70.5310595,24.0862968 68.221,24.083969 C67.8129036,24.0831856 67.4052041,24.0584765 67,24.009969 C69.345636,25.5152456 72.0749134,26.313686 74.862,26.309969" id="tblack-copy-2" fill="#FFFFFF"></path>
        </g>
    </g>
</svg>