<svg id="US-all" class="land" data-name="Layer 1" xmlns="http://www.w3.org/2000/svg" viewBox="0 0 624.8 401.42"><defs></defs><title>us_territories_together2</title><polygon class="cls-1" points="303.09 312.9 301.61 313.76 300.54 314.97 299.08 315.71 298.6 315.25 297.92 315.52 296.73 315.28 296.03 315.57 295.94 315.99 295.41 316.07 294.68 316.71 294.5 317.31 295.69 317.78 296.19 317.44 296.44 317.72 296.96 317.75 297.22 318.94 298.12 319.47 298.65 320.08 299.1 319.25 299.76 319.41 301.13 317.17 301.66 317.05 302.95 315.65 302.96 315.23 302.46 314.67 303.54 314.34 303.76 314.87 303.61 315.21 304.03 315.59 305.46 315.12 305.98 314.41 306.8 314.67 306.86 315.14 307.44 315.14 308.94 314.24 309.07 313.1 308.24 313.08 307.95 313.65 304.96 313.09 303.34 313.26 303.43 312.31 303.09 312.9"/><polygon class="cls-1" points="309.85 315.06 309.31 314.73 309.07 315.15 309.52 315.32 309.85 315.06"/><polygon class="cls-1" points="334.46 311.81 334.03 311.96 334.64 313.45 336.63 312.47 334.46 311.81"/><polygon class="cls-1" points="338.03 312.96 337.56 311.78 336.81 312.37 337.78 313.54 338.03 312.96"/><polygon class="cls-1" points="344.35 317.97 345.43 316.92 347.53 317.18 347.57 316.06 347.95 315.16 347.53 314.76 346.2 314.86 345.67 314.65 345.23 315.03 344.8 314.9 343.95 315.19 343.4 314.81 342.45 315.46 343.35 316.43 343.73 317.6 344.35 317.97"/><polygon class="cls-1" points="522.77 342.65 522.43 341.85 521.8 341.85 521.8 342.54 522.23 342.91 522.77 342.65"/><polygon class="cls-1" points="532.73 351.09 533.19 350.69 533.19 349.89 533.59 349.12 533.42 348.35 532.64 348.58 532.11 349.24 531.67 350.5 530.64 351.66 530.64 352.06 531.67 352.66 532.47 352.29 532.7 351.92 532.7 351.63 532.2 351.09 532.36 350.89 532.73 351.09"/><polygon class="cls-1" points="525.05 343.13 525.05 342.37 526.48 341.84 526.48 340.56 526.11 339.96 525.61 339.96 525.28 340.36 524.4 340.82 524.4 341.16 524.63 341.33 524.4 341.66 524.23 342.9 524.74 343.36 525.05 343.13"/><polygon class="cls-1" points="501.36 356.27 500.79 356.18 500.08 354.76 499.4 351.37 499.54 351.08 499.88 351.11 499.88 350.43 500.25 350.29 500.02 350.01 500.13 349.61 500.5 349.53 500.59 348.9 501.59 348.27 501.99 347.61 502.42 347.44 502.88 347.73 502.91 347.33 503.25 346.99 503.68 347.05 504.02 346.22 505.07 345.88 505.21 345.51 505.89 345.71 506.29 345.57 505.98 344.97 504.92 344.97 501.93 347.05 499.96 348.85 498.79 351.19 499.16 353.64 500.07 356.03 500.44 356.77 501.18 356.6 501.36 356.27"/><polygon class="cls-1" points="530.79 343.92 531.56 344.12 532.21 343.93 532.58 343.56 533.01 343.56 533.01 343.36 532.61 342.9 532.1 342.9 530.96 343.51 530.79 343.92"/><polygon class="cls-1" points="530.73 345.22 530.73 345.21 530.73 345.21 530.96 344.93 530.96 344.5 530.56 343.82 529.62 344.29 529.62 344.79 530.29 345.22 530.73 345.22"/><polygon class="cls-1" points="519.25 343.92 518.99 343.35 517.79 343.55 517.33 343.92 517.33 344.66 517.7 345.2 518.04 345.2 519.04 344.75 519.47 344.95 519.93 344.55 519.93 343.81 519.65 343.61 519.25 343.92"/><polygon class="cls-1" points="531.88 362.45 532.55 362.99 533.18 361.99 534.38 361.99 535.66 361.59 536.43 363.47 538.51 361.96 538.71 361.59 538.54 361.05 538.31 360.76 537.91 360.76 537.57 360.05 537.86 359 537.2 357.26 537.2 356.43 536.6 355.69 537 354.66 536.83 354.15 535.69 353.61 535.75 352.78 535.98 352.78 536.18 352.12 535.7 351.98 535.24 352.35 534.7 352.32 534.33 352.6 534.16 352.83 534.19 353.6 533.88 354.2 532.71 354.8 532.4 354.46 532.63 354.15 532.52 353.64 532.01 353.3 530.56 353.47 530.1 353.18 530.07 352.44 529.7 352.33 530.04 351.19 529.33 349.74 529.59 348.14 529.36 347.66 527.79 347.66 527.05 347.26 527.76 346.46 527.3 346.17 526.02 346.17 524.88 346.85 524.68 348.42 523.85 348.39 520.94 345.34 520.71 345.65 520.85 346.45 520.28 347.16 519.94 347.33 519.31 346.5 518.37 346.07 517.71 346.7 517.71 348.3 516.88 348.36 516.88 345.88 515.94 344.48 515.06 344.65 514.23 343.94 513.83 343.94 513.66 345.25 513 346.08 514.6 347.73 513.57 351.07 512.32 350.93 511.72 350.5 510.61 348.45 509.78 348.96 509.18 348.7 508.27 348.67 508.04 349.24 509.27 350.21 508.79 350.58 508.36 350.04 507.7 350.07 505.28 351.64 504.6 352.32 503.83 352.21 503.52 353.21 503.66 354.52 504.26 356.17 503.86 356.48 504.23 357.28 504.26 358.62 505.31 358.33 505.85 357.53 506.62 357.62 505.96 358.99 506.42 359.47 506.28 360.13 507.02 360.21 507.33 359.21 508.36 358.44 509.59 358.78 509.39 359.72 509.48 361.57 509.82 362.06 510.73 362.32 510.33 363.2 509.65 363.4 509.17 362.86 508.74 362.89 508.34 363.03 508.28 363.51 508.91 363.94 509.45 363.71 510.08 365.11 510.68 365.57 509.51 367.71 512.59 372.24 513.19 372.78 515.33 373.21 515.73 373.67 516.53 373.41 517.33 373.55 517.47 372.26 518.38 372.8 518.55 373.83 518.26 374.6 519 375.34 521.12 375.2 521.99 375.37 522.25 373.17 523.9 374.99 524.76 374.96 525.99 374.5 526.39 374.33 526.56 373.67 525.92 373.36 525.92 372.39 527.19 372.39 527.76 373.42 527.76 374.56 528.07 374.53 528.67 373.3 529.61 374.01 529.81 374.58 531.15 375.18 531.41 375.49 531.95 375.49 532.58 375.15 533.78 373.94 532.78 373.36 532.98 373.05 532.78 372.68 531.84 372.39 532.41 371.79 532.78 372.08 533.35 371.57 534.89 370.8 535.77 367.72 535.48 367.32 535.54 367.01 536.08 366.64 536.76 366.64 537.27 367.24 537.9 366.9 538.07 366.33 538.53 366.02 538.1 365.31 538.07 364.8 536.05 364.43 535.91 364.86 535.25 365.23 535.11 365.97 534.43 366.31 533.77 365.34 533.06 365.25 531.91 364.42 531.91 363.42 531.35 362.85 531.38 362.54 531.88 362.45"/><polygon class="cls-1" points="501.7 359.07 502.13 358.73 501.7 358.7 501.53 358.33 501.96 357.67 501.27 357.87 501.41 356.76 500.75 357.24 500.92 358.12 502.29 361.06 502.69 362.74 503.49 363.05 503.49 362.51 502.75 361.48 501.7 359.07"/><polygon class="cls-1" points="480.4 341.82 479.36 339.74 477.93 338.55 477.62 337.4 475.45 335.7 474.06 335.6 473.41 336.15 471.8 339.27 471.46 340.42 471.54 342.84 470.85 344.58 470.38 344.99 467.97 349.37 467.72 351.06 467.95 352.03 467.59 352.77 466.52 353.22 465.17 352.91 464.13 353.56 463.83 354.36 464.39 355.38 463.76 356.14 463.13 356.33 462 356.08 461.34 356.62 459.17 356.26 458 357.03 457.24 356.85 456.04 357.72 454.33 358.23 453.63 360.65 452.08 360.53 452.07 361.38 452.78 361.66 452.27 363.86 451.68 362.72 451.7 361.02 449.66 360.91 447.95 360.27 446.77 360.36 446.82 361.16 448.46 362.21 449.07 363.61 450.98 365.09 451.39 366.26 451.34 367.11 450.38 367.93 449.63 371.31 448.55 373.04 449.44 373.24 450.87 376.15 450.59 376.92 450.75 377.61 451.37 377.97 450.85 379.99 451.52 381.57 453.08 383.39 456.61 384.61 457.36 384.65 458.45 384.77 459.22 384.51 460.73 382.62 460.43 381.98 461.63 381.41 462.31 380.95 463.32 380.19 464.01 378.18 464.21 375.84 464.22 374.24 463.58 373.74 464.32 373.11 464.16 369.54 464.84 366.89 466.11 364.78 466.14 363.68 466.84 362.85 468.05 363.06 469.18 361.49 470.43 361.08 472.19 359.04 473.71 358.45 475.69 355.99 477.93 354.64 478.63 353.19 479.24 352.62 481.49 351.7 482.61 350 483.8 346.32 484.49 345.11 485.12 343.11 485.2 341.95 482.13 342.06 480.4 341.82"/><polygon class="cls-1" points="596.8 340.83 596.8 340.83 596.8 340.83 596.8 340.83"/><polygon class="cls-1" points="596.48 340.64 596.65 340.82 596.8 340.82 596.8 340.83 597.09 340.65 597.31 340.41 597.24 339.99 596.8 339.79 596.39 339.79 596.1 340.04 596.1 340.3 596.36 340.41 596.48 340.64"/><path class="cls-1" d="M1006,443.31l.19.08h.26l.19-.11,0-.33a2.82,2.82,0,0,0,0-.4l-.24-.17-.33,0-.32.09-.08.31.08.18Z" transform="translate(-396.58 -101.23)"/><path class="cls-1" d="M1007.51,448l.1.35s.07.15.14.18a1.87,1.87,0,0,0,.34,0l.31,0,.11-.18V448l-.13-.36.09-.27-.1-.31-.11-.24-.21-.08-.2.22s-.11.41-.11.44a2.64,2.64,0,0,1-.14.29Z" transform="translate(-396.58 -101.23)"/><path class="cls-1" d="M1008.67,437h.21l.09-.16.14-.13v-.33h0l-.22-.12-.14.06-.2.06-.06.21s0,.18.07.22Z" transform="translate(-396.58 -101.23)"/><path class="cls-1" d="M964.38,440.2l-.46-.31-.41-.17h-.43l-.4.31s-.31.28-.31.35-.08.42-.08.42l.25.38.31.35.18.36.31.18h.26l.1-.21-.1-.25a1.51,1.51,0,0,1-.35-.2c-.07-.08-.41-.4-.41-.4l-.17-.26.13-.3.33-.21.35-.08.32.17.31.3.12.27.08.34-.13.31,0,.23.14.12.25-.41.16-.38-.1-.38Z" transform="translate(-396.58 -101.23)"/><path class="cls-1" d="M1003.86,450a2.52,2.52,0,0,1-.42-.28l-.26-.28-.21-.12-.32-.09-.17.2.09.36a1.52,1.52,0,0,1,.13.24,2.73,2.73,0,0,0,.38.42l.26.23.33.16a1.63,1.63,0,0,0,.35-.05,1.32,1.32,0,0,0,.18-.26.91.91,0,0,0,0-.33A1.09,1.09,0,0,0,1003.86,450Z" transform="translate(-396.58 -101.23)"/><path class="cls-1" d="M981,439.93h.54l.29.17.32.2s.23.21.22.24l-.12.3,0,.16h.18c.06,0,.11-.16.11-.16s0-.22,0-.28a3.48,3.48,0,0,1-.13-.34l-.31-.18-.31-.32a1.28,1.28,0,0,0-.21-.16l-.33.05a.89.89,0,0,0-.29-.05c-.07,0-.3,0-.37.05a2.72,2.72,0,0,1-.22.23l-.22.32.07.34.11.24.32.15a4.72,4.72,0,0,0,.43.27,1.86,1.86,0,0,0,.41,0,1.44,1.44,0,0,0,.27-.22s0-.14,0-.15l-.46,0-.48-.11a1.59,1.59,0,0,1-.21-.27s.07-.33.07-.33Z" transform="translate(-396.58 -101.23)"/><path class="cls-1" d="M955.92,450.7a1.87,1.87,0,0,0-.34-.25l-.47-.09-.21.08a2.23,2.23,0,0,1,0,.26s.21.27.21.27a2.94,2.94,0,0,0,.32.13c.07,0,.31.22.36.22l.23,0h.28v0a1.15,1.15,0,0,0,.07-.22,2.16,2.16,0,0,0-.17-.31Z" transform="translate(-396.58 -101.23)"/><path class="cls-1" d="M1001.26,481.12l0,.23H1001l-.08-.24.27-.22-.21-.15-.31.15-.08.31.1.28s.21.27.24.25h.3l.26-.15.11-.2v-.23l-.15-.13Z" transform="translate(-396.58 -101.23)"/><path class="cls-1" d="M983.4,455.57v-.33l-.25-.28a3.06,3.06,0,0,1-.3-.23,2.92,2.92,0,0,0-.43-.25h-.3l.12.26.5.18a1.33,1.33,0,0,1,.21.32.34.34,0,0,1,0,.18s-.23,0-.23,0l-.17-.27-.31-.13a1,1,0,0,0,.08.21s.23.37.35.41.28.26.35.31l.35.28.29.13.1-.22a1.06,1.06,0,0,0,0-.31A2.84,2.84,0,0,0,983.4,455.57Z" transform="translate(-396.58 -101.23)"/><path class="cls-1" d="M995.34,456.3l.08-.25-.14-.16s-.24-.13-.26-.25a1,1,0,0,1,0-.26l.13-.15V455l-.26-.25-.33-.21-.3-.3-.31-.35a1.73,1.73,0,0,1-.2-.28c0-.08-.17-.51-.2-.46s-.51.4-.53.45a3.48,3.48,0,0,1-.59.28l-.41-.07-.48-.17-.41-.08-.31,0a1.19,1.19,0,0,1-.31.13c-.08,0-.71-.1-.71-.1l.2.28.66.16.36.29.5.31.48.29.83,0,.5,0,.63.26.26.2,0,.51s.19.41.21.48.17.43.17.43l.23.35.33.21h.31l.12-.33s.13-.24,0-.31S995.34,456.3,995.34,456.3Z" transform="translate(-396.58 -101.23)"/><path class="cls-1" d="M990.19,442.93l.13-.53.08-.52.35-.2.23-.24.2-.27.09-.21-.09-.13-.45-.07-.17.22s-.07.23-.12.19a3.43,3.43,0,0,0-.31-.21s-.15-.27-.21-.27h-.25l-.12.11v.2l0,.17h.47l.36.21-.22.16-.24.17-.09.33.08.48a1.28,1.28,0,0,1-.21.13s-.42-.19-.42-.19l-.33-.32-.12-.35v-.44l.07-.2h.17l.12-.29s-.1-.19-.13-.19-.45.17-.45.17l-.08.48,0,.52.09.52.46.42.29.14.44.14Z" transform="translate(-396.58 -101.23)"/><path class="cls-1" d="M985.18,449.07a1.29,1.29,0,0,0-.31-.4c-.07-.05-.35,0-.35,0s-.08.17-.1.23,0,.13.08.35a2.34,2.34,0,0,0,.37.44l.31.17.17-.26-.17-.25A.8.8,0,0,0,985.18,449.07Z" transform="translate(-396.58 -101.23)"/><path class="cls-1" d="M987.35,442.71l-.37,0-.35,0s-.1.09-.1.14a1.63,1.63,0,0,0,.11.28l.93.07.46-.11.08-.37a1.16,1.16,0,0,0-.23-.14Z" transform="translate(-396.58 -101.23)"/><polygon class="cls-1" points="589.63 354.74 589.63 355.04 589.89 355.13 590.12 355 590.12 354.77 589.89 354.61 589.63 354.74"/><path class="cls-1" d="M1007.63,442.53a2,2,0,0,0,0-.25.84.84,0,0,0-.2-.33l-.3-.29s-.26-.06-.28,0l-.06.32v.45l.15.28.42-.11Z" transform="translate(-396.58 -101.23)"/><polygon class="cls-1" points="618.62 359.21 618.62 359.21 618.62 359.21 618.62 359.21"/><path class="cls-1" d="M1015.2,460.42v0a1.12,1.12,0,0,0,.28-.18s-.07-.43-.07-.43l-.07-.32-.24-.24-.32-.2s-.25-.08-.25,0v.26l.25.26,0,.23-.19,0-.22-.18-.14.16.14.26.56.34Z" transform="translate(-396.58 -101.23)"/><path class="cls-1" d="M1016.05,466.21a3.58,3.58,0,0,0-.53,0l-.16-.09-.34-.21-.26,0a1.82,1.82,0,0,0-.3.21v.28a2.07,2.07,0,0,0,.26.13s.32,0,.32,0l.31.29.54.26.35-.15.22-.18a1.14,1.14,0,0,0,0-.32Z" transform="translate(-396.58 -101.23)"/><path class="cls-1" d="M1018.93,467.07l.17-.22.26-.06.4-.11.21-.21v-.2l-.21-.15-.33.28-.39.19h-.29l-.22-.28-.29-.17-.29,0-.25.14-.24.18,0,.3.24.21.35.13.35.13.28,0Z" transform="translate(-396.58 -101.23)"/><path class="cls-1" d="M1021.34,473.29l-.21-.28-.08-.43L1021,472l-.25-.42-.78-.2h-.54l-.6.14-.23.33.09.53a1.47,1.47,0,0,0,.21.33,3.85,3.85,0,0,0,.47.08,2.65,2.65,0,0,1,.35-.13l.58.11.43.09.24.37.11.3.18.08.16-.07Z" transform="translate(-396.58 -101.23)"/><polygon class="cls-1" points="609.67 371.28 609.32 371.07 609.06 370.81 608.95 370.37 608.91 370.11 608.66 369.99 608.37 370.06 608.37 370.38 608.57 370.6 608.75 370.9 608.74 371.28 608.66 371.59 608.56 371.94 608.66 372.25 608.83 372.53 609.1 372.84 609.22 373.07 609.52 373.26 609.78 373.22 609.9 372.82 609.85 372.44 610.2 372.13 610.27 371.79 610.14 371.49 609.67 371.28"/><path class="cls-1" d="M1002.36,463.54h-.28l-.2.41-.3.28-.35,0-.25.13-.51,0-.33.07-.21.23.18.35.3.2.53.17.26.25.15.09.14-.1a2.75,2.75,0,0,1,.23-.21s.21-.25.26-.3a1.86,1.86,0,0,0,.15-.36l.25-.18s.07-.24.08-.29a2,2,0,0,0,0-.35v-.31Z" transform="translate(-396.58 -101.23)"/><path class="cls-1" d="M998.3,461.45l-.3-.22s-.13-.31-.08-.34a.62.62,0,0,0,.12-.29,1.55,1.55,0,0,0-.21-.3h-.61l-.41-.13a.49.49,0,0,0-.2-.08c-.08,0-.23-.12-.23,0a2.42,2.42,0,0,0,.08.41l.33.23.36.31.36.26.21.25s-.1.43-.1.51.13.59.13.59l.2.25.21.19.28-.2.21-.38v-.41s-.26-.28-.25-.4A.42.42,0,0,0,998.3,461.45Z" transform="translate(-396.58 -101.23)"/><polygon class="cls-1" points="612.99 351.14 612.62 350.9 612.33 350.9 611.95 351.16 611.59 351.09 611.23 350.97 610.91 350.97 610.66 351.19 610.8 351.51 611.13 351.71 611.16 351.98 611.58 352.13 611.92 352.13 612.2 352 612.43 351.81 612.77 351.81 612.92 351.97 613.1 351.97 613.27 351.76 613.21 351.4 612.99 351.14"/><path class="cls-1" d="M1014.8,458.09l.33.26h.31a1.89,1.89,0,0,1-.12-.38s.1-.34.12-.37l.19-.36-.16-.37s-.63-.44-.64-.46a5.11,5.11,0,0,0-.46-.3,3.42,3.42,0,0,0-.48-.19,2,2,0,0,0-.47.07,1.07,1.07,0,0,0-.1.23s.14.34.15.38a2.48,2.48,0,0,0,.17.32l.35.35.41.54Z" transform="translate(-396.58 -101.23)"/><path class="cls-1" d="M1008.72,454.46l-.1-.24-.18-.26-.27-.14-.4.2-.11.2.13.32.35.21.15.13.18.28.15.22.26.1.14-.27s0-.35,0-.38Z" transform="translate(-396.58 -101.23)"/><polygon class="cls-1" points="476.38 276.69 476.21 276.35 474.38 276.87 474.19 277.21 474.43 277.7 475.55 277.49 476.38 276.69"/><polygon class="cls-1" points="461 314.34 461.37 313.83 461.53 312.4 459.37 311.75 456.66 313.22 454.85 313.45 452.94 316.29 453.19 316.37 454.32 315.25 455.28 315.72 455.41 316.79 457.62 316.5 458.16 315.87 458.62 315.68 458.58 315.26 459.02 314.6 461 314.34"/><polygon class="cls-1" points="480.4 264.51 480.11 263.72 479.6 263.52 477.28 266.19 476.53 268.13 477.12 269.61 477.81 269.63 478.14 270.54 478.68 270.91 479.1 273.11 479.4 273.24 480.28 271.89 480.8 271.82 480.63 271.41 481.23 269.02 481.03 268.22 480.08 267.44 480 266.48 480.49 265.86 480.4 264.51"/><polygon class="cls-1" points="487.33 254.25 486.46 255.39 483.32 257.55 483.22 259.4 482.64 260.47 482.11 262.62 483.07 263.46 484.28 263.44 485.08 264.04 485.49 262.55 485 262.17 484.8 261.43 485.09 260.85 485.67 260.55 486.1 260.55 486.42 261.07 487.1 261.15 487.46 260.47 486.63 259.15 487.13 257.06 488.21 256.33 488.34 255.25 489.06 255.29 489.2 255.02 489.24 254.38 488.24 253.59 487.33 254.25"/><polygon class="cls-1" points="351.71 353.98 350.46 353.74 350.21 354.08 349.56 353.3 349.28 353.38 349.77 354.33 351.21 355.83 351.45 355.41 350.76 354.71 351.48 354.85 352.03 355.41 352.64 354.93 352.43 354.43 351.71 353.98"/><polygon class="cls-1" points="350.71 360.47 347.75 359.74 346.25 359.88 346.06 360.25 341.75 361.2 341.73 361.8 342.12 362.27 342.87 362.53 344.91 362.01 345.87 362.36 348.14 361.45 348.38 361.08 349.3 361.53 351.89 360.72 351.2 360.23 350.71 360.47"/><polygon class="cls-1" points="340.19 355.68 340.17 354.83 340.12 353.89 339.8 353.4 340.36 352.71 340.4 351.96 339.53 352.21 338.94 352.85 337.75 352.67 337.02 351.92 336.39 352.26 336.14 352.13 335.38 351.56 335.38 351.1 334.76 350.82 333.95 351.25 333.25 350.48 331.91 350.29 331.06 349.75 330.34 350.05 328.17 349.51 327.85 350.03 327.1 350.08 326.63 349.72 323.79 349.08 323.35 349.37 322.3 349.85 321.83 349.2 320.7 349.34 319.08 348.83 318.6 349.15 314.85 348.36 313.58 348.63 312.94 349.25 310.75 348.7 309.62 348.51 308.89 348.73 307.41 348.37 305.77 348.51 305 348.76 304.74 349.15 303.69 349.07 302.14 348.42 300.82 348.62 299.57 348.44 298.09 348.74 295.9 348.48 294.62 347.8 292.24 347.64 290.64 347.86 289.77 348.55 289.63 349.26 290.09 350.39 289.92 351.08 288.23 352.11 286.28 352.81 287.47 355 288.86 355.44 289.48 357.5 290.16 358.26 289.09 359.58 289.05 360.62 289.21 361.46 288.55 362.47 288.3 363.99 289.53 364.5 289.38 364.95 288.4 365.28 288.12 365.73 288.13 366.91 288.8 367.58 289.18 367.59 288.88 366.89 289.29 366.47 289.96 366.85 291.76 367.13 293.17 366.12 293.72 366.37 295.05 366.26 296.57 367.65 297.67 367.79 297.83 367.56 298.16 366.96 299.37 366.9 300.54 366.98 302.12 366.21 303.39 365.63 304.16 365.54 305.89 366.42 307.37 365.85 308.82 366.6 311.37 365.68 312.68 365.58 315.23 367.41 316 366.35 317.32 365.99 318.43 367.25 320.06 367.79 320.26 367.09 321.13 366.54 322.18 367.11 322.68 367.74 325.33 366.39 326.34 366.9 327.13 366.06 327.62 365.92 328.54 366.37 330.6 366.12 331.68 365.71 332.59 365.1 333.33 364.86 333.51 364.19 333.25 363.44 334.56 363.05 335.17 360.82 336.61 359.04 337.31 358.77 338.06 358.55 338.92 358.16 339.98 358.4 340.62 358.03 341.34 357.46 340.7 356.65 340.19 355.68"/><polygon class="cls-1" points="522.55 293.7 522.9 293.81 522.86 293.25 522.58 293.33 522.14 292.97 521.86 293.3 521.82 293.53 521.79 294 522.25 293.9 522.55 293.7"/><polygon class="cls-1" points="536.32 283.94 536.47 284.33 536.74 284.18 536.73 283.08 536.58 282.79 535.11 282.29 534.8 281.72 534.67 281.05 534.54 281.59 534.84 282.35 536.03 283.37 535.71 283.61 535.4 283.72 535.47 285.26 535.06 285.43 534.48 285.76 534.29 285.78 533.32 286.37 532.84 287.63 532.12 287.97 532.04 287.87 532.1 287.41 531.78 286.66 532.19 286.44 532.21 285.97 531.85 285.58 530.88 286.01 530.44 286.82 530.83 287.29 530.62 288.5 529.89 288.04 528.14 287.21 528.27 287.64 529.09 288.34 529.68 288.3 530.08 288.62 530.13 289.63 530.42 290.03 531.47 289.76 532.51 288.48 532.93 289.11 534.46 286.75 535.09 286.34 535.44 286.4 535.63 286.94 536.56 287.74 536.79 287.66 536.85 286.27 536.64 286.04 536.18 286.26 535.72 284.98 536 284.07 536.32 283.94"/><polygon class="cls-1" points="520.88 299.28 521.51 298.95 521.75 298.18 521.04 298.82 520.34 297.68 520.12 297.13 519.56 296.66 520.55 298.43 520.49 299.28 520.88 299.28"/><polygon class="cls-1" points="523.39 302.05 522.25 302.69 521.43 302.24 521.86 303.15 522.75 302.86 523.44 302.3 523.39 302.05"/><polygon class="cls-1" points="529.74 297.81 529.65 298.55 529.84 298.7 530.45 298.44 529.91 298.18 529.74 297.81"/><polygon class="cls-1" points="528.19 295.55 528.75 296.16 529.33 296.33 530.33 295.98 530.22 295.68 530.7 295.66 531.18 296.5 531.72 296.72 531.71 296.14 531.1 295.24 531.48 294.35 531.51 293.7 531.25 293.37 531.12 292.31 530.64 293.22 530.35 293.86 530.6 294.7 530.4 294.87 530.05 294.98 529.6 294.76 529.16 294.7 528.88 294.55 529.01 294.03 529.59 293.64 529.81 293.14 529.14 293.41 528.39 293.65 528.01 293.42 527.84 293.94 527.93 294.31 528.36 294.71 528.1 295.12 528.19 295.55"/><polygon class="cls-1" points="521.33 307.67 522.54 306.59 522.67 306.24 522.63 306.03 522.44 305.81 522.14 305.9 521.99 305.42 522.16 304.96 522.74 304.83 522.49 304.53 522.66 303.42 521.62 303.86 520.47 305.65 519.04 306.53 519.11 308.2 518.83 308.57 519.22 309.35 519.53 309.13 519.75 308.7 519.77 308.27 520.51 308.17 521.33 307.67"/><polygon class="cls-1" points="523.77 299.68 523.16 299.7 522.75 300.29 521.99 300.52 523.96 300.33 523.77 299.68"/><polygon class="cls-1" points="536.38 279.82 536.6 280.21 537.07 280.32 537.24 279.86 537.98 279.8 537.96 279.59 536.31 279.06 535.88 278.95 535.84 279.23 536.38 279.82"/><polygon class="cls-1" points="511.96 316.03 513.21 315.07 513.69 314.33 512.9 313.22 511.39 313.34 511.75 314.84 511.23 315.91 511.96 316.03"/><polygon class="cls-1" points="525.02 285.91 525.57 285.86 525.88 285.67 524.27 285.48 524.13 285.12 523.6 284.56 523.7 285.27 524.44 285.91 525.02 285.91"/><polygon class="cls-1" points="541.25 279.75 540.45 279.47 539.52 279.82 537.98 280.23 537.53 280.74 535.81 280.34 535.01 280.66 536.14 280.83 536.57 281 536.64 281.15 536.9 281.76 537.48 281.61 538.04 282 538.65 283.82 538.93 283.97 539.95 283.82 540.56 283.28 540.26 283.15 539.84 282.72 539.92 282.2 540.93 283.04 541.78 281.66 541.06 280.5 541.25 279.75"/><polygon class="cls-1" points="551.8 253.97 551.84 253.32 552.01 252.49 551.43 251.71 550.85 251.21 550.85 250.64 549.96 250.12 549.31 250.71 549.05 251.58 549.72 252.34 550.13 253.27 550.52 255.03 550.84 255.55 551.21 256.05 550.65 257.22 549.03 259.35 548.42 259.46 547.06 258.85 545.85 259.57 544.96 260.7 543.71 260.44 543.36 261.07 543.77 262.46 543.66 263.5 542.9 263.96 542.32 263.7 541.76 265.5 540.72 265.33 540.55 265.5 540.81 266.11 540.57 267.46 540.94 267.87 540.44 268.65 539.27 268.72 539.14 269.26 539.12 270.24 538.88 271.41 537.75 272.39 538.38 272.89 538.94 272.72 539.22 272.91 538.81 273.67 541.19 275.19 540.88 276.06 541.11 278.2 540.85 279.11 542.24 279.59 542.45 280.02 543.03 280.63 543.41 281.08 542.98 281.95 543.68 281.78 544.57 281.61 544.33 281.24 543.67 280.99 543.14 279.83 544.12 280.03 545.25 279.83 545.71 279.16 545.51 278.77 545.77 278.51 546.55 278.53 546.55 279.22 546.49 279.61 546.84 280.07 547.49 279.96 547.58 279.38 548.14 279.08 547.64 276.89 547.86 275.65 547.75 273.78 548.46 272.8 549.05 272.69 549.22 272.02 549.05 271.26 549.5 270.44 551.35 268.95 551.47 268.51 550.97 267.75 550.02 267.14 549.55 265.96 550.35 265.45 551.5 264.37 551.21 263.27 551.4 262.71 551.7 261.15 551.94 259.98 552.12 258.13 551.71 255.53 551.8 253.97"/><polygon class="cls-1" points="392.88 345.56 394.24 346.48 393.99 345.56 393.56 345.24 394.88 344.83 396.03 344.92 397 345.66 397.04 345.25 397.76 345.07 397.85 344.29 396.45 344.38 396.36 344.2 396.96 343.83 396.88 343.6 395.86 343.05 394.84 341.99 390.64 340.28 388.3 338.86 389.83 340.47 389.41 341.2 388.22 340.51 387.46 339.59 387.12 340.05 384.36 339.87 383.59 340.05 383.21 340.83 382.44 340.33 382.06 340.74 379.89 341.06 379.55 341.57 379.04 341.75 380.19 342.81 381.37 342.53 381.75 342.76 383.07 341.93 383.62 341.93 384.9 342.62 385.41 343.77 385.75 343.5 386 343.64 386.09 344.47 386.72 344.19 387.19 343.36 389.32 342.9 390.04 343.4 389.83 343.81 390 344.82 391.78 345.74 392.88 345.56"/><polygon class="cls-1" points="386.33 345.47 386.63 346.21 387.01 346.11 387.18 344.96 387.82 344.69 388.24 345.11 387.9 343.96 386.33 345.47"/><polygon class="cls-1" points="418.51 372.79 417.77 372.47 416.06 372.73 414.35 372.33 413.53 372.61 412.7 372.49 410.93 373.4 409.15 373.72 407.65 372.47 406.77 372.24 406.34 370.93 405.43 370.61 405.4 371.54 404.46 370.98 402.38 370.22 400.97 370.88 399.72 370.89 399.01 371.81 397.2 372.32 394.44 371.51 393.91 371.59 392.33 373.38 392.29 374.46 393.05 377.1 392.78 378.09 392.36 378.46 392.07 379.43 391.38 379.97 391.37 380.41 391.54 380.77 392.05 380.69 393.22 379.91 394.45 379.55 396.4 379.64 397.42 380.25 400.4 379.03 402.34 378.7 404.38 379.01 405.85 377.68 406.52 377.93 407.66 377.88 408.42 378.33 409.55 377.86 411.75 377.56 414.09 376.33 415.81 376.07 418.37 375.02 419.41 373.95 421.94 373.88 422.72 373.14 422.13 372.71 418.51 372.79"/><polygon class="cls-1" points="404.2 341.47 402.84 342.11 402.55 341.69 402.29 341.83 402.29 342.7 401.36 343.2 401.44 344.58 402.67 345.73 403.48 344.95 404.33 344.81 404.71 345.27 405.94 344.49 407 345.24 408.15 345.04 408.32 345.73 408.74 346.05 409.72 346.01 410.06 346.97 410.23 346.75 410.34 344.29 410.2 343.91 409.14 343.08 408.89 342.48 409.06 342.3 409.69 342.95 410.08 342.54 410.21 341.72 410.97 341.58 410.88 342.54 412.11 342.41 412.66 342.96 412.36 343.65 412.95 343.93 413.89 342.83 413.68 342.46 413.13 342.13 412.2 342.17 410.97 340.88 410 340.88 409.07 340.33 407.84 340.42 406.95 339.96 405.99 339.87 405.72 340.19 406.36 340.74 405.98 341.34 404.2 341.47"/><polygon class="cls-1" points="78.64 377.87 76.67 378.92 73.33 381.36 73.9 384.54 75.78 386.27 79.46 383.7 82.64 380.48 81.08 378.34 78.64 377.87"/><polygon class="cls-1" points="15.09 334.55 12.8 335.4 10.53 333.82 10.32 336.95 11.2 337.67 14.44 337.19 15.84 338.67 18.64 340.44 21.43 338.72 21.73 337.83 18.07 336.73 15.09 334.55"/><polygon class="cls-1" points="29.91 360.53 26.28 361.8 28.51 363.8 30.92 365.17 33.18 364.03 32.83 361.2 29.91 360.53"/><polygon class="cls-1" points="157.84 387.49 154.08 379.77 151.78 374.79 148.41 371.61 145.93 368.68 143.98 364.93 140.28 367.28 136.7 371.29 133.43 366.57 130.86 363.37 127.28 361.33 123.65 361.11 123.67 314.59 123.69 278.29 119.69 276.8 114.11 273.57 109.21 275.32 106.38 273.92 99.3 272.9 91.54 269.44 87.79 270.54 82.16 268.66 82.38 266.1 76.16 265.43 74.53 267.6 71.87 262.52 66.27 260.09 60.6 266.14 57.22 265.39 50.24 270.32 46.65 271.57 42.89 276.71 42.01 281.85 37.36 286.56 30.83 286.89 28.77 292.18 33.83 295.31 37.36 299.47 39.98 304.25 44.51 307.82 47.5 313.52 39.73 313.87 40.23 309.3 37.2 309.3 28.99 313.77 23.82 317.53 28.48 322.66 30.03 326.14 35.42 328.19 40.63 327.23 43.53 329.11 44.65 327.23 48.56 325.36 50.82 325.26 48.1 328.57 50.16 330.1 50.84 333.93 48.03 336.5 45.36 335.79 42.39 339.74 39.86 338.44 36.88 339.04 35.57 343.18 32.57 347.6 31.15 352.07 33.99 355.33 34.01 359.6 36.53 361.39 39.64 364.84 44.43 363.44 46.8 366.04 46.13 368.69 46.45 372.93 48.71 372.94 52.39 370.09 53.77 373.63 54.76 371.09 57.16 374.67 59.15 372.11 60.34 373.33 64.58 371.18 62.71 375.35 62.07 380.6 59.35 383.01 58.53 384.37 53.43 388.38 51.62 391.09 47.05 391.83 43.13 395.39 39.53 397.38 35.5 400.36 36.08 401.42 42.4 399.61 45.46 397.48 49.2 395.29 52.64 393.48 55.17 393.98 59.48 391.19 60.64 388.09 66.39 384.63 67.3 381.63 70.98 379.54 74.94 376.64 78.42 371.59 75.73 368.11 81.03 362.93 83.54 357.98 88.23 353.75 89.24 355.66 85.33 357.99 83.67 365.25 84.2 369.51 88.28 367.98 91.52 365.54 95.78 364.01 97.81 363.54 97.05 358.38 101.14 356.79 105.52 359.99 112.76 363.39 117.86 362.76 124.3 365.38 127.82 366.76 135.43 374.17 139.74 376.18 145.59 376.35 149.12 376.8 151.1 383.28 155.85 388.7 156.89 394.42 160.13 396.48 162.15 398.89 164.2 395.8 164.1 391.7 157.84 387.49"/><path class="cls-1" d="M889.26,210.08l4.16-.63,6.92-2.18,4.53.24,6.37-2,.75-3.59-2.83-2.81,1,4.6-3.91-.31-3.11-6.71.09-6.76,1.6-2.9,4.18-6,10.7-7.85,9.16-3.08,9.18-4.19-.13-5.66-6.17-7.56V134l-4.19-4-6.32,2.36-3.14-3.64-7.19,10.41L908,149.76l-3.35,6.12-3.89,2.33-3.13.41-.95,3.29H879.34L865,162l-4.26,2.44-9.76,9,1.07,2,.56,5.06-7.07,4.27-7.72-1.07-7.42-.47-4.91,1.63,1.29,3.71v0l.18,1.22-8.11,7.61h0l-7.11,3.67h0l-4.85,1.69-5.58,3.5L794.46,208l-4.71-.64-5.8-2.59,3.22-4.86,2.07-4.45,4.44-7-.47-5.26-1.7-7.54L788,174.31,782.17,180l-1.87-.11-.48-3.28,5.19-5.23.86-6-.77-6-7-5.22-8-2.69-1.32,5.11-2.08,1.36L765,164.5l-.88-4.46-3.77,3.18L758,167.66l-2.46,6.45-.47,5.53,3.13,8-.26,8.44-3.83,6.17L752.23,204h0l-2.55,1.37-3.21.07-.86-.84-2.54-6.65-.08-3.31v0l.25-3.12-1.18-6.29,1.79-7.33,2.13-9.12,4.9-10.21-1.42,0-6.93,8.54-1.28-1.56,3.69-4.77.09-.13-.15-.07.14.06,5.54-8.53L757,150.9l7.36-2.7,7.42,1.42.32.06,8.31-1.21-4.69-5.41,1.2-1.35-3.15-.42-.59,1.33-2.88-.54-2-3.84L759,139.45l-8.37,3L744,137.27l-5.35-1.75,3-7.3-8.32,4.59-7.57,4.47-6.7,3.21h0l-.57.28h0l-.08-.06-5.7-4.65-9.45,2.87,0-2,6.4-5.82,6.7-5.56,9.62-4.62h0l-11.6-3.66-7.64,1.84-9.15-4.39-9.62-2.26-6.59-.88-2.94-2.42-1.67-7.89-3.19.09,0,5.53-19.52,0-32.07,0-32.66,0-28.2,0H533l-28.19,0-28.19,0-9.27,0-28,0-28-.06,4.47,11.72L417.29,130,415,133.62l-4.18-10.89-13.14-2.56,1.56,13.42L401.78,145l-1.68,20.24L399.44,180l-2.86,13.8,3,7.12.33,10.77L397.88,222l5,6.69,1.31,9.9,7.29,10.06,4.16,3.93-.33,2.75,7.85,16.32,9.15,11.61,1.15,6.29,2.41,1.83,7.46.88,4.09,3.56,3.8.43L461.3,303l4,5.8,1.14,4.1,10.72-.85,12-1.17-.87,2.13,14.24,5.41L524,326.15l18.67-.06,7.57,0,.12-4.54H566.6l3.44,3.89,4.82,3.48,5.61,4.81,3.13,5.68,2.34,5.95,4.88,3.25,7.82,3.21,6-8.5,7.71-.21L619,347.4l4.73,7.33,3.26,6.26,5.56,6,2.08,7.39,2.64,4.93,7.35,3.24,6.7,2.31,3.68-.32L653.16,381l-.47-5,.09-7.27L655,364l5.15-5.07,9.37-4.62,8.58-7.95,8.05-2.26,8.17.32,7.18,1.39,5.44,2.21,8,2.21,13-.43-2.94-6.47,1.08-4.51,5.42.18,5.78-2.44,8.37,1.19,10.66-1.37,8.91,4.89,2.17,3,10.61-4.56,5.38,4.12,6.13,6.46,2.17,6L790,362.78l.86,5.11,4.62,7.69,5,9,3.58,2.39,1.49,4.56,4.65,1.25,3.95-1.82,2-9-.4-9.37-4.1-10.85v-4.14l-4.24-8-3.59-8.84-1.23-7.94,1.8-6.25,4.1-8.09,9.86-5.63,8.23-6.9,3.7-7.92,3.34-.65,8.07-5.73,9.25-4.38,6-8.52-1.32-11.62-4.19,0h0l4.18,0-2.71-7.29-.14-.35-1.82-5.66L845,247.1l-.55-1.66,0,0,.55,1.69,5.64,3.55-.13-10.38,1.56-4.25.4,9.05,4.8,5.7L858,250l-.74.81-3.23,8,.86.47,5.3-9.46,3.64-4.09-.53-1.1-2.56-6.14-2-6.54.83-.14,2.26,3.19,2.07.62.71,3.12,6.86-9.36,1.63-8.84-2.37-.54,3.25-6-.66,4.14,6,0,13.21-3.71-2.8-2.36-13.35,1.66,7.36-2.92ZM744.79,160.55h0v0h0Zm-6.74-12.19,1.51.14h0Zm2,2.36,2.22.86h0l-2.22-.85ZM771.26,205h0Z" transform="translate(-396.58 -101.23)"/><polygon class="cls-1" points="322.53 39.25 321.96 39.53 322.53 39.25 322.53 39.25"/><polygon class="cls-1" points="218.72 316.66 215.55 314.59 213.31 315.07 211.79 313.51 210.9 313.63 210.4 314.61 211.41 316.27 213.07 316.54 213.94 319.09 217.63 318.58 218.78 317.67 218.72 316.66"/><polygon class="cls-1" points="231.33 330.42 230.39 330.21 230.14 328.56 228.76 327.02 221.01 323.37 220.49 323.58 220.26 324.78 221.15 326.77 218.36 330.19 220.29 334.93 220.41 338.95 223.54 340.32 224.65 338.45 227.41 336.51 230.55 335.75 233.6 333.1 231.78 331.55 231.33 330.42"/><polygon class="cls-1" points="175.15 297.94 173.35 299.03 172.58 300.32 174.79 302.06 176.6 302.5 178.03 301.22 178.51 298.85 177.93 297.99 175.15 297.94"/><polygon class="cls-1" points="196.58 307.8 194.95 304.79 192.99 306.11 191.15 306.31 193.14 309.8 194.72 309.83 195 309.69 195.69 309.51 196.95 310.45 198.95 309.94 197.9 307.98 196.58 307.8"/><polygon class="cls-1" points="203.16 312.49 208.43 313.22 210.24 311.93 203.65 310.96 203.16 312.49"/><polygon class="cls-1" points="397.34 87.01 397.1 87.18 397.1 87.18 397.1 87.2 397.34 87.01"/></svg>