<?xml version="1.0" encoding="UTF-8"?>
<svg width="156px" height="143px" viewBox="0 0 156 143" version="1.1" xmlns="http://www.w3.org/2000/svg" xmlns:xlink="http://www.w3.org/1999/xlink">
    <!-- Generator: Sketch 49.3 (51167) - http://www.bohemiancoding.com/sketch -->
    <title>usa_territories_low-reference</title>
    <desc>Created with Sketch.</desc>
    <defs></defs>
    <g id="Page-1" stroke="none" stroke-width="1" fill="none" fill-rule="evenodd">
        <g id="usa_territories_low-reference" transform="translate(1.000000, 1.000000)" fill="#FFFFFF" fill-rule="nonzero" stroke="#000000" stroke-width="0.5">
            <!--<path d="M3.62,74.69 L2.72,74.16 L2.46,72.97 L1.94,72.94 L1.69,72.66 L1.19,73 L0,72.53 L0.18,71.93 L0.91,71.29 L1.44,71.21 L1.53,70.79 L2.23,70.5 L3.42,70.74 L4.1,70.47 L4.58,70.93 L6.04,70.19 L7.11,68.98 L8.59,68.12 L8.93,67.53 L8.84,68.48 L10.46,68.31 L13.45,68.87 L13.74,68.3 L14.57,68.32 L14.44,69.46 L12.94,70.36 L12.36,70.36 L12.3,69.89 L11.48,69.63 L10.96,70.34 L9.53,70.81 L9.11,70.43 L9.26,70.09 L9.04,69.56 L7.96,69.89 L8.46,70.45 L8.45,70.87 L7.16,72.27 L6.63,72.39 L5.26,74.63 L4.6,74.47 L4.15,75.3 L3.62,74.69 Z M14.81,69.95 L15.35,70.28 L15.02,70.54 L14.57,70.37 L14.81,69.95 Z M39.96,67.03 L42.13,67.69 L40.14,68.67 L39.53,67.18 L39.96,67.03 Z M42.31,67.59 L43.06,67 L43.53,68.18 L43.28,68.76 L42.31,67.59 Z M48.9,70.03 L49.45,70.41 L50.3,70.12 L50.73,70.25 L51.17,69.87 L51.7,70.08 L53.03,69.98 L53.45,70.38 L53.07,71.28 L53.03,72.4 L50.93,72.14 L49.85,73.19 L49.23,72.82 L48.85,71.65 L47.95,70.68 L48.9,70.03 Z" id="AS"></path>-->
            <!--<path d="M32.59,75.58 L32.56,75.89 L33.12,76.46 L33.12,77.46 L34.27,78.29 L34.98,78.38 L35.64,79.35 L36.32,79.01 L36.46,78.27 L37.12,77.9 L37.26,77.47 L39.28,77.84 L39.31,78.35 L39.74,79.06 L39.28,79.37 L39.11,79.94 L38.48,80.28 L37.97,79.68 L37.29,79.68 L36.75,80.05 L36.69,80.36 L36.98,80.76 L36.1,83.84 L34.56,84.61 L33.99,85.12 L33.62,84.83 L33.05,85.43 L33.99,85.72 L34.19,86.09 L33.99,86.4 L34.99,86.98 L33.79,88.19 L33.16,88.53 L32.62,88.53 L32.36,88.22 L31.02,87.62 L30.82,87.05 L29.88,86.34 L29.28,87.57 L28.97,87.6 L28.97,86.46 L28.4,85.43 L27.13,85.43 L27.13,86.4 L27.77,86.71 L27.6,87.37 L27.2,87.54 L25.97,88 L25.11,88.03 L23.46,86.21 L23.2,88.41 L22.33,88.24 L20.21,88.38 L19.47,87.64 L19.76,86.87 L19.59,85.84 L18.68,85.3 L18.54,86.59 L17.74,86.45 L16.94,86.71 L16.54,86.25 L14.4,85.82 L13.8,85.28 L10.72,80.75 L11.89,78.61 L11.29,78.15 L10.66,76.75 L10.12,76.98 L9.49,76.55 L9.55,76.07 L9.95,75.93 L10.38,75.9 L10.86,76.44 L11.54,76.24 L11.94,75.36 L11.03,75.1 L10.69,74.61 L10.6,72.76 L10.8,71.82 L9.57,71.48 L8.54,72.25 L8.23,73.25 L7.49,73.17 L7.63,72.51 L7.17,72.03 L7.83,70.66 L7.06,70.57 L6.52,71.37 L5.47,71.66 L5.44,70.32 L5.07,69.52 L5.47,69.21 L4.87,67.56 L4.73,66.25 L5.04,65.25 L5.81,65.36 L6.49,64.68 L8.91,63.11 L9.57,63.08 L10,63.62 L10.48,63.25 L9.25,62.28 L9.48,61.71 L10.39,61.74 L10.99,62 L11.82,61.49 L12.93,63.54 L13.53,63.97 L14.78,64.11 L15.81,60.77 L14.21,59.12 L14.87,58.29 L15.04,56.98 L15.44,56.98 L16.27,57.69 L17.15,57.52 L18.09,58.92 L18.09,61.4 L18.92,61.34 L18.92,59.74 L19.58,59.11 L20.52,59.54 L21.15,60.37 L21.49,60.2 L22.06,59.49 L21.92,58.69 L22.15,58.38 L25.06,61.43 L25.89,61.46 L26.09,59.89 L27.23,59.21 L28.51,59.21 L28.97,59.5 L28.26,60.3 L29,60.7 L30.57,60.7 L30.8,61.18 L30.54,62.78 L31.25,64.23 L30.91,65.37 L31.28,65.48 L31.31,66.22 L31.77,66.51 L33.22,66.34 L33.73,66.68 L33.84,67.19 L33.61,67.5 L33.92,67.84 L35.09,67.24 L35.4,66.64 L35.37,65.87 L35.54,65.64 L35.91,65.36 L36.45,65.39 L36.91,65.02 L37.39,65.16 L37.19,65.82 L36.96,65.82 L36.9,66.65 L38.04,67.19 L38.21,67.7 L37.81,68.73 L38.41,69.47 L38.41,70.3 L39.07,72.04 L38.78,73.09 L39.12,73.8 L39.52,73.8 L39.75,74.09 L39.92,74.63 L39.72,75 L37.64,76.51 L36.87,74.63 L35.59,75.03 L34.39,75.03 L33.76,76.03 L33.09,75.49 L32.59,75.58 Z M2.57,69.31 L2,69.22 L1.29,67.8 L0.61,64.41 L0.75,64.12 L1.09,64.15 L1.09,63.47 L1.46,63.33 L1.23,63.05 L1.34,62.65 L1.71,62.57 L1.8,61.94 L2.8,61.31 L3.2,60.65 L3.63,60.48 L4.09,60.77 L4.12,60.37 L4.46,60.03 L4.89,60.09 L5.23,59.26 L6.28,58.92 L6.42,58.55 L7.1,58.75 L7.5,58.61 L7.19,58.01 L6.13,58.01 L3.14,60.09 L1.17,61.89 L0,64.23 L0.37,66.68 L1.28,69.07 L1.65,69.81 L2.39,69.64 L2.57,69.31 Z M2.91,72.11 L3.34,71.77 L2.91,71.74 L2.74,71.37 L3.17,70.71 L2.48,70.91 L2.62,69.8 L1.96,70.28 L2.13,71.16 L3.5,74.1 L3.9,75.78 L4.7,76.09 L4.7,75.55 L3.96,74.52 L2.91,72.11 Z M20.25,57.79 L20.68,57.99 L21.14,57.59 L21.14,56.85 L20.86,56.65 L20.46,56.96 L20.2,56.39 L19,56.59 L18.54,56.96 L18.54,57.7 L18.91,58.24 L19.25,58.24 L20.25,57.79 Z M23.98,55.69 L23.64,54.89 L23.01,54.89 L23.01,55.58 L23.44,55.95 L23.98,55.69 Z M26.26,55.41 L27.69,54.88 L27.69,53.6 L27.32,53 L26.82,53 L26.49,53.4 L25.61,53.86 L25.61,54.2 L25.84,54.37 L25.61,54.7 L25.44,55.94 L25.95,56.4 L26.26,56.17 L26.26,55.41 Z M31.94,58.25 L32.17,57.97 L32.17,57.54 L31.77,56.86 L30.83,57.33 L30.83,57.83 L31.5,58.26 L31.94,58.26 L31.94,58.25 Z M33.42,56.97 L33.79,56.6 L34.22,56.6 L34.22,56.4 L33.82,55.94 L33.31,55.94 L32.17,56.55 L32,56.96 L32.77,57.16 L33.42,56.97 Z M32.88,63.54 L31.85,64.7 L31.85,65.1 L32.88,65.7 L33.68,65.33 L33.91,64.96 L33.91,64.67 L33.41,64.13 L33.57,63.93 L33.94,64.13 L34.4,63.73 L34.4,62.93 L34.8,62.16 L34.63,61.39 L33.85,61.62 L33.32,62.28 L32.88,63.54 Z" id="FM"></path>-->
            <polygon class="land" id="US-guam" points="11.68 95.17 12.45 94.91 13.96 93.02 13.66 92.38 14.86 91.81 15.54 91.35 16.55 90.59 17.24 88.58 17.44 86.24 17.45 84.64 16.81 84.14 17.55 83.51 17.39 79.94 18.07 77.29 19.34 75.18 19.37 74.08 20.07 73.25 21.28 73.46 22.41 71.89 23.66 71.48 25.42 69.44 26.94 68.85 28.92 66.39 31.16 65.04 31.86 63.59 32.47 63.02 34.72 62.1 35.84 60.4 37.03 56.72 37.72 55.51 38.35 53.51 38.43 52.35 35.36 52.46 33.63 52.22 32.59 50.14 31.16 48.95 30.85 47.8 28.68 46.1 27.29 46 26.64 46.55 25.03 49.67 24.69 50.82 24.77 53.24 24.08 54.98 23.61 55.39 21.2 59.77 20.95 61.46 21.18 62.43 20.82 63.17 19.75 63.62 18.4 63.31 17.36 63.96 17.06 64.76 17.62 65.78 16.99 66.54 16.36 66.73 15.23 66.48 14.57 67.02 12.4 66.66 11.23 67.43 10.47 67.25 9.27 68.12 7.56 68.63 6.86 71.05 5.31 70.93 5.3 71.78 6.01 72.06 5.5 74.26 4.91 73.12 4.93 71.42 2.89 71.31 1.18 70.67 0 70.76 0.05 71.56 1.69 72.61 2.3 74.01 4.21 75.49 4.62 76.66 4.57 77.51 3.61 78.33 2.86 81.71 1.78 83.44 2.67 83.64 4.1 86.55 3.82 87.32 3.98 88.01 4.6 88.37 4.08 90.39 4.75 91.97 6.31 93.79 9.84 95.01 10.59 95.05"></polygon>
            <!--<path d="M40.5203309,67.84 L40.4403309,68.09 C40.4403309,68.09 40.5903309,68.42 40.7203309,68.49 C40.8503309,68.56 40.7203309,68.8 40.7203309,68.8 L40.6003309,69.13 L40.2903309,69.13 L39.9603309,68.92 L39.7303309,68.57 C39.7303309,68.57 39.5803309,68.21 39.5603309,68.14 C39.5403309,68.07 39.3503309,67.66 39.3503309,67.66 L39.3203309,67.15 L39.0603309,66.95 L38.4303309,66.69 L37.9303309,66.66 L37.1003309,66.68 L36.6203309,66.4 L36.1203309,66.09 L35.7603309,65.79 L35.1003309,65.64 L34.9003309,65.36 C34.9003309,65.36 35.5303309,65.46 35.6103309,65.46 C35.6903309,65.46 35.9203309,65.33 35.9203309,65.33 L36.2303309,65.35 L36.6403309,65.43 L37.1203309,65.6 L37.5303309,65.67 C37.5303309,65.67 38.1103309,65.44 38.1203309,65.39 C38.1403309,65.34 38.6203309,64.99 38.6503309,64.94 C38.6803309,64.89 38.8203309,65.32 38.8503309,65.4 C38.8803309,65.48 39.0503309,65.68 39.0503309,65.68 L39.3603309,66.03 L39.6603309,66.33 L39.9903309,66.54 L40.2503309,66.79 L40.2503309,67.02 L40.1203309,67.17 C40.1203309,67.17 40.1003309,67.32 40.1203309,67.43 C40.1403309,67.55 40.3803309,67.68 40.3803309,67.68 L40.5203309,67.84 Z M43.2603309,74.87 L43.5403309,74.67 L43.7503309,74.29 L43.7503309,73.88 C43.7503309,73.88 43.4903309,73.6 43.5003309,73.48 C43.5103309,73.36 43.4003309,73.23 43.4003309,73.23 L43.1003309,73.02 C43.1003309,73.02 42.9703309,72.71 43.0203309,72.67 C43.0703309,72.64 43.1403309,72.44 43.1403309,72.39 C43.1403309,72.34 42.9303309,72.09 42.9303309,72.09 L42.3203309,72.09 L41.9103309,71.96 C41.9103309,71.96 41.7903309,71.88 41.7103309,71.88 C41.6303309,71.88 41.4803309,71.76 41.4803309,71.88 C41.4803309,72 41.5603309,72.29 41.5603309,72.29 L41.8903309,72.52 L42.2503309,72.83 L42.6103309,73.09 L42.8203309,73.34 C42.8203309,73.34 42.7203309,73.77 42.7203309,73.85 C42.7203309,73.93 42.8503309,74.44 42.8503309,74.44 L43.0503309,74.69 L43.2603309,74.87 Z M46.5903309,77.46 C46.5903309,77.46 46.7703309,77.28 46.8203309,77.25 C46.8703309,77.22 47.0303309,77 47.0803309,76.95 C47.1303309,76.9 47.2303309,76.59 47.2303309,76.59 L47.4803309,76.41 C47.4803309,76.41 47.5503309,76.16 47.5603309,76.11 C47.5803309,76.06 47.5603309,75.76 47.5603309,75.76 L47.5703309,75.45 L47.4603309,75.32 L47.1803309,75.32 L46.9803309,75.73 L46.6803309,76.01 L46.3303309,76.04 L46.0803309,76.17 L45.5703309,76.19 L45.2403309,76.26 L45.0303309,76.49 L45.2103309,76.84 L45.5103309,77.04 L46.0403309,77.21 L46.3003309,77.47 L46.4503309,77.55 L46.5903309,77.46 Z M28.7603309,68.15 L28.8603309,67.92 C28.8603309,67.92 28.8903309,67.66 28.8603309,67.61 C28.8303309,67.56 28.5003309,67.35 28.5003309,67.35 L28.5003309,67.03 L28.2503309,66.74 C28.2503309,66.74 27.9903309,66.56 27.9503309,66.51 C27.9203309,66.46 27.5203309,66.26 27.5203309,66.26 L27.2203309,66.26 L27.3403309,66.52 L27.8403309,66.7 C27.8403309,66.7 28.0203309,66.91 28.0503309,67.02 C28.0803309,67.13 28.0503309,67.16 28.0503309,67.2 C28.0503309,67.24 27.8203309,67.2 27.8203309,67.2 L27.6503309,66.93 L27.3403309,66.8 C27.3403309,66.8 27.3903309,66.98 27.4203309,67.02 C27.4503309,67.06 27.6503309,67.39 27.7703309,67.43 C27.8903309,67.46 28.0503309,67.69 28.1203309,67.74 C28.1903309,67.79 28.4703309,68.02 28.4703309,68.02 L28.7603309,68.15 Z M31.5703309,68.15 L31.8003309,68.02 L31.8003309,67.79 L31.5703309,67.63 L31.3103309,67.76 L31.3103309,68.06 L31.5703309,68.15 Z M30.2803309,61.65 L30.4503309,61.39 L30.2803309,61.14 C30.2803309,61.14 30.3103309,60.97 30.2803309,60.86 C30.2503309,60.74 30.0303309,60.51 29.9703309,60.46 C29.9003309,60.41 29.6203309,60.46 29.6203309,60.46 C29.6203309,60.46 29.5403309,60.63 29.5203309,60.69 C29.5003309,60.76 29.4703309,60.82 29.6003309,61.04 C29.7303309,61.26 29.9703309,61.48 29.9703309,61.48 L30.2803309,61.65 Z M1.40033086,63.16 C1.40033086,63.16 1.47033086,62.99 1.47033086,62.95 C1.47033086,62.91 1.30033086,62.64 1.30033086,62.64 C1.30033086,62.64 1.06033086,62.52 1.02033086,62.49 C0.980330864,62.46 0.760330864,62.26 0.680330864,62.24 C0.600330864,62.22 0.210330864,62.15 0.210330864,62.15 L0.000330864198,62.23 C0.000330864198,62.23 0.0103308642,62.45 0.000330864198,62.49 C-0.0096691358,62.52 0.210330864,62.76 0.210330864,62.76 C0.210330864,62.76 0.470330864,62.88 0.530330864,62.89 C0.600330864,62.9 0.840330864,63.1 0.890330864,63.11 C0.940330864,63.12 1.12033086,63.15 1.12033086,63.15 L1.40033086,63.15 L1.40033086,63.16 Z M9.40033086,53.68 L9.65033086,53.28 L9.81033086,52.9 L9.71033086,52.52 L9.48033086,51.98 L9.02033086,51.67 L8.61033086,51.5 L8.18033086,51.5 L7.78033086,51.81 C7.78033086,51.81 7.47033086,52.09 7.47033086,52.16 C7.47033086,52.23 7.39033086,52.59 7.39033086,52.59 L7.64033086,52.97 L7.95033086,53.32 L8.13033086,53.68 L8.44033086,53.86 L8.70033086,53.86 L8.80033086,53.65 L8.70033086,53.4 C8.70033086,53.4 8.42033086,53.28 8.35033086,53.2 C8.28033086,53.12 7.94033086,52.8 7.94033086,52.8 L7.77033086,52.54 L7.90033086,52.24 L8.23033086,52.03 L8.58033086,51.95 L8.90033086,52.12 L9.21033086,52.42 L9.33033086,52.69 L9.41033086,53.03 L9.28033086,53.34 L9.26033086,53.57 L9.40033086,53.68 Z M27.4103309,52.78 C27.4103309,52.78 27.5303309,52.77 27.5903309,52.78 C27.6503309,52.79 27.7003309,52.61 27.7003309,52.61 C27.7003309,52.61 27.7403309,52.4 27.7003309,52.34 C27.6603309,52.27 27.5703309,51.99 27.5703309,51.99 L27.2603309,51.81 L26.9503309,51.49 C26.9503309,51.49 26.7703309,51.34 26.7403309,51.34 C26.7103309,51.34 26.4103309,51.39 26.4103309,51.39 C26.4103309,51.39 26.1903309,51.32 26.1203309,51.34 C26.0503309,51.35 25.8203309,51.31 25.7503309,51.39 C25.6703309,51.48 25.5303309,51.62 25.5303309,51.62 L25.3103309,51.94 L25.3803309,52.28 L25.4903309,52.52 L25.8103309,52.66 C25.8103309,52.66 26.1903309,52.92 26.2403309,52.93 C26.2803309,52.94 26.5703309,52.95 26.6503309,52.93 C26.7303309,52.91 26.9203309,52.72 26.9203309,52.72 C26.9203309,52.72 26.9603309,52.58 26.9003309,52.57 C26.8303309,52.56 26.5603309,52.54 26.4403309,52.52 C26.3203309,52.5 25.9603309,52.41 25.9603309,52.41 C25.9603309,52.41 25.7503309,52.17 25.7503309,52.14 C25.7503309,52.11 25.8203309,51.81 25.8203309,51.81 L26.1203309,51.72 L26.6603309,51.71 L26.9503309,51.88 L27.2703309,52.08 C27.2703309,52.08 27.5003309,52.29 27.4903309,52.32 C27.4803309,52.35 27.3703309,52.62 27.3703309,52.62 L27.4103309,52.78 Z M32.6703309,55.04 L33.1303309,54.93 L33.2103309,54.56 C33.2103309,54.56 33.0203309,54.42 32.9803309,54.42 C32.9403309,54.42 32.5003309,54.49 32.4503309,54.49 C32.4103309,54.49 32.1003309,54.51 32.0803309,54.51 C32.0603309,54.51 31.7303309,54.55 31.7303309,54.55 C31.7303309,54.55 31.6303309,54.64 31.6303309,54.69 C31.6303309,54.74 31.7403309,54.97 31.7403309,54.97 L32.6703309,55.04 Z M36.2803309,52.61 L35.8303309,52.54 L35.6603309,52.77 C35.6603309,52.77 35.5903309,53 35.5403309,52.96 C35.4903309,52.91 35.2303309,52.75 35.2303309,52.75 C35.2303309,52.75 35.0803309,52.48 35.0203309,52.48 C34.9603309,52.48 34.7703309,52.48 34.7703309,52.48 L34.6503309,52.59 L34.6503309,52.79 L34.6903309,52.96 L35.1603309,52.97 L35.5203309,53.18 L35.3003309,53.34 L35.0603309,53.51 L34.9703309,53.84 L35.0503309,54.32 C35.0503309,54.32 34.8703309,54.45 34.8403309,54.45 C34.8103309,54.45 34.4203309,54.26 34.4203309,54.26 L34.0903309,53.94 L33.9703309,53.59 L33.9703309,53.15 L34.0403309,52.95 L34.2103309,52.95 L34.3303309,52.66 C34.3303309,52.66 34.2303309,52.47 34.2003309,52.47 C34.1703309,52.47 33.7503309,52.64 33.7503309,52.64 L33.6703309,53.12 L33.6303309,53.64 L33.7203309,54.16 L34.1803309,54.58 L34.4703309,54.72 L34.9103309,54.86 L35.2903309,54.72 L35.4203309,54.19 L35.5003309,53.67 L35.8503309,53.47 L36.0803309,53.23 L36.2803309,52.96 L36.3703309,52.75 L36.2803309,52.61 Z M38.4803309,53.85 L38.7703309,53.67 L38.9903309,53.43 L38.9203309,53.01 L38.4803309,52.81 L38.0703309,52.81 L37.7803309,53.06 L37.7803309,53.32 L38.0403309,53.43 L38.1603309,53.66 L38.3303309,53.84 L38.4803309,53.84 L38.4803309,53.85 Z M54.2103309,48.12 L53.9903309,48 L53.8503309,48.06 L53.6503309,48.12 L53.5903309,48.34 C53.5903309,48.34 53.6403309,48.52 53.6603309,48.56 C53.6803309,48.6 53.7703309,48.75 53.7703309,48.75 L53.9803309,48.75 L54.0703309,48.59 L54.2103309,48.46 L54.2103309,48.27 L54.2103309,48.12 Z M52.0403309,54.49 L52.4603309,54.38 L52.7303309,54.31 C52.7303309,54.31 52.7403309,54.13 52.7303309,54.06 C52.7203309,53.99 52.5803309,53.75 52.5303309,53.73 C52.4903309,53.71 52.2303309,53.44 52.2303309,53.44 C52.2303309,53.44 51.9703309,53.38 51.9503309,53.44 C51.9403309,53.49 51.8903309,53.76 51.8903309,53.76 L51.8903309,54.21 L52.0403309,54.49 Z M51.6903309,55.07 L51.7303309,54.74 C51.7303309,54.74 51.7303309,54.36 51.7103309,54.34 C51.6903309,54.33 51.4703309,54.17 51.4703309,54.17 L51.1403309,54.21 L50.8203309,54.3 L50.7403309,54.61 L50.8203309,54.79 L51.0503309,55.1 L51.2403309,55.18 L51.5003309,55.18 L51.6903309,55.07 Z M53.3603309,58.57 L53.1503309,58.49 L52.9503309,58.71 C52.9503309,58.71 52.8403309,59.12 52.8403309,59.15 C52.8403309,59.18 52.7003309,59.44 52.7003309,59.44 L52.6103309,59.75 L52.7103309,60.1 C52.7103309,60.1 52.7803309,60.25 52.8503309,60.28 C52.9303309,60.3 53.1903309,60.28 53.1903309,60.28 L53.5003309,60.24 L53.6103309,60.06 L53.6103309,59.75 L53.4803309,59.39 L53.5703309,59.12 L53.4703309,58.81 L53.3603309,58.57 Z M48.7703309,62.64 C48.7703309,62.64 49.0903309,62.62 49.1203309,62.59 C49.1503309,62.56 49.2803309,62.39 49.3003309,62.33 C49.3103309,62.26 49.3303309,62.04 49.3003309,62 C49.2703309,61.96 49.0503309,61.82 48.9603309,61.8 C48.8703309,61.78 48.5403309,61.52 48.5403309,61.52 L48.2803309,61.24 C48.2803309,61.24 48.1103309,61.14 48.0703309,61.12 C48.0303309,61.1 47.7503309,61.03 47.7503309,61.03 L47.5803309,61.23 L47.6703309,61.59 C47.6703309,61.59 47.7803309,61.76 47.8003309,61.83 C47.8203309,61.91 48.1803309,62.25 48.1803309,62.25 L48.4403309,62.48 L48.7703309,62.64 Z M53.2603309,65.15 L53.6003309,65.15 L53.8803309,65.02 L54.1103309,64.83 L54.4503309,64.83 L54.6003309,64.99 L54.7803309,64.99 L54.9503309,64.78 L54.8903309,64.42 L54.6703309,64.16 L54.3003309,63.92 L54.0103309,63.92 L53.6303309,64.18 L53.2703309,64.11 L52.9103309,63.99 L52.5903309,63.99 L52.3403309,64.21 L52.4803309,64.53 L52.8103309,64.73 L52.8403309,65 L53.2603309,65.15 Z M53.7203309,66 L53.5403309,65.74 L53.2703309,65.6 L52.8703309,65.8 L52.7603309,66 L52.8903309,66.32 L53.2403309,66.53 L53.3903309,66.66 L53.5703309,66.94 L53.7203309,67.16 L53.9803309,67.26 L54.1203309,66.99 C54.1203309,66.99 54.1603309,66.64 54.1203309,66.61 C54.0803309,66.58 53.8203309,66.24 53.8203309,66.24 L53.7203309,66 Z M60.5403309,70.13 C60.5403309,70.13 60.4003309,69.78 60.4203309,69.75 C60.4403309,69.72 60.5203309,69.41 60.5403309,69.38 C60.5603309,69.35 60.7303309,69.02 60.7303309,69.02 L60.5703309,68.65 C60.5703309,68.65 59.9403309,68.21 59.9303309,68.18 C59.9203309,68.15 59.4703309,67.88 59.4703309,67.88 C59.4703309,67.88 59.0603309,67.69 58.9903309,67.69 C58.9103309,67.69 58.5503309,67.73 58.5203309,67.76 C58.4903309,67.78 58.4203309,67.99 58.4203309,67.99 C58.4203309,67.99 58.5603309,68.33 58.5703309,68.37 C58.5803309,68.41 58.7103309,68.66 58.7403309,68.69 C58.7703309,68.72 59.0603309,69.01 59.0903309,69.04 C59.1203309,69.07 59.5003309,69.59 59.5003309,69.59 L59.9003309,69.88 L60.2303309,70.14 L60.5403309,70.14 L60.5403309,70.13 Z M60.3003309,72.23 C60.3303309,72.22 60.5803309,72.08 60.5803309,72.04 C60.5803309,72.01 60.5103309,71.61 60.5103309,71.61 L60.4403309,71.29 L60.2003309,71.05 L59.8803309,70.85 C59.8803309,70.85 59.6303309,70.78 59.6303309,70.85 C59.6303309,70.92 59.6303309,71.11 59.6303309,71.11 L59.8803309,71.37 L59.9103309,71.6 L59.7203309,71.62 L59.5003309,71.44 L59.3603309,71.6 L59.5003309,71.86 L60.0603309,72.21 L60.3003309,72.21 L60.3003309,72.23 Z M60.4603309,77.88 L60.1203309,77.66 L59.8603309,77.62 C59.8603309,77.62 59.5603309,77.8 59.5603309,77.83 C59.5603309,77.86 59.5603309,78.11 59.5603309,78.11 C59.5603309,78.11 59.7703309,78.23 59.8203309,78.24 C59.8703309,78.25 60.1403309,78.24 60.1403309,78.24 L60.4503309,78.53 L60.9903309,78.79 L61.3403309,78.64 C61.3403309,78.64 61.5303309,78.49 61.5603309,78.46 C61.5903309,78.43 61.5603309,78.14 61.5603309,78.14 C61.5603309,78.14 61.2103309,78.01 61.1503309,77.99 C61.0803309,77.97 60.6203309,77.97 60.6203309,77.97 L60.4603309,77.88 Z M62.6103309,78.49 L62.8503309,78.7 C62.8503309,78.7 63.1303309,78.81 63.2003309,78.83 C63.2703309,78.85 63.5503309,78.96 63.5503309,78.96 L63.8303309,79 L64.0303309,78.85 L64.2003309,78.64 L64.4603309,78.58 L64.8603309,78.47 L65.0703309,78.26 L65.0703309,78.06 L64.8603309,77.91 L64.5303309,78.19 L64.1403309,78.38 L63.8503309,78.37 L63.6303309,78.09 L63.3403309,77.92 L63.0503309,77.88 L62.8003309,78.02 L62.5603309,78.2 L62.6103309,78.49 Z M66.4803309,85.36 L66.4403309,85.08 L66.2303309,84.79 L66.1503309,84.36 L66.0603309,83.82 L65.8103309,83.4 L65.0303309,83.2 L64.4903309,83.2 L63.8903309,83.34 L63.6603309,83.67 L63.7503309,84.2 C63.7503309,84.2 63.9003309,84.5 63.9603309,84.53 C64.0203309,84.56 64.4303309,84.61 64.4303309,84.61 C64.4303309,84.61 64.7303309,84.48 64.7803309,84.48 C64.8303309,84.48 65.3103309,84.58 65.3603309,84.59 C65.4103309,84.6 65.7903309,84.68 65.7903309,84.68 L66.0303309,85.05 L66.1403309,85.35 L66.3203309,85.43 L66.4803309,85.36 Z M50.6303309,83.39 L50.5903309,83.13 L50.3403309,83.01 L50.0503309,83.08 L50.0503309,83.4 L50.2503309,83.62 L50.4303309,83.92 L50.4203309,84.3 L50.3403309,84.61 L50.2403309,84.96 L50.3403309,85.27 L50.5103309,85.55 L50.7803309,85.86 L50.9003309,86.09 L51.2003309,86.28 L51.4603309,86.24 L51.5803309,85.84 L51.5303309,85.46 L51.8803309,85.15 L51.9503309,84.81 L51.8203309,84.51 L51.3503309,84.3 L51.0003309,84.09 L50.7403309,83.83 L50.6303309,83.39 Z M46.2603309,92.69 L46.0503309,92.54 L45.7403309,92.69 L45.6603309,93 L45.7603309,93.28 C45.7603309,93.28 45.9703309,93.54 46.0003309,93.53 C46.0303309,93.52 46.3003309,93.53 46.3003309,93.53 L46.5603309,93.38 L46.6703309,93.18 L46.6703309,92.95 L46.5203309,92.82 L46.3603309,92.91 L46.3203309,93.14 L46.0703309,93.15 L45.9903309,92.91 L46.2603309,92.69 Z" id="MH"></path>-->
            <!--<path d="M33.48,46.48 L33.16,45.96 L32.73,45.96 L32.15,46.26 L31.86,46.84 L32.06,47.58 L32.55,47.96 L32.14,49.45 L31.34,48.85 L30.13,48.87 L29.17,48.03 L29.7,45.88 L30.28,44.81 L30.38,42.96 L33.52,40.8 L34.39,39.66 L35.3,39 L36.3,39.79 L36.26,40.43 L36.12,40.7 L35.4,40.66 L35.27,41.74 L34.19,42.47 L33.69,44.56 L34.52,45.88 L34.16,46.56 L33.48,46.48 Z M27.34,57.3 L27.86,57.23 L27.69,56.82 L28.29,54.43 L28.09,53.63 L27.14,52.85 L27.06,51.89 L27.55,51.27 L27.46,49.92 L27.17,49.13 L26.66,48.93 L24.34,51.6 L23.59,53.54 L24.18,55.02 L24.87,55.04 L25.2,55.95 L25.74,56.32 L26.16,58.52 L26.46,58.65 L27.34,57.3 Z M23.44,62.1 L23.27,61.76 L21.44,62.28 L21.25,62.62 L21.49,63.11 L22.61,62.9 L23.44,62.1 Z M5.68,101.09 L5.64,100.67 L6.08,100.01 L8.06,99.75 L8.43,99.24 L8.59,97.81 L6.43,97.16 L3.72,98.63 L1.91,98.86 L0,101.7 L0.25,101.78 L1.38,100.66 L2.34,101.13 L2.47,102.2 L4.68,101.91 L5.22,101.28 L5.68,101.09 Z" id="MP"></path>-->
            <path id="US-pr" class="land" d="M61.47,73.1 L64.43,73.83 L64.92,73.59 L65.61,74.08 L63.02,74.89 L62.1,74.44 L61.86,74.81 L59.59,75.72 L58.63,75.37 L56.59,75.89 L55.84,75.63 L55.45,75.16 L55.47,74.56 L59.78,73.61 L59.97,73.24 L61.47,73.1 Z M63.28,66.66 L63.93,67.44 L64.18,67.1 L65.43,67.34 L66.15,67.79 L66.36,68.29 L65.75,68.77 L65.2,68.21 L64.48,68.07 L65.17,68.77 L64.93,69.19 L63.49,67.69 L63,66.74 L63.28,66.66 Z M5.96,61 L8.34,61.16 L9.62,61.84 L11.81,62.1 L13.29,61.8 L14.54,61.98 L15.86,61.78 L17.41,62.43 L18.46,62.51 L18.72,62.12 L19.49,61.87 L21.13,61.73 L22.61,62.09 L23.34,61.87 L24.47,62.06 L26.66,62.61 L27.3,61.99 L28.57,61.72 L32.32,62.51 L32.8,62.19 L34.42,62.7 L35.55,62.56 L36.02,63.21 L37.07,62.73 L37.51,62.44 L40.35,63.08 L40.82,63.44 L41.57,63.39 L41.89,62.87 L44.06,63.41 L44.78,63.11 L45.63,63.65 L46.97,63.84 L47.67,64.61 L48.48,64.18 L49.1,64.46 L49.1,64.92 L49.86,65.49 L50.11,65.62 L50.74,65.28 L51.47,66.03 L52.66,66.21 L53.25,65.57 L54.12,65.32 L54.08,66.07 L53.52,66.76 L53.84,67.25 L53.89,68.19 L53.91,69.04 L54.42,70.01 L55.06,70.82 L54.34,71.39 L53.7,71.76 L52.64,71.52 L51.78,71.91 L51.03,72.13 L50.33,72.4 L48.89,74.18 L48.28,76.41 L46.97,76.8 L47.23,77.55 L47.05,78.22 L46.31,78.46 L45.4,79.07 L44.32,79.48 L42.26,79.73 L41.34,79.28 L40.85,79.42 L40.06,80.26 L39.05,79.75 L36.4,81.1 L35.9,80.47 L34.85,79.9 L33.98,80.45 L33.78,81.15 L32.15,80.61 L31.04,79.35 L29.72,79.71 L28.95,80.77 L26.4,78.94 L25.09,79.04 L22.54,79.96 L21.09,79.21 L19.61,79.78 L17.88,78.9 L17.11,78.99 L15.84,79.57 L14.26,80.34 L13.09,80.26 L11.88,80.32 L11.55,80.92 L11.39,81.15 L10.29,81.01 L8.77,79.62 L7.44,79.73 L6.89,79.48 L5.48,80.49 L3.68,80.21 L3.01,79.83 L2.6,80.25 L2.9,80.95 L2.52,80.94 L1.85,80.27 L1.84,79.09 L2.12,78.64 L3.1,78.31 L3.25,77.86 L2.02,77.35 L2.27,75.83 L2.93,74.82 L2.77,73.98 L2.81,72.94 L3.88,71.62 L3.2,70.86 L2.58,68.8 L1.19,68.36 L0,66.17 L1.95,65.47 L3.64,64.44 L3.81,63.75 L3.35,62.62 L3.49,61.91 L4.36,61.22 L5.96,61 Z"></path>
            <!--<path d="M1.67,101.1 L2.46,102.21 L1.98,102.95 L0.73,103.91 L0,103.79 L0.52,102.72 L0.16,101.22 L1.67,101.1 Z M25.15,67.7 L25.37,68.09 L25.84,68.2 L26.01,67.74 L26.75,67.68 L26.73,67.47 L25.08,66.94 L24.65,66.83 L24.61,67.11 L25.15,67.7 Z M9.26,87.16 L9.65,87.16 L10.28,86.83 L10.52,86.06 L9.81,86.7 L9.11,85.56 L8.89,85.01 L8.33,84.54 L9.32,86.31 L9.26,87.16 Z M10.93,92.84 L11.51,92.71 L11.26,92.41 L11.43,91.3 L10.39,91.74 L9.24,93.53 L7.81,94.41 L7.88,96.08 L7.6,96.45 L7.99,97.23 L8.3,97.01 L8.52,96.58 L8.54,96.15 L9.28,96.05 L10.1,95.55 L11.31,94.47 L11.44,94.12 L11.4,93.91 L11.21,93.69 L10.91,93.78 L10.76,93.3 L10.93,92.84 Z M11.32,81.58 L11.67,81.69 L11.63,81.13 L11.35,81.21 L10.91,80.85 L10.63,81.18 L10.59,81.41 L10.56,81.88 L11.02,81.78 L11.32,81.58 Z M11.02,90.57 L10.2,90.12 L10.63,91.03 L11.52,90.74 L12.21,90.18 L12.16,89.93 L11.02,90.57 Z M30.02,67.63 L29.22,67.35 L28.29,67.7 L26.75,68.11 L26.3,68.62 L24.58,68.22 L23.78,68.54 L24.91,68.71 L25.34,68.88 L25.41,69.03 L25.67,69.64 L26.25,69.49 L26.81,69.88 L27.42,71.7 L27.7,71.85 L28.72,71.7 L29.33,71.16 L29.03,71.03 L28.61,70.6 L28.69,70.08 L29.7,70.92 L30.55,69.54 L29.83,68.38 L30.02,67.63 Z M25.41,73.92 L24.95,74.14 L24.49,72.86 L24.77,71.95 L25.09,71.82 L25.24,72.21 L25.51,72.06 L25.5,70.96 L25.35,70.67 L23.88,70.17 L23.57,69.6 L23.44,68.93 L23.31,69.47 L23.61,70.23 L24.8,71.25 L24.48,71.49 L24.17,71.6 L24.24,73.14 L23.83,73.31 L23.25,73.64 L23.06,73.66 L22.09,74.25 L21.61,75.51 L20.89,75.85 L20.81,75.75 L20.87,75.29 L20.55,74.54 L20.96,74.32 L20.98,73.85 L20.62,73.46 L19.65,73.89 L19.21,74.7 L19.6,75.17 L19.39,76.38 L18.66,75.92 L16.91,75.09 L17.04,75.52 L17.86,76.22 L18.45,76.18 L18.85,76.5 L18.9,77.51 L19.19,77.91 L20.24,77.64 L21.28,76.36 L21.7,76.99 L23.23,74.63 L23.86,74.22 L24.21,74.28 L24.4,74.82 L25.33,75.62 L25.56,75.54 L25.62,74.15 L25.41,73.92 Z M20.48,84.02 L19.87,83.12 L20.25,82.23 L20.28,81.58 L20.02,81.25 L19.89,80.19 L19.41,81.1 L19.12,81.74 L19.37,82.58 L19.17,82.75 L18.82,82.86 L18.37,82.64 L17.93,82.58 L17.65,82.43 L17.78,81.91 L18.36,81.52 L18.58,81.02 L17.91,81.29 L17.16,81.53 L16.78,81.3 L16.61,81.82 L16.7,82.19 L17.13,82.59 L16.87,83 L16.96,83.43 L17.52,84.04 L18.1,84.21 L19.1,83.86 L18.99,83.56 L19.47,83.54 L19.95,84.38 L20.49,84.6 L20.48,84.02 Z M40.89,46.01 L40.48,43.41 L40.57,41.85 L40.61,41.2 L40.78,40.37 L40.2,39.59 L39.62,39.09 L39.62,38.52 L38.73,38 L38.08,38.59 L37.82,39.46 L38.49,40.22 L38.9,41.15 L39.29,42.91 L39.61,43.43 L39.98,43.93 L39.42,45.1 L37.8,47.23 L37.19,47.34 L35.83,46.73 L34.62,47.45 L33.73,48.58 L32.48,48.32 L32.13,48.95 L32.54,50.34 L32.43,51.38 L31.67,51.84 L31.09,51.58 L30.53,53.38 L29.49,53.21 L29.32,53.38 L29.58,53.99 L29.34,55.34 L29.71,55.75 L29.21,56.53 L28.04,56.6 L27.91,57.14 L27.89,58.12 L27.65,59.29 L26.52,60.27 L27.15,60.77 L27.71,60.6 L27.99,60.79 L27.58,61.55 L29.96,63.07 L29.65,63.94 L29.88,66.08 L29.62,66.99 L31.01,67.47 L31.22,67.9 L31.8,68.51 L32.18,68.96 L31.75,69.83 L32.45,69.66 L33.34,69.49 L33.1,69.12 L32.44,68.87 L31.91,67.71 L32.89,67.91 L34.02,67.71 L34.48,67.04 L34.28,66.65 L34.54,66.39 L35.32,66.41 L35.32,67.1 L35.26,67.49 L35.61,67.95 L36.26,67.84 L36.35,67.26 L36.91,66.96 L36.41,64.77 L36.63,63.53 L36.52,61.66 L37.23,60.68 L37.82,60.57 L37.99,59.9 L37.82,59.14 L38.27,58.32 L40.12,56.83 L40.24,56.39 L39.74,55.63 L38.79,55.02 L38.32,53.84 L39.12,53.33 L40.27,52.25 L39.98,51.15 L40.17,50.59 L40.47,49.03 L40.71,47.86 L40.89,46.01 Z M18.51,85.69 L18.42,86.43 L18.61,86.58 L19.22,86.32 L18.68,86.06 L18.51,85.69 Z M12.9,73 L12.37,72.44 L12.47,73.15 L13.21,73.79 L13.79,73.79 L14.34,73.74 L14.65,73.55 L13.04,73.36 L12.9,73 Z M11.93,87.58 L11.52,88.17 L10.76,88.4 L12.73,88.21 L12.54,87.56 L11.93,87.58 Z" id="PW"></path>-->
            <path id="US-vi" class="land" d="M26.81,88.82 L25.34,90.15 L23.3,89.84 L21.36,90.17 L18.38,91.39 L17.36,90.78 L15.41,90.69 L14.18,91.05 L13.01,91.83 L12.5,91.91 L12.33,91.55 L12.34,91.11 L13.03,90.57 L13.32,89.6 L13.74,89.23 L14.01,88.24 L13.25,85.6 L13.29,84.52 L14.87,82.73 L15.4,82.65 L18.16,83.46 L19.97,82.95 L20.68,82.03 L21.93,82.02 L23.34,81.36 L25.42,82.12 L26.36,82.68 L26.39,81.75 L27.3,82.07 L27.73,83.38 L28.61,83.61 L30.11,84.86 L31.89,84.54 L33.66,83.63 L34.49,83.75 L35.31,83.47 L37.02,83.87 L38.73,83.61 L39.47,83.93 L43.09,83.85 L43.68,84.28 L42.9,85.02 L40.37,85.09 L39.33,86.16 L36.77,87.21 L35.05,87.47 L32.71,88.7 L30.51,89 L29.38,89.47 L28.62,89.02 L27.48,89.07 L26.81,88.82 Z M2.33,53.67 L2.71,53.9 L4.03,53.07 L4.58,53.07 L5.86,53.76 L6.37,54.91 L6.71,54.64 L6.96,54.78 L7.05,55.61 L7.68,55.33 L8.15,54.5 L10.28,54.04 L11,54.54 L10.79,54.95 L10.96,55.96 L12.74,56.88 L13.84,56.7 L15.2,57.62 L14.95,56.7 L14.52,56.38 L15.84,55.97 L16.99,56.06 L17.96,56.8 L18,56.39 L18.72,56.21 L18.81,55.43 L17.41,55.52 L17.32,55.34 L17.92,54.97 L17.84,54.74 L16.82,54.19 L15.8,53.13 L11.6,51.42 L9.26,50 L10.79,51.61 L10.37,52.34 L9.18,51.65 L8.42,50.73 L8.08,51.19 L5.32,51.01 L4.55,51.19 L4.17,51.97 L3.4,51.47 L3.02,51.88 L0.85,52.2 L0.51,52.71 L0,52.89 L1.15,53.95 L2.33,53.67 Z M7.97,57.25 L8.14,56.1 L8.78,55.83 L9.2,56.25 L8.86,55.1 L7.29,56.61 L7.59,57.35 L7.97,57.25 Z M31.19,57.89 L31.3,55.43 L31.16,55.05 L30.1,54.22 L29.85,53.62 L30.02,53.44 L30.65,54.09 L31.04,53.68 L31.17,52.86 L31.93,52.72 L31.84,53.68 L33.07,53.55 L33.62,54.1 L33.32,54.79 L33.91,55.07 L34.85,53.97 L34.64,53.6 L34.09,53.27 L33.16,53.31 L31.93,52.02 L30.96,52.02 L30.03,51.47 L28.8,51.56 L27.91,51.1 L26.95,51.01 L26.68,51.33 L27.32,51.88 L26.94,52.48 L25.16,52.61 L23.8,53.25 L23.51,52.83 L23.25,52.97 L23.25,53.84 L22.32,54.34 L22.4,55.72 L23.63,56.87 L24.44,56.09 L25.29,55.95 L25.67,56.41 L26.9,55.63 L27.96,56.38 L29.11,56.18 L29.28,56.87 L29.7,57.19 L30.68,57.15 L31.02,58.11 L31.19,57.89 Z"></path>
            <path id="US-alaska" class="land" d="M61.55,2.43 L64.21,7.51 L65.84,5.34 L72.06,6.01 L71.84,8.57 L77.47,10.45 L81.22,9.35 L88.98,12.81 L96.06,13.83 L98.89,15.23 L103.79,13.48 L109.37,16.71 L113.37,18.2 L113.35,54.5 L113.33,101.02 L116.96,101.24 L120.54,103.28 L123.11,106.48 L126.38,111.2 L129.96,107.19 L133.66,104.84 L135.61,108.59 L138.09,111.52 L141.46,114.7 L143.76,119.68 L147.52,127.4 L153.78,131.61 L153.88,135.71 L151.83,138.8 L149.81,136.39 L146.57,134.33 L145.53,128.61 L140.78,123.19 L138.8,116.71 L135.27,116.26 L129.42,116.09 L125.11,114.08 L117.5,106.67 L113.98,105.29 L107.54,102.67 L102.44,103.3 L95.2,99.9 L90.82,96.7 L86.73,98.29 L87.49,103.45 L85.46,103.92 L81.2,105.45 L77.96,107.89 L73.88,109.42 L73.35,105.16 L75.01,97.9 L78.92,95.57 L77.91,93.66 L73.22,97.89 L70.71,102.84 L65.41,108.02 L68.1,111.5 L64.62,116.55 L60.66,119.45 L56.98,121.54 L56.07,124.54 L50.32,128 L49.16,131.1 L44.85,133.89 L42.32,133.39 L38.88,135.2 L35.14,137.39 L32.08,139.52 L25.76,141.33 L25.18,140.27 L29.21,137.29 L32.81,135.3 L36.73,131.74 L41.3,131 L43.11,128.29 L48.21,124.28 L49.03,122.92 L51.75,120.51 L52.39,115.26 L54.26,111.09 L50.02,113.24 L48.83,112.02 L46.84,114.58 L44.44,111 L43.45,113.54 L42.07,110 L38.39,112.85 L36.13,112.84 L35.81,108.6 L36.48,105.95 L34.11,103.35 L29.32,104.75 L26.21,101.3 L23.69,99.51 L23.67,95.24 L20.83,91.98 L22.25,87.51 L25.25,83.09 L26.56,78.95 L29.54,78.35 L32.07,79.65 L35.04,75.7 L37.71,76.41 L40.52,73.84 L39.84,70.01 L37.78,68.48 L40.5,65.17 L38.24,65.27 L34.33,67.14 L33.21,69.02 L30.31,67.14 L25.1,68.1 L19.71,66.05 L18.16,62.57 L13.5,57.44 L18.67,53.68 L26.88,49.21 L29.91,49.21 L29.41,53.78 L37.18,53.43 L34.19,47.73 L29.66,44.16 L27.04,39.38 L23.51,35.22 L18.45,32.09 L20.51,26.8 L27.04,26.47 L31.69,21.76 L32.57,16.62 L36.33,11.48 L39.92,10.23 L46.9,5.3 L50.28,6.05 L55.95,0 L61.55,2.43 Z M0.21,73.73 L2.48,75.31 L4.77,74.46 L7.75,76.64 L11.41,77.74 L11.11,78.63 L8.32,80.35 L5.52,78.58 L4.12,77.1 L0.88,77.58 L0,76.86 L0.21,73.73 Z M22.86,103.94 L20.6,105.08 L18.19,103.71 L15.96,101.71 L19.59,100.44 L22.51,101.11 L22.86,103.94 Z M69.14,123.61 L65.46,126.18 L63.58,124.45 L63.01,121.27 L66.35,118.83 L68.32,117.78 L70.76,118.25 L72.32,120.39 L69.14,123.61 Z"></path>
            <polygon class="land" id="US-ala" points="26.63 44.15 29.08 58.27 31.31 69.43 32.66 72.91 33.49 74.9 31.93 76.85 31.4 80.36 31.91 82.44 31.68 84.39 31.42 86.19 32.02 87.59 32.48 88.88 13.24 88.94 7.85 89.57 7.7 90.4 9.85 93.05 9.35 95.2 8.67 96.69 0.3 95.49 0 78.74 1.66 60.92 3.34 46.21 2.66 44 14.52 44"></polygon>
            <polygon class="land" id="US-ark" points="46.84 56.03 46.74 56.99 45.78 58.63 44.13 59.75 43.76 61.66 42.27 63.18 42.38 66.52 41.31 67.59 41.13 68.5 39.44 69.36 39.41 71.01 38.15 74.07 37.06 74.71 35.39 76.26 34.39 78.6 32.33 82.54 32.12 85.21 33.21 88.16 32.75 90.37 24.78 89.99 14.48 90.36 5.37 90.35 5.91 83.97 3.73 83.93 1.9 84.08 1.41 83.34 1.68 73.42 1.87 62.28 0 50 11.47 50.17 21.9 50.2 31.85 50.21 42.6 50.92 43.38 52.37 42.32 53.62 41.26 54.87 40.68 56.03"></polygon>
            <polygon class="land" id="US-ariz" points="54.41 38.11 54.42 102.38 35.75 102.44 14.24 94.67 0 89.27 0.87 87.13 2.12 87.14 3.16 84.91 1.49 83.37 1.16 81.69 0.67 79.71 2.51 77.12 3.26 71.95 6.12 69.62 4.33 67.44 3.11 65.29 2.33 63.29 1.81 61.74 1.62 60.71 2.2 58.46 1.74 56.2 1.54 53.97 1.55 51.48 0.71 49.89 1.35 48.46 3.34 48.46 5.14 49.28 6.43 49.74 7.05 47.97 7.46 47.58 7.39 38.18 22.6 38 40.73 38.02"></polygon>
            <polygon class="land" id="US-cal" points="41.48 15.09 41.47 52.12 59.26 68.3 76.17 83.84 92 98.51 92.19 99.54 92.71 101.09 93.49 103.09 94.71 105.24 96.5 107.42 93.64 109.75 92.89 114.92 91.05 117.51 91.54 119.49 91.87 121.17 93.54 122.71 92.5 124.94 91.25 124.93 79.28 126.1 68.56 126.96 67.42 122.85 63.42 117.05 53.36 110.3 49.56 109.88 45.47 106.31 38.01 105.44 35.6 103.6 34.45 97.32 25.3 85.71 17.45 69.39 17.78 66.64 13.62 62.71 6.33 52.65 5.02 42.75 0 36.05 2.06 25.77 1.73 15"></polygon>
            <polygon class="land" id="US-colo" points="66.05 58.39 66.15 77.08 66.14 94.51 57.06 94.47 45.77 94.46 29.74 94.45 14.84 94.42 0.08 94.42 0 46.02 9.46 46.02 18.9 46.02 37.79 46 47.24 46 66.07 46 66.05 58"></polygon>
            <polygon class="land" id="US-CT" points="17.84 64.53 17.92 71.41 17.34 73.24 13.18 73.87 7.7 74.49 0.34 77.42 0 75.9 2.05 74.69 1.31 73.62 1.84 64 9.06 64.24"></polygon>
            <polygon class="land" id="US-dc" points="0.74 71.33 0.79 70.62 0 69.58 0.77 69 1.96 70.25"></polygon>
            <polygon class="land" id="US-del" points="3.61 62.64 2.21 63.91 2.45 66.26 4.42 72.79 6.98 78.94 0.69 78.94 0 63.52 0.73 62.55 1.58 62"></polygon>
            <polygon class="land" id="US-fla" points="57.93 41.85 59.16 49.79 62.75 58.64 66.99 66.67 66.99 70.82 71.09 81.66 71.49 91.03 69.53 100.04 65.58 101.87 60.93 100.61 59.44 96.06 55.86 93.66 50.86 84.66 46.24 76.97 45.38 71.87 47 65.38 44.83 59.39 38.7 52.93 33.32 48.81 22.71 53.36 20.54 50.33 11.63 45.44 0.97 46.81 1.65 45.32 2.15 43.17 0 40.52 0.15 39.69 5.54 39.06 24.78 39 26.22 41.94 35.7 42.45 50.99 44.08 51.69 45.98 52.91 45.01 52.93 41.22 54.07 40.85 55.94 41.65"></polygon>
            <polygon class="land" id="US-ga" points="24.04 45.09 23.01 46.04 21.5 48.21 24.04 50.1 25.68 50.8 27.44 54.39 28.56 56.4 31.84 59.08 32.49 60.49 34.73 62.32 35.83 65 38.84 67.26 39.51 69.81 40.07 71.05 39.75 71.87 41.51 73.09 42.43 75.17 42.42 77.28 43.28 77.69 44.9 78.26 40.8 86.34 39 92.59 37.01 92.39 35.14 91.59 34 91.96 33.98 95.75 32.76 96.72 32.06 94.82 16.77 93.19 7.29 92.68 5.85 89.74 5.39 88.45 4.79 87.05 5.05 85.25 5.28 83.3 4.77 81.22 5.3 77.71 6.86 75.76 6.03 73.77 4.68 70.29 2.45 59.13 0 45.01 7.28 45.12 12.31 45"></polygon>
            <path id="US-haw" class="land" d="M5.45,52.28 L4.02,53.56 L2.21,53.12 L0,51.38 L0.77,50.09 L2.57,49 L5.35,49.05 L5.93,49.91 L5.45,52.28 Z M25.32,59.04 L26.37,61 L24.37,61.51 L23.11,60.57 L22.42,60.75 L22.14,60.89 L20.56,60.86 L18.57,57.37 L20.41,57.17 L22.37,55.85 L24,58.86 L25.32,59.04 Z M37.66,62.99 L35.85,64.28 L30.58,63.55 L31.07,62.02 L37.66,62.99 Z M39.21,64.57 L40.73,66.13 L42.97,65.65 L46.14,67.72 L46.2,68.73 L45.05,69.64 L41.36,70.15 L40.49,67.6 L38.83,67.33 L37.82,65.67 L38.32,64.69 L39.21,64.57 Z M52.07,89.51 L50.96,91.38 L47.83,90.01 L47.71,85.99 L45.78,81.25 L48.57,77.83 L47.68,75.84 L47.91,74.64 L48.43,74.43 L56.18,78.08 L57.56,79.62 L57.81,81.27 L58.75,81.48 L59.2,82.61 L61.02,84.16 L57.97,86.81 L54.83,87.57 L52.07,89.51 Z" ></path>
            <polygon class="land" id="US-iowa" points="50.81 51.24 50.95 51.95 52.18 54 51.33 54.98 51.36 57.68 51.75 58.83 52.35 60.86 55.43 62.09 56.35 64.04 56.9 65.01 58.01 65.66 58.46 67.03 59.95 68.05 60.92 69.14 60.42 72.54 58.67 75.39 58.04 76.29 55.88 77.02 52.65 77.63 51.8 79.79 52.97 80.76 53.37 82.69 52.14 84.84 51.51 86.73 49.1 88.57 48.91 90.82 47.61 89.79 45.81 87.79 35.5 88.06 24.65 88.15 16.2 88.17 7.73 88.16 7.11 85.92 7.37 83.7 7.17 81.55 6.2 77.95 5.57 76.45 4.9 76.04 4.82 73.13 4.23 71.04 2.52 68.66 2.54 67.61 1.94 65.51 1.52 64.25 1.53 63.08 0 61.66 0.76 59.56 1.25 57.5 1.48 56.11 0.27 54.39 0.28 51.24 1.54 51.23 11.85 51.25 24.66 51.08 38.44 51"></polygon>
            <polygon class="land" id="US-idaho" points="57.62 85.72 57.96 85.96 57.95 118.04 29.81 118.15 1.57 118.06 1.71 95.01 2.53 91.3 1.77 89.59 0 88.71 0.02 86.6 1.35 83.61 3.38 80.99 4.73 76.7 6 73.25 6.95 71.51 6.45 69.47 4.87 68.37 2.64 65.77 2.72 63.36 1.86 61.29 1.59 42.08 1.54 24.02 10.81 24 11.57 38.89 14.06 42.61 14.05 45.12 15.8 47.34 17.98 48.65 19.55 50.8 22.18 55.05 24.61 57.04 27.45 57.17 26.41 60.2 25.5 63.78 26.29 67.26 25.19 68.13 25.29 71.58 26.97 72.91 28.83 71.31 29.79 69.42 30.94 69.79 32.07 71.64 33.15 75.87 34.82 77.53 35.42 81.01 35.99 81.97 37.91 82.3 39.07 84.22 40.74 87.64 42.48 85.82 45.57 86.3 45.82 85 51.15 85.82 53.31 85.4 54.65 82.78 55.67 83.14 56.59 84.99"></polygon>
            <polygon class="land" id="US-ill" points="35.03 37.11 35.03 37.14 35.11 40.45 37.65 47.09 37.65 47.09 37.65 47.09 37.64 61.54 37.63 75.73 36.55 79.11 37.33 80 37.83 82.06 37.75 83.68 36.96 84.42 36.28 86.41 34.32 89.02 33 92.23 32.7 94.64 32.76 95.52 31.69 97.17 32.5 98.29 30.85 99.15 28.71 100.14 29.07 102.72 27.84 103.69 25.56 102.6 23.05 101.97 22.41 103.11 22.78 104.89 21.1 103.06 20.09 103.37 18.88 100.47 19.23 98.7 18.52 95.83 17.57 95.48 15.1 92.87 14.03 92.82 12.17 91.14 10.83 89.34 11.44 87.24 12.31 85.49 12.84 83.27 11.05 81.33 9.27 82.11 8.19 81.6 8.04 79.58 7.25 77.28 6.38 76.72 4.21 75.09 2.41 73.02 0.85 70.51 0 66.84 0.83 63.78 1.02 61.53 3.43 59.69 4.06 57.8 5.29 55.65 4.89 53.72 3.72 52.75 4.57 50.59 7.8 49.98 9.96 49.25 10.59 48.35 12.34 45.5 12.84 42.1 11.87 41.01 10.38 39.99 9.93 38.62 8.82 37.97 8.27 37 17.9 37 27.74 37.03 35 37.14 35 37.11"></polygon>
            <polygon class="land" id="US-ind" points="30.59 46.99 30.56 58.29 30.49 70.28 30.43 78.71 29.89 79.28 30.66 81.75 30.25 82.64 28.66 82.66 27.19 83.72 24.96 83.29 24.75 85.6 23.43 86.48 22.19 88.54 20.85 88.91 18.78 92.46 16.87 91.44 16.27 89.98 14.63 92.36 13.59 93.68 11.56 92.28 9.38 93.42 8.67 94.57 5.77 92.76 3.74 94.06 1.31 93.14 1.22 94.46 0 94.15 0.3 91.74 1.62 88.53 3.58 85.92 4.26 83.93 5.05 83.19 5.13 81.57 4.63 79.51 3.85 78.62 4.93 75.24 4.94 61.05 4.95 46.6 4.95 46.6 5.81 47.45 9.02 47.38 11.57 46 11.57 46 21.72 46.06 30.59 46"></polygon>
            <polygon class="land" id="US-kan" points="70.05 89.03 61.77 89.04 44.8 89.06 27.82 89.08 18.39 89.1 8.96 89.11 0.09 89.12 0.1 71.69 0 53 0.02 53 16.5 53 28.77 53 50.46 53 63.45 53 65.69 54.63 66.91 54.61 67.18 56.38 65.86 58.64 66.57 59.8 67.74 62.35 70.22 63.5 70.12 76.37"></polygon>
            <polygon class="land" id="US-ky" points="65.16 63.32 65.34 64.46 65.24 66.94 66.36 68.8 66.82 70.61 68.19 72.15 69.14 73.58 70.97 73.8 67.2 77.32 64.26 78.7 64.03 79.65 63.02 80.89 60.44 82.29 59.6 83.43 57.66 84.16 54.93 84.82 48.55 85.2 40.24 84.7 37.53 84.84 32.12 84.52 26.6 84.42 21.52 84.36 15.62 84.69 15.31 84.16 13.44 84.18 13.47 86.02 0 85.91 2.11 84.68 3.61 83.71 3.43 81.87 3.73 80.69 3.36 78.91 4 77.77 6.51 78.4 8.79 79.49 10.02 78.52 9.66 75.94 11.8 74.95 13.45 74.09 12.64 72.97 13.71 71.32 13.65 70.44 14.87 70.75 14.96 69.43 17.39 70.35 19.42 69.05 22.32 70.86 23.03 69.71 25.21 68.57 27.24 69.97 28.28 68.65 29.92 66.27 30.52 67.73 32.43 68.75 34.5 65.2 35.84 64.83 37.08 62.77 38.4 61.89 38.61 59.58 40.84 60.01 42.31 58.95 43.9 58.93 44.31 58.04 43.54 55.57 44.08 55 47.31 55.28 48.98 56.45 51.49 59.17 53.49 60.03 54.94 61 57.18 60.66 58.84 61.35 60.86 60.69 62.65 60.49 63.4 62.17"></polygon>
            <polygon class="land" id="US-la" points="27.38 49.38 28.06 50.02 27.2 51.63 28.56 53.93 28.18 55.31 29.39 57.22 28.09 58.35 27.65 60.45 25.83 62.17 24.98 64.49 24.12 67.14 22.97 68.37 23.35 71.11 31.67 71.46 40.56 71.48 40.29 73.3 39.66 75.09 40.26 76.47 41.51 77.73 41.84 79.53 42.01 80.61 40.93 85.12 43.87 91.58 30.9 92.01 22.89 89.81 17.45 87.6 10.27 86.2 2.1 85.88 1.33 84.45 2.29 82.86 3.7 81.43 3.73 79.26 3.04 78.54 3.86 75.94 4.46 74.75 5.37 70.75 4.54 69.26 3.45 66.76 2.64 64.21 2.12 62.5 0.57 61.25 0 49.36 9.11 49.37 19.41 49"></polygon>
            <polygon class="land" id="US-mass" points="25.3 62.25 25.21 69.02 28.32 75.73 32.23 76.04 31.24 71.43 34.07 74.24 33.32 77.84 26.95 79.87 22.42 79.63 22.16 77.71 20.68 76.26 19.98 72.96 16 73.1 7.22 72.81 0 72.57 2.03 63.81 9.81 64.02 21.21 64.13 22.18 62.87 24.18 62"></polygon>
            <polygon class="land" id="US-md" points="34.88 60.03 35.57 75.45 41.86 75.45 42.39 76.54 38.75 80.64 36.56 80.82 35.82 81.63 31.02 75.92 30.62 66.88 29.06 71.13 29.19 81.51 23.55 77.96 23 76.27 21.46 76.79 20.21 76.14 21.28 73.46 22.89 72.33 23.06 71.36 24.28 70.28 23.09 69.03 22.32 69.61 20.57 68.27 18.57 67.54 19.27 66.23 18.02 65.32 16.63 64.91 15.89 63.36 14.74 61.62 11.83 60.65 10.01 61.58 8.98 62.48 6.2 61.99 4.93 63.26 3.07 63.75 1.45 65.15 0 66.23 0.08 60.06 8.83 60.07 11.82 60.05 18.51 60 26.58 60.06"></polygon>
            <polygon class="land" id="US-me" points="4.03 99.24 3.03 99.37 2.59 97.57 0.86 95.66 1.21 94.38 0 70.45 3.89 68.12 7.24 62 10.12 51.41 17.31 41 20.45 44.64 26.77 42.29 30.96 46.28 30.95 64.87 37.12 72.43 37.25 78.08 28.07 82.27 18.91 85.36 8.21 93.2"></polygon>
            <path class="land" id="US-mich" d="M55.3,45.07 L58.45,45.49 L57.25,46.84 L61.94,52.25 L53.63,53.47 L53.31,53.41 L45.89,51.98 L38.53,54.68 L32.12,55.89 L26.58,64.42 L26.34,64.33 L26.33,64.35 L25.07,62.78 L25.77,60.63 L23.69,60.51 L24.12,58.33 L24.69,57.25 L23.86,55.36 L21.63,54.5 L21.11,52.28 L19.27,52.11 L16.6,52.09 L11.16,49.65 L2.91,47.22 L2.15,44.76 L0.67,44.31 L0.66,44.27 L0.08,44.55 L0,44.48 L0.08,44.55 L7.36,41.06 L14.93,36.59 L23.25,32 L20.22,39.3 L25.57,41.05 L32.21,46.27 L40.58,43.23 L49.85,42.03 L51.83,45.86 L54.71,46.41 L55.3,45.07 Z M75.47,92.03 L75.23,92.2 L70.79,99.23 L68.72,103.68 L65.49,108.55 L61.93,108.66 L57.64,108.66 L52.81,108.75 L52.8,107.76 L43.93,107.82 L33.78,107.76 L35.69,106.02 L39.52,99.85 L39.78,91.41 L36.65,83.42 L37.12,77.89 L39.58,71.44 L41.93,67 L45.7,63.82 L46.58,68.28 L48.25,61.71 L50.33,60.35 L51.65,55.24 L59.67,57.93 L66.65,63.15 L67.42,69.19 L66.56,75.2 L61.37,80.43 L61.85,83.71 L63.72,83.82 L69.57,78.09 L73.06,79.4 L74.76,86.94 L75.23,92.22 L75.47,92.03 Z"></path>
            <polygon class="land" id="US-minn" points="71.95 49.65 71.95 49.66 62.33 54.28 55.63 59.84 49.23 65.66 49.2 67.68 46.72 68.44 46.82 76.08 46.52 76.07 44.19 77.57 42.18 78.86 40.83 81.34 42.81 83.86 42.1 87.23 42.09 90.83 41.8 93.75 44.55 96.29 45.68 96.41 48.73 98.29 49.79 99.18 50.45 100.59 52.83 102.84 56.01 104.78 56.32 105.86 56.34 108.99 56.59 110.45 44.22 110.21 30.44 110.29 17.63 110.46 7.32 110.44 7.45 98.25 6.3 85.54 4.65 84.5 3.72 82.43 4.23 80.6 6.34 79.1 6.5 77.13 6.51 74.67 5.92 72.6 5.13 70.39 4.67 67.61 4.56 64.48 4.24 63.73 3.85 59.67 3.81 57.81 3.63 56.15 3.16 53.32 2.02 50.44 0.92 47.87 0.76 45.3 0.64 42.53 0.96 40.72 1.02 39.06 0.14 37 0 35.59 19.52 35.61 19.55 30.08 22.74 30 24.41 37.89 27.35 40.31 33.94 41.18 43.56 43.45 52.71 47.83 60.35 45.99"></polygon>
            <polygon class="land" id="US-mo" points="41.18 46.03 40.35 49.09 41.2 52.76 42.76 55.27 44.56 57.34 46.73 58.97 47.6 59.53 48.39 61.83 48.54 63.85 49.62 64.36 51.4 63.58 53.19 65.52 52.66 67.74 51.79 69.49 51.18 71.59 52.52 73.39 54.38 75.07 55.45 75.12 57.92 77.73 58.87 78.08 59.58 80.95 59.23 82.72 60.44 85.62 61.45 85.31 63.13 87.14 62.83 88.32 63.01 90.16 61.51 91.13 59.4 92.36 59.15 93.49 58.58 95.15 57.85 97.99 51.69 97.99 52.27 96.83 53.33 95.58 54.39 94.33 53.61 92.88 42.86 92.17 32.91 92.16 22.48 92.13 11.01 91.96 11.12 86.58 11.07 86.58 11.14 73.92 11.24 61.05 8.76 59.9 7.59 57.35 6.88 56.19 8.2 53.93 7.93 52.16 6.71 52.18 4.47 50.55 3.24 47.92 1.78 46.34 0.19 44.39 0 43.37 8.47 43.38 16.92 43.36 27.77 43.27 38.08 43 39.88 45"></polygon>
            <polygon class="land" id="US-miss" points="32.6 44.25 33.28 46.46 31.6 61.17 29.94 78.99 30.24 95.74 24.46 98.18 19.04 98.01 18.87 96.93 18.54 95.13 17.29 93.87 16.69 92.49 17.32 90.7 17.59 88.88 8.7 88.86 0.38 88.51 0 85.77 1.15 84.54 2.01 81.89 2.86 79.57 4.68 77.85 5.12 75.75 6.42 74.62 5.21 72.71 5.59 71.33 4.23 69.03 5.09 67.42 4.41 66.78 4.87 64.57 3.78 61.62 3.99 58.95 6.05 55.01 7.05 52.67 8.72 51.12 9.81 50.48 11.07 47.42 11.1 45.77 12.79 44.91 12.97 44 22.26 44"></polygon>
            <polygon class="land" id="US-mont" points="113.38 81.44 112.9 93.72 97.17 93.58 80.18 93.65 65.51 93.51 46.94 93.6 46.98 100.33 46.81 100.8 45.78 100.07 44.86 98.22 43.84 97.86 42.5 100.48 40.34 100.9 35.01 100.08 34.76 101.38 31.67 100.9 29.93 102.72 28.26 99.3 27.1 97.38 25.18 97.05 24.61 96.09 24.01 92.61 22.34 90.95 21.26 86.72 20.13 84.87 18.98 84.5 18.02 86.39 16.16 87.99 14.48 86.66 14.38 83.21 15.48 82.34 14.69 78.86 15.6 75.28 16.64 72.25 13.8 72.12 11.37 70.13 8.74 65.88 7.17 63.73 4.99 62.42 3.24 60.2 3.25 57.69 0.76 53.97 0 39.08 28.19 39.06 56.38 39.04 84.56 39.02 112.76 39 112.9 64.83"></polygon>
            <polygon class="land" id="US-nc" points="79.72 55.4 81.04 67.02 75.04 75.54 65.79 79.93 57.72 85.65 54.38 86.31 43.83 75.55 33.36 75.44 33.38 74.11 31.91 72.17 30.96 72.93 30.88 71.91 26.47 71.38 17.77 71.29 12.68 73.25 11.73 73.59 0 73.5 0.21 71.07 2.2 70.35 2.85 69.11 4.19 67.72 6.1 67.41 8.32 66.88 10.48 65.88 11.41 64.86 13.21 63.94 13.16 63.1 15.53 61.53 16.29 62.55 19.77 60.36 21.4 60.59 22.85 58.63 24.77 58.13 24.67 56.46 24.91 55 40.82 55.5 59.61 55.56 69.59 55.46"></polygon>
            <polygon class="land" id="US-nd" points="64.73 49.07 64.87 50.48 65.75 52.54 65.69 54.2 65.37 56.01 65.49 58.78 65.65 61.35 66.75 63.92 67.89 66.8 68.36 69.63 68.54 71.29 68.58 73.15 68.97 77.21 69.29 77.96 69.4 81.09 69.86 83.87 70.65 86.08 71.24 88.15 71.23 90.61 53.29 91.35 37.97 91.32 18.63 91.38 0.62 91.44 0.14 74.83 0 49 32.66 49.04"></polygon>
            <polygon class="land" id="US-neb" points="71.65 58.54 72.07 59.8 72.67 61.9 72.65 62.95 74.36 65.33 74.95 67.42 75.03 70.33 75.7 70.74 76.33 72.24 77.3 75.84 77.5 77.99 77.24 80.21 77.86 82.45 78.05 83.47 79.64 85.42 81.1 87 82.33 89.63 69.34 89.63 47.65 89.63 35.38 89.63 18.9 89.63 18.88 89.63 18.88 89.24 18.9 77.24 0.07 77.24 0 52 18.41 52 32.56 52 51.47 52 53.91 53.62 57.38 54.64 58.19 54.05 60.43 54.1 63.8 53.97 66.24 55.62 68.83 56.69 69.26 57.75 70.06 58.36"></polygon>
            <polygon class="land" id="US-nh" points="17.84 82.79 16.24 85.68 15.12 85.43 13.12 86.3 12.15 87.56 0.75 87.45 0 86.12 0.74 84.46 0.97 81.08 1.26 80.27 1.58 77.21 2.61 74.62 3.39 73.49 4.51 70.39 4.72 68.29 5.04 67.01 6.86 66.38 8.97 64.85 9.34 63.21 8.64 61.32 9.75 57.71 9.73 57.7 10.68 54.42 13.81 54 15.02 77.93 14.67 79.21 16.4 81.12 16.84 82.92"></polygon>
            <polygon class="land" id="US-nj" points="15.48 60.93 12.23 66.97 14.6 67.5 12.97 76.35 6.11 85.7 5.4 82.59 3.33 81.96 1.07 78.78 0.24 78.92 0 76.57 1.4 75.3 3.33 74.18 4.01 73.41 6.24 71.79 7.46 70.45 4.49 67.26 4.32 65.95 3.3 65.57 3.34 63.58 4.45 62.06 3.94 60.44 5.45 59.35 7.1 56.55 8.25 56"></polygon>
            <polygon class="land" id="US-nm" points="56.98 39.05 57 44.86 57 74.96 57 96 48.24 96 31.27 96 22.78 96 22.88 96.94 23.93 98.71 7.7 98.71 7.58 103.25 0.01 103.27 0 39 14.76 39 29.66 39.03 45.69 39.04"></polygon>
            <polygon class="land" id="US-nev" points="56.27 29.09 56.3 89.99 56.37 99.39 55.96 99.78 55.34 101.55 54.05 101.09 52.25 100.27 50.26 100.27 49.62 101.7 50.46 103.29 50.45 105.78 50.65 108.01 51.11 110.27 50.53 112.52 34.7 97.85 17.79 82.31 0 66.13 0.01 29.1 28.03 29.04 28.03 29"></polygon>
            <polygon class="land" id="US-ny" points="61.09 72.52 59.06 81.28 58.53 90.9 59.27 91.97 57.22 93.18 57.56 94.7 70.91 93.03 73.71 95.39 60.5 99.11 54.49 99.14 55.15 95.01 47.92 90.08 46.4 89.19 44.79 88.32 44.18 86.5 44.43 85.11 43.31 83.97 41.26 81.99 28.45 81.97 14.71 81.97 0 81.97 0 78.54 8.11 70.94 7.93 69.71 7.93 69.68 6.64 65.96 11.55 64.33 18.97 64.81 26.69 65.88 33.76 61.61 33.2 56.54 32.13 54.51 32.1 54.49 32.1 54.49 32.13 54.51 41.89 45.53 46.15 43.09 60.48 43 60.28 45.69 59.91 47.39 60.13 51.3 60.65 53.3 59.7 56.01 60.57 59.42 59.97 61.31 60.14 61.8 61.49 61.9"></polygon>
            <polygon class="land" id="US-oh" points="40.6 65.75 39.3 66.38 39.69 67.95 39.26 70.78 38.28 73.98 37.37 76.62 37.21 77.88 34.64 80.66 33.56 81.25 32.28 81.59 31.14 81.32 29.04 83.41 28.66 85.59 28.36 86.77 27.52 87.25 27.4 85.9 26.13 85.61 24.8 88.23 24.65 90.89 23.42 92.56 21.08 92.86 19.32 91.71 18.57 90.03 16.78 90.23 14.76 90.89 13.1 90.2 10.86 90.54 9.41 89.57 7.41 88.71 4.9 85.99 3.23 84.82 0 84.54 0.06 76.11 0.13 64.12 0.16 52.82 4.99 52.72 9.28 52.72 12.84 52.61 12.84 52.61 12.84 52.61 18.65 55.21 23.36 55.85 30.19 54.19 35.77 50.7 40.62 49"></polygon>
            <polygon class="land" id="US-okla" points="78.98 56.38 80.85 68.66 80.66 79.8 80.39 89.72 76.33 87.51 73.68 86.3 71.54 87.07 68.22 86.95 66.26 86.97 64.65 87.89 63.07 88.36 61.69 87.81 58.54 88.41 57.11 86.53 55.64 88.16 53.07 87.43 50.42 85.67 47.59 86.81 46.35 84.08 41.96 84.35 39.15 83.74 35.99 82.93 34.59 80.57 32.11 81.33 30.57 80.41 28.32 79.18 28.32 68.23 28.32 56.86 18.89 56.86 9.45 56.86 0.02 56.86 0 51.05 9.08 51.09 17.95 51.08 27.38 51.07 36.81 51.05 53.79 51.03 70.76 51.01 79.04 51 79.09 51"></polygon>
            <polygon class="land" id="US-or" points="71.87 46.82 74.1 49.42 75.68 50.52 76.18 52.56 75.23 54.3 73.96 57.75 72.61 62.04 70.58 64.66 69.25 67.65 69.23 69.76 71 70.64 71.76 72.35 70.94 76.06 70.8 99.11 70.8 99.15 42.78 99.21 3.03 99.12 0 92 2.86 78.2 3.52 63.42 5.2 43.18 7.16 43 10.04 43.06 12.33 44.3 15.07 45.07 16.82 47.66 17.07 49.92 17.77 51.81 19.95 52.32 22.26 52.28 25.91 50.86 28.05 50.43 31.42 51.01 32.9 51.71 34.88 51.23 37.03 50.15 41.28 50.32 44.78 48.84 46.62 47.74 49.03 48.33 52.41 46.92"></polygon>
            <polygon class="land" id="US-pa" points="55.08 66.54 53.93 67.09 52.28 69.89 50.77 70.98 51.28 72.6 50.17 74.12 50.13 76.11 51.15 76.49 51.32 77.8 54.29 80.99 53.07 82.33 50.84 83.95 50.16 84.72 48.23 85.84 46.2 85.2 45.35 85.75 44.62 86.72 36.32 86.75 28.25 86.69 21.56 86.74 18.57 86.76 9.82 86.75 0 86.75 0 75.43 0.02 58.68 0.03 58.68 7.14 55.02 7.16 55 7.16 58.43 21.87 58.43 35.61 58.43 48.42 58.45 50.47 60.43 51.59 61.57 51.34 62.96 51.95 64.78 53.56 65.65"></polygon>
            <polygon class="land" id="US-ri" points="6.92 72.67 0 74.85 0.58 73.02 0.5 66.14 4.48 66 5.18 69.3 6.66 70.75"></polygon>
            <polygon class="land" id="US-sc" points="45.19 68.02 41.49 75.93 33.26 82.84 23.4 88.47 21.78 87.9 20.92 87.49 20.93 85.38 20.01 83.3 18.25 82.08 18.57 81.26 18.01 80.02 17.34 77.47 14.33 75.21 13.23 72.53 10.99 70.7 10.34 69.29 7.06 66.61 5.94 64.6 4.18 61.01 2.54 60.31 0 58.42 1.51 56.25 2.54 55.3 3.49 54.96 8.58 53 17.28 53.09 21.69 53.62 21.77 54.64 22.72 53.88 24.19 55.82 24.17 57.15 34.64 57.26"></polygon>
            <polygon class="land" id="US-sd" points="71.91 81.31 70.65 81.32 70.64 84.47 71.85 86.19 71.62 87.58 71.13 89.64 70.37 91.74 71.9 93.16 71.89 94.33 70.3 94.15 69.5 93.54 69.07 92.48 66.48 91.41 64.04 89.76 60.67 89.89 58.43 89.84 57.62 90.43 54.15 89.41 51.71 87.79 32.8 87.79 18.65 87.79 0.24 87.79 0 61.11 0.48 48.83 18.49 48.77 37.83 48.71 53.15 48.74 71.09 48 70.93 49.97 68.82 51.47 68.31 53.3 69.24 55.37 70.89 56.41 72.04 69.12"></polygon>
            <polygon class="land" id="US-tenn" points="62.01 61.66 76.04 62.06 80.82 61.83 80.58 63.29 80.68 64.96 78.76 65.46 77.31 67.42 75.68 67.19 72.2 69.38 71.44 68.36 69.07 69.93 69.12 70.77 67.32 71.69 66.39 72.71 64.23 73.71 62.01 74.24 60.1 74.55 58.76 75.94 58.11 77.18 56.12 77.9 55.91 80.33 50.88 80.45 43.6 80.34 31.49 80.19 19.63 80.19 9.29 79.94 0 79.94 1.07 78.87 0.96 75.53 2.45 74.01 2.82 72.1 4.47 70.98 5.43 69.34 5.53 68.38 6.26 65.54 6.83 63.88 7.08 62.75 20.55 62.86 20.52 61.02 22.39 61 22.7 61.53 28.6 61.2 33.68 61.26 39.2 61.36 44.61 61.68 47.32 61.54 55.63 62.04"></polygon>
            <polygon class="land" id="US-tex" points="114.59 44.86 115.08 45.6 116.91 45.45 119.09 45.49 118.55 51.87 119.12 63.76 120.67 65.01 121.19 66.72 122 69.27 123.09 71.77 123.92 73.26 123.01 77.26 122.41 78.45 121.59 81.05 122.28 81.77 122.25 83.94 120.84 85.37 119.88 86.96 120.65 88.39 112.6 90.65 104.02 98.61 94.65 103.22 89.5 108.29 87.33 113.05 87.24 120.32 87.71 125.35 89.5 128.9 85.82 129.22 79.12 126.92 71.77 123.68 69.13 118.75 67.05 111.36 61.49 105.32 58.23 99.06 53.5 91.72 46.85 87.42 39.14 87.63 33.19 96.13 25.37 92.91 20.49 89.66 18.15 83.71 15.02 78.03 9.41 73.22 4.59 69.75 1.15 65.85 0.1 64.08 0 63.14 8.49 63.14 25.46 63.14 34.22 63.14 34.22 42.1 34.22 12 43.65 12 53.09 12 62.52 12 62.52 23.37 62.52 34.32 64.77 35.55 66.31 36.47 68.79 35.71 70.19 38.07 73.35 38.88 76.16 39.49 80.55 39.22 81.79 41.95 84.62 40.81 87.27 42.57 89.84 43.3 91.31 41.67 92.74 43.55 95.89 42.95 97.27 43.5 98.85 43.03 100.46 42.11 102.42 42.09 105.74 42.21 107.88 41.44 110.53 42.65"></polygon>
            <polygon class="land" id="US-utah" points="46.97 52.54 47.05 100.94 33.37 100.85 15.24 100.83 0.03 101.01 0 40.11 28.14 40 28.1 52.22"></polygon>
            <path class="land" id="US-va" d="M70.89,80.71 L73.6,88 L63.48,88.06 L53.5,88.16 L34.71,88.1 L18.8,87.59 L14.02,87.82 L0,87.42 L2.72,86.76 L4.66,86.04 L5.5,84.9 L8.08,83.5 L9.08,82.26 L9.31,81.31 L12.25,79.93 L16.02,76.41 L16.44,78.42 L17.5,79.49 L18.93,80.44 L21.9,79.02 L23.03,79.85 L26.55,78.86 L26.75,77.8 L27.82,78.22 L28.99,77.36 L30.3,77.53 L31.8,76.62 L32,75.54 L31.85,74.15 L33.13,72.09 L34.95,70.53 L35.41,68.77 L37.03,66.64 L37.93,64.03 L39.18,64.96 L40.58,65.82 L41.93,65.36 L42.38,64.27 L43.31,62.78 L44.36,61.07 L45.04,61.57 L46.44,60.01 L48.29,58.43 L49.46,57.23 L50.2,54 L55.02,57.29 L56.08,55.01 L57.46,55.42 L58.71,56.33 L58.02,57.63 L60.01,58.36 L61.77,59.71 L62.55,60.74 L62.51,61.45 L62.34,62.42 L60.73,63.55 L59.66,66.22 L60.91,66.87 L62.44,66.35 L62.99,68.03 L68.93,74.7 L70.75,80.36 L70.89,80.71 Z M78.23,70.72 L76.04,70.9 L75.3,71.71 L72.07,79.71 L72.93,80.18 L78.23,70.72 Z"></path>
            <polygon class="land" id="US-vt" points="9.17 85.75 1.39 85.54 1.79 74.92 0.44 74.82 0.27 74.33 0.87 72.44 0 69.03 0.95 66.32 0.43 64.32 0.21 60.41 0.58 58.71 0.78 56.02 18.15 56 18.17 56.01 17.06 59.62 17.76 61.51 17.39 63.15 15.28 64.68 13.46 65.31 13.14 66.59 12.93 68.69 11.81 71.79 11.03 72.92 10 75.51 9.68 78.57 9.39 79.38 9.16 82.76 8.42 84.42"></polygon>
            <polygon class="land" id="US-wash" points="69.71 47.09 69.76 65.15 70.03 84.36 70.89 86.43 70.81 88.84 51.35 88.94 47.97 90.35 45.56 89.76 43.72 90.86 40.22 92.34 35.97 92.17 33.82 93.25 31.84 93.73 30.36 93.03 26.99 92.45 24.85 92.88 21.2 94.3 18.89 94.34 16.71 93.83 16.01 91.94 15.76 89.68 14.01 87.09 11.27 86.32 8.98 85.08 6.1 85.02 4.14 85.2 1.56 73.82 0 60.41 13.14 62.96 17.32 73.86 19.65 70.21 18.14 58.73 13.67 47 41.69 47.06"></polygon>
            <polygon class="land" id="US-wis" points="23.52 45.64 23.6 45.71 24.19 45.43 24.2 45.47 25.68 45.92 26.44 48.38 34.69 50.81 40.13 53.25 42.8 53.27 44.63 53.45 45.15 55.67 47.38 56.53 48.22 58.41 47.64 59.49 47.21 61.67 49.29 61.79 48.59 63.94 49.85 65.51 49.86 65.49 50.1 65.59 50.01 65.72 46.32 70.5 47.6 72.06 54.53 63.51 55.95 63.46 51.05 73.67 48.92 82.8 47.13 90.13 48.31 96.42 48.06 99.54 48.03 99.54 48.03 99.57 40.77 99.46 30.93 99.43 21.3 99.43 20.38 97.48 17.3 96.25 16.7 94.22 16.31 93.07 16.28 90.37 17.13 89.39 15.9 87.34 15.76 86.63 15.51 85.17 15.49 82.04 15.18 80.96 12 79.02 9.62 76.77 8.96 75.36 7.9 74.47 4.85 72.59 3.72 72.47 0.97 69.93 1.26 67.01 1.27 63.41 1.98 60.04 0 57.52 1.35 55.04 3.36 53.75 5.69 52.25 5.99 52.26 5.89 44.62 8.37 43.86 8.37 43.86 17.82 41"></polygon>
            <polygon class="land" id="US-w-va" points="29.34 61.32 29.26 67.49 30.71 66.41 32.33 65.01 34.19 64.52 35.46 63.25 38.24 63.74 39.27 62.84 41.09 61.91 44 62.88 45.15 64.62 45.89 66.17 44.84 68.45 40.02 65.16 39.28 68.39 38.1 69.6 36.26 71.17 34.86 72.73 34.18 72.23 33.13 73.94 32.2 75.43 31.74 76.52 30.39 76.99 28.99 76.13 27.74 75.2 26.83 77.81 25.22 79.94 24.75 81.7 22.93 83.26 21.65 85.31 21.81 86.71 21.6 87.79 20.11 88.71 18.79 88.54 17.63 89.4 16.56 88.98 16.35 90.04 12.84 91.03 11.7 90.2 8.73 91.62 7.3 90.67 6.23 89.6 5.81 87.59 3.98 87.37 3.03 85.94 1.66 84.4 1.2 82.59 0.08 80.73 0.18 78.25 0 77.11 2.34 76.81 3.57 75.14 3.72 72.48 5.05 69.86 6.32 70.15 6.44 71.5 7.28 71.02 7.58 69.84 7.96 67.66 10.06 65.57 11.2 65.84 12.48 65.5 13.56 64.91 16.13 62.13 16.29 60.87 17.2 58.23 18.18 55.03 18.61 52.2 18.22 50.63 19.52 50 19.52 61.32"></polygon>
            <polygon class="land" id="US-wyo" points="66.09 45.21 66.33 71.89 66.4 97.13 56.95 97.13 38.06 97.15 28.62 97.15 19.16 97.15 0.29 96.83 0.33 84.61 0.34 52.53 0 52.29 0.17 51.82 0.13 45.09 18.7 45 33.37 45.14 50.36 45.07"></polygon>
        </g>
    </g>
</svg>