<?xml version="1.0" encoding="UTF-8"?>
<svg width="693px" height="361px" viewBox="0 0 693 361" version="1.1" xmlns="http://www.w3.org/2000/svg" xmlns:xlink="http://www.w3.org/1999/xlink">
    <!-- Generator: Sketch 50.2 (55047) - http://www.bohemiancoding.com/sketch -->
    <title>Artboard 1</title>
    <desc>Created with Sketch.</desc>
    <defs></defs>
    <g id="Artboard-1" stroke="none" stroke-width="1" fill="none" fill-rule="evenodd">
        <path d="M332.9947,224.2747 L332.9937,270.4957 L370.5577,270.4957 L370.5577,260.6677 L344.1447,260.6677 L344.1457,224.2747 L332.9947,224.2747 Z M386.8477,249.2207 C387.2867,246.6527 389.7817,244.5257 393.8157,244.5257 C396.6797,244.5257 398.3667,245.6257 398.3667,248.2647 L398.3667,249.3677 L387.9467,252.0077 C381.5647,253.6227 376.3557,255.9697 376.3557,261.8387 C376.3557,267.7087 380.8297,271.0107 386.9947,271.0107 C392.4967,271.0107 396.7517,268.6637 398.5867,264.7737 C399.2457,268.5167 402.7677,271.3027 407.4627,271.3027 C410.1047,271.3027 412.5247,270.5707 415.0187,269.0277 L414.2877,262.7187 C413.4077,263.5267 411.8647,264.1867 410.6177,264.1867 C409.2977,264.1867 408.3427,263.4547 408.3427,261.9147 L408.3427,248.7807 C408.3427,240.2687 402.8407,237.0417 394.3317,237.0417 C385.4517,237.0417 379.8787,241.0757 377.5277,246.7977 L386.8477,249.2207 Z M398.3657,257.0687 C398.3657,261.5467 394.5517,264.1867 390.6617,264.1867 C388.3147,264.1867 386.7717,262.8667 386.7717,260.7397 C386.7717,258.2447 388.8267,257.0687 391.5417,256.2647 L398.3657,254.3547 L398.3657,257.0687 Z M430.1337,264.5537 C431.8207,268.7357 436.0027,271.3787 441.2847,271.3787 C451.2647,271.3787 456.9137,263.8217 456.9137,254.2107 C456.9137,244.6707 451.2647,237.0417 441.6517,237.0417 C436.0027,237.0417 432.4077,239.9037 430.7217,243.9387 L430.7217,224.2747 L420.0817,224.2747 L420.0817,270.4957 L427.9337,270.4957 L430.1337,264.5537 Z M430.5007,253.5507 C430.5007,248.3407 433.8037,244.9657 438.2777,244.9657 C443.3397,244.9657 446.1297,248.9287 446.1297,254.2107 C446.1297,259.4917 443.3397,263.4547 438.2777,263.4547 C433.8037,263.4547 430.5007,260.0797 430.5007,254.8697 L430.5007,253.5507 Z" id="Fill-1" fill="#FFFFFF"></path>
        <path d="M332.995,203.672 L344.146,203.672 L344.146,157.448 L332.995,157.448 L332.995,203.672 Z M364.909,187.31 C364.909,182.101 367.624,178.431 371.954,178.431 C375.913,178.431 378.044,181.001 378.044,185.696 L378.044,203.672 L388.679,203.672 L388.679,183.273 C388.679,176.303 385.085,170.214 376.209,170.214 C371.146,170.214 366.449,173.076 364.909,176.963 L364.909,171.094 L354.27,171.094 L354.27,203.672 L364.909,203.672 L364.909,187.31 Z M408.491,187.31 C408.491,182.101 411.206,178.431 415.532,178.431 C419.495,178.431 421.622,181.001 421.622,185.696 L421.622,203.672 L432.26,203.672 L432.26,183.273 C432.26,176.303 428.667,170.214 419.79,170.214 C414.728,170.214 410.03,173.077 408.491,176.964 L408.491,171.094 L397.851,171.094 L397.851,203.672 L408.491,203.672 L408.491,187.31 Z M475.77,187.383 C475.77,177.331 467.99,170.214 457.574,170.214 C447.155,170.214 439.305,177.331 439.305,187.383 C439.305,197.507 447.154,204.552 457.574,204.552 C467.99,204.552 475.77,197.507 475.77,187.383 Z M450.162,187.383 C450.162,181.733 452.877,177.919 457.574,177.919 C462.268,177.919 464.983,181.733 464.983,187.383 C464.983,193.032 462.268,196.847 457.574,196.847 C452.877,196.847 450.162,193.032 450.162,187.383 Z M503.283,203.672 L516.194,171.094 L506.437,171.094 L498.145,192.96 L497.853,192.96 L489.928,171.094 L478.777,171.094 L491.688,203.672 L503.283,203.672 Z M529.036,182.393 C529.475,179.826 531.97,177.699 536.004,177.699 C538.864,177.699 540.551,178.799 540.551,181.441 L540.551,182.541 L530.135,185.183 C523.751,186.795 518.541,189.142 518.541,195.012 C518.541,200.882 523.018,204.184 529.179,204.184 C534.681,204.184 538.939,201.837 540.774,197.947 C541.434,201.689 544.954,204.479 549.651,204.479 C552.291,204.479 554.712,203.744 557.208,202.204 L556.472,195.895 C555.592,196.699 554.053,197.363 552.805,197.363 C551.486,197.363 550.531,196.627 550.531,195.088 L550.531,181.953 C550.531,173.445 545.029,170.214 536.517,170.214 C527.64,170.214 522.063,174.249 519.715,179.974 L529.036,182.393 Z M540.551,190.245 C540.551,194.72 536.737,197.363 532.85,197.363 C530.503,197.363 528.96,196.039 528.96,193.912 C528.96,191.417 531.015,190.245 533.73,189.438 L540.551,187.531 L540.551,190.245 Z M558.528,171.094 L558.528,178.431 L564.617,178.431 L564.617,192.005 C564.617,200.661 570.266,204.552 577.459,204.552 C583.988,204.552 588.315,201.101 590.738,197.507 L585.603,191.345 C583.693,194.5 582.521,196.039 579.291,196.039 C576.576,196.039 574.888,194.208 574.888,191.198 L574.888,178.431 L586.923,178.431 L586.923,171.094 L574.888,171.094 L574.888,161.042 L564.617,163.097 L564.617,171.094 L558.528,171.094 Z M596.46,166.4 L607.759,166.4 L607.759,157.448 L596.46,157.448 L596.46,166.4 Z M596.827,203.672 L607.467,203.672 L607.467,171.098 L596.827,171.098 L596.827,203.672 Z M651.339,187.383 C651.339,177.331 643.563,170.215 633.144,170.215 C622.724,170.215 614.876,177.331 614.876,187.383 C614.876,197.507 622.724,204.552 633.143,204.552 C643.563,204.552 651.339,197.507 651.339,187.383 Z M625.735,187.383 C625.735,181.734 628.45,177.919 633.144,177.919 C637.841,177.919 640.552,181.734 640.552,187.383 C640.552,193.032 637.841,196.847 633.143,196.847 C628.45,196.847 625.735,193.032 625.735,187.383 Z M669.388,187.311 C669.388,182.101 672.103,178.431 676.429,178.431 C680.392,178.431 682.519,181.002 682.519,185.696 L682.519,203.672 L693.159,203.672 L693.159,183.273 C693.159,176.304 689.564,170.215 680.687,170.215 C675.623,170.215 670.928,173.077 669.388,176.964 L669.388,171.094 L658.749,171.094 L658.749,203.672 L669.388,203.672 L669.388,187.311 Z" id="Fill-3" fill="#FFFFFF"></path>
        <path d="M332.9947,90.6214 L332.9947,136.8454 L370.5587,136.8454 L370.5587,127.0144 L344.1457,127.0144 L344.1457,90.6214 L332.9947,90.6214 Z M378.0437,99.5734 L389.3427,99.5734 L389.3437,90.6214 L378.0437,90.6214 L378.0437,99.5734 Z M378.4107,136.8454 L389.0507,136.8454 L389.0507,104.2714 L378.4117,104.2714 L378.4107,136.8454 Z M408.6387,130.9004 C410.3257,135.0824 414.5087,137.7254 419.7897,137.7254 C429.7657,137.7254 435.4157,130.1684 435.4157,120.5574 C435.4157,111.0174 429.7657,103.3884 420.1577,103.3884 C414.5087,103.3884 410.9137,106.2504 409.2237,110.2854 L409.2237,90.6214 L398.5877,90.6214 L398.5867,136.8454 L406.4357,136.8454 L408.6387,130.9004 Z M409.0027,119.8964 C409.0027,114.6874 412.3057,111.3124 416.7827,111.3124 C421.8457,111.3124 424.6327,115.2744 424.6327,120.5574 C424.6327,125.8384 421.8457,129.8014 416.7827,129.8014 C412.3057,129.8014 409.0027,126.4264 409.0027,121.2164 L409.0027,119.8964 Z M460.7287,112.0444 C464.1027,112.0444 465.6427,114.1724 465.6427,117.1824 C465.6427,117.7694 465.6427,118.4294 465.4987,118.9414 L474.1547,115.4954 C474.2267,115.3474 474.2267,115.0554 474.2267,114.9074 C474.2267,108.0824 470.7087,103.3884 464.1027,103.3884 C458.5257,103.3884 455.0077,107.4224 453.3197,111.1644 L453.3197,104.2674 L442.7527,104.2674 L442.7527,136.8454 L453.3197,136.8454 L453.3197,122.7564 C453.3197,116.8144 455.8107,112.0444 460.7287,112.0444 Z M488.1697,115.5674 C488.6087,113.0004 491.1037,110.8724 495.1387,110.8724 C498.0007,110.8724 499.6877,111.9724 499.6877,114.6124 L499.6877,115.7154 L489.2687,118.3544 C482.8877,119.9694 477.6777,122.3164 477.6777,128.1854 C477.6777,134.0554 482.1517,137.3574 488.3167,137.3574 C493.8187,137.3574 498.0727,135.0104 499.9077,131.1214 C500.5677,134.8634 504.0907,137.6504 508.7847,137.6504 C511.4277,137.6504 513.8497,136.9174 516.3417,135.3754 L515.6087,129.0654 C514.7287,129.8734 513.1867,130.5334 511.9387,130.5334 C510.6197,130.5334 509.6677,129.8014 509.6677,128.2614 L509.6677,115.1274 C509.6677,106.6154 504.1627,103.3884 495.6537,103.3884 C486.7737,103.3884 481.1997,107.4224 478.8527,113.1444 L488.1697,115.5674 Z M499.6877,123.4164 C499.6877,127.8934 495.8737,130.5334 491.9837,130.5334 C489.6367,130.5334 488.0977,129.2134 488.0977,127.0864 C488.0977,124.5914 490.1517,123.4164 492.8637,122.6124 L499.6877,120.7014 L499.6877,123.4164 Z M539.3797,112.0444 C542.7547,112.0444 544.2977,114.1724 544.2977,117.1824 C544.2977,117.7694 544.2977,118.4304 544.1487,118.9414 L552.8067,115.4954 C552.8817,115.3474 552.8817,115.0554 552.8817,114.9074 C552.8817,108.0824 549.3587,103.3884 542.7547,103.3884 C537.1807,103.3884 533.6577,107.4224 531.9707,111.1654 L531.9707,104.2674 L521.4067,104.2674 L521.4067,136.8464 L531.9707,136.8464 L531.9707,122.7564 C531.9707,116.8144 534.4657,112.0444 539.3797,112.0444 Z M569.9017,138.3094 C569.0947,140.2204 568.0667,141.5404 566.3067,141.5404 C564.1777,141.5404 563.0777,140.1444 563.0777,136.9184 L555.6687,140.6604 C556.3277,145.7944 560.0707,149.6094 566.1597,149.6094 C573.9367,149.6094 577.6797,143.7394 581.2017,135.3754 L594.0407,104.2684 L584.0607,104.2684 L576.1367,125.3994 L575.8447,125.3994 L567.8477,104.2684 L556.1807,104.2684 L570.4147,137.2104 L569.9017,138.3094 Z" id="Fill-5" fill="#FFFFFF"></path>
        <polygon id="Fill-6" fill="#FFFFFF" points="0.0001 90.5755 0.0001 361.1655 170.6371 361.1655 170.6371 268.9565 89.9821 267.8205 90.7021 0.0005"></polygon>
        <polygon id="Fill-7" fill="#FFFFFF" points="96.3189 0.0003 96.3189 12.4753 108.7939 0.0003"></polygon>
        <polygon id="Fill-8" fill="#FFFFFF" points="126.6983 0.0003 96.3193 30.3803 96.3193 48.2853 144.6033 0.0003"></polygon>
        <polygon id="Fill-9" fill="#FFFFFF" points="162.5084 0.0003 96.3194 66.1903 96.3194 84.0953 180.4134 0.0003"></polygon>
        <polygon id="Fill-10" fill="#FFFFFF" points="198.3179 0.0007 105.9729 92.3457 123.6289 92.5947 216.2229 0.0007"></polygon>
        <polygon id="Fill-11" fill="#FFFFFF" points="234.1285 0.0007 141.2855 92.8437 158.9415 93.0927 252.0325 0.0007"></polygon>
        <polygon id="Fill-12" fill="#FFFFFF" points="266.9556 2.9827 176.5976 93.3407 176.9736 93.3467 176.9266 110.9177 266.9556 20.8877"></polygon>
        <polygon id="Fill-13" fill="#FFFFFF" points="266.9556 38.7927 176.8776 128.8707 176.8306 146.8237 266.9556 56.6977"></polygon>
        <polygon id="Fill-14" fill="#FFFFFF" points="266.9556 74.6028 176.7816 164.7768 176.7336 182.7298 266.9556 92.5078"></polygon>
        <polygon id="Fill-15" fill="#FFFFFF" points="266.9556 110.4129 176.6856 200.6839 176.6376 218.6369 266.9556 128.3179"></polygon>
        <polygon id="Fill-16" fill="#FFFFFF" points="266.9556 146.2229 176.5886 236.5899 176.5406 254.5429 266.9556 164.1279"></polygon>
        <polygon id="Fill-17" fill="#FFFFFF" points="266.9556 182.033 176.4926 272.496 176.4446 290.45 266.9556 199.938"></polygon>
        <polygon id="Fill-18" fill="#FFFFFF" points="266.9556 217.843 176.3956 308.403 176.3476 326.356 266.9556 235.748"></polygon>
        <polygon id="Fill-19" fill="#FFFFFF" points="266.9556 270.5906 266.9556 253.6536 176.2996 344.3096 176.2546 361.1656"></polygon>
    </g>
</svg>