<?xml version="1.0" encoding="UTF-8"?>
<svg id="usa-territories-white" viewBox="0 0 626 403" version="1.1" xmlns="http://www.w3.org/2000/svg" xmlns:xlink="http://www.w3.org/1999/xlink">
    <title>usa_territories_white</title>
    <defs></defs>
    <g id="Page-1" stroke="none" stroke-width="1" fill="none" fill-rule="evenodd">
        <g id="usa_territories_white" fill="#FFFFFF" fill-rule="nonzero" stroke="#FFFFFF" stroke-width="0.5">
            <path d="M298.79,320.02 L297.89,319.49 L297.63,318.3 L297.11,318.27 L296.86,317.99 L296.36,318.33 L295.17,317.86 L295.35,317.26 L296.08,316.62 L296.61,316.54 L296.7,316.12 L297.4,315.83 L298.59,316.07 L299.27,315.8 L299.75,316.26 L301.21,315.52 L302.28,314.31 L303.76,313.45 L304.1,312.86 L304.01,313.81 L305.63,313.64 L308.62,314.2 L308.91,313.63 L309.74,313.65 L309.61,314.79 L308.11,315.69 L307.53,315.69 L307.47,315.22 L306.65,314.96 L306.13,315.67 L304.7,316.14 L304.28,315.76 L304.43,315.42 L304.21,314.89 L303.13,315.22 L303.63,315.78 L303.62,316.2 L302.33,317.6 L301.8,317.72 L300.43,319.96 L299.77,319.8 L299.32,320.63 L298.79,320.02 Z M309.98,315.28 L310.52,315.61 L310.19,315.87 L309.74,315.7 L309.98,315.28 Z M335.13,312.36 L337.3,313.02 L335.31,314 L334.7,312.51 L335.13,312.36 Z M337.48,312.92 L338.23,312.33 L338.7,313.51 L338.45,314.09 L337.48,312.92 Z M344.07,315.36 L344.62,315.74 L345.47,315.45 L345.9,315.58 L346.34,315.2 L346.87,315.41 L348.2,315.31 L348.62,315.71 L348.24,316.61 L348.2,317.73 L346.1,317.47 L345.02,318.52 L344.4,318.15 L344.02,316.98 L343.12,316.01 L344.07,315.36 Z" class="state" id="AS"></path>
<!--            <path d="M532.05,363.09 L532.02,363.4 L532.58,363.97 L532.58,364.97 L533.73,365.8 L534.44,365.89 L535.1,366.86 L535.78,366.52 L535.92,365.78 L536.58,365.41 L536.72,364.98 L538.74,365.35 L538.77,365.86 L539.2,366.57 L538.74,366.88 L538.57,367.45 L537.94,367.79 L537.43,367.19 L536.75,367.19 L536.21,367.56 L536.15,367.87 L536.44,368.27 L535.56,371.35 L534.02,372.12 L533.45,372.63 L533.08,372.34 L532.51,372.94 L533.45,373.23 L533.65,373.6 L533.45,373.91 L534.45,374.49 L533.25,375.7 L532.62,376.04 L532.08,376.04 L531.82,375.73 L530.48,375.13 L530.28,374.56 L529.34,373.85 L528.74,375.08 L528.43,375.11 L528.43,373.97 L527.86,372.94 L526.59,372.94 L526.59,373.91 L527.23,374.22 L527.06,374.88 L526.66,375.05 L525.43,375.51 L524.57,375.54 L522.92,373.72 L522.66,375.92 L521.79,375.75 L519.67,375.89 L518.93,375.15 L519.22,374.38 L519.05,373.35 L518.14,372.81 L518,374.1 L517.2,373.96 L516.4,374.22 L516,373.76 L513.86,373.33 L513.26,372.79 L510.18,368.26 L511.35,366.12 L510.75,365.66 L510.12,364.26 L509.58,364.49 L508.95,364.06 L509.01,363.58 L509.41,363.44 L509.84,363.41 L510.32,363.95 L511,363.75 L511.4,362.87 L510.49,362.61 L510.15,362.12 L510.06,360.27 L510.26,359.33 L509.03,358.99 L508,359.76 L507.69,360.76 L506.95,360.68 L507.09,360.02 L506.63,359.54 L507.29,358.17 L506.52,358.08 L505.98,358.88 L504.93,359.17 L504.9,357.83 L504.53,357.03 L504.93,356.72 L504.33,355.07 L504.19,353.76 L504.5,352.76 L505.27,352.87 L505.95,352.19 L508.37,350.62 L509.03,350.59 L509.46,351.13 L509.94,350.76 L508.71,349.79 L508.94,349.22 L509.85,349.25 L510.45,349.51 L511.28,349 L512.39,351.05 L512.99,351.48 L514.24,351.62 L515.27,348.28 L513.67,346.63 L514.33,345.8 L514.5,344.49 L514.9,344.49 L515.73,345.2 L516.61,345.03 L517.55,346.43 L517.55,348.91 L518.38,348.85 L518.38,347.25 L519.04,346.62 L519.98,347.05 L520.61,347.88 L520.95,347.71 L521.52,347 L521.38,346.2 L521.61,345.89 L524.52,348.94 L525.35,348.97 L525.55,347.4 L526.69,346.72 L527.97,346.72 L528.43,347.01 L527.72,347.81 L528.46,348.21 L530.03,348.21 L530.26,348.69 L530,350.29 L530.71,351.74 L530.37,352.88 L530.74,352.99 L530.77,353.73 L531.23,354.02 L532.68,353.85 L533.19,354.19 L533.3,354.7 L533.07,355.01 L533.38,355.35 L534.55,354.75 L534.86,354.15 L534.83,353.38 L535,353.15 L535.37,352.87 L535.91,352.9 L536.37,352.53 L536.85,352.67 L536.65,353.33 L536.42,353.33 L536.36,354.16 L537.5,354.7 L537.67,355.21 L537.27,356.24 L537.87,356.98 L537.87,357.81 L538.53,359.55 L538.24,360.6 L538.58,361.31 L538.98,361.31 L539.21,361.6 L539.38,362.14 L539.18,362.51 L537.1,364.02 L536.33,362.14 L535.05,362.54 L533.85,362.54 L533.22,363.54 L532.55,363 L532.05,363.09 Z M502.03,356.82 L501.46,356.73 L500.75,355.31 L500.07,351.92 L500.21,351.63 L500.55,351.66 L500.55,350.98 L500.92,350.84 L500.69,350.56 L500.8,350.16 L501.17,350.08 L501.26,349.45 L502.26,348.82 L502.66,348.16 L503.09,347.99 L503.55,348.28 L503.58,347.88 L503.92,347.54 L504.35,347.6 L504.69,346.77 L505.74,346.43 L505.88,346.06 L506.56,346.26 L506.96,346.12 L506.65,345.52 L505.59,345.52 L502.6,347.6 L500.63,349.4 L499.46,351.74 L499.83,354.19 L500.74,356.58 L501.11,357.32 L501.85,357.15 L502.03,356.82 Z M502.37,359.62 L502.8,359.28 L502.37,359.25 L502.2,358.88 L502.63,358.22 L501.94,358.42 L502.08,357.31 L501.42,357.79 L501.59,358.67 L502.96,361.61 L503.36,363.29 L504.16,363.6 L504.16,363.06 L503.42,362.03 L502.37,359.62 Z M519.71,345.3 L520.14,345.5 L520.6,345.1 L520.6,344.36 L520.32,344.16 L519.92,344.47 L519.66,343.9 L518.46,344.1 L518,344.47 L518,345.21 L518.37,345.75 L518.71,345.75 L519.71,345.3 Z M523.44,343.2 L523.1,342.4 L522.47,342.4 L522.47,343.09 L522.9,343.46 L523.44,343.2 Z M525.72,342.92 L527.15,342.39 L527.15,341.11 L526.78,340.51 L526.28,340.51 L525.95,340.91 L525.07,341.37 L525.07,341.71 L525.3,341.88 L525.07,342.21 L524.9,343.45 L525.41,343.91 L525.72,343.68 L525.72,342.92 Z M531.4,345.76 L531.63,345.48 L531.63,345.05 L531.23,344.37 L530.29,344.84 L530.29,345.34 L530.96,345.77 L531.4,345.77 L531.4,345.76 Z M532.88,344.48 L533.25,344.11 L533.68,344.11 L533.68,343.91 L533.28,343.45 L532.77,343.45 L531.63,344.06 L531.46,344.47 L532.23,344.67 L532.88,344.48 Z M532.34,351.05 L531.31,352.21 L531.31,352.61 L532.34,353.21 L533.14,352.84 L533.37,352.47 L533.37,352.18 L532.87,351.64 L533.03,351.44 L533.4,351.64 L533.86,351.24 L533.86,350.44 L534.26,349.67 L534.09,348.9 L533.31,349.13 L532.78,349.79 L532.34,351.05 Z" class="state" id="FM"></path>-->
            <polygon class="state" id="GU" points="459.12 385.32 459.89 385.06 461.4 383.17 461.1 382.53 462.3 381.96 462.98 381.5 463.99 380.74 464.68 378.73 464.88 376.39 464.89 374.79 464.25 374.29 464.99 373.66 464.83 370.09 465.51 367.44 466.78 365.33 466.81 364.23 467.51 363.4 468.72 363.61 469.85 362.04 471.1 361.63 472.86 359.59 474.38 359 476.36 356.54 478.6 355.19 479.3 353.74 479.91 353.17 482.16 352.25 483.28 350.55 484.47 346.87 485.16 345.66 485.79 343.66 485.87 342.5 482.8 342.61 481.07 342.37 480.03 340.29 478.6 339.1 478.29 337.95 476.12 336.25 474.73 336.15 474.08 336.7 472.47 339.82 472.13 340.97 472.21 343.39 471.52 345.13 471.05 345.54 468.64 349.92 468.39 351.61 468.62 352.58 468.26 353.32 467.19 353.77 465.84 353.46 464.8 354.11 464.5 354.91 465.06 355.93 464.43 356.69 463.8 356.88 462.67 356.63 462.01 357.17 459.84 356.81 458.67 357.58 457.91 357.4 456.71 358.27 455 358.78 454.3 361.2 452.75 361.08 452.74 361.93 453.45 362.21 452.94 364.41 452.35 363.27 452.37 361.57 450.33 361.46 448.62 360.82 447.44 360.91 447.49 361.71 449.13 362.76 449.74 364.16 451.65 365.64 452.06 366.81 452.01 367.66 451.05 368.48 450.3 371.86 449.22 373.59 450.11 373.79 451.54 376.7 451.26 377.47 451.42 378.16 452.04 378.52 451.52 380.54 452.19 382.12 453.75 383.94 457.28 385.16 458.03 385.2"></polygon>
<!--            <path d="M599.51,355.37 L599.43,355.62 C599.43,355.62 599.58,355.95 599.71,356.02 C599.84,356.09 599.71,356.33 599.71,356.33 L599.59,356.66 L599.28,356.66 L598.95,356.45 L598.72,356.1 C598.72,356.1 598.57,355.74 598.55,355.67 C598.53,355.6 598.34,355.19 598.34,355.19 L598.31,354.68 L598.05,354.48 L597.42,354.22 L596.92,354.19 L596.09,354.21 L595.61,353.93 L595.11,353.62 L594.75,353.32 L594.09,353.17 L593.89,352.89 C593.89,352.89 594.52,352.99 594.6,352.99 C594.68,352.99 594.91,352.86 594.91,352.86 L595.22,352.88 L595.63,352.96 L596.11,353.13 L596.52,353.2 C596.52,353.2 597.1,352.97 597.11,352.92 C597.13,352.87 597.61,352.52 597.64,352.47 C597.67,352.42 597.81,352.85 597.84,352.93 C597.87,353.01 598.04,353.21 598.04,353.21 L598.35,353.56 L598.65,353.86 L598.98,354.07 L599.24,354.32 L599.24,354.55 L599.11,354.7 C599.11,354.7 599.09,354.85 599.11,354.96 C599.13,355.08 599.37,355.21 599.37,355.21 L599.51,355.37 Z M602.25,362.4 L602.53,362.2 L602.74,361.82 L602.74,361.41 C602.74,361.41 602.48,361.13 602.49,361.01 C602.5,360.89 602.39,360.76 602.39,360.76 L602.09,360.55 C602.09,360.55 601.96,360.24 602.01,360.2 C602.06,360.17 602.13,359.97 602.13,359.92 C602.13,359.87 601.92,359.62 601.92,359.62 L601.31,359.62 L600.9,359.49 C600.9,359.49 600.78,359.41 600.7,359.41 C600.62,359.41 600.47,359.29 600.47,359.41 C600.47,359.53 600.55,359.82 600.55,359.82 L600.88,360.05 L601.24,360.36 L601.6,360.62 L601.81,360.87 C601.81,360.87 601.71,361.3 601.71,361.38 C601.71,361.46 601.84,361.97 601.84,361.97 L602.04,362.22 L602.25,362.4 Z M605.58,364.99 C605.58,364.99 605.76,364.81 605.81,364.78 C605.86,364.75 606.02,364.53 606.07,364.48 C606.12,364.43 606.22,364.12 606.22,364.12 L606.47,363.94 C606.47,363.94 606.54,363.69 606.55,363.64 C606.57,363.59 606.55,363.29 606.55,363.29 L606.56,362.98 L606.45,362.85 L606.17,362.85 L605.97,363.26 L605.67,363.54 L605.32,363.57 L605.07,363.7 L604.56,363.72 L604.23,363.79 L604.02,364.02 L604.2,364.37 L604.5,364.57 L605.03,364.74 L605.29,365 L605.44,365.08 L605.58,364.99 Z M587.75,355.68 L587.85,355.45 C587.85,355.45 587.88,355.19 587.85,355.14 C587.82,355.09 587.49,354.88 587.49,354.88 L587.49,354.56 L587.24,354.27 C587.24,354.27 586.98,354.09 586.94,354.04 C586.91,353.99 586.51,353.79 586.51,353.79 L586.21,353.79 L586.33,354.05 L586.83,354.23 C586.83,354.23 587.01,354.44 587.04,354.55 C587.07,354.66 587.04,354.69 587.04,354.73 C587.04,354.77 586.81,354.73 586.81,354.73 L586.64,354.46 L586.33,354.33 C586.33,354.33 586.38,354.51 586.41,354.55 C586.44,354.59 586.64,354.92 586.76,354.96 C586.88,354.99 587.04,355.22 587.11,355.27 C587.18,355.32 587.46,355.55 587.46,355.55 L587.75,355.68 Z M590.56,355.68 L590.79,355.55 L590.79,355.32 L590.56,355.16 L590.3,355.29 L590.3,355.59 L590.56,355.68 Z M589.27,349.18 L589.44,348.92 L589.27,348.67 C589.27,348.67 589.3,348.5 589.27,348.39 C589.24,348.27 589.02,348.04 588.96,347.99 C588.89,347.94 588.61,347.99 588.61,347.99 C588.61,347.99 588.53,348.16 588.51,348.22 C588.49,348.29 588.46,348.35 588.59,348.57 C588.72,348.79 588.96,349.01 588.96,349.01 L589.27,349.18 Z M560.39,350.69 C560.39,350.69 560.46,350.52 560.46,350.48 C560.46,350.44 560.29,350.17 560.29,350.17 C560.29,350.17 560.05,350.05 560.01,350.02 C559.97,349.99 559.75,349.79 559.67,349.77 C559.59,349.75 559.2,349.68 559.2,349.68 L558.99,349.76 C558.99,349.76 559,349.98 558.99,350.02 C558.98,350.05 559.2,350.29 559.2,350.29 C559.2,350.29 559.46,350.41 559.52,350.42 C559.59,350.43 559.83,350.63 559.88,350.64 C559.93,350.65 560.11,350.68 560.11,350.68 L560.39,350.68 L560.39,350.69 Z M568.39,341.21 L568.64,340.81 L568.8,340.43 L568.7,340.05 L568.47,339.51 L568.01,339.2 L567.6,339.03 L567.17,339.03 L566.77,339.34 C566.77,339.34 566.46,339.62 566.46,339.69 C566.46,339.76 566.38,340.12 566.38,340.12 L566.63,340.5 L566.94,340.85 L567.12,341.21 L567.43,341.39 L567.69,341.39 L567.79,341.18 L567.69,340.93 C567.69,340.93 567.41,340.81 567.34,340.73 C567.27,340.65 566.93,340.33 566.93,340.33 L566.76,340.07 L566.89,339.77 L567.22,339.56 L567.57,339.48 L567.89,339.65 L568.2,339.95 L568.32,340.22 L568.4,340.56 L568.27,340.87 L568.25,341.1 L568.39,341.21 Z M586.4,340.31 C586.4,340.31 586.52,340.3 586.58,340.31 C586.64,340.32 586.69,340.14 586.69,340.14 C586.69,340.14 586.73,339.93 586.69,339.87 C586.65,339.8 586.56,339.52 586.56,339.52 L586.25,339.34 L585.94,339.02 C585.94,339.02 585.76,338.87 585.73,338.87 C585.7,338.87 585.4,338.92 585.4,338.92 C585.4,338.92 585.18,338.85 585.11,338.87 C585.04,338.88 584.81,338.84 584.74,338.92 C584.66,339.01 584.52,339.15 584.52,339.15 L584.3,339.47 L584.37,339.81 L584.48,340.05 L584.8,340.19 C584.8,340.19 585.18,340.45 585.23,340.46 C585.27,340.47 585.56,340.48 585.64,340.46 C585.72,340.44 585.91,340.25 585.91,340.25 C585.91,340.25 585.95,340.11 585.89,340.1 C585.82,340.09 585.55,340.07 585.43,340.05 C585.31,340.03 584.95,339.94 584.95,339.94 C584.95,339.94 584.74,339.7 584.74,339.67 C584.74,339.64 584.81,339.34 584.81,339.34 L585.11,339.25 L585.65,339.24 L585.94,339.41 L586.26,339.61 C586.26,339.61 586.49,339.82 586.48,339.85 C586.47,339.88 586.36,340.15 586.36,340.15 L586.4,340.31 Z M591.66,342.57 L592.12,342.46 L592.2,342.09 C592.2,342.09 592.01,341.95 591.97,341.95 C591.93,341.95 591.49,342.02 591.44,342.02 C591.4,342.02 591.09,342.04 591.07,342.04 C591.05,342.04 590.72,342.08 590.72,342.08 C590.72,342.08 590.62,342.17 590.62,342.22 C590.62,342.27 590.73,342.5 590.73,342.5 L591.66,342.57 Z M595.27,340.14 L594.82,340.07 L594.65,340.3 C594.65,340.3 594.58,340.53 594.53,340.49 C594.48,340.44 594.22,340.28 594.22,340.28 C594.22,340.28 594.07,340.01 594.01,340.01 C593.95,340.01 593.76,340.01 593.76,340.01 L593.64,340.12 L593.64,340.32 L593.68,340.49 L594.15,340.5 L594.51,340.71 L594.29,340.87 L594.05,341.04 L593.96,341.37 L594.04,341.85 C594.04,341.85 593.86,341.98 593.83,341.98 C593.8,341.98 593.41,341.79 593.41,341.79 L593.08,341.47 L592.96,341.12 L592.96,340.68 L593.03,340.48 L593.2,340.48 L593.32,340.19 C593.32,340.19 593.22,340 593.19,340 C593.16,340 592.74,340.17 592.74,340.17 L592.66,340.65 L592.62,341.17 L592.71,341.69 L593.17,342.11 L593.46,342.25 L593.9,342.39 L594.28,342.25 L594.41,341.72 L594.49,341.2 L594.84,341 L595.07,340.76 L595.27,340.49 L595.36,340.28 L595.27,340.14 Z M597.47,341.38 L597.76,341.2 L597.98,340.96 L597.91,340.54 L597.47,340.34 L597.06,340.34 L596.77,340.59 L596.77,340.85 L597.03,340.96 L597.15,341.19 L597.32,341.37 L597.47,341.37 L597.47,341.38 Z M613.2,335.65 L612.98,335.53 L612.84,335.59 L612.64,335.65 L612.58,335.87 C612.58,335.87 612.63,336.05 612.65,336.09 C612.67,336.13 612.76,336.28 612.76,336.28 L612.97,336.28 L613.06,336.12 L613.2,335.99 L613.2,335.8 L613.2,335.65 Z M611.03,342.02 L611.45,341.91 L611.72,341.84 C611.72,341.84 611.73,341.66 611.72,341.59 C611.71,341.52 611.57,341.28 611.52,341.26 C611.48,341.24 611.22,340.97 611.22,340.97 C611.22,340.97 610.96,340.91 610.94,340.97 C610.93,341.02 610.88,341.29 610.88,341.29 L610.88,341.74 L611.03,342.02 Z M610.68,342.6 L610.72,342.27 C610.72,342.27 610.72,341.89 610.7,341.87 C610.68,341.86 610.46,341.7 610.46,341.7 L610.13,341.74 L609.81,341.83 L609.73,342.14 L609.81,342.32 L610.04,342.63 L610.23,342.71 L610.49,342.71 L610.68,342.6 Z M612.35,346.1 L612.14,346.02 L611.94,346.24 C611.94,346.24 611.83,346.65 611.83,346.68 C611.83,346.71 611.69,346.97 611.69,346.97 L611.6,347.28 L611.7,347.63 C611.7,347.63 611.77,347.78 611.84,347.81 C611.92,347.83 612.18,347.81 612.18,347.81 L612.49,347.77 L612.6,347.59 L612.6,347.28 L612.47,346.92 L612.56,346.65 L612.46,346.34 L612.35,346.1 Z M607.76,350.17 C607.76,350.17 608.08,350.15 608.11,350.12 C608.14,350.09 608.27,349.92 608.29,349.86 C608.3,349.79 608.32,349.57 608.29,349.53 C608.26,349.49 608.04,349.35 607.95,349.33 C607.86,349.31 607.53,349.05 607.53,349.05 L607.27,348.77 C607.27,348.77 607.1,348.67 607.06,348.65 C607.02,348.63 606.74,348.56 606.74,348.56 L606.57,348.76 L606.66,349.12 C606.66,349.12 606.77,349.29 606.79,349.36 C606.81,349.44 607.17,349.78 607.17,349.78 L607.43,350.01 L607.76,350.17 Z M612.25,352.68 L612.59,352.68 L612.87,352.55 L613.1,352.36 L613.44,352.36 L613.59,352.52 L613.77,352.52 L613.94,352.31 L613.88,351.95 L613.66,351.69 L613.29,351.45 L613,351.45 L612.62,351.71 L612.26,351.64 L611.9,351.52 L611.58,351.52 L611.33,351.74 L611.47,352.06 L611.8,352.26 L611.83,352.53 L612.25,352.68 Z M612.71,353.53 L612.53,353.27 L612.26,353.13 L611.86,353.33 L611.75,353.53 L611.88,353.85 L612.23,354.06 L612.38,354.19 L612.56,354.47 L612.71,354.69 L612.97,354.79 L613.11,354.52 C613.11,354.52 613.15,354.17 613.11,354.14 C613.07,354.11 612.81,353.77 612.81,353.77 L612.71,353.53 Z M619.53,357.66 C619.53,357.66 619.39,357.31 619.41,357.28 C619.43,357.25 619.51,356.94 619.53,356.91 C619.55,356.88 619.72,356.55 619.72,356.55 L619.56,356.18 C619.56,356.18 618.93,355.74 618.92,355.71 C618.91,355.68 618.46,355.41 618.46,355.41 C618.46,355.41 618.05,355.22 617.98,355.22 C617.9,355.22 617.54,355.26 617.51,355.29 C617.48,355.31 617.41,355.52 617.41,355.52 C617.41,355.52 617.55,355.86 617.56,355.9 C617.57,355.94 617.7,356.19 617.73,356.22 C617.76,356.25 618.05,356.54 618.08,356.57 C618.11,356.6 618.49,357.12 618.49,357.12 L618.89,357.41 L619.22,357.67 L619.53,357.67 L619.53,357.66 Z M619.29,359.76 C619.32,359.75 619.57,359.61 619.57,359.57 C619.57,359.54 619.5,359.14 619.5,359.14 L619.43,358.82 L619.19,358.58 L618.87,358.38 C618.87,358.38 618.62,358.31 618.62,358.38 C618.62,358.45 618.62,358.64 618.62,358.64 L618.87,358.9 L618.9,359.13 L618.71,359.15 L618.49,358.97 L618.35,359.13 L618.49,359.39 L619.05,359.74 L619.29,359.74 L619.29,359.76 Z M619.45,365.41 L619.11,365.19 L618.85,365.15 C618.85,365.15 618.55,365.33 618.55,365.36 C618.55,365.39 618.55,365.64 618.55,365.64 C618.55,365.64 618.76,365.76 618.81,365.77 C618.86,365.78 619.13,365.77 619.13,365.77 L619.44,366.06 L619.98,366.32 L620.33,366.17 C620.33,366.17 620.52,366.02 620.55,365.99 C620.58,365.96 620.55,365.67 620.55,365.67 C620.55,365.67 620.2,365.54 620.14,365.52 C620.07,365.5 619.61,365.5 619.61,365.5 L619.45,365.41 Z M621.6,366.02 L621.84,366.23 C621.84,366.23 622.12,366.34 622.19,366.36 C622.26,366.38 622.54,366.49 622.54,366.49 L622.82,366.53 L623.02,366.38 L623.19,366.17 L623.45,366.11 L623.85,366 L624.06,365.79 L624.06,365.59 L623.85,365.44 L623.52,365.72 L623.13,365.91 L622.84,365.9 L622.62,365.62 L622.33,365.45 L622.04,365.41 L621.79,365.55 L621.55,365.73 L621.6,366.02 Z M625.47,372.89 L625.43,372.61 L625.22,372.32 L625.14,371.89 L625.05,371.35 L624.8,370.93 L624.02,370.73 L623.48,370.73 L622.88,370.87 L622.65,371.2 L622.74,371.73 C622.74,371.73 622.89,372.03 622.95,372.06 C623.01,372.09 623.42,372.14 623.42,372.14 C623.42,372.14 623.72,372.01 623.77,372.01 C623.82,372.01 624.3,372.11 624.35,372.12 C624.4,372.13 624.78,372.21 624.78,372.21 L625.02,372.58 L625.13,372.88 L625.31,372.96 L625.47,372.89 Z M609.62,370.92 L609.58,370.66 L609.33,370.54 L609.04,370.61 L609.04,370.93 L609.24,371.15 L609.42,371.45 L609.41,371.83 L609.33,372.14 L609.23,372.49 L609.33,372.8 L609.5,373.08 L609.77,373.39 L609.89,373.62 L610.19,373.81 L610.45,373.77 L610.57,373.37 L610.52,372.99 L610.87,372.68 L610.94,372.34 L610.81,372.04 L610.34,371.83 L609.99,371.62 L609.73,371.36 L609.62,370.92 Z M605.25,380.22 L605.04,380.07 L604.73,380.22 L604.65,380.53 L604.75,380.81 C604.75,380.81 604.96,381.07 604.99,381.06 C605.02,381.05 605.29,381.06 605.29,381.06 L605.55,380.91 L605.66,380.71 L605.66,380.48 L605.51,380.35 L605.35,380.44 L605.31,380.67 L605.06,380.68 L604.98,380.44 L605.25,380.22 Z" class="state" id="MH"></path>-->
            <path d="M487.09,261.62 L486.77,261.1 L486.34,261.1 L485.76,261.4 L485.47,261.98 L485.67,262.72 L486.16,263.1 L485.75,264.59 L484.95,263.99 L483.74,264.01 L482.78,263.17 L483.31,261.02 L483.89,259.95 L483.99,258.1 L487.13,255.94 L488,254.8 L488.91,254.14 L489.91,254.93 L489.87,255.57 L489.73,255.84 L489.01,255.8 L488.88,256.88 L487.8,257.61 L487.3,259.7 L488.13,261.02 L487.77,261.7 L487.09,261.62 Z M480.95,272.44 L481.47,272.37 L481.3,271.96 L481.9,269.57 L481.7,268.77 L480.75,267.99 L480.67,267.03 L481.16,266.41 L481.07,265.06 L480.78,264.27 L480.27,264.07 L477.95,266.74 L477.2,268.68 L477.79,270.16 L478.48,270.18 L478.81,271.09 L479.35,271.46 L479.77,273.66 L480.07,273.79 L480.95,272.44 Z M477.05,277.24 L476.88,276.9 L475.05,277.42 L474.86,277.76 L475.1,278.25 L476.22,278.04 L477.05,277.24 Z M459.29,316.23 L459.25,315.81 L459.69,315.15 L461.67,314.89 L462.04,314.38 L462.2,312.95 L460.04,312.3 L457.33,313.77 L455.52,314 L453.61,316.84 L453.86,316.92 L454.99,315.8 L455.95,316.27 L456.08,317.34 L458.29,317.05 L458.83,316.42 L459.29,316.23 Z" class="state" id="MP"></path>
            <path d="M348.42,360.29 L351.38,361.02 L351.87,360.78 L352.56,361.27 L349.97,362.08 L349.05,361.63 L348.81,362 L346.54,362.91 L345.58,362.56 L343.54,363.08 L342.79,362.82 L342.4,362.35 L342.42,361.75 L346.73,360.8 L346.92,360.43 L348.42,360.29 Z M350.23,353.85 L350.88,354.63 L351.13,354.29 L352.38,354.53 L353.1,354.98 L353.31,355.48 L352.7,355.96 L352.15,355.4 L351.43,355.26 L352.12,355.96 L351.88,356.38 L350.44,354.88 L349.95,353.93 L350.23,353.85 Z M292.91,348.19 L295.29,348.35 L296.57,349.03 L298.76,349.29 L300.24,348.99 L301.49,349.17 L302.81,348.97 L304.36,349.62 L305.41,349.7 L305.67,349.31 L306.44,349.06 L308.08,348.92 L309.56,349.28 L310.29,349.06 L311.42,349.25 L313.61,349.8 L314.25,349.18 L315.52,348.91 L319.27,349.7 L319.75,349.38 L321.37,349.89 L322.5,349.75 L322.97,350.4 L324.02,349.92 L324.46,349.63 L327.3,350.27 L327.77,350.63 L328.52,350.58 L328.84,350.06 L331.01,350.6 L331.73,350.3 L332.58,350.84 L333.92,351.03 L334.62,351.8 L335.43,351.37 L336.05,351.65 L336.05,352.11 L336.81,352.68 L337.06,352.81 L337.69,352.47 L338.42,353.22 L339.61,353.4 L340.2,352.76 L341.07,352.51 L341.03,353.26 L340.47,353.95 L340.79,354.44 L340.84,355.38 L340.86,356.23 L341.37,357.2 L342.01,358.01 L341.29,358.58 L340.65,358.95 L339.59,358.71 L338.73,359.1 L337.98,359.32 L337.28,359.59 L335.84,361.37 L335.23,363.6 L333.92,363.99 L334.18,364.74 L334,365.41 L333.26,365.65 L332.35,366.26 L331.27,366.67 L329.21,366.92 L328.29,366.47 L327.8,366.61 L327.01,367.45 L326,366.94 L323.35,368.29 L322.85,367.66 L321.8,367.09 L320.93,367.64 L320.73,368.34 L319.1,367.8 L317.99,366.54 L316.67,366.9 L315.9,367.96 L313.35,366.13 L312.04,366.23 L309.49,367.15 L308.04,366.4 L306.56,366.97 L304.83,366.09 L304.06,366.18 L302.79,366.76 L301.21,367.53 L300.04,367.45 L298.83,367.51 L298.5,368.11 L298.34,368.34 L297.24,368.2 L295.72,366.81 L294.39,366.92 L293.84,366.67 L292.43,367.68 L290.63,367.4 L289.96,367.02 L289.55,367.44 L289.85,368.14 L289.47,368.13 L288.8,367.46 L288.79,366.28 L289.07,365.83 L290.05,365.5 L290.2,365.05 L288.97,364.54 L289.22,363.02 L289.88,362.01 L289.72,361.17 L289.76,360.13 L290.83,358.81 L290.15,358.05 L289.53,355.99 L288.14,355.55 L286.95,353.36 L288.9,352.66 L290.59,351.63 L290.76,350.94 L290.3,349.81 L290.44,349.1 L291.31,348.41 L292.91,348.19 Z" class="state" id="PR"></path>
<!--            <path d="M513.57,313.77 L514.36,314.88 L513.88,315.62 L512.63,316.58 L511.9,316.46 L512.42,315.39 L512.06,313.89 L513.57,313.77 Z M537.05,280.37 L537.27,280.76 L537.74,280.87 L537.91,280.41 L538.65,280.35 L538.63,280.14 L536.98,279.61 L536.55,279.5 L536.51,279.78 L537.05,280.37 Z M521.16,299.83 L521.55,299.83 L522.18,299.5 L522.42,298.73 L521.71,299.37 L521.01,298.23 L520.79,297.68 L520.23,297.21 L521.22,298.98 L521.16,299.83 Z M522.83,305.51 L523.41,305.38 L523.16,305.08 L523.33,303.97 L522.29,304.41 L521.14,306.2 L519.71,307.08 L519.78,308.75 L519.5,309.12 L519.89,309.9 L520.2,309.68 L520.42,309.25 L520.44,308.82 L521.18,308.72 L522,308.22 L523.21,307.14 L523.34,306.79 L523.3,306.58 L523.11,306.36 L522.81,306.45 L522.66,305.97 L522.83,305.51 Z M523.22,294.25 L523.57,294.36 L523.53,293.8 L523.25,293.88 L522.81,293.52 L522.53,293.85 L522.49,294.08 L522.46,294.55 L522.92,294.45 L523.22,294.25 Z M522.92,303.24 L522.1,302.79 L522.53,303.7 L523.42,303.41 L524.11,302.85 L524.06,302.6 L522.92,303.24 Z M541.92,280.3 L541.12,280.02 L540.19,280.37 L538.65,280.78 L538.2,281.29 L536.48,280.89 L535.68,281.21 L536.81,281.38 L537.24,281.55 L537.31,281.7 L537.57,282.31 L538.15,282.16 L538.71,282.55 L539.32,284.37 L539.6,284.52 L540.62,284.37 L541.23,283.83 L540.93,283.7 L540.51,283.27 L540.59,282.75 L541.6,283.59 L542.45,282.21 L541.73,281.05 L541.92,280.3 Z M537.31,286.59 L536.85,286.81 L536.39,285.53 L536.67,284.62 L536.99,284.49 L537.14,284.88 L537.41,284.73 L537.4,283.63 L537.25,283.34 L535.78,282.84 L535.47,282.27 L535.34,281.6 L535.21,282.14 L535.51,282.9 L536.7,283.92 L536.38,284.16 L536.07,284.27 L536.14,285.81 L535.73,285.98 L535.15,286.31 L534.96,286.33 L533.99,286.92 L533.51,288.18 L532.79,288.52 L532.71,288.42 L532.77,287.96 L532.45,287.21 L532.86,286.99 L532.88,286.52 L532.52,286.13 L531.55,286.56 L531.11,287.37 L531.5,287.84 L531.29,289.05 L530.56,288.59 L528.81,287.76 L528.94,288.19 L529.76,288.89 L530.35,288.85 L530.75,289.17 L530.8,290.18 L531.09,290.58 L532.14,290.31 L533.18,289.03 L533.6,289.66 L535.13,287.3 L535.76,286.89 L536.11,286.95 L536.3,287.49 L537.23,288.29 L537.46,288.21 L537.52,286.82 L537.31,286.59 Z M532.38,296.69 L531.77,295.79 L532.15,294.9 L532.18,294.25 L531.92,293.92 L531.79,292.86 L531.31,293.77 L531.02,294.41 L531.27,295.25 L531.07,295.42 L530.72,295.53 L530.27,295.31 L529.83,295.25 L529.55,295.1 L529.68,294.58 L530.26,294.19 L530.48,293.69 L529.81,293.96 L529.06,294.2 L528.68,293.97 L528.51,294.49 L528.6,294.86 L529.03,295.26 L528.77,295.67 L528.86,296.1 L529.42,296.71 L530,296.88 L531,296.53 L530.89,296.23 L531.37,296.21 L531.85,297.05 L532.39,297.27 L532.38,296.69 Z M552.79,258.68 L552.38,256.08 L552.47,254.52 L552.51,253.87 L552.68,253.04 L552.1,252.26 L551.52,251.76 L551.52,251.19 L550.63,250.67 L549.98,251.26 L549.72,252.13 L550.39,252.89 L550.8,253.82 L551.19,255.58 L551.51,256.1 L551.88,256.6 L551.32,257.77 L549.7,259.9 L549.09,260.01 L547.73,259.4 L546.52,260.12 L545.63,261.25 L544.38,260.99 L544.03,261.62 L544.44,263.01 L544.33,264.05 L543.57,264.51 L542.99,264.25 L542.43,266.05 L541.39,265.88 L541.22,266.05 L541.48,266.66 L541.24,268.01 L541.61,268.42 L541.11,269.2 L539.94,269.27 L539.81,269.81 L539.79,270.79 L539.55,271.96 L538.42,272.94 L539.05,273.44 L539.61,273.27 L539.89,273.46 L539.48,274.22 L541.86,275.74 L541.55,276.61 L541.78,278.75 L541.52,279.66 L542.91,280.14 L543.12,280.57 L543.7,281.18 L544.08,281.63 L543.65,282.5 L544.35,282.33 L545.24,282.16 L545,281.79 L544.34,281.54 L543.81,280.38 L544.79,280.58 L545.92,280.38 L546.38,279.71 L546.18,279.32 L546.44,279.06 L547.22,279.08 L547.22,279.77 L547.16,280.16 L547.51,280.62 L548.16,280.51 L548.25,279.93 L548.81,279.63 L548.31,277.44 L548.53,276.2 L548.42,274.33 L549.13,273.35 L549.72,273.24 L549.89,272.57 L549.72,271.81 L550.17,270.99 L552.02,269.5 L552.14,269.06 L551.64,268.3 L550.69,267.69 L550.22,266.51 L551.02,266 L552.17,264.92 L551.88,263.82 L552.07,263.26 L552.37,261.7 L552.61,260.53 L552.79,258.68 Z M530.41,298.36 L530.32,299.1 L530.51,299.25 L531.12,298.99 L530.58,298.73 L530.41,298.36 Z M524.8,285.67 L524.27,285.11 L524.37,285.82 L525.11,286.46 L525.69,286.46 L526.24,286.41 L526.55,286.22 L524.94,286.03 L524.8,285.67 Z M523.83,300.25 L523.42,300.84 L522.66,301.07 L524.63,300.88 L524.44,300.23 L523.83,300.25 Z" class="state" id="PW"></path>-->
            <path d="M406.52,378.23 L405.05,379.56 L403.01,379.25 L401.07,379.58 L398.09,380.8 L397.07,380.19 L395.12,380.1 L393.89,380.46 L392.72,381.24 L392.21,381.32 L392.04,380.96 L392.05,380.52 L392.74,379.98 L393.03,379.01 L393.45,378.64 L393.72,377.65 L392.96,375.01 L393,373.93 L394.58,372.14 L395.11,372.06 L397.87,372.87 L399.68,372.36 L400.39,371.44 L401.64,371.43 L403.05,370.77 L405.13,371.53 L406.07,372.09 L406.1,371.16 L407.01,371.48 L407.44,372.79 L408.32,373.02 L409.82,374.27 L411.6,373.95 L413.37,373.04 L414.2,373.16 L415.02,372.88 L416.73,373.28 L418.44,373.02 L419.18,373.34 L422.8,373.26 L423.39,373.69 L422.61,374.43 L420.08,374.5 L419.04,375.57 L416.48,376.62 L414.76,376.88 L412.42,378.11 L410.22,378.41 L409.09,378.88 L408.33,378.43 L407.19,378.48 L406.52,378.23 Z M382.04,343.08 L382.42,343.31 L383.74,342.48 L384.29,342.48 L385.57,343.17 L386.08,344.32 L386.42,344.05 L386.67,344.19 L386.76,345.02 L387.39,344.74 L387.86,343.91 L389.99,343.45 L390.71,343.95 L390.5,344.36 L390.67,345.37 L392.45,346.29 L393.55,346.11 L394.91,347.03 L394.66,346.11 L394.23,345.79 L395.55,345.38 L396.7,345.47 L397.67,346.21 L397.71,345.8 L398.43,345.62 L398.52,344.84 L397.12,344.93 L397.03,344.75 L397.63,344.38 L397.55,344.15 L396.53,343.6 L395.51,342.54 L391.31,340.83 L388.97,339.41 L390.5,341.02 L390.08,341.75 L388.89,341.06 L388.13,340.14 L387.79,340.6 L385.03,340.42 L384.26,340.6 L383.88,341.38 L383.11,340.88 L382.73,341.29 L380.56,341.61 L380.22,342.12 L379.71,342.3 L380.86,343.36 L382.04,343.08 Z M387.68,346.66 L387.85,345.51 L388.49,345.24 L388.91,345.66 L388.57,344.51 L387,346.02 L387.3,346.76 L387.68,346.66 Z M410.9,347.3 L411.01,344.84 L410.87,344.46 L409.81,343.63 L409.56,343.03 L409.73,342.85 L410.36,343.5 L410.75,343.09 L410.88,342.27 L411.64,342.13 L411.55,343.09 L412.78,342.96 L413.33,343.51 L413.03,344.2 L413.62,344.48 L414.56,343.38 L414.35,343.01 L413.8,342.68 L412.87,342.72 L411.64,341.43 L410.67,341.43 L409.74,340.88 L408.51,340.97 L407.62,340.51 L406.66,340.42 L406.39,340.74 L407.03,341.29 L406.65,341.89 L404.87,342.02 L403.51,342.66 L403.22,342.24 L402.96,342.38 L402.96,343.25 L402.03,343.75 L402.11,345.13 L403.34,346.28 L404.15,345.5 L405,345.36 L405.38,345.82 L406.61,345.04 L407.67,345.79 L408.82,345.59 L408.99,346.28 L409.41,346.6 L410.39,346.56 L410.73,347.52 L410.9,347.3 Z" class="state" id="VI"></path>
            <path d="M72.54,263.07 L75.2,268.15 L76.83,265.98 L83.05,266.65 L82.83,269.21 L88.46,271.09 L92.21,269.99 L99.97,273.45 L107.05,274.47 L109.88,275.87 L114.78,274.12 L120.36,277.35 L124.36,278.84 L124.34,315.14 L124.32,361.66 L127.95,361.88 L131.53,363.92 L134.1,367.12 L137.37,371.84 L140.95,367.83 L144.65,365.48 L146.6,369.23 L149.08,372.16 L152.45,375.34 L154.75,380.32 L158.51,388.04 L164.77,392.25 L164.87,396.35 L162.82,399.44 L160.8,397.03 L157.56,394.97 L156.52,389.25 L151.77,383.83 L149.79,377.35 L146.26,376.9 L140.41,376.73 L136.1,374.72 L128.49,367.31 L124.97,365.93 L118.53,363.31 L113.43,363.94 L106.19,360.54 L101.81,357.34 L97.72,358.93 L98.48,364.09 L96.45,364.56 L92.19,366.09 L88.95,368.53 L84.87,370.06 L84.34,365.8 L86,358.54 L89.91,356.21 L88.9,354.3 L84.21,358.53 L81.7,363.48 L76.4,368.66 L79.09,372.14 L75.61,377.19 L71.65,380.09 L67.97,382.18 L67.06,385.18 L61.31,388.64 L60.15,391.74 L55.84,394.53 L53.31,394.03 L49.87,395.84 L46.13,398.03 L43.07,400.16 L36.75,401.97 L36.17,400.91 L40.2,397.93 L43.8,395.94 L47.72,392.38 L52.29,391.64 L54.1,388.93 L59.2,384.92 L60.02,383.56 L62.74,381.15 L63.38,375.9 L65.25,371.73 L61.01,373.88 L59.82,372.66 L57.83,375.22 L55.43,371.64 L54.44,374.18 L53.06,370.64 L49.38,373.49 L47.12,373.48 L46.8,369.24 L47.47,366.59 L45.1,363.99 L40.31,365.39 L37.2,361.94 L34.68,360.15 L34.66,355.88 L31.82,352.62 L33.24,348.15 L36.24,343.73 L37.55,339.59 L40.53,338.99 L43.06,340.29 L46.03,336.34 L48.7,337.05 L51.51,334.48 L50.83,330.65 L48.77,329.12 L51.49,325.81 L49.23,325.91 L45.32,327.78 L44.2,329.66 L41.3,327.78 L36.09,328.74 L30.7,326.69 L29.15,323.21 L24.49,318.08 L29.66,314.32 L37.87,309.85 L40.9,309.85 L40.4,314.42 L48.17,314.07 L45.18,308.37 L40.65,304.8 L38.03,300.02 L34.5,295.86 L29.44,292.73 L31.5,287.44 L38.03,287.11 L42.68,282.4 L43.56,277.26 L47.32,272.12 L50.91,270.87 L57.89,265.94 L61.27,266.69 L66.94,260.64 L72.54,263.07 Z M11.2,334.37 L13.47,335.95 L15.76,335.1 L18.74,337.28 L22.4,338.38 L22.1,339.27 L19.31,340.99 L16.51,339.22 L15.11,337.74 L11.87,338.22 L10.99,337.5 L11.2,334.37 Z M33.85,364.58 L31.59,365.72 L29.18,364.35 L26.95,362.35 L30.58,361.08 L33.5,361.75 L33.85,364.58 Z M80.13,384.25 L76.45,386.82 L74.57,385.09 L74,381.91 L77.34,379.47 L79.31,378.42 L81.75,378.89 L83.31,381.03 L80.13,384.25 Z" class="state" id="US-AK"></path>
            <polygon class="state" id="US-AL" points="367.63 184.5 370.08 198.62 372.31 209.78 373.66 213.26 374.49 215.25 372.93 217.2 372.4 220.71 372.91 222.79 372.68 224.74 372.42 226.54 373.02 227.94 373.48 229.23 354.24 229.29 348.85 229.92 348.7 230.75 350.85 233.4 350.35 235.55 349.67 237.04 341.3 235.84 341 219.09 342.66 201.27 344.34 186.56 343.66 184.35 355.52 184.35"></polygon>
            <polygon class="state" id="US-AR" points="329.56 172.54 329.46 173.5 328.5 175.14 326.85 176.26 326.48 178.17 324.99 179.69 325.1 183.03 324.03 184.1 323.85 185.01 322.16 185.87 322.13 187.52 320.87 190.58 319.78 191.22 318.11 192.77 317.11 195.11 315.05 199.05 314.84 201.72 315.93 204.67 315.47 206.88 307.5 206.5 297.2 206.87 288.09 206.86 288.63 200.48 286.45 200.44 284.62 200.59 284.13 199.85 284.4 189.93 284.59 178.79 282.72 166.51 294.19 166.68 304.62 166.71 314.57 166.72 325.32 167.43 326.1 168.88 325.04 170.13 323.98 171.38 323.4 172.54"></polygon>
            <polygon class="state" id="US-AZ" points="146.76 161.13 146.77 225.4 128.1 225.46 106.59 217.69 92.35 212.29 93.22 210.15 94.47 210.16 95.51 207.93 93.84 206.39 93.51 204.71 93.02 202.73 94.86 200.14 95.61 194.97 98.47 192.64 96.68 190.46 95.46 188.31 94.68 186.31 94.16 184.76 93.97 183.73 94.55 181.48 94.09 179.22 93.89 176.99 93.9 174.5 93.06 172.91 93.7 171.48 95.69 171.48 97.49 172.3 98.78 172.76 99.4 170.99 99.81 170.6 99.74 161.2 114.95 161.02 133.08 161.04"></polygon>
            <polygon class="state" id="US-CA" points="43.45 100.31 43.44 137.34 61.23 153.52 78.14 169.06 93.97 183.73 94.16 184.76 94.68 186.31 95.46 188.31 96.68 190.46 98.47 192.64 95.61 194.97 94.86 200.14 93.02 202.73 93.51 204.71 93.84 206.39 95.51 207.93 94.47 210.16 93.22 210.15 81.25 211.32 70.53 212.18 69.39 208.07 65.39 202.27 55.33 195.52 51.53 195.1 47.44 191.53 39.98 190.66 37.57 188.82 36.42 182.54 27.27 170.93 19.42 154.61 19.75 151.86 15.59 147.93 8.3 137.87 6.99 127.97 1.97 121.27 4.03 110.99 3.7 100.22"></polygon>
            <polygon class="state" id="US-CO" points="212.73 125.1 212.83 143.79 212.82 161.22 203.74 161.18 192.45 161.17 176.42 161.16 161.52 161.13 146.76 161.13 146.68 112.73 156.14 112.73 165.58 112.73 184.47 112.71 193.92 112.71 212.75 112.71 212.73 124.71"></polygon>
            <polygon class="state" id="US-CT" points="498.01 100.05 498.09 106.93 497.51 108.76 493.35 109.39 487.87 110.01 480.51 112.94 480.17 111.42 482.22 110.21 481.48 109.14 482.01 99.52 489.23 99.76"></polygon>
            <polygon class="state" id="US-DC" points="448.59 139.83 448.64 139.12 447.85 138.08 448.62 137.5 449.81 138.75"></polygon>
            <polygon class="state" id="US-DE" points="464.02 127.62 462.62 128.89 462.86 131.24 464.83 137.77 467.39 143.92 461.1 143.92 460.41 128.5 461.14 127.53 461.99 126.98"></polygon>
            <polygon class="state" id="US-FL" points="406.63 232.08 407.86 240.02 411.45 248.87 415.69 256.9 415.69 261.05 419.79 271.89 420.19 281.26 418.23 290.27 414.28 292.1 409.63 290.84 408.14 286.29 404.56 283.89 399.56 274.89 394.94 267.2 394.08 262.1 395.7 255.61 393.53 249.62 387.4 243.16 382.02 239.04 371.41 243.59 369.24 240.56 360.33 235.67 349.67 237.04 350.35 235.55 350.85 233.4 348.7 230.75 348.85 229.92 354.24 229.29 373.48 229.23 374.92 232.17 384.4 232.68 399.69 234.31 400.39 236.21 401.61 235.24 401.63 231.45 402.77 231.08 404.64 231.88"></polygon>
            <polygon class="state" id="US-GA" points="391.67 184.58 390.64 185.53 389.13 187.7 391.67 189.59 393.31 190.29 395.07 193.88 396.19 195.89 399.47 198.57 400.12 199.98 402.36 201.81 403.46 204.49 406.47 206.75 407.14 209.3 407.7 210.54 407.38 211.36 409.14 212.58 410.06 214.66 410.05 216.77 410.91 217.18 412.53 217.75 408.43 225.83 406.63 232.08 404.64 231.88 402.77 231.08 401.63 231.45 401.61 235.24 400.39 236.21 399.69 234.31 384.4 232.68 374.92 232.17 373.48 229.23 373.02 227.94 372.42 226.54 372.68 224.74 372.91 222.79 372.4 220.71 372.93 217.2 374.49 215.25 373.66 213.26 372.31 209.78 370.08 198.62 367.63 184.5 374.91 184.61 379.94 184.49"></polygon>
            <path d="M178.7,301.77 L177.27,303.05 L175.46,302.61 L173.25,300.87 L174.02,299.58 L175.82,298.49 L178.6,298.54 L179.18,299.4 L178.7,301.77 Z M198.57,308.53 L199.62,310.49 L197.62,311 L196.36,310.06 L195.67,310.24 L195.39,310.38 L193.81,310.35 L191.82,306.86 L193.66,306.66 L195.62,305.34 L197.25,308.35 L198.57,308.53 Z M210.91,312.48 L209.1,313.77 L203.83,313.04 L204.32,311.51 L210.91,312.48 Z M212.46,314.06 L213.98,315.62 L216.22,315.14 L219.39,317.21 L219.45,318.22 L218.3,319.13 L214.61,319.64 L213.74,317.09 L212.08,316.82 L211.07,315.16 L211.57,314.18 L212.46,314.06 Z M225.32,339 L224.21,340.87 L221.08,339.5 L220.96,335.48 L219.03,330.74 L221.82,327.32 L220.93,325.33 L221.16,324.13 L221.68,323.92 L229.43,327.57 L230.81,329.11 L231.06,330.76 L232,330.97 L232.45,332.1 L234.27,333.65 L231.22,336.3 L228.08,337.06 L225.32,339 Z" class="state" id="US-HI"></path>
            <polygon class="state" id="US-IA" points="314.79 81 314.93 81.71 316.16 83.76 315.31 84.74 315.34 87.44 315.73 88.59 316.33 90.62 319.41 91.85 320.33 93.8 320.88 94.77 321.99 95.42 322.44 96.79 323.93 97.81 324.9 98.9 324.4 102.3 322.65 105.15 322.02 106.05 319.86 106.78 316.63 107.39 315.78 109.55 316.95 110.52 317.35 112.45 316.12 114.6 315.49 116.49 313.08 118.33 312.89 120.58 311.59 119.55 309.79 117.55 299.48 117.82 288.63 117.91 280.18 117.93 271.71 117.92 271.09 115.68 271.35 113.46 271.15 111.31 270.18 107.71 269.55 106.21 268.88 105.8 268.8 102.89 268.21 100.8 266.5 98.42 266.52 97.37 265.92 95.27 265.5 94.01 265.51 92.84 263.98 91.42 264.74 89.32 265.23 87.26 265.46 85.87 264.25 84.15 264.26 81 265.52 80.99 275.83 81.01 288.64 80.84 302.42 80.76"></polygon>
            <polygon class="state" id="US-ID" points="127.52 67.87 127.86 68.11 127.85 100.19 99.71 100.3 71.47 100.21 71.61 77.16 72.43 73.45 71.67 71.74 69.9 70.86 69.92 68.75 71.25 65.76 73.28 63.14 74.63 58.85 75.9 55.4 76.85 53.66 76.35 51.62 74.77 50.52 72.54 47.92 72.62 45.51 71.76 43.44 71.49 24.23 71.44 6.17 80.71 6.15 81.47 21.04 83.96 24.76 83.95 27.27 85.7 29.49 87.88 30.8 89.45 32.95 92.08 37.2 94.51 39.19 97.35 39.32 96.31 42.35 95.4 45.93 96.19 49.41 95.09 50.28 95.19 53.73 96.87 55.06 98.73 53.46 99.69 51.57 100.84 51.94 101.97 53.79 103.05 58.02 104.72 59.68 105.32 63.16 105.89 64.12 107.81 64.45 108.97 66.37 110.64 69.79 112.38 67.97 115.47 68.45 115.72 67.15 121.05 67.97 123.21 67.55 124.55 64.93 125.57 65.29 126.49 67.14"></polygon>
            <polygon class="state" id="US-IL" points="347.09 93.91 347.09 93.94 347.17 97.25 349.71 103.89 349.71 103.89 349.71 103.89 349.7 118.34 349.69 132.53 348.61 135.91 349.39 136.8 349.89 138.86 349.81 140.48 349.02 141.22 348.34 143.21 346.38 145.82 345.06 149.03 344.76 151.44 344.82 152.32 343.75 153.97 344.56 155.09 342.91 155.95 340.77 156.94 341.13 159.52 339.9 160.49 337.62 159.4 335.11 158.77 334.47 159.91 334.84 161.69 333.16 159.86 332.15 160.17 330.94 157.27 331.29 155.5 330.58 152.63 329.63 152.28 327.16 149.67 326.09 149.62 324.23 147.94 322.89 146.14 323.5 144.04 324.37 142.29 324.9 140.07 323.11 138.13 321.33 138.91 320.25 138.4 320.1 136.38 319.31 134.08 318.44 133.52 316.27 131.89 314.47 129.82 312.91 127.31 312.06 123.64 312.89 120.58 313.08 118.33 315.49 116.49 316.12 114.6 317.35 112.45 316.95 110.52 315.78 109.55 316.63 107.39 319.86 106.78 322.02 106.05 322.65 105.15 324.4 102.3 324.9 98.9 323.93 97.81 322.44 96.79 321.99 95.42 320.88 94.77 320.33 93.8 329.96 93.8 339.8 93.83 347.06 93.94 347.06 93.91"></polygon>
            <polygon class="state" id="US-IN" points="375.35 104.28 375.32 115.58 375.25 127.57 375.19 136 374.65 136.57 375.42 139.04 375.01 139.93 373.42 139.95 371.95 141.01 369.72 140.58 369.51 142.89 368.19 143.77 366.95 145.83 365.61 146.2 363.54 149.75 361.63 148.73 361.03 147.27 359.39 149.65 358.35 150.97 356.32 149.57 354.14 150.71 353.43 151.86 350.53 150.05 348.5 151.35 346.07 150.43 345.98 151.75 344.76 151.44 345.06 149.03 346.38 145.82 348.34 143.21 349.02 141.22 349.81 140.48 349.89 138.86 349.39 136.8 348.61 135.91 349.69 132.53 349.7 118.34 349.71 103.89 349.71 103.89 350.57 104.74 353.78 104.67 356.33 103.29 356.33 103.29 366.48 103.35 375.35 103.29"></polygon>
            <polygon class="state" id="US-KS" points="282.78 161.13 274.5 161.14 257.53 161.16 240.55 161.18 231.12 161.2 221.69 161.21 212.82 161.22 212.83 143.79 212.73 125.1 212.75 125.1 229.23 125.1 241.5 125.1 263.19 125.1 276.18 125.1 278.42 126.73 279.64 126.71 279.91 128.48 278.59 130.74 279.3 131.9 280.47 134.45 282.95 135.6 282.85 148.47"></polygon>
            <polygon class="state" id="US-KY" points="396.27 144.32 396.45 145.46 396.35 147.94 397.47 149.8 397.93 151.61 399.3 153.15 400.25 154.58 402.08 154.8 398.31 158.32 395.37 159.7 395.14 160.65 394.13 161.89 391.55 163.29 390.71 164.43 388.77 165.16 386.04 165.82 379.66 166.2 371.35 165.7 368.64 165.84 363.23 165.52 357.71 165.42 352.63 165.36 346.73 165.69 346.42 165.16 344.55 165.18 344.58 167.02 331.11 166.91 333.22 165.68 334.72 164.71 334.54 162.87 334.84 161.69 334.47 159.91 335.11 158.77 337.62 159.4 339.9 160.49 341.13 159.52 340.77 156.94 342.91 155.95 344.56 155.09 343.75 153.97 344.82 152.32 344.76 151.44 345.98 151.75 346.07 150.43 348.5 151.35 350.53 150.05 353.43 151.86 354.14 150.71 356.32 149.57 358.35 150.97 359.39 149.65 361.03 147.27 361.63 148.73 363.54 149.75 365.61 146.2 366.95 145.83 368.19 143.77 369.51 142.89 369.72 140.58 371.95 141.01 373.42 139.95 375.01 139.93 375.42 139.04 374.65 136.57 375.19 136 378.42 136.28 380.09 137.45 382.6 140.17 384.6 141.03 386.05 142 388.29 141.66 389.95 142.35 391.97 141.69 393.76 141.49 394.51 143.17"></polygon>
            <polygon class="state" id="US-LA" points="315.47 206.88 316.15 207.52 315.29 209.13 316.65 211.43 316.27 212.81 317.48 214.72 316.18 215.85 315.74 217.95 313.92 219.67 313.07 221.99 312.21 224.64 311.06 225.87 311.44 228.61 319.76 228.96 328.65 228.98 328.38 230.8 327.75 232.59 328.35 233.97 329.6 235.23 329.93 237.03 330.1 238.11 329.02 242.62 331.96 249.08 318.99 249.51 310.98 247.31 305.54 245.1 298.36 243.7 290.19 243.38 289.42 241.95 290.38 240.36 291.79 238.93 291.82 236.76 291.13 236.04 291.95 233.44 292.55 232.25 293.46 228.25 292.63 226.76 291.54 224.26 290.73 221.71 290.21 220 288.66 218.75 288.09 206.86 297.2 206.87 307.5 206.5"></polygon>
            <polygon class="state" id="US-MA" points="507.31 89.2 507.22 95.97 510.33 102.68 514.24 102.99 513.25 98.38 516.08 101.19 515.33 104.79 508.96 106.82 504.43 106.58 504.17 104.66 502.69 103.21 501.99 99.91 498.01 100.05 489.23 99.76 482.01 99.52 484.04 90.76 491.82 90.97 503.22 91.08 504.19 89.82 506.19 88.95"></polygon>
            <polygon class="state" id="US-MD" points="460.41 128.5 461.1 143.92 467.39 143.92 467.92 145.01 464.28 149.11 462.09 149.29 461.35 150.1 456.55 144.39 456.15 135.35 454.59 139.6 454.72 149.98 449.08 146.43 448.53 144.74 446.99 145.26 445.74 144.61 446.81 141.93 448.42 140.8 448.59 139.83 449.81 138.75 448.62 137.5 447.85 138.08 446.1 136.74 444.1 136.01 444.8 134.7 443.55 133.79 442.16 133.38 441.42 131.83 440.27 130.09 437.36 129.12 435.54 130.05 434.51 130.95 431.73 130.46 430.46 131.73 428.6 132.22 426.98 133.62 425.53 134.7 425.61 128.53 434.36 128.54 437.35 128.52 444.04 128.47 452.11 128.53"></polygon>
            <polygon class="state" id="US-ME" points="508.91 86.31 507.91 86.44 507.47 84.64 505.74 82.73 506.09 81.45 504.88 57.52 508.77 55.19 512.12 49.07 515 38.48 522.19 28.07 525.33 31.71 531.65 29.36 535.84 33.35 535.83 51.94 542 59.5 542.13 65.15 532.95 69.34 523.79 72.43 513.09 80.27"></polygon>
            <path d="M377.84,40.6 L380.99,41.02 L379.79,42.37 L384.48,47.78 L376.17,49 L375.85,48.94 L368.43,47.51 L361.07,50.21 L354.66,51.42 L349.12,59.95 L348.88,59.86 L348.87,59.88 L347.61,58.31 L348.31,56.16 L346.23,56.04 L346.66,53.86 L347.23,52.78 L346.4,50.89 L344.17,50.03 L343.65,47.81 L341.81,47.64 L339.14,47.62 L333.7,45.18 L325.45,42.75 L324.69,40.29 L323.21,39.84 L323.2,39.8 L322.62,40.08 L322.54,40.01 L322.62,40.08 L329.9,36.59 L337.47,32.12 L345.79,27.53 L342.76,34.83 L348.11,36.58 L354.75,41.8 L363.12,38.76 L372.39,37.56 L374.37,41.39 L377.25,41.94 L377.84,40.6 Z M398.01,87.56 L397.77,87.73 L393.33,94.76 L391.26,99.21 L388.03,104.08 L384.47,104.19 L380.18,104.19 L375.35,104.28 L375.34,103.29 L366.47,103.35 L356.32,103.29 L358.23,101.55 L362.06,95.38 L362.32,86.94 L359.19,78.95 L359.66,73.42 L362.12,66.97 L364.47,62.53 L368.24,59.35 L369.12,63.81 L370.79,57.24 L372.87,55.88 L374.19,50.77 L382.21,53.46 L389.19,58.68 L389.96,64.72 L389.1,70.73 L383.91,75.96 L384.39,79.24 L386.26,79.35 L392.11,73.62 L395.6,74.93 L397.3,82.47 L397.77,87.75 L398.01,87.56 Z"  class="state" id="US-MI"></path>
            <polygon class="state" id="US-MN" points="330.15 20.2 330.15 20.21 320.53 24.83 313.83 30.39 307.43 36.21 307.4 38.23 304.92 38.99 305.02 46.63 304.72 46.62 302.39 48.12 300.38 49.41 299.03 51.89 301.01 54.41 300.3 57.78 300.29 61.38 300 64.3 302.75 66.84 303.88 66.96 306.93 68.84 307.99 69.73 308.65 71.14 311.03 73.39 314.21 75.33 314.52 76.41 314.54 79.54 314.79 81 302.42 80.76 288.64 80.84 275.83 81.01 265.52 80.99 265.65 68.8 264.5 56.09 262.85 55.05 261.92 52.98 262.43 51.15 264.54 49.65 264.7 47.68 264.71 45.22 264.12 43.15 263.33 40.94 262.87 38.16 262.76 35.03 262.44 34.28 262.05 30.22 262.01 28.36 261.83 26.7 261.36 23.87 260.22 20.99 259.12 18.42 258.96 15.85 258.84 13.08 259.16 11.27 259.22 9.61 258.34 7.55 258.2 6.14 277.72 6.16 277.75 0.63 280.94 0.55 282.61 8.44 285.55 10.86 292.14 11.73 301.76 14 310.91 18.38 318.55 16.54"></polygon>
            <polygon class="state" id="US-MO" points="312.89 120.58 312.06 123.64 312.91 127.31 314.47 129.82 316.27 131.89 318.44 133.52 319.31 134.08 320.1 136.38 320.25 138.4 321.33 138.91 323.11 138.13 324.9 140.07 324.37 142.29 323.5 144.04 322.89 146.14 324.23 147.94 326.09 149.62 327.16 149.67 329.63 152.28 330.58 152.63 331.29 155.5 330.94 157.27 332.15 160.17 333.16 159.86 334.84 161.69 334.54 162.87 334.72 164.71 333.22 165.68 331.11 166.91 330.86 168.04 330.29 169.7 329.56 172.54 323.4 172.54 323.98 171.38 325.04 170.13 326.1 168.88 325.32 167.43 314.57 166.72 304.62 166.71 294.19 166.68 282.72 166.51 282.83 161.13 282.78 161.13 282.85 148.47 282.95 135.6 280.47 134.45 279.3 131.9 278.59 130.74 279.91 128.48 279.64 126.71 278.42 126.73 276.18 125.1 274.95 122.47 273.49 120.89 271.9 118.94 271.71 117.92 280.18 117.93 288.63 117.91 299.48 117.82 309.79 117.55 311.59 119.55"></polygon>
            <polygon class="state" id="US-MS" points="343.66 184.35 344.34 186.56 342.66 201.27 341 219.09 341.3 235.84 335.52 238.28 330.1 238.11 329.93 237.03 329.6 235.23 328.35 233.97 327.75 232.59 328.38 230.8 328.65 228.98 319.76 228.96 311.44 228.61 311.06 225.87 312.21 224.64 313.07 221.99 313.92 219.67 315.74 217.95 316.18 215.85 317.48 214.72 316.27 212.81 316.65 211.43 315.29 209.13 316.15 207.52 315.47 206.88 315.93 204.67 314.84 201.72 315.05 199.05 317.11 195.11 318.11 192.77 319.78 191.22 320.87 190.58 322.13 187.52 322.16 185.87 323.85 185.01 324.03 184.1 333.32 184.1"></polygon>
            <polygon class="state" id="US-MT" points="194.09 48.51 193.61 60.79 177.88 60.65 160.89 60.72 146.22 60.58 127.65 60.67 127.69 67.4 127.52 67.87 126.49 67.14 125.57 65.29 124.55 64.93 123.21 67.55 121.05 67.97 115.72 67.15 115.47 68.45 112.38 67.97 110.64 69.79 108.97 66.37 107.81 64.45 105.89 64.12 105.32 63.16 104.72 59.68 103.05 58.02 101.97 53.79 100.84 51.94 99.69 51.57 98.73 53.46 96.87 55.06 95.19 53.73 95.09 50.28 96.19 49.41 95.4 45.93 96.31 42.35 97.35 39.32 94.51 39.19 92.08 37.2 89.45 32.95 87.88 30.8 85.7 29.49 83.95 27.27 83.96 24.76 81.47 21.04 80.71 6.15 108.9 6.13 137.09 6.11 165.27 6.09 193.47 6.07 193.61 31.9"></polygon>
            <polygon class="state" id="US-NC" points="459.66 166.39 460.98 178.01 454.98 186.53 445.73 190.92 437.66 196.64 434.32 197.3 423.77 186.54 413.3 186.43 413.32 185.1 411.85 183.16 410.9 183.92 410.82 182.9 406.41 182.37 397.71 182.28 392.62 184.24 391.67 184.58 379.94 184.49 380.15 182.06 382.14 181.34 382.79 180.1 384.13 178.71 386.04 178.4 388.26 177.87 390.42 176.87 391.35 175.85 393.15 174.93 393.1 174.09 395.47 172.52 396.23 173.54 399.71 171.35 401.34 171.58 402.79 169.62 404.71 169.12 404.61 167.45 404.85 165.99 420.76 166.49 439.55 166.55 449.53 166.45"></polygon>
            <polygon class="state" id="US-ND" points="258.2 6.14 258.34 7.55 259.22 9.61 259.16 11.27 258.84 13.08 258.96 15.85 259.12 18.42 260.22 20.99 261.36 23.87 261.83 26.7 262.01 28.36 262.05 30.22 262.44 34.28 262.76 35.03 262.87 38.16 263.33 40.94 264.12 43.15 264.71 45.22 264.7 47.68 246.76 48.42 231.44 48.39 212.1 48.45 194.09 48.51 193.61 31.9 193.47 6.07 226.13 6.11"></polygon>
            <polygon class="state" id="US-NE" points="265.5 94.01 265.92 95.27 266.52 97.37 266.5 98.42 268.21 100.8 268.8 102.89 268.88 105.8 269.55 106.21 270.18 107.71 271.15 111.31 271.35 113.46 271.09 115.68 271.71 117.92 271.9 118.94 273.49 120.89 274.95 122.47 276.18 125.1 263.19 125.1 241.5 125.1 229.23 125.1 212.75 125.1 212.73 125.1 212.73 124.71 212.75 112.71 193.92 112.71 193.85 87.47 212.26 87.47 226.41 87.47 245.32 87.47 247.76 89.09 251.23 90.11 252.04 89.52 254.28 89.57 257.65 89.44 260.09 91.09 262.68 92.16 263.11 93.22 263.91 93.83"></polygon>
            <polygon class="state" id="US-NH" points="508.91 86.31 507.31 89.2 506.19 88.95 504.19 89.82 503.22 91.08 491.82 90.97 491.07 89.64 491.81 87.98 492.04 84.6 492.33 83.79 492.65 80.73 493.68 78.14 494.46 77.01 495.58 73.91 495.79 71.81 496.11 70.53 497.93 69.9 500.04 68.37 500.41 66.73 499.71 64.84 500.82 61.23 500.8 61.22 501.75 57.94 504.88 57.52 506.09 81.45 505.74 82.73 507.47 84.64 507.91 86.44"></polygon>
            <polygon class="state" id="US-NJ" points="478.1 113.25 474.85 119.29 477.22 119.82 475.59 128.67 468.73 138.02 468.02 134.91 465.95 134.28 463.69 131.1 462.86 131.24 462.62 128.89 464.02 127.62 465.95 126.5 466.63 125.73 468.86 124.11 470.08 122.77 467.11 119.58 466.94 118.27 465.92 117.89 465.96 115.9 467.07 114.38 466.56 112.76 468.07 111.67 469.72 108.87 470.87 108.32"></polygon>
            <polygon class="state" id="US-NM" points="203.74 161.18 203.76 166.99 203.76 197.09 203.76 218.13 195 218.13 178.03 218.13 169.54 218.13 169.64 219.07 170.69 220.84 154.46 220.84 154.34 225.38 146.77 225.4 146.76 161.13 161.52 161.13 176.42 161.16 192.45 161.17"></polygon>
            <polygon class="state" id="US-NV" points="99.71 100.3 99.74 161.2 99.81 170.6 99.4 170.99 98.78 172.76 97.49 172.3 95.69 171.48 93.7 171.48 93.06 172.91 93.9 174.5 93.89 176.99 94.09 179.22 94.55 181.48 93.97 183.73 78.14 169.06 61.23 153.52 43.44 137.34 43.45 100.31 71.47 100.25 71.47 100.21"></polygon>
            <polygon class="state" id="US-NY" points="484.04 90.76 482.01 99.52 481.48 109.14 482.22 110.21 480.17 111.42 480.51 112.94 493.86 111.27 496.66 113.63 483.45 117.35 477.44 117.38 478.1 113.25 470.87 108.32 469.35 107.43 467.74 106.56 467.13 104.74 467.38 103.35 466.26 102.21 464.21 100.23 451.4 100.21 437.66 100.21 422.95 100.21 422.95 96.78 431.06 89.18 430.88 87.95 430.88 87.92 429.59 84.2 434.5 82.57 441.92 83.05 449.64 84.12 456.71 79.85 456.15 74.78 455.08 72.75 455.05 72.73 455.05 72.73 455.08 72.75 464.84 63.77 469.1 61.33 483.43 61.24 483.23 63.93 482.86 65.63 483.08 69.54 483.6 71.54 482.65 74.25 483.52 77.66 482.92 79.55 483.09 80.04 484.44 80.14"></polygon>
            <polygon class="state" id="US-OH" points="415.79 117.21 414.49 117.84 414.88 119.41 414.45 122.24 413.47 125.44 412.56 128.08 412.4 129.34 409.83 132.12 408.75 132.71 407.47 133.05 406.33 132.78 404.23 134.87 403.85 137.05 403.55 138.23 402.71 138.71 402.59 137.36 401.32 137.07 399.99 139.69 399.84 142.35 398.61 144.02 396.27 144.32 394.51 143.17 393.76 141.49 391.97 141.69 389.95 142.35 388.29 141.66 386.05 142 384.6 141.03 382.6 140.17 380.09 137.45 378.42 136.28 375.19 136 375.25 127.57 375.32 115.58 375.35 104.28 380.18 104.18 384.47 104.18 388.03 104.07 388.03 104.07 388.03 104.07 393.84 106.67 398.55 107.31 405.38 105.65 410.96 102.16 415.81 100.46"></polygon>
            <polygon class="state" id="US-OK" points="282.72 166.51 284.59 178.79 284.4 189.93 284.13 199.85 280.07 197.64 277.42 196.43 275.28 197.2 271.96 197.08 270 197.1 268.39 198.02 266.81 198.49 265.43 197.94 262.28 198.54 260.85 196.66 259.38 198.29 256.81 197.56 254.16 195.8 251.33 196.94 250.09 194.21 245.7 194.48 242.89 193.87 239.73 193.06 238.33 190.7 235.85 191.46 234.31 190.54 232.06 189.31 232.06 178.36 232.06 166.99 222.63 166.99 213.19 166.99 203.76 166.99 203.74 161.18 212.82 161.22 221.69 161.21 231.12 161.2 240.55 161.18 257.53 161.16 274.5 161.14 282.78 161.13 282.83 161.13"></polygon>
            <polygon class="state" id="US-OR" points="72.54 47.92 74.77 50.52 76.35 51.62 76.85 53.66 75.9 55.4 74.63 58.85 73.28 63.14 71.25 65.76 69.92 68.75 69.9 70.86 71.67 71.74 72.43 73.45 71.61 77.16 71.47 100.21 71.47 100.25 43.45 100.31 3.7 100.22 0.67 93.1 3.53 79.3 4.19 64.52 5.87 44.28 7.83 44.1 10.71 44.16 13 45.4 15.74 46.17 17.49 48.76 17.74 51.02 18.44 52.91 20.62 53.42 22.93 53.38 26.58 51.96 28.72 51.53 32.09 52.11 33.57 52.81 35.55 52.33 37.7 51.25 41.95 51.42 45.45 49.94 47.29 48.84 49.7 49.43 53.08 48.02"></polygon>
            <polygon class="state" id="US-PA" points="470.87 108.32 469.72 108.87 468.07 111.67 466.56 112.76 467.07 114.38 465.96 115.9 465.92 117.89 466.94 118.27 467.11 119.58 470.08 122.77 468.86 124.11 466.63 125.73 465.95 126.5 464.02 127.62 461.99 126.98 461.14 127.53 460.41 128.5 452.11 128.53 444.04 128.47 437.35 128.52 434.36 128.54 425.61 128.53 415.79 128.53 415.79 117.21 415.81 100.46 415.82 100.46 422.93 96.8 422.95 96.78 422.95 100.21 437.66 100.21 451.4 100.21 464.21 100.23 466.26 102.21 467.38 103.35 467.13 104.74 467.74 106.56 469.35 107.43"></polygon>
            <polygon class="state" id="US-RI" points="504.43 106.58 497.51 108.76 498.09 106.93 498.01 100.05 501.99 99.91 502.69 103.21 504.17 104.66"></polygon>
            <polygon class="state" id="US-SC" points="434.32 197.3 430.62 205.21 422.39 212.12 412.53 217.75 410.91 217.18 410.05 216.77 410.06 214.66 409.14 212.58 407.38 211.36 407.7 210.54 407.14 209.3 406.47 206.75 403.46 204.49 402.36 201.81 400.12 199.98 399.47 198.57 396.19 195.89 395.07 193.88 393.31 190.29 391.67 189.59 389.13 187.7 390.64 185.53 391.67 184.58 392.62 184.24 397.71 182.28 406.41 182.37 410.82 182.9 410.9 183.92 411.85 183.16 413.32 185.1 413.3 186.43 423.77 186.54"></polygon>
            <polygon class="state" id="US-SD" points="265.52 80.99 264.26 81 264.25 84.15 265.46 85.87 265.23 87.26 264.74 89.32 263.98 91.42 265.51 92.84 265.5 94.01 263.91 93.83 263.11 93.22 262.68 92.16 260.09 91.09 257.65 89.44 254.28 89.57 252.04 89.52 251.23 90.11 247.76 89.09 245.32 87.47 226.41 87.47 212.26 87.47 193.85 87.47 193.61 60.79 194.09 48.51 212.1 48.45 231.44 48.39 246.76 48.42 264.7 47.68 264.54 49.65 262.43 51.15 261.92 52.98 262.85 55.05 264.5 56.09 265.65 68.8"></polygon>
            <polygon class="state" id="US-TN" points="386.04 165.82 400.07 166.22 404.85 165.99 404.61 167.45 404.71 169.12 402.79 169.62 401.34 171.58 399.71 171.35 396.23 173.54 395.47 172.52 393.1 174.09 393.15 174.93 391.35 175.85 390.42 176.87 388.26 177.87 386.04 178.4 384.13 178.71 382.79 180.1 382.14 181.34 380.15 182.06 379.94 184.49 374.91 184.61 367.63 184.5 355.52 184.35 343.66 184.35 333.32 184.1 324.03 184.1 325.1 183.03 324.99 179.69 326.48 178.17 326.85 176.26 328.5 175.14 329.46 173.5 329.56 172.54 330.29 169.7 330.86 168.04 331.11 166.91 344.58 167.02 344.55 165.18 346.42 165.16 346.73 165.69 352.63 165.36 357.71 165.42 363.23 165.52 368.64 165.84 371.35 165.7 379.66 166.2"></polygon>
            <polygon class="state" id="US-TX" points="284.13 199.85 284.62 200.59 286.45 200.44 288.63 200.48 288.09 206.86 288.66 218.75 290.21 220 290.73 221.71 291.54 224.26 292.63 226.76 293.46 228.25 292.55 232.25 291.95 233.44 291.13 236.04 291.82 236.76 291.79 238.93 290.38 240.36 289.42 241.95 290.19 243.38 282.14 245.64 273.56 253.6 264.19 258.21 259.04 263.28 256.87 268.04 256.78 275.31 257.25 280.34 259.04 283.89 255.36 284.21 248.66 281.91 241.31 278.67 238.67 273.74 236.59 266.35 231.03 260.31 227.77 254.05 223.04 246.71 216.39 242.41 208.68 242.62 202.73 251.12 194.91 247.9 190.03 244.65 187.69 238.7 184.56 233.02 178.95 228.21 174.13 224.74 170.69 220.84 169.64 219.07 169.54 218.13 178.03 218.13 195 218.13 203.76 218.13 203.76 197.09 203.76 166.99 213.19 166.99 222.63 166.99 232.06 166.99 232.06 178.36 232.06 189.31 234.31 190.54 235.85 191.46 238.33 190.7 239.73 193.06 242.89 193.87 245.7 194.48 250.09 194.21 251.33 196.94 254.16 195.8 256.81 197.56 259.38 198.29 260.85 196.66 262.28 198.54 265.43 197.94 266.81 198.49 268.39 198.02 270 197.1 271.96 197.08 275.28 197.2 277.42 196.43 280.07 197.64"></polygon>
            <polygon class="state" id="US-UT" points="146.68 112.73 146.76 161.13 133.08 161.04 114.95 161.02 99.74 161.2 99.71 100.3 127.85 100.19 127.81 112.41"></polygon>
            <path d="M456.94,159.1 L459.65,166.39 L449.53,166.45 L439.55,166.55 L420.76,166.49 L404.85,165.98 L400.07,166.21 L386.05,165.81 L388.77,165.15 L390.71,164.43 L391.55,163.29 L394.13,161.89 L395.13,160.65 L395.36,159.7 L398.3,158.32 L402.07,154.8 L402.49,156.81 L403.55,157.88 L404.98,158.83 L407.95,157.41 L409.08,158.24 L412.6,157.25 L412.8,156.19 L413.87,156.61 L415.04,155.75 L416.35,155.92 L417.85,155.01 L418.05,153.93 L417.9,152.54 L419.18,150.48 L421,148.92 L421.46,147.16 L423.08,145.03 L423.98,142.42 L425.23,143.35 L426.63,144.21 L427.98,143.75 L428.43,142.66 L429.36,141.17 L430.41,139.46 L431.09,139.96 L432.49,138.4 L434.34,136.82 L435.51,135.62 L436.25,132.39 L441.07,135.68 L442.13,133.4 L443.51,133.81 L444.76,134.72 L444.07,136.02 L446.06,136.75 L447.82,138.1 L448.6,139.13 L448.56,139.84 L448.39,140.81 L446.78,141.94 L445.71,144.61 L446.96,145.26 L448.49,144.74 L449.04,146.42 L454.98,153.09 L456.8,158.75 L456.94,159.1 Z M464.28,149.11 L462.09,149.29 L461.35,150.1 L458.12,158.1 L458.98,158.57 L464.28,149.11 Z" class="state" id="US-VA"></path>
            <polygon class="state" id="US-VT" points="491.82 90.97 484.04 90.76 484.44 80.14 483.09 80.04 482.92 79.55 483.52 77.66 482.65 74.25 483.6 71.54 483.08 69.54 482.86 65.63 483.23 63.93 483.43 61.24 500.8 61.22 500.82 61.23 499.71 64.84 500.41 66.73 500.04 68.37 497.93 69.9 496.11 70.53 495.79 71.81 495.58 73.91 494.46 77.01 493.68 78.14 492.65 80.73 492.33 83.79 492.04 84.6 491.81 87.98 491.07 89.64"></polygon>
            <polygon class="state" id="US-WA" points="71.44 6.17 71.49 24.23 71.76 43.44 72.62 45.51 72.54 47.92 53.08 48.02 49.7 49.43 47.29 48.84 45.45 49.94 41.95 51.42 37.7 51.25 35.55 52.33 33.57 52.81 32.09 52.11 28.72 51.53 26.58 51.96 22.93 53.38 20.62 53.42 18.44 52.91 17.74 51.02 17.49 48.76 15.74 46.17 13 45.4 10.71 44.16 7.83 44.1 5.87 44.28 3.29 32.9 1.73 19.49 14.87 22.04 19.05 32.94 21.38 29.29 19.87 17.81 15.4 6.08 43.42 6.14"></polygon>
            <polygon class="state" id="US-WI" points="322.55 40.01 322.63 40.08 323.22 39.8 323.23 39.84 324.71 40.29 325.47 42.75 333.72 45.18 339.16 47.62 341.83 47.64 343.66 47.82 344.18 50.04 346.41 50.9 347.25 52.78 346.67 53.86 346.24 56.04 348.32 56.16 347.62 58.31 348.88 59.88 348.89 59.86 349.13 59.96 349.04 60.09 345.35 64.87 346.63 66.43 353.56 57.88 354.98 57.83 350.08 68.04 347.95 77.17 346.16 84.5 347.34 90.79 347.09 93.91 347.06 93.91 347.06 93.94 339.8 93.83 329.96 93.8 320.33 93.8 319.41 91.85 316.33 90.62 315.73 88.59 315.34 87.44 315.31 84.74 316.16 83.76 314.93 81.71 314.79 81 314.54 79.54 314.52 76.41 314.21 75.33 311.03 73.39 308.65 71.14 307.99 69.73 306.93 68.84 303.88 66.96 302.75 66.84 300 64.3 300.29 61.38 300.3 57.78 301.01 54.41 299.03 51.89 300.38 49.41 302.39 48.12 304.72 46.62 305.02 46.63 304.92 38.99 307.4 38.23 307.4 38.23 316.85 35.37"></polygon>
            <polygon class="state" id="US-WV" points="425.61 128.53 425.53 134.7 426.98 133.62 428.6 132.22 430.46 131.73 431.73 130.46 434.51 130.95 435.54 130.05 437.36 129.12 440.27 130.09 441.42 131.83 442.16 133.38 441.11 135.66 436.29 132.37 435.55 135.6 434.37 136.81 432.53 138.38 431.13 139.94 430.45 139.44 429.4 141.15 428.47 142.64 428.01 143.73 426.66 144.2 425.26 143.34 424.01 142.41 423.1 145.02 421.49 147.15 421.02 148.91 419.2 150.47 417.92 152.52 418.08 153.92 417.87 155 416.38 155.92 415.06 155.75 413.9 156.61 412.83 156.19 412.62 157.25 409.11 158.24 407.97 157.41 405 158.83 403.57 157.88 402.5 156.81 402.08 154.8 400.25 154.58 399.3 153.15 397.93 151.61 397.47 149.8 396.35 147.94 396.45 145.46 396.27 144.32 398.61 144.02 399.84 142.35 399.99 139.69 401.32 137.07 402.59 137.36 402.71 138.71 403.55 138.23 403.85 137.05 404.23 134.87 406.33 132.78 407.47 133.05 408.75 132.71 409.83 132.12 412.4 129.34 412.56 128.08 413.47 125.44 414.45 122.24 414.88 119.41 414.49 117.84 415.79 117.21 415.79 128.53"></polygon>
            <polygon class="state" id="US-WY" points="193.61 60.79 193.85 87.47 193.92 112.71 184.47 112.71 165.58 112.73 156.14 112.73 146.68 112.73 127.81 112.41 127.85 100.19 127.86 68.11 127.52 67.87 127.69 67.4 127.65 60.67 146.22 60.58 160.89 60.72 177.88 60.65"></polygon>
        </g>
    </g>
</svg>