<svg width="38" height="38" viewBox="0 0 38 38" fill="none" xmlns="http://www.w3.org/2000/svg">
    <circle cx="18.5873" cy="19.413" r="15.2826" fill="#A5FFA5"/>
    <path d="M20.5837 11.0834H17.417V17.4167H11.0837V20.5834H17.417V26.9167H20.5837V20.5834H26.917V17.4167H20.5837V11.0834ZM19.0003 3.16675C10.2603 3.16675 3.16699 10.2601 3.16699 19.0001C3.16699 27.7401 10.2603 34.8334 19.0003 34.8334C27.7403 34.8334 34.8337 27.7401 34.8337 19.0001C34.8337 10.2601 27.7403 3.16675 19.0003 3.16675ZM19.0003 31.6667C12.0178 31.6667 6.33366 25.9826 6.33366 19.0001C6.33366 12.0176 12.0178 6.33341 19.0003 6.33341C25.9828 6.33341 31.667 12.0176 31.667 19.0001C31.667 25.9826 25.9828 31.6667 19.0003 31.6667Z"
          fill="#363636"/>
</svg>
