<svg width="33" height="33" viewBox="0 0 33 33" fill="none" xmlns="http://www.w3.org/2000/svg">
    <circle cx="16.5892" cy="16.4159" r="14.285" fill="#EEFF89" stroke="#363636" stroke-width="3"/>
    <g clip-path="url(#clip0)">
        <path d="M18.6667 17.069C20.6083 16.3515 22 14.409 22 12.1252C22 9.22899 19.7583 6.87524 17 6.87524C14.2417 6.87524 12 9.22899 12 12.1252C12 14.409 13.3917 16.3515 15.3333 17.069L15.3333 20.8752L12 20.8752L12 24.3752L15.3333 24.3752L15.3333 26.1252L18.6667 26.1252L18.6667 17.069ZM15.3333 12.1252C15.3333 11.1627 16.0833 10.3752 17 10.3752C17.9167 10.3752 18.6667 11.1627 18.6667 12.1252C18.6667 13.0877 17.9167 13.8752 17 13.8752C16.0833 13.8752 15.3333 13.0877 15.3333 12.1252Z"
              fill="#363636"/>
    </g>
    <defs>
        <clipPath id="clip0">
            <rect width="21" height="20" fill="white" transform="translate(27 6) rotate(90)"/>
        </clipPath>
    </defs>
</svg>
